<?xml version="1.0" encoding="utf-8"?>
<!-- Generator: Adobe Illustrator 21.1.0, SVG Export Plug-In . SVG Version: 6.00 Build 0)  -->
<svg version="1.1" id="Layer_1" xmlns="http://www.w3.org/2000/svg" xmlns:xlink="http://www.w3.org/1999/xlink" x="0px" y="0px"
	 viewBox="0 0 48 48" style="enable-background:new 0 0 48 48;" xml:space="preserve">
<style type="text/css">
	.st0{fill:#FFFFFF;}
</style>
<path class="st0" d="M24,47c0,0-18-9.4-18-28C6,9.1,14.1,1,24,1s18,8.1,18,18C42,37.6,24,47,24,47z M24,3C15.2,3,8,10.2,8,19
	c0,14.8,12.5,23.5,16,25.7c3.5-2.2,16-10.9,16-25.7C40,10.2,32.8,3,24,3z M24,28c-5,0-9-4-9-9s4-9,9-9s9,4,9,9S29,28,24,28z M24,12
	c-3.9,0-7,3.1-7,7s3.1,7,7,7s7-3.1,7-7S27.9,12,24,12z"/>
</svg>
