<?xml version="1.0" encoding="utf-8"?>
<!-- Generator: Adobe Illustrator 21.1.0, SVG Export Plug-In . SVG Version: 6.00 Build 0)  -->
<svg version="1.1" id="Layer_1" xmlns="http://www.w3.org/2000/svg" xmlns:xlink="http://www.w3.org/1999/xlink" x="0px" y="0px"
	 viewBox="0 0 48 48" style="enable-background:new 0 0 48 48;" xml:space="preserve">
<style type="text/css">
	.st0{fill:#FFFFFF;}
</style>
<path class="st0" d="M46.6,21.9l-9.2,19.8c-0.9,2-3.3,2.8-5.3,1.9l-5.4-2.5C26.3,41,26,40.6,26,40.2c0-0.6,0.4-1,1-1
	c0.2,0,0.3,0.1,0.5,0.1l0,0l5.5,2.6c1,0.5,2.2,0,2.6-1l9.2-19.8c0.5-1,0-2.2-1-2.6L37,15.2c0,0-1-0.4-1-1.1c0-0.6,0.4-1,1-1
	c0.2,0,0.3,0.1,0.5,0.1l7.3,3.4C46.7,17.5,47.6,19.9,46.6,21.9z M29,36H5c-2.2,0-4-1.8-4-4V8c0-2.2,1.8-4,4-4h24c2.2,0,4,1.8,4,4v24
	C33,34.2,31.2,36,29,36z M18,26v-1l1.2-0.5c0.6-0.5,2-1.8,2-1.8l0-0.2c0.3-1.5,0.7-4,0.7-4.8c0-3.2-1.5-4.7-5-4.7s-5,1.4-5,4.7
	c0,0.9,0.5,3.4,0.7,4.8l0,0.2c0.3,0.3,1.2,1.2,2.1,1.8L16,25v1c0-0.1,0,2,0,2c0,1.6-1.1,2.1-2.6,2.1c0,0,0,0,0,0
	c-3.4,0.1-3.9,1.3-4,1.4C9.2,31.6,9.1,33.6,9,34h16c-0.1-0.4-0.2-2.4-0.3-2.5c0-0.1-0.5-1.2-4-1.4c-1.6,0-2.7-0.5-2.7-2.1
	C18,28,18,25.9,18,26z M31,8c0-1.1-0.9-2-2-2H5C3.9,6,3,6.9,3,8v24c0,1.1,0.9,2,2,2h1.8c0.3-0.6,0.5-3.1,0.9-3.7c0,0,0.6-2,5.5-2.2
	c0.5,0,0.8-0.3,0.8-0.8c0-0.4,0-0.7,0-0.7c0-0.1,0-0.2,0-0.3c-0.4-0.3-0.5-0.5-1.3-1.1c0,0-1.7-1.1-1.9-2.3c0,0-0.8-3.8-0.8-5.2
	c0-3.4,1.5-6.7,7-6.7c5.4,0,7,3.2,7,6.7c0,1.4-0.8,5.2-0.8,5.2c-0.2,1.2-1.9,2.3-1.9,2.3c-0.7,0.6-1,0.9-1.4,1.1c0,0.1,0,0.2,0,0.2
	c0,0,0,0.3,0,0.7c0,0.5,0.3,0.8,0.8,0.8c5,0.2,5.6,2.2,5.6,2.2c0.4,0.5,0.5,3,0.9,3.7H29c1.1,0,2-0.9,2-2L31,8L31,8z"/>
</svg>
