<?xml version="1.0" encoding="utf-8"?>
<!-- Generator: Adobe Illustrator 21.1.0, SVG Export Plug-In . SVG Version: 6.00 Build 0)  -->
<svg version="1.1" id="Layer_1" xmlns="http://www.w3.org/2000/svg" xmlns:xlink="http://www.w3.org/1999/xlink" x="0px" y="0px"
	 viewBox="0 0 48 48" style="enable-background:new 0 0 48 48;" xml:space="preserve">
<style type="text/css">
	.st0{fill:#FFFFFF;}
</style>
<path class="st0" d="M43,42H5c-2.2,0-4-1.8-4-4V17c0-2.2,1.8-4,4-4h15V9c0-2.2,1.8-4,4-4s4,1.8,4,4v4h15c2.2,0,4,1.8,4,4v21
	C47,40.2,45.2,42,43,42z M17,34.5C17,34.5,17,34.5,17,34.5c0,0,0-0.8,0-0.8s1.2-0.6,2-1.4c0.5-0.4,0.7-1.4,0.7-1.4
	c0.1-0.8,0.2-2.9,0.2-3.7c0-2.1-1-4.3-4-4.3v0v0c-3,0-4,2.2-4,4.3c0,0.8,0.1,2.9,0.2,3.7c0,0,0.2,0.9,0.7,1.4c0.9,0.8,2,1.4,2,1.4
	s0,0.8,0,0.8c0,0,0,0,0,0c0,0,0,1.1,0,1.5c0,1.4-1.4,2-2.2,2c0,0,0,0,0,0c-2.6,0.1-3.2,1-3.2,1c-0.2,0.3-0.4,0.5-0.6,1h14
	c-0.2-0.5-0.4-0.8-0.6-1c0,0-0.6-0.9-3.2-1c0,0,0,0,0,0c-0.9,0-2.2-0.7-2.2-2C17,35.6,17,34.5,17,34.5z M26,9c0-1.1-0.9-2-2-2
	s-2,0.9-2,2v6c0,1.1,0.9,2,2,2s2-0.9,2-2V9z M45,17c0-1.1-0.9-2-2-2H28c0,2.2-1.8,4-4,4s-4-1.8-4-4H5c-1.1,0-2,0.9-2,2v21
	c0,1.1,0.9,2,2,2h1.8C7,39.4,7.5,38.5,8,37.8c0,0,0.8-1.7,5-1.8c0,0,0-1,0-1c-0.3-0.2-0.7-0.5-1.1-0.8c-0.3-0.2-1.2-1-1.5-2.6
	C10.4,31,10,28.4,10,27.4c0-3.2,1.3-6.4,6-6.4c0,0,0.1,0,0.1,0c4.7,0,6,3.2,6,6.4c0,1.1-0.4,3.6-0.5,4.2c-0.3,1.6-1.2,2.4-1.5,2.6
	c-0.3,0.3-0.7,0.6-1.1,0.8c0,0,0,1,0,1c4.2,0.1,5,1.8,5,1.8c0.5,0.7,0.9,1.7,1.2,2.2H43c1.1,0,2-0.9,2-2V17z M40,26H28
	c-0.6,0-1-0.4-1-1s0.4-1,1-1h12c0.6,0,1,0.4,1,1S40.6,26,40,26z M28,30h2c0.6,0,1,0.4,1,1s-0.4,1-1,1h-2c-0.6,0-1-0.4-1-1
	S27.4,30,28,30z M28,34h6c0.6,0,1,0.4,1,1s-0.4,1-1,1h-6c-0.6,0-1-0.4-1-1S27.4,34,28,34z M32,31c0-0.6,0.4-1,1-1h4c0.6,0,1,0.4,1,1
	s-0.4,1-1,1h-4C32.4,32,32,31.6,32,31z M23,9h2v2h-2V9z"/>
</svg>
