<?xml version="1.0" encoding="utf-8"?>
<!-- Generator: Adobe Illustrator 21.1.0, SVG Export Plug-In . SVG Version: 6.00 Build 0)  -->
<svg version="1.1" id="Layer_1" xmlns="http://www.w3.org/2000/svg" xmlns:xlink="http://www.w3.org/1999/xlink" x="0px" y="0px"
	 viewBox="0 0 48 48" style="enable-background:new 0 0 48 48;" xml:space="preserve">
<style type="text/css">
	.st0{fill:#FFFFFF;}
</style>
<path class="st0" d="M6,47V20c0-2.2,1.8-4,4-4l0,0v-4c0-1.1,0.9-2,2-2h2V2c0-0.6,0.4-1,1-1s1,0.4,1,1v8h2c1.1,0,2,0.9,2,2v4l0,0l0,0
	c2.2,0,4,1.8,4,4v8h7v-6h4v-3h6v3h1v25H6z M18,13c0-0.6-0.4-1-1-1h-4c-0.6,0-1,0.4-1,1v3h6V13z M22,20c0-1.1-0.9-2-2-2H10
	c-1.1,0-2,0.9-2,2v25h14V20z M31,30h-7v15h7V30z M40,24h-7v21h7V24z M36,27h1c0.6,0,1,0.4,1,1v1c0,0.6-0.4,1-1,1h-1
	c-0.6,0-1-0.4-1-1v-1C35,27.4,35.4,27,36,27z M36,33h1c0.6,0,1,0.4,1,1v1c0,0.6-0.4,1-1,1h-1c-0.6,0-1-0.4-1-1v-1
	C35,33.4,35.4,33,36,33z M36,39h1c0.6,0,1,0.4,1,1v1c0,0.6-0.4,1-1,1h-1c-0.6,0-1-0.4-1-1v-1C35,39.4,35.4,39,36,39z M27,33h1
	c0.6,0,1,0.4,1,1v1c0,0.6-0.4,1-1,1h-1c-0.6,0-1-0.4-1-1v-1C26,33.4,26.4,33,27,33z M27,39h1c0.6,0,1,0.4,1,1v1c0,0.6-0.4,1-1,1h-1
	c-0.6,0-1-0.4-1-1v-1C26,39.4,26.4,39,27,39z M18,42h-1c-0.6,0-1-0.4-1-1v-1c0-0.6,0.4-1,1-1h1c0.6,0,1,0.4,1,1v1
	C19,41.6,18.6,42,18,42z M18,36h-1c-0.6,0-1-0.4-1-1v-1c0-0.6,0.4-1,1-1h1c0.6,0,1,0.4,1,1v1C19,35.6,18.6,36,18,36z M18,30h-1
	c-0.6,0-1-0.4-1-1v-1c0-0.6,0.4-1,1-1h1c0.6,0,1,0.4,1,1v1C19,29.6,18.6,30,18,30z M18,24h-1c-0.6,0-1-0.4-1-1v-1c0-0.6,0.4-1,1-1h1
	c0.6,0,1,0.4,1,1v1C19,23.6,18.6,24,18,24z M13,42h-1c-0.6,0-1-0.4-1-1v-1c0-0.6,0.4-1,1-1h1c0.6,0,1,0.4,1,1v1
	C14,41.6,13.6,42,13,42z M13,36h-1c-0.6,0-1-0.4-1-1v-1c0-0.6,0.4-1,1-1h1c0.6,0,1,0.4,1,1v1C14,35.6,13.6,36,13,36z M13,30h-1
	c-0.6,0-1-0.4-1-1v-1c0-0.6,0.4-1,1-1h1c0.6,0,1,0.4,1,1v1C14,29.6,13.6,30,13,30z M13,24h-1c-0.6,0-1-0.4-1-1v-1c0-0.6,0.4-1,1-1h1
	c0.6,0,1,0.4,1,1v1C14,23.6,13.6,24,13,24z"/>
</svg>
