<?xml version="1.0" encoding="utf-8"?>
<!-- Generator: Adobe Illustrator 21.1.0, SVG Export Plug-In . SVG Version: 6.00 Build 0)  -->
<svg version="1.1" id="Layer_1" xmlns="http://www.w3.org/2000/svg" xmlns:xlink="http://www.w3.org/1999/xlink" x="0px" y="0px"
	 viewBox="0 0 48 48" style="enable-background:new 0 0 48 48;" xml:space="preserve">
<style type="text/css">
	.st0{fill:#FFFFFF;}
</style>
<path class="st0" d="M34,47H14c-2.8,0-5-2.2-5-5V24c0-2.8,2.2-5,5-5h4c0.6,0,1,0.4,1,1s-0.4,1-1,1h-4c-1.7,0-3,1.3-3,3v18
	c0,1.7,1.3,3,3,3h20c1.7,0,3-1.3,3-3V24c0-1.7-1.3-3-3-3h-4c-0.6,0-1-0.4-1-1s0.4-1,1-1h4c2.8,0,5,2.2,5,5v18C39,44.8,36.8,47,34,47
	z M31.3,10.7L25,4.4V30c0,0.6-0.4,1-1,1s-1-0.4-1-1V4.4l-6.3,6.3c-0.4,0.4-1,0.4-1.4,0c-0.4-0.4-0.4-1,0-1.4l7.9-7.9
	c0,0,0.1-0.1,0.1-0.1C23.5,1.1,23.7,1,24,1c0,0,0,0,0,0s0,0,0,0c0.3,0,0.5,0.1,0.7,0.3c0,0,0.1,0.1,0.1,0.1l7.9,7.9
	c0.4,0.4,0.4,1,0,1.4C32.3,11.1,31.7,11.1,31.3,10.7z"/>
</svg>
