<?xml version="1.0" encoding="utf-8"?>
<!-- Generator: Adobe Illustrator 21.1.0, SVG Export Plug-In . SVG Version: 6.00 Build 0)  -->
<svg version="1.1" id="Слой_1" xmlns="http://www.w3.org/2000/svg" xmlns:xlink="http://www.w3.org/1999/xlink" x="0px" y="0px"
	 viewBox="0 0 289 70" style="enable-background:new 0 0 289 70;" xml:space="preserve">
<style type="text/css">
	.st0{fill:none;stroke:#000000;stroke-linecap:round;stroke-miterlimit:5;}
	.st1{fill:none;stroke:#000000;stroke-width:3;stroke-linecap:square;stroke-miterlimit:5;}
</style>
<g>
	<path class="st0" d="M19.2,29.9h-4.6v17.1H4.7V4.4h9.9v16.7H18l9.4-16.7h12.3L26.4,23.7l14.4,23.3H28.7L19.2,29.9z"/>
	<path class="st0" d="M40.9,30.9c0-4.8,1.3-8.6,4-11.6c2.7-3,6.5-4.5,11.3-4.5c4.8,0,8.6,1.5,11.3,4.5c2.7,3,4,6.9,4,11.6v0.6
		c0,4.8-1.3,8.7-4,11.7s-6.4,4.5-11.3,4.5c-4.9,0-8.6-1.5-11.3-4.5s-4-6.9-4-11.7V30.9z M50.8,31.5c0,2.7,0.4,4.7,1.2,6.3
		c0.8,1.5,2.2,2.3,4.2,2.3c1.9,0,3.3-0.8,4.2-2.3c0.8-1.5,1.3-3.6,1.3-6.2v-0.6c0-2.6-0.4-4.6-1.3-6.2c-0.8-1.6-2.2-2.3-4.2-2.3
		c-2,0-3.3,0.8-4.2,2.3c-0.8,1.6-1.2,3.6-1.2,6.2V31.5z"/>
	<path class="st0" d="M104.1,47.1h-9.9V35.3h-8.6v11.7h-9.9V15.4h9.9v12.4h8.6V15.4h9.9V47.1z"/>
	<path class="st0" d="M137.2,23h-10v24.1h-9.9V23h-9.8v-7.6h29.8V23z"/>
	<path class="st0" d="M158.7,47c-0.3-0.5-0.5-1.1-0.7-1.7c-0.2-0.6-0.4-1.3-0.6-1.9c-0.9,1.3-2.1,2.3-3.4,3.1
		c-1.3,0.8-2.9,1.2-4.8,1.2c-3,0-5.5-0.9-7.3-2.6c-1.9-1.7-2.8-4.1-2.8-6.9c0-3.1,1.2-5.6,3.5-7.3c2.4-1.7,5.9-2.6,10.7-2.6h3.6V26
		c0-1.3-0.3-2.4-1-3.1c-0.6-0.7-1.6-1.1-2.9-1.1c-1.1,0-2,0.3-2.5,0.8c-0.6,0.5-0.8,1.4-0.8,2.5l-9.6,0l-0.1-0.2
		c-0.1-2.9,1.1-5.3,3.6-7.3c2.5-1.9,5.9-2.9,10.1-2.9c3.9,0,7.1,1,9.5,2.9c2.4,2,3.6,4.7,3.6,8.4v12c0,1.7,0.1,3.3,0.4,4.7
		c0.3,1.4,0.7,2.9,1.3,4.3L158.7,47z M152.2,40.6c1,0,1.9-0.2,2.7-0.6c0.8-0.4,1.5-0.9,2-1.5v-5h-3.5c-1.6,0-2.7,0.4-3.4,1.1
		c-0.7,0.8-1.1,1.7-1.1,2.9c0,0.9,0.3,1.6,0.9,2.2S151.2,40.6,152.2,40.6z"/>
	<path class="st0" d="M185.8,36h-3v11.1h-9.9V15.4h9.9v11.4h2.8l5-11.4h12.7L194.1,30h0l10.2,17.1h-13.4L185.8,36z"/>
	<path class="st0" d="M234.4,23h-10v24.1h-9.9V23h-9.8v-7.6h29.8V23z"/>
	<path class="st0" d="M248.7,24.1h5c4.5,0,8.1,1.1,10.7,3.2c2.6,2.1,3.9,4.9,3.9,8.5c0,3.4-1.3,6.1-3.9,8.2
		c-2.6,2.1-6.2,3.1-10.7,3.1h-14.9V15.4h9.9V24.1z M248.7,31.7v7.8h5c1.6,0,2.8-0.4,3.6-1.1c0.8-0.7,1.2-1.6,1.2-2.8
		c0-1.2-0.4-2.2-1.2-2.9c-0.8-0.7-2-1.1-3.6-1.1H248.7z M283,47.1H273V15.4h9.9V47.1z"/>
</g>
<line class="st1" x1="3.5" y1="63.5" x2="285.5" y2="63.5"/>
</svg>
