<?xml version="1.0" encoding="utf-8"?>
<!-- Generator: Adobe Illustrator 21.0.2, SVG Export Plug-In . SVG Version: 6.00 Build 0)  -->
<svg version="1.1" id="Слой_1" xmlns="http://www.w3.org/2000/svg" xmlns:xlink="http://www.w3.org/1999/xlink" x="0px" y="0px"
	 viewBox="0 0 513.2 93" style="enable-background:new 0 0 513.2 93;" xml:space="preserve">
<style type="text/css">
	.st0{clip-path:url(#SVGID_2_);}
	.st1{fill:none;stroke:#000000;stroke-width:3;stroke-miterlimit:10;}
	.st2{clip-path:url(#SVGID_2_);fill:none;}
	.st3{clip-path:url(#SVGID_2_);fill:none;stroke:#000000;stroke-width:20;stroke-miterlimit:10;}
</style>
<defs>
	<path id="SVGID_1_" d="M144.3,41.6h29v29.5h14.2V0h-14.2v30.6h-29V0h-14.3v71.1h14.3V41.6z M261.4,71.1l4.8-15.3h25l4.8,15.3h14.4
		L286.1,0h-14.6L247,71.1H261.4z M278.6,16.7h0.3l8.8,27.9h-17.9L278.6,16.7z M215.6,71.1h14.3V11H250V0h-54.4v11h20V71.1z
		 M331.3,41.4h7.9l19.1,29.7h17.4l-25.8-38L373.8,0h-17.4l-18.8,29.1h-6.2V0h-14.3v71.1h14.3V41.4z M56.7,0H39.3L20.5,29.1h-6.2V0H0
		v71.1h14.3V41.4h7.9l19.1,29.7h17.4l-25.8-38L56.7,0z M376.4,11h20v60.1h14.3V11h20.1V0h-54.4V11z M485.4,31.4
		c-4.8-4.3-11.3-6.4-19.5-6.4h-12.2V0h-14.3v71.1h26.5c8.1,0,14.6-2.1,19.5-6.4s7.3-9.9,7.3-16.7C492.6,41.2,490.2,35.7,485.4,31.4z
		 M475.1,56.6c-2.2,2.4-5.2,3.6-9.3,3.6h-12.2V36h12.2c4,0,7.1,1.1,9.3,3.4c2.2,2.3,3.2,5.1,3.2,8.4
		C478.4,51.3,477.3,54.2,475.1,56.6z M112.2,93h290.3v-3.6H112.2V93z M499,0v71.1h14.3V0H499z M118.9,29.2c0-8.7-2.8-15.9-8.3-21.6
		C105.1,1.8,97.9-1,89.1-1c-8.8,0-15.9,2.9-21.3,8.6c-5.5,5.7-8.2,12.9-8.2,21.6v12.8c0,8.7,2.7,15.9,8.2,21.6s12.6,8.5,21.3,8.5
		c8.8,0,16-2.8,21.5-8.5s8.3-12.9,8.3-21.6V29.2z M104.7,42c0,5.6-1.4,10.2-4.1,13.8s-6.5,5.3-11.4,5.3c-4.8,0-8.6-1.8-11.3-5.3
		c-2.7-3.6-4.1-8.2-4.1-13.8V29.1c0-5.6,1.3-10.1,4-13.7c2.7-3.5,6.4-5.3,11.3-5.3c4.9,0,8.7,1.8,11.4,5.3c2.8,3.6,4.2,8.1,4.2,13.6
		V42z"/>
</defs>
<clipPath id="SVGID_2_">
	<use xlink:href="#SVGID_1_"  style="overflow:visible;"/>
</clipPath>
<g class="st0">
	<path class="st1" d="M22.2,41.4h-7.9v29.7H0V0h14.3v29.1h6.2L39.3,0h17.4L32.8,33.1l25.8,38H41.3L22.2,41.4z"/>
	<path class="st1" d="M118.9,41.9c0,8.7-2.8,15.9-8.3,21.6c-5.5,5.7-12.7,8.5-21.5,8.5c-8.8,0-15.9-2.8-21.3-8.5
		c-5.5-5.7-8.2-12.9-8.2-21.6V29.2c0-8.7,2.7-15.9,8.2-21.6C73.3,1.8,80.4-1,89.1-1c8.8,0,16,2.9,21.5,8.6
		c5.5,5.7,8.3,12.9,8.3,21.6V41.9z M104.7,29.1c0-5.5-1.4-10.1-4.2-13.6c-2.8-3.6-6.6-5.3-11.4-5.3c-4.9,0-8.6,1.8-11.3,5.3
		c-2.7,3.5-4,8.1-4,13.7V42c0,5.6,1.4,10.2,4.1,13.8c2.7,3.6,6.5,5.3,11.3,5.3c4.9,0,8.7-1.8,11.4-5.3c2.7-3.6,4.1-8.2,4.1-13.8
		V29.1z"/>
	<path class="st1" d="M187.5,71.1h-14.2V41.6h-29v29.5h-14.3V0h14.3v30.6h29V0h14.2V71.1z"/>
	<path class="st1" d="M250,11h-20.1v60.1h-14.3V11h-20V0H250V11z"/>
	<path class="st1" d="M291.2,55.8h-25l-4.8,15.3H247L271.5,0h14.6l24.4,71.1H296L291.2,55.8z M269.8,44.6h17.9l-8.8-27.9h-0.3
		L269.8,44.6z"/>
	<path class="st1" d="M339.3,41.4h-7.9v29.7h-14.3V0h14.3v29.1h6.2L356.4,0h17.4l-23.9,33.1l25.8,38h-17.4L339.3,41.4z"/>
	<path class="st1" d="M430.8,11h-20.1v60.1h-14.3V11h-20V0h54.4V11z"/>
	<path class="st1" d="M453.7,25h12.2c8.2,0,14.7,2.1,19.5,6.4c4.8,4.3,7.2,9.8,7.2,16.6c0,6.8-2.4,12.4-7.3,16.7s-11.3,6.4-19.5,6.4
		h-26.5V0h14.3V25z M453.7,36v24.1h12.2c4,0,7.1-1.2,9.3-3.6c2.2-2.4,3.2-5.3,3.2-8.7c0-3.3-1.1-6.1-3.2-8.4
		c-2.2-2.3-5.2-3.4-9.3-3.4H453.7z M513.2,71.1H499V0h14.3V71.1z"/>
</g>
<rect x="112.2" y="89.4" class="st2" width="290.3" height="3.6"/>
<line class="st3" x1="10.4" y1="-12.5" x2="10.4" y2="78.5"/>
<line class="st3" x1="-2.1" y1="72.1" x2="53.4" y2="-6.5"/>
<line class="st3" x1="18.4" y1="18.5" x2="55.4" y2="78.5"/>
<path class="st3" d="M88.4,4c-13.5,0-23.8,16.8-24,31c-0.3,15.2,10.9,32.7,24.5,32.5c13.6-0.2,24.3-18.2,23.5-33.5
	C111.7,20.3,101.7,4,88.4,4z"/>
<line class="st3" x1="135.9" y1="78.5" x2="135.9" y2="-9.5"/>
<line class="st3" x1="123.9" y1="35.8" x2="195.6" y2="35.8"/>
<line class="st3" x1="178.9" y1="-9.5" x2="178.9" y2="78.5"/>
<line class="st3" x1="222.8" y1="76" x2="222.8" y2="9.5"/>
<line class="st3" x1="190.4" y1="4" x2="257.4" y2="4"/>
<line class="st3" x1="247" y1="76" x2="278.7" y2="-5.5"/>
<line class="st3" x1="272.9" y1="-7" x2="306.9" y2="76"/>
<line class="st3" x1="250" y1="48.5" x2="292.9" y2="48.5"/>
<line class="st3" x1="322.4" y1="78.5" x2="322.4" y2="-7"/>
<line class="st3" x1="310.4" y1="34.5" x2="338.4" y2="34.5"/>
<line class="st3" x1="310.4" y1="76" x2="368.4" y2="-7"/>
<line class="st3" x1="306.9" y1="-1" x2="376.4" y2="82"/>
<line class="st3" x1="403.6" y1="78.5" x2="403.6" y2="9.5"/>
<line class="st3" x1="375.7" y1="4" x2="435.9" y2="4"/>
<line class="st3" x1="444.9" y1="-9.5" x2="444.9" y2="71.1"/>
<path class="st3" d="M454.4,29c19.3,1.9,32.9,10.7,33,18c0.1,7.7-14.7,18.2-37.5,19"/>
<line class="st3" x1="507.9" y1="-9.5" x2="503.9" y2="76"/>
<line class="st3" x1="91.9" y1="93" x2="456.9" y2="93"/>
</svg>
