<?xml version="1.0" encoding="utf-8"?>
<!-- Generator: Adobe Illustrator 21.1.0, SVG Export Plug-In . SVG Version: 6.00 Build 0)  -->
<svg version="1.1" id="Слой_1" xmlns="http://www.w3.org/2000/svg" xmlns:xlink="http://www.w3.org/1999/xlink" x="0px" y="0px"
	 viewBox="0 0 406.3 115" style="enable-background:new 0 0 406.3 115;" xml:space="preserve">
<style type="text/css">
	.st0{clip-path:url(#SVGID_2_);}
	.st1{fill:none;stroke:#000000;stroke-width:3;stroke-miterlimit:10;}
	.st2{clip-path:url(#SVGID_4_);stroke:#000000;stroke-width:3;stroke-miterlimit:10;}
	.st3{clip-path:url(#SVGID_6_);fill:none;stroke:#000000;stroke-width:14;stroke-miterlimit:10;}
	.st4{clip-path:url(#SVGID_8_);fill:none;stroke:#000000;stroke-width:14;stroke-miterlimit:10;}
	.st5{clip-path:url(#SVGID_10_);fill:none;stroke:#000000;stroke-width:14;stroke-miterlimit:10;}
	.st6{clip-path:url(#SVGID_12_);fill:none;stroke:#000000;stroke-width:14;stroke-miterlimit:10;}
	.st7{clip-path:url(#SVGID_14_);fill:none;stroke:#000000;stroke-width:14;stroke-miterlimit:10;}
	.st8{clip-path:url(#SVGID_16_);fill:none;stroke:#000000;stroke-width:14;stroke-miterlimit:10;}
	.st9{clip-path:url(#SVGID_18_);fill:none;stroke:#000000;stroke-width:14;stroke-miterlimit:10;}
	.st10{clip-path:url(#SVGID_20_);fill:none;stroke:#000000;stroke-width:14;stroke-miterlimit:10;}
	.st11{clip-path:url(#SVGID_22_);fill:none;stroke:#000000;stroke-width:14;stroke-miterlimit:10;}
	.st12{clip-path:url(#SVGID_24_);fill:none;stroke:#000000;stroke-width:14;stroke-miterlimit:10;}
	.st13{clip-path:url(#SVGID_26_);fill:none;stroke:#000000;stroke-width:14;stroke-miterlimit:10;}
	.st14{clip-path:url(#SVGID_28_);fill:none;stroke:#000000;stroke-width:14;stroke-miterlimit:10;}
	.st15{clip-path:url(#SVGID_30_);fill:none;stroke:#000000;stroke-width:14;stroke-miterlimit:10;}
	.st16{clip-path:url(#SVGID_32_);fill:none;stroke:#000000;stroke-width:14;stroke-miterlimit:10;}
	.st17{clip-path:url(#SVGID_34_);fill:none;stroke:#000000;stroke-width:14;stroke-miterlimit:10;}
	.st18{clip-path:url(#SVGID_36_);fill:none;stroke:#000000;stroke-width:14;stroke-miterlimit:10;}
</style>
<g>
	<defs>
		<path id="SVGID_1_" d="M58.5,114.4h294.3V111H58.5V114.4z M137.5,11.3c3.1,2.6,7.2,3.9,12.4,3.9c5.1,0,9.2-1.3,12.3-3.9
			c3-2.6,4.5-6,4.3-10.1l-0.1-0.3H156c0,1.7-0.5,3.1-1.5,4.2s-2.5,1.7-4.6,1.7s-3.7-0.6-4.7-1.7s-1.5-2.5-1.5-4.2h-10.4l-0.1,0.3
			C133,5.3,134.4,8.7,137.5,11.3z M219.1,94.5c8.8,0,16-2.8,21.5-8.5s8.3-12.9,8.3-21.6V51.6c0-8.7-2.8-15.9-8.3-21.6
			s-12.7-8.6-21.5-8.6s-15.9,2.9-21.3,8.6c-5.5,5.7-8.2,12.9-8.2,21.6v12.8c0,8.7,2.7,15.9,8.2,21.6
			C203.2,91.7,210.3,94.5,219.1,94.5z M203.7,51.5c0-5.6,1.3-10.1,4-13.7c2.7-3.5,6.4-5.3,11.3-5.3c4.9,0,8.7,1.8,11.4,5.3
			c2.8,3.6,4.2,8.1,4.2,13.6v12.9c0,5.6-1.4,10.2-4.1,13.8c-2.7,3.6-6.5,5.3-11.4,5.3c-4.8,0-8.6-1.8-11.3-5.3
			c-2.7-3.6-4.1-8.2-4.1-13.8L203.7,51.5L203.7,51.5z M274.2,64h29v29.5h14.2V22.4h-14.2V53h-29V22.4H260v71.1h14.3L274.2,64
			L274.2,64z M163.9,46h0.3v47.4h14.3v-71h-14.3l-28.7,47.4h-0.3V22.4H121v71.1h14.2L163.9,46z M70.7,78.2h25l4.8,15.3h14.4
			L90.5,22.4H75.9L51.4,93.5h14.4L70.7,78.2z M83.1,39.1h0.3L92.2,67h-18L83.1,39.1z M377.4,53.8c-4.8-4.3-11.3-6.4-19.5-6.4h-12.2
			v-25h-14.3v71.1h26.5c8.1,0,14.6-2.1,19.5-6.4s7.3-9.9,7.3-16.7C384.6,63.6,382.2,58.1,377.4,53.8z M367.1,79
			c-2.2,2.4-5.2,3.6-9.3,3.6h-12.2V58.4h12.2c4,0,7.1,1.1,9.3,3.4c2.2,2.3,3.2,5.1,3.2,8.4C370.4,73.7,369.3,76.6,367.1,79z
			 M48.2,28.7c-4.7-4.2-11.1-6.3-19.3-6.3H0.6v71.1h14.3V67.7H29c8.2,0,14.6-2.1,19.3-6.2c4.7-4.1,7-9.6,7-16.4
			C55.2,38.3,52.9,32.8,48.2,28.7z M37.9,53.5c-2.1,2.2-5.1,3.2-9,3.2h-14V33.4H29c4,0,7,1.1,9.1,3.3c2,2.2,3.1,5.1,3.1,8.5
			C41,48.6,40,51.3,37.9,53.5z M391,22.4v71.1h14.3V22.4H391z"/>
	</defs>
	<clipPath id="SVGID_2_">
		<use xlink:href="#SVGID_1_"  style="overflow:visible;"/>
	</clipPath>
	<g class="st0">
		<path class="st1" d="M14.9,67.7v25.8H0.6V22.4h28.3c8.2,0,14.6,2.1,19.3,6.3s7,9.7,7,16.5s-2.3,12.3-7,16.4s-11.1,6.2-19.3,6.2
			L14.9,67.7L14.9,67.7z M14.9,56.7H29c4,0,7-1.1,9-3.2c2.1-2.2,3.1-4.9,3.1-8.3c0-3.4-1-6.2-3.1-8.5c-2-2.2-5.1-3.3-9.1-3.3h-14
			V56.7z"/>
		<path class="st1" d="M95.7,78.2h-25l-4.8,15.3H51.5L76,22.4h14.6L115,93.5h-14.4L95.7,78.2z M74.2,67h17.9l-8.8-27.9H83L74.2,67z"
			/>
		<path class="st1" d="M164.2,22.4h14.3v71.1h-14.3V46.1h-0.3l-28.7,47.5H121V22.4h14.2v47.4h0.3L164.2,22.4z M166.4,0.9l0.1,0.3
			c0.2,4.1-1.3,7.5-4.3,10.1s-7.1,3.9-12.3,3.9s-9.3-1.3-12.4-3.9c-3.1-2.6-4.5-6-4.3-10.1l0.1-0.3h10.4c0,1.7,0.5,3.1,1.5,4.2
			s2.5,1.7,4.7,1.7c2.1,0,3.6-0.6,4.6-1.7s1.5-2.5,1.5-4.2C156,0.9,166.4,0.9,166.4,0.9z"/>
		<path class="st1" d="M248.8,64.3c0,8.7-2.8,15.9-8.3,21.6s-12.7,8.5-21.5,8.5s-15.9-2.8-21.3-8.5c-5.5-5.7-8.2-12.9-8.2-21.6V51.6
			c0-8.7,2.7-15.9,8.2-21.6s12.6-8.6,21.3-8.6c8.8,0,16,2.9,21.5,8.6s8.3,12.9,8.3,21.6V64.3z M234.6,51.5c0-5.5-1.4-10.1-4.2-13.6
			c-2.8-3.6-6.6-5.3-11.4-5.3c-4.9,0-8.6,1.8-11.3,5.3s-4,8.1-4,13.7v12.9c0,5.6,1.4,10.2,4.1,13.8c2.7,3.6,6.5,5.3,11.3,5.3
			c4.9,0,8.7-1.8,11.4-5.3c2.7-3.6,4.1-8.2,4.1-13.8L234.6,51.5L234.6,51.5z"/>
		<path class="st1" d="M317.4,93.5h-14.2V64h-29v29.5H260V22.4h14.3V53h29V22.4h14.2v71.1H317.4z"/>
		<path class="st1" d="M345.7,47.4h12.2c8.2,0,14.7,2.1,19.5,6.4s7.2,9.8,7.2,16.6c0,6.8-2.4,12.4-7.3,16.7s-11.3,6.4-19.5,6.4
			h-26.5V22.4h14.3L345.7,47.4L345.7,47.4z M345.7,58.4v24.1h12.2c4,0,7.1-1.2,9.3-3.6c2.2-2.4,3.2-5.3,3.2-8.7
			c0-3.3-1.1-6.1-3.2-8.4c-2.2-2.3-5.2-3.4-9.3-3.4H345.7z M405.2,93.5H391V22.4h14.3L405.2,93.5L405.2,93.5z"/>
	</g>
</g>
<g>
	<defs>
		<path id="SVGID_3_" d="M58.5,114.4h294.3V111H58.5V114.4z M137.5,11.3c3.1,2.6,7.2,3.9,12.4,3.9c5.1,0,9.2-1.3,12.3-3.9
			c3-2.6,4.5-6,4.3-10.1l-0.1-0.3H156c0,1.7-0.5,3.1-1.5,4.2s-2.5,1.7-4.6,1.7s-3.7-0.6-4.7-1.7s-1.5-2.5-1.5-4.2h-10.4l-0.1,0.3
			C133,5.3,134.4,8.7,137.5,11.3z M219.1,94.5c8.8,0,16-2.8,21.5-8.5s8.3-12.9,8.3-21.6V51.6c0-8.7-2.8-15.9-8.3-21.6
			s-12.7-8.6-21.5-8.6s-15.9,2.9-21.3,8.6c-5.5,5.7-8.2,12.9-8.2,21.6v12.8c0,8.7,2.7,15.9,8.2,21.6
			C203.2,91.7,210.3,94.5,219.1,94.5z M203.7,51.5c0-5.6,1.3-10.1,4-13.7c2.7-3.5,6.4-5.3,11.3-5.3c4.9,0,8.7,1.8,11.4,5.3
			c2.8,3.6,4.2,8.1,4.2,13.6v12.9c0,5.6-1.4,10.2-4.1,13.8c-2.7,3.6-6.5,5.3-11.4,5.3c-4.8,0-8.6-1.8-11.3-5.3
			c-2.7-3.6-4.1-8.2-4.1-13.8L203.7,51.5L203.7,51.5z M274.2,64h29v29.5h14.2V22.4h-14.2V53h-29V22.4H260v71.1h14.3L274.2,64
			L274.2,64z M163.9,46h0.3v47.4h14.3v-71h-14.3l-28.7,47.4h-0.3V22.4H121v71.1h14.2L163.9,46z M70.7,78.2h25l4.8,15.3h14.4
			L90.5,22.4H75.9L51.4,93.5h14.4L70.7,78.2z M83.1,39.1h0.3L92.2,67h-18L83.1,39.1z M377.4,53.8c-4.8-4.3-11.3-6.4-19.5-6.4h-12.2
			v-25h-14.3v71.1h26.5c8.1,0,14.6-2.1,19.5-6.4s7.3-9.9,7.3-16.7C384.6,63.6,382.2,58.1,377.4,53.8z M367.1,79
			c-2.2,2.4-5.2,3.6-9.3,3.6h-12.2V58.4h12.2c4,0,7.1,1.1,9.3,3.4c2.2,2.3,3.2,5.1,3.2,8.4C370.4,73.7,369.3,76.6,367.1,79z
			 M48.2,28.7c-4.7-4.2-11.1-6.3-19.3-6.3H0.6v71.1h14.3V67.7H29c8.2,0,14.6-2.1,19.3-6.2c4.7-4.1,7-9.6,7-16.4
			C55.2,38.3,52.9,32.8,48.2,28.7z M37.9,53.5c-2.1,2.2-5.1,3.2-9,3.2h-14V33.4H29c4,0,7,1.1,9.1,3.3c2,2.2,3.1,5.1,3.1,8.5
			C41,48.6,40,51.3,37.9,53.5z M391,22.4v71.1h14.3V22.4H391z"/>
	</defs>
	<clipPath id="SVGID_4_">
		<use xlink:href="#SVGID_3_"  style="overflow:visible;"/>
	</clipPath>
	<rect x="58.5" y="111" class="st2" width="294.3" height="3.4"/>
</g>
<g>
	<defs>
		<path id="SVGID_5_" d="M58.5,114.4h294.3V111H58.5V114.4z M137.5,11.3c3.1,2.6,7.2,3.9,12.4,3.9c5.1,0,9.2-1.3,12.3-3.9
			c3-2.6,4.5-6,4.3-10.1l-0.1-0.3H156c0,1.7-0.5,3.1-1.5,4.2s-2.5,1.7-4.6,1.7s-3.7-0.6-4.7-1.7s-1.5-2.5-1.5-4.2h-10.4l-0.1,0.3
			C133,5.3,134.4,8.7,137.5,11.3z M219.1,94.5c8.8,0,16-2.8,21.5-8.5s8.3-12.9,8.3-21.6V51.6c0-8.7-2.8-15.9-8.3-21.6
			s-12.7-8.6-21.5-8.6s-15.9,2.9-21.3,8.6c-5.5,5.7-8.2,12.9-8.2,21.6v12.8c0,8.7,2.7,15.9,8.2,21.6
			C203.2,91.7,210.3,94.5,219.1,94.5z M203.7,51.5c0-5.6,1.3-10.1,4-13.7c2.7-3.5,6.4-5.3,11.3-5.3c4.9,0,8.7,1.8,11.4,5.3
			c2.8,3.6,4.2,8.1,4.2,13.6v12.9c0,5.6-1.4,10.2-4.1,13.8c-2.7,3.6-6.5,5.3-11.4,5.3c-4.8,0-8.6-1.8-11.3-5.3
			c-2.7-3.6-4.1-8.2-4.1-13.8L203.7,51.5L203.7,51.5z M274.2,64h29v29.5h14.2V22.4h-14.2V53h-29V22.4H260v71.1h14.3L274.2,64
			L274.2,64z M163.9,46h0.3v47.4h14.3v-71h-14.3l-28.7,47.4h-0.3V22.4H121v71.1h14.2L163.9,46z M70.7,78.2h25l4.8,15.3h14.4
			L90.5,22.4H75.9L51.4,93.5h14.4L70.7,78.2z M83.1,39.1h0.3L92.2,67h-18L83.1,39.1z M377.4,53.8c-4.8-4.3-11.3-6.4-19.5-6.4h-12.2
			v-25h-14.3v71.1h26.5c8.1,0,14.6-2.1,19.5-6.4s7.3-9.9,7.3-16.7C384.6,63.6,382.2,58.1,377.4,53.8z M367.1,79
			c-2.2,2.4-5.2,3.6-9.3,3.6h-12.2V58.4h12.2c4,0,7.1,1.1,9.3,3.4c2.2,2.3,3.2,5.1,3.2,8.4C370.4,73.7,369.3,76.6,367.1,79z
			 M48.2,28.7c-4.7-4.2-11.1-6.3-19.3-6.3H0.6v71.1h14.3V67.7H29c8.2,0,14.6-2.1,19.3-6.2c4.7-4.1,7-9.6,7-16.4
			C55.2,38.3,52.9,32.8,48.2,28.7z M37.9,53.5c-2.1,2.2-5.1,3.2-9,3.2h-14V33.4H29c4,0,7,1.1,9.1,3.3c2,2.2,3.1,5.1,3.1,8.5
			C41,48.6,40,51.3,37.9,53.5z M391,22.4v71.1h14.3V22.4H391z"/>
	</defs>
	<clipPath id="SVGID_6_">
		<use xlink:href="#SVGID_5_"  style="overflow:visible;"/>
	</clipPath>
	<line class="st3" x1="7.5" y1="96.1" x2="7.5" y2="20.6"/>
</g>
<g>
	<defs>
		<path id="SVGID_7_" d="M58.5,114.4h294.3V111H58.5V114.4z M137.5,11.3c3.1,2.6,7.2,3.9,12.4,3.9c5.1,0,9.2-1.3,12.3-3.9
			c3-2.6,4.5-6,4.3-10.1l-0.1-0.3H156c0,1.7-0.5,3.1-1.5,4.2s-2.5,1.7-4.6,1.7s-3.7-0.6-4.7-1.7s-1.5-2.5-1.5-4.2h-10.4l-0.1,0.3
			C133,5.3,134.4,8.7,137.5,11.3z M219.1,94.5c8.8,0,16-2.8,21.5-8.5s8.3-12.9,8.3-21.6V51.6c0-8.7-2.8-15.9-8.3-21.6
			s-12.7-8.6-21.5-8.6s-15.9,2.9-21.3,8.6c-5.5,5.7-8.2,12.9-8.2,21.6v12.8c0,8.7,2.7,15.9,8.2,21.6
			C203.2,91.7,210.3,94.5,219.1,94.5z M203.7,51.5c0-5.6,1.3-10.1,4-13.7c2.7-3.5,6.4-5.3,11.3-5.3c4.9,0,8.7,1.8,11.4,5.3
			c2.8,3.6,4.2,8.1,4.2,13.6v12.9c0,5.6-1.4,10.2-4.1,13.8c-2.7,3.6-6.5,5.3-11.4,5.3c-4.8,0-8.6-1.8-11.3-5.3
			c-2.7-3.6-4.1-8.2-4.1-13.8L203.7,51.5L203.7,51.5z M274.2,64h29v29.5h14.2V22.4h-14.2V53h-29V22.4H260v71.1h14.3L274.2,64
			L274.2,64z M163.9,46h0.3v47.4h14.3v-71h-14.3l-28.7,47.4h-0.3V22.4H121v71.1h14.2L163.9,46z M70.7,78.2h25l4.8,15.3h14.4
			L90.5,22.4H75.9L51.4,93.5h14.4L70.7,78.2z M83.1,39.1h0.3L92.2,67h-18L83.1,39.1z M377.4,53.8c-4.8-4.3-11.3-6.4-19.5-6.4h-12.2
			v-25h-14.3v71.1h26.5c8.1,0,14.6-2.1,19.5-6.4s7.3-9.9,7.3-16.7C384.6,63.6,382.2,58.1,377.4,53.8z M367.1,79
			c-2.2,2.4-5.2,3.6-9.3,3.6h-12.2V58.4h12.2c4,0,7.1,1.1,9.3,3.4c2.2,2.3,3.2,5.1,3.2,8.4C370.4,73.7,369.3,76.6,367.1,79z
			 M48.2,28.7c-4.7-4.2-11.1-6.3-19.3-6.3H0.6v71.1h14.3V67.7H29c8.2,0,14.6-2.1,19.3-6.2c4.7-4.1,7-9.6,7-16.4
			C55.2,38.3,52.9,32.8,48.2,28.7z M37.9,53.5c-2.1,2.2-5.1,3.2-9,3.2h-14V33.4H29c4,0,7,1.1,9.1,3.3c2,2.2,3.1,5.1,3.1,8.5
			C41,48.6,40,51.3,37.9,53.5z M391,22.4v71.1h14.3V22.4H391z"/>
	</defs>
	<clipPath id="SVGID_8_">
		<use xlink:href="#SVGID_7_"  style="overflow:visible;"/>
	</clipPath>
	<path class="st4" d="M-3.7,26.5c5.6-0.4,10.6-0.4,14.6-0.3c3.2,0.1,10.9,0.6,20.5,2.7c7.3,1.6,11,2.5,13.3,5.1
		c3.3,3.6,4.5,9.2,3.3,13.8c-2.1,7.8-10.5,11.1-15.5,13.1c-15.1,5.9-29.9,1.3-36.3-1.2"/>
</g>
<g>
	<defs>
		<path id="SVGID_9_" d="M58.5,114.4h294.3V111H58.5V114.4z M137.5,11.3c3.1,2.6,7.2,3.9,12.4,3.9c5.1,0,9.2-1.3,12.3-3.9
			c3-2.6,4.5-6,4.3-10.1l-0.1-0.3H156c0,1.7-0.5,3.1-1.5,4.2s-2.5,1.7-4.6,1.7s-3.7-0.6-4.7-1.7s-1.5-2.5-1.5-4.2h-10.4l-0.1,0.3
			C133,5.3,134.4,8.7,137.5,11.3z M219.1,94.5c8.8,0,16-2.8,21.5-8.5s8.3-12.9,8.3-21.6V51.6c0-8.7-2.8-15.9-8.3-21.6
			s-12.7-8.6-21.5-8.6s-15.9,2.9-21.3,8.6c-5.5,5.7-8.2,12.9-8.2,21.6v12.8c0,8.7,2.7,15.9,8.2,21.6
			C203.2,91.7,210.3,94.5,219.1,94.5z M203.7,51.5c0-5.6,1.3-10.1,4-13.7c2.7-3.5,6.4-5.3,11.3-5.3c4.9,0,8.7,1.8,11.4,5.3
			c2.8,3.6,4.2,8.1,4.2,13.6v12.9c0,5.6-1.4,10.2-4.1,13.8c-2.7,3.6-6.5,5.3-11.4,5.3c-4.8,0-8.6-1.8-11.3-5.3
			c-2.7-3.6-4.1-8.2-4.1-13.8L203.7,51.5L203.7,51.5z M274.2,64h29v29.5h14.2V22.4h-14.2V53h-29V22.4H260v71.1h14.3L274.2,64
			L274.2,64z M163.9,46h0.3v47.4h14.3v-71h-14.3l-28.7,47.4h-0.3V22.4H121v71.1h14.2L163.9,46z M70.7,78.2h25l4.8,15.3h14.4
			L90.5,22.4H75.9L51.4,93.5h14.4L70.7,78.2z M83.1,39.1h0.3L92.2,67h-18L83.1,39.1z M377.4,53.8c-4.8-4.3-11.3-6.4-19.5-6.4h-12.2
			v-25h-14.3v71.1h26.5c8.1,0,14.6-2.1,19.5-6.4s7.3-9.9,7.3-16.7C384.6,63.6,382.2,58.1,377.4,53.8z M367.1,79
			c-2.2,2.4-5.2,3.6-9.3,3.6h-12.2V58.4h12.2c4,0,7.1,1.1,9.3,3.4c2.2,2.3,3.2,5.1,3.2,8.4C370.4,73.7,369.3,76.6,367.1,79z
			 M48.2,28.7c-4.7-4.2-11.1-6.3-19.3-6.3H0.6v71.1h14.3V67.7H29c8.2,0,14.6-2.1,19.3-6.2c4.7-4.1,7-9.6,7-16.4
			C55.2,38.3,52.9,32.8,48.2,28.7z M37.9,53.5c-2.1,2.2-5.1,3.2-9,3.2h-14V33.4H29c4,0,7,1.1,9.1,3.3c2,2.2,3.1,5.1,3.1,8.5
			C41,48.6,40,51.3,37.9,53.5z M391,22.4v71.1h14.3V22.4H391z"/>
	</defs>
	<clipPath id="SVGID_10_">
		<use xlink:href="#SVGID_9_"  style="overflow:visible;"/>
	</clipPath>
	<line class="st5" x1="83.2" y1="18.9" x2="57.3" y2="95.5"/>
</g>
<g>
	<defs>
		<path id="SVGID_11_" d="M58.5,114.4h294.3V111H58.5V114.4z M137.5,11.3c3.1,2.6,7.2,3.9,12.4,3.9c5.1,0,9.2-1.3,12.3-3.9
			c3-2.6,4.5-6,4.3-10.1l-0.1-0.3H156c0,1.7-0.5,3.1-1.5,4.2s-2.5,1.7-4.6,1.7s-3.7-0.6-4.7-1.7s-1.5-2.5-1.5-4.2h-10.4l-0.1,0.3
			C133,5.3,134.4,8.7,137.5,11.3z M219.1,94.5c8.8,0,16-2.8,21.5-8.5s8.3-12.9,8.3-21.6V51.6c0-8.7-2.8-15.9-8.3-21.6
			s-12.7-8.6-21.5-8.6s-15.9,2.9-21.3,8.6c-5.5,5.7-8.2,12.9-8.2,21.6v12.8c0,8.7,2.7,15.9,8.2,21.6
			C203.2,91.7,210.3,94.5,219.1,94.5z M203.7,51.5c0-5.6,1.3-10.1,4-13.7c2.7-3.5,6.4-5.3,11.3-5.3c4.9,0,8.7,1.8,11.4,5.3
			c2.8,3.6,4.2,8.1,4.2,13.6v12.9c0,5.6-1.4,10.2-4.1,13.8c-2.7,3.6-6.5,5.3-11.4,5.3c-4.8,0-8.6-1.8-11.3-5.3
			c-2.7-3.6-4.1-8.2-4.1-13.8L203.7,51.5L203.7,51.5z M274.2,64h29v29.5h14.2V22.4h-14.2V53h-29V22.4H260v71.1h14.3L274.2,64
			L274.2,64z M163.9,46h0.3v47.4h14.3v-71h-14.3l-28.7,47.4h-0.3V22.4H121v71.1h14.2L163.9,46z M70.7,78.2h25l4.8,15.3h14.4
			L90.5,22.4H75.9L51.4,93.5h14.4L70.7,78.2z M83.1,39.1h0.3L92.2,67h-18L83.1,39.1z M377.4,53.8c-4.8-4.3-11.3-6.4-19.5-6.4h-12.2
			v-25h-14.3v71.1h26.5c8.1,0,14.6-2.1,19.5-6.4s7.3-9.9,7.3-16.7C384.6,63.6,382.2,58.1,377.4,53.8z M367.1,79
			c-2.2,2.4-5.2,3.6-9.3,3.6h-12.2V58.4h12.2c4,0,7.1,1.1,9.3,3.4c2.2,2.3,3.2,5.1,3.2,8.4C370.4,73.7,369.3,76.6,367.1,79z
			 M48.2,28.7c-4.7-4.2-11.1-6.3-19.3-6.3H0.6v71.1h14.3V67.7H29c8.2,0,14.6-2.1,19.3-6.2c4.7-4.1,7-9.6,7-16.4
			C55.2,38.3,52.9,32.8,48.2,28.7z M37.9,53.5c-2.1,2.2-5.1,3.2-9,3.2h-14V33.4H29c4,0,7,1.1,9.1,3.3c2,2.2,3.1,5.1,3.1,8.5
			C41,48.6,40,51.3,37.9,53.5z M391,22.4v71.1h14.3V22.4H391z"/>
	</defs>
	<clipPath id="SVGID_12_">
		<use xlink:href="#SVGID_11_"  style="overflow:visible;"/>
	</clipPath>
	<line class="st6" x1="83.2" y1="18.9" x2="108.6" y2="95.9"/>
</g>
<g>
	<defs>
		<path id="SVGID_13_" d="M58.5,114.4h294.3V111H58.5V114.4z M137.5,11.3c3.1,2.6,7.2,3.9,12.4,3.9c5.1,0,9.2-1.3,12.3-3.9
			c3-2.6,4.5-6,4.3-10.1l-0.1-0.3H156c0,1.7-0.5,3.1-1.5,4.2s-2.5,1.7-4.6,1.7s-3.7-0.6-4.7-1.7s-1.5-2.5-1.5-4.2h-10.4l-0.1,0.3
			C133,5.3,134.4,8.7,137.5,11.3z M219.1,94.5c8.8,0,16-2.8,21.5-8.5s8.3-12.9,8.3-21.6V51.6c0-8.7-2.8-15.9-8.3-21.6
			s-12.7-8.6-21.5-8.6s-15.9,2.9-21.3,8.6c-5.5,5.7-8.2,12.9-8.2,21.6v12.8c0,8.7,2.7,15.9,8.2,21.6
			C203.2,91.7,210.3,94.5,219.1,94.5z M203.7,51.5c0-5.6,1.3-10.1,4-13.7c2.7-3.5,6.4-5.3,11.3-5.3c4.9,0,8.7,1.8,11.4,5.3
			c2.8,3.6,4.2,8.1,4.2,13.6v12.9c0,5.6-1.4,10.2-4.1,13.8c-2.7,3.6-6.5,5.3-11.4,5.3c-4.8,0-8.6-1.8-11.3-5.3
			c-2.7-3.6-4.1-8.2-4.1-13.8L203.7,51.5L203.7,51.5z M274.2,64h29v29.5h14.2V22.4h-14.2V53h-29V22.4H260v71.1h14.3L274.2,64
			L274.2,64z M163.9,46h0.3v47.4h14.3v-71h-14.3l-28.7,47.4h-0.3V22.4H121v71.1h14.2L163.9,46z M70.7,78.2h25l4.8,15.3h14.4
			L90.5,22.4H75.9L51.4,93.5h14.4L70.7,78.2z M83.1,39.1h0.3L92.2,67h-18L83.1,39.1z M377.4,53.8c-4.8-4.3-11.3-6.4-19.5-6.4h-12.2
			v-25h-14.3v71.1h26.5c8.1,0,14.6-2.1,19.5-6.4s7.3-9.9,7.3-16.7C384.6,63.6,382.2,58.1,377.4,53.8z M367.1,79
			c-2.2,2.4-5.2,3.6-9.3,3.6h-12.2V58.4h12.2c4,0,7.1,1.1,9.3,3.4c2.2,2.3,3.2,5.1,3.2,8.4C370.4,73.7,369.3,76.6,367.1,79z
			 M48.2,28.7c-4.7-4.2-11.1-6.3-19.3-6.3H0.6v71.1h14.3V67.7H29c8.2,0,14.6-2.1,19.3-6.2c4.7-4.1,7-9.6,7-16.4
			C55.2,38.3,52.9,32.8,48.2,28.7z M37.9,53.5c-2.1,2.2-5.1,3.2-9,3.2h-14V33.4H29c4,0,7,1.1,9.1,3.3c2,2.2,3.1,5.1,3.1,8.5
			C41,48.6,40,51.3,37.9,53.5z M391,22.4v71.1h14.3V22.4H391z"/>
	</defs>
	<clipPath id="SVGID_14_">
		<use xlink:href="#SVGID_13_"  style="overflow:visible;"/>
	</clipPath>
	<line class="st7" x1="54.1" y1="69.9" x2="108.8" y2="69.9"/>
</g>
<g>
	<defs>
		<path id="SVGID_15_" d="M58.5,114.4h294.3V111H58.5V114.4z M137.5,11.3c3.1,2.6,7.2,3.9,12.4,3.9c5.1,0,9.2-1.3,12.3-3.9
			c3-2.6,4.5-6,4.3-10.1l-0.1-0.3H156c0,1.7-0.5,3.1-1.5,4.2s-2.5,1.7-4.6,1.7s-3.7-0.6-4.7-1.7s-1.5-2.5-1.5-4.2h-10.4l-0.1,0.3
			C133,5.3,134.4,8.7,137.5,11.3z M219.1,94.5c8.8,0,16-2.8,21.5-8.5s8.3-12.9,8.3-21.6V51.6c0-8.7-2.8-15.9-8.3-21.6
			s-12.7-8.6-21.5-8.6s-15.9,2.9-21.3,8.6c-5.5,5.7-8.2,12.9-8.2,21.6v12.8c0,8.7,2.7,15.9,8.2,21.6
			C203.2,91.7,210.3,94.5,219.1,94.5z M203.7,51.5c0-5.6,1.3-10.1,4-13.7c2.7-3.5,6.4-5.3,11.3-5.3c4.9,0,8.7,1.8,11.4,5.3
			c2.8,3.6,4.2,8.1,4.2,13.6v12.9c0,5.6-1.4,10.2-4.1,13.8c-2.7,3.6-6.5,5.3-11.4,5.3c-4.8,0-8.6-1.8-11.3-5.3
			c-2.7-3.6-4.1-8.2-4.1-13.8L203.7,51.5L203.7,51.5z M274.2,64h29v29.5h14.2V22.4h-14.2V53h-29V22.4H260v71.1h14.3L274.2,64
			L274.2,64z M163.9,46h0.3v47.4h14.3v-71h-14.3l-28.7,47.4h-0.3V22.4H121v71.1h14.2L163.9,46z M70.7,78.2h25l4.8,15.3h14.4
			L90.5,22.4H75.9L51.4,93.5h14.4L70.7,78.2z M83.1,39.1h0.3L92.2,67h-18L83.1,39.1z M377.4,53.8c-4.8-4.3-11.3-6.4-19.5-6.4h-12.2
			v-25h-14.3v71.1h26.5c8.1,0,14.6-2.1,19.5-6.4s7.3-9.9,7.3-16.7C384.6,63.6,382.2,58.1,377.4,53.8z M367.1,79
			c-2.2,2.4-5.2,3.6-9.3,3.6h-12.2V58.4h12.2c4,0,7.1,1.1,9.3,3.4c2.2,2.3,3.2,5.1,3.2,8.4C370.4,73.7,369.3,76.6,367.1,79z
			 M48.2,28.7c-4.7-4.2-11.1-6.3-19.3-6.3H0.6v71.1h14.3V67.7H29c8.2,0,14.6-2.1,19.3-6.2c4.7-4.1,7-9.6,7-16.4
			C55.2,38.3,52.9,32.8,48.2,28.7z M37.9,53.5c-2.1,2.2-5.1,3.2-9,3.2h-14V33.4H29c4,0,7,1.1,9.1,3.3c2,2.2,3.1,5.1,3.1,8.5
			C41,48.6,40,51.3,37.9,53.5z M391,22.4v71.1h14.3V22.4H391z"/>
	</defs>
	<clipPath id="SVGID_16_">
		<use xlink:href="#SVGID_15_"  style="overflow:visible;"/>
	</clipPath>
	<line class="st8" x1="129" y1="20.5" x2="129" y2="96.1"/>
</g>
<g>
	<defs>
		<path id="SVGID_17_" d="M58.5,114.4h294.3V111H58.5V114.4z M137.5,11.3c3.1,2.6,7.2,3.9,12.4,3.9c5.1,0,9.2-1.3,12.3-3.9
			c3-2.6,4.5-6,4.3-10.1l-0.1-0.3H156c0,1.7-0.5,3.1-1.5,4.2s-2.5,1.7-4.6,1.7s-3.7-0.6-4.7-1.7s-1.5-2.5-1.5-4.2h-10.4l-0.1,0.3
			C133,5.3,134.4,8.7,137.5,11.3z M219.1,94.5c8.8,0,16-2.8,21.5-8.5s8.3-12.9,8.3-21.6V51.6c0-8.7-2.8-15.9-8.3-21.6
			s-12.7-8.6-21.5-8.6s-15.9,2.9-21.3,8.6c-5.5,5.7-8.2,12.9-8.2,21.6v12.8c0,8.7,2.7,15.9,8.2,21.6
			C203.2,91.7,210.3,94.5,219.1,94.5z M203.7,51.5c0-5.6,1.3-10.1,4-13.7c2.7-3.5,6.4-5.3,11.3-5.3c4.9,0,8.7,1.8,11.4,5.3
			c2.8,3.6,4.2,8.1,4.2,13.6v12.9c0,5.6-1.4,10.2-4.1,13.8c-2.7,3.6-6.5,5.3-11.4,5.3c-4.8,0-8.6-1.8-11.3-5.3
			c-2.7-3.6-4.1-8.2-4.1-13.8L203.7,51.5L203.7,51.5z M274.2,64h29v29.5h14.2V22.4h-14.2V53h-29V22.4H260v71.1h14.3L274.2,64
			L274.2,64z M163.9,46h0.3v47.4h14.3v-71h-14.3l-28.7,47.4h-0.3V22.4H121v71.1h14.2L163.9,46z M70.7,78.2h25l4.8,15.3h14.4
			L90.5,22.4H75.9L51.4,93.5h14.4L70.7,78.2z M83.1,39.1h0.3L92.2,67h-18L83.1,39.1z M377.4,53.8c-4.8-4.3-11.3-6.4-19.5-6.4h-12.2
			v-25h-14.3v71.1h26.5c8.1,0,14.6-2.1,19.5-6.4s7.3-9.9,7.3-16.7C384.6,63.6,382.2,58.1,377.4,53.8z M367.1,79
			c-2.2,2.4-5.2,3.6-9.3,3.6h-12.2V58.4h12.2c4,0,7.1,1.1,9.3,3.4c2.2,2.3,3.2,5.1,3.2,8.4C370.4,73.7,369.3,76.6,367.1,79z
			 M48.2,28.7c-4.7-4.2-11.1-6.3-19.3-6.3H0.6v71.1h14.3V67.7H29c8.2,0,14.6-2.1,19.3-6.2c4.7-4.1,7-9.6,7-16.4
			C55.2,38.3,52.9,32.8,48.2,28.7z M37.9,53.5c-2.1,2.2-5.1,3.2-9,3.2h-14V33.4H29c4,0,7,1.1,9.1,3.3c2,2.2,3.1,5.1,3.1,8.5
			C41,48.6,40,51.3,37.9,53.5z M391,22.4v71.1h14.3V22.4H391z"/>
	</defs>
	<clipPath id="SVGID_18_">
		<use xlink:href="#SVGID_17_"  style="overflow:visible;"/>
	</clipPath>
	<line class="st9" x1="171" y1="96.1" x2="171" y2="19.8"/>
</g>
<g>
	<defs>
		<path id="SVGID_19_" d="M58.5,114.4h294.3V111H58.5V114.4z M137.5,11.3c3.1,2.6,7.2,3.9,12.4,3.9c5.1,0,9.2-1.3,12.3-3.9
			c3-2.6,4.5-6,4.3-10.1l-0.1-0.3H156c0,1.7-0.5,3.1-1.5,4.2s-2.5,1.7-4.6,1.7s-3.7-0.6-4.7-1.7s-1.5-2.5-1.5-4.2h-10.4l-0.1,0.3
			C133,5.3,134.4,8.7,137.5,11.3z M219.1,94.5c8.8,0,16-2.8,21.5-8.5s8.3-12.9,8.3-21.6V51.6c0-8.7-2.8-15.9-8.3-21.6
			s-12.7-8.6-21.5-8.6s-15.9,2.9-21.3,8.6c-5.5,5.7-8.2,12.9-8.2,21.6v12.8c0,8.7,2.7,15.9,8.2,21.6
			C203.2,91.7,210.3,94.5,219.1,94.5z M203.7,51.5c0-5.6,1.3-10.1,4-13.7c2.7-3.5,6.4-5.3,11.3-5.3c4.9,0,8.7,1.8,11.4,5.3
			c2.8,3.6,4.2,8.1,4.2,13.6v12.9c0,5.6-1.4,10.2-4.1,13.8c-2.7,3.6-6.5,5.3-11.4,5.3c-4.8,0-8.6-1.8-11.3-5.3
			c-2.7-3.6-4.1-8.2-4.1-13.8L203.7,51.5L203.7,51.5z M274.2,64h29v29.5h14.2V22.4h-14.2V53h-29V22.4H260v71.1h14.3L274.2,64
			L274.2,64z M163.9,46h0.3v47.4h14.3v-71h-14.3l-28.7,47.4h-0.3V22.4H121v71.1h14.2L163.9,46z M70.7,78.2h25l4.8,15.3h14.4
			L90.5,22.4H75.9L51.4,93.5h14.4L70.7,78.2z M83.1,39.1h0.3L92.2,67h-18L83.1,39.1z M377.4,53.8c-4.8-4.3-11.3-6.4-19.5-6.4h-12.2
			v-25h-14.3v71.1h26.5c8.1,0,14.6-2.1,19.5-6.4s7.3-9.9,7.3-16.7C384.6,63.6,382.2,58.1,377.4,53.8z M367.1,79
			c-2.2,2.4-5.2,3.6-9.3,3.6h-12.2V58.4h12.2c4,0,7.1,1.1,9.3,3.4c2.2,2.3,3.2,5.1,3.2,8.4C370.4,73.7,369.3,76.6,367.1,79z
			 M48.2,28.7c-4.7-4.2-11.1-6.3-19.3-6.3H0.6v71.1h14.3V67.7H29c8.2,0,14.6-2.1,19.3-6.2c4.7-4.1,7-9.6,7-16.4
			C55.2,38.3,52.9,32.8,48.2,28.7z M37.9,53.5c-2.1,2.2-5.1,3.2-9,3.2h-14V33.4H29c4,0,7,1.1,9.1,3.3c2,2.2,3.1,5.1,3.1,8.5
			C41,48.6,40,51.3,37.9,53.5z M391,22.4v71.1h14.3V22.4H391z"/>
	</defs>
	<clipPath id="SVGID_20_">
		<use xlink:href="#SVGID_19_"  style="overflow:visible;"/>
	</clipPath>
	<line class="st10" x1="122.8" y1="97.4" x2="176.9" y2="17.5"/>
</g>
<g>
	<defs>
		<path id="SVGID_21_" d="M58.5,114.4h294.3V111H58.5V114.4z M137.5,11.3c3.1,2.6,7.2,3.9,12.4,3.9c5.1,0,9.2-1.3,12.3-3.9
			c3-2.6,4.5-6,4.3-10.1l-0.1-0.3H156c0,1.7-0.5,3.1-1.5,4.2s-2.5,1.7-4.6,1.7s-3.7-0.6-4.7-1.7s-1.5-2.5-1.5-4.2h-10.4l-0.1,0.3
			C133,5.3,134.4,8.7,137.5,11.3z M219.1,94.5c8.8,0,16-2.8,21.5-8.5s8.3-12.9,8.3-21.6V51.6c0-8.7-2.8-15.9-8.3-21.6
			s-12.7-8.6-21.5-8.6s-15.9,2.9-21.3,8.6c-5.5,5.7-8.2,12.9-8.2,21.6v12.8c0,8.7,2.7,15.9,8.2,21.6
			C203.2,91.7,210.3,94.5,219.1,94.5z M203.7,51.5c0-5.6,1.3-10.1,4-13.7c2.7-3.5,6.4-5.3,11.3-5.3c4.9,0,8.7,1.8,11.4,5.3
			c2.8,3.6,4.2,8.1,4.2,13.6v12.9c0,5.6-1.4,10.2-4.1,13.8c-2.7,3.6-6.5,5.3-11.4,5.3c-4.8,0-8.6-1.8-11.3-5.3
			c-2.7-3.6-4.1-8.2-4.1-13.8L203.7,51.5L203.7,51.5z M274.2,64h29v29.5h14.2V22.4h-14.2V53h-29V22.4H260v71.1h14.3L274.2,64
			L274.2,64z M163.9,46h0.3v47.4h14.3v-71h-14.3l-28.7,47.4h-0.3V22.4H121v71.1h14.2L163.9,46z M70.7,78.2h25l4.8,15.3h14.4
			L90.5,22.4H75.9L51.4,93.5h14.4L70.7,78.2z M83.1,39.1h0.3L92.2,67h-18L83.1,39.1z M377.4,53.8c-4.8-4.3-11.3-6.4-19.5-6.4h-12.2
			v-25h-14.3v71.1h26.5c8.1,0,14.6-2.1,19.5-6.4s7.3-9.9,7.3-16.7C384.6,63.6,382.2,58.1,377.4,53.8z M367.1,79
			c-2.2,2.4-5.2,3.6-9.3,3.6h-12.2V58.4h12.2c4,0,7.1,1.1,9.3,3.4c2.2,2.3,3.2,5.1,3.2,8.4C370.4,73.7,369.3,76.6,367.1,79z
			 M48.2,28.7c-4.7-4.2-11.1-6.3-19.3-6.3H0.6v71.1h14.3V67.7H29c8.2,0,14.6-2.1,19.3-6.2c4.7-4.1,7-9.6,7-16.4
			C55.2,38.3,52.9,32.8,48.2,28.7z M37.9,53.5c-2.1,2.2-5.1,3.2-9,3.2h-14V33.4H29c4,0,7,1.1,9.1,3.3c2,2.2,3.1,5.1,3.1,8.5
			C41,48.6,40,51.3,37.9,53.5z M391,22.4v71.1h14.3V22.4H391z"/>
	</defs>
	<clipPath id="SVGID_22_">
		<use xlink:href="#SVGID_21_"  style="overflow:visible;"/>
	</clipPath>
	<path class="st11" d="M137.6-2.2c-0.2,0.8-1.6,5.9,1.4,9.9c3.1,4.1,8.6,4,11.5,3.9c2.7-0.1,9.1-0.3,11.8-5.1c2-3.6,0.7-7.7,0.4-8.8
		"/>
</g>
<g>
	<defs>
		<path id="SVGID_23_" d="M58.5,114.4h294.3V111H58.5V114.4z M137.5,11.3c3.1,2.6,7.2,3.9,12.4,3.9c5.1,0,9.2-1.3,12.3-3.9
			c3-2.6,4.5-6,4.3-10.1l-0.1-0.3H156c0,1.7-0.5,3.1-1.5,4.2s-2.5,1.7-4.6,1.7s-3.7-0.6-4.7-1.7s-1.5-2.5-1.5-4.2h-10.4l-0.1,0.3
			C133,5.3,134.4,8.7,137.5,11.3z M219.1,94.5c8.8,0,16-2.8,21.5-8.5s8.3-12.9,8.3-21.6V51.6c0-8.7-2.8-15.9-8.3-21.6
			s-12.7-8.6-21.5-8.6s-15.9,2.9-21.3,8.6c-5.5,5.7-8.2,12.9-8.2,21.6v12.8c0,8.7,2.7,15.9,8.2,21.6
			C203.2,91.7,210.3,94.5,219.1,94.5z M203.7,51.5c0-5.6,1.3-10.1,4-13.7c2.7-3.5,6.4-5.3,11.3-5.3c4.9,0,8.7,1.8,11.4,5.3
			c2.8,3.6,4.2,8.1,4.2,13.6v12.9c0,5.6-1.4,10.2-4.1,13.8c-2.7,3.6-6.5,5.3-11.4,5.3c-4.8,0-8.6-1.8-11.3-5.3
			c-2.7-3.6-4.1-8.2-4.1-13.8L203.7,51.5L203.7,51.5z M274.2,64h29v29.5h14.2V22.4h-14.2V53h-29V22.4H260v71.1h14.3L274.2,64
			L274.2,64z M163.9,46h0.3v47.4h14.3v-71h-14.3l-28.7,47.4h-0.3V22.4H121v71.1h14.2L163.9,46z M70.7,78.2h25l4.8,15.3h14.4
			L90.5,22.4H75.9L51.4,93.5h14.4L70.7,78.2z M83.1,39.1h0.3L92.2,67h-18L83.1,39.1z M377.4,53.8c-4.8-4.3-11.3-6.4-19.5-6.4h-12.2
			v-25h-14.3v71.1h26.5c8.1,0,14.6-2.1,19.5-6.4s7.3-9.9,7.3-16.7C384.6,63.6,382.2,58.1,377.4,53.8z M367.1,79
			c-2.2,2.4-5.2,3.6-9.3,3.6h-12.2V58.4h12.2c4,0,7.1,1.1,9.3,3.4c2.2,2.3,3.2,5.1,3.2,8.4C370.4,73.7,369.3,76.6,367.1,79z
			 M48.2,28.7c-4.7-4.2-11.1-6.3-19.3-6.3H0.6v71.1h14.3V67.7H29c8.2,0,14.6-2.1,19.3-6.2c4.7-4.1,7-9.6,7-16.4
			C55.2,38.3,52.9,32.8,48.2,28.7z M37.9,53.5c-2.1,2.2-5.1,3.2-9,3.2h-14V33.4H29c4,0,7,1.1,9.1,3.3c2,2.2,3.1,5.1,3.1,8.5
			C41,48.6,40,51.3,37.9,53.5z M391,22.4v71.1h14.3V22.4H391z"/>
	</defs>
	<clipPath id="SVGID_24_">
		<use xlink:href="#SVGID_23_"  style="overflow:visible;"/>
	</clipPath>
	<path class="st12" d="M240.3,42.3c-0.6-1.3-7.8-15.7-20.6-15.6c-12.1,0-19,12.8-20.4,15.3c-7,12.8-3.9,28.5,3.9,38.3
		c2.3,2.9,7,8.8,14.5,9.5c9.5,0.9,17.3-7,20.8-12.8c2.7-4.6,3.3-8.8,3.9-13.2C243,58.1,244.1,50.2,240.3,42.3z"/>
</g>
<g>
	<defs>
		<path id="SVGID_25_" d="M58.5,114.4h294.3V111H58.5V114.4z M137.5,11.3c3.1,2.6,7.2,3.9,12.4,3.9c5.1,0,9.2-1.3,12.3-3.9
			c3-2.6,4.5-6,4.3-10.1l-0.1-0.3H156c0,1.7-0.5,3.1-1.5,4.2s-2.5,1.7-4.6,1.7s-3.7-0.6-4.7-1.7s-1.5-2.5-1.5-4.2h-10.4l-0.1,0.3
			C133,5.3,134.4,8.7,137.5,11.3z M219.1,94.5c8.8,0,16-2.8,21.5-8.5s8.3-12.9,8.3-21.6V51.6c0-8.7-2.8-15.9-8.3-21.6
			s-12.7-8.6-21.5-8.6s-15.9,2.9-21.3,8.6c-5.5,5.7-8.2,12.9-8.2,21.6v12.8c0,8.7,2.7,15.9,8.2,21.6
			C203.2,91.7,210.3,94.5,219.1,94.5z M203.7,51.5c0-5.6,1.3-10.1,4-13.7c2.7-3.5,6.4-5.3,11.3-5.3c4.9,0,8.7,1.8,11.4,5.3
			c2.8,3.6,4.2,8.1,4.2,13.6v12.9c0,5.6-1.4,10.2-4.1,13.8c-2.7,3.6-6.5,5.3-11.4,5.3c-4.8,0-8.6-1.8-11.3-5.3
			c-2.7-3.6-4.1-8.2-4.1-13.8L203.7,51.5L203.7,51.5z M274.2,64h29v29.5h14.2V22.4h-14.2V53h-29V22.4H260v71.1h14.3L274.2,64
			L274.2,64z M163.9,46h0.3v47.4h14.3v-71h-14.3l-28.7,47.4h-0.3V22.4H121v71.1h14.2L163.9,46z M70.7,78.2h25l4.8,15.3h14.4
			L90.5,22.4H75.9L51.4,93.5h14.4L70.7,78.2z M83.1,39.1h0.3L92.2,67h-18L83.1,39.1z M377.4,53.8c-4.8-4.3-11.3-6.4-19.5-6.4h-12.2
			v-25h-14.3v71.1h26.5c8.1,0,14.6-2.1,19.5-6.4s7.3-9.9,7.3-16.7C384.6,63.6,382.2,58.1,377.4,53.8z M367.1,79
			c-2.2,2.4-5.2,3.6-9.3,3.6h-12.2V58.4h12.2c4,0,7.1,1.1,9.3,3.4c2.2,2.3,3.2,5.1,3.2,8.4C370.4,73.7,369.3,76.6,367.1,79z
			 M48.2,28.7c-4.7-4.2-11.1-6.3-19.3-6.3H0.6v71.1h14.3V67.7H29c8.2,0,14.6-2.1,19.3-6.2c4.7-4.1,7-9.6,7-16.4
			C55.2,38.3,52.9,32.8,48.2,28.7z M37.9,53.5c-2.1,2.2-5.1,3.2-9,3.2h-14V33.4H29c4,0,7,1.1,9.1,3.3c2,2.2,3.1,5.1,3.1,8.5
			C41,48.6,40,51.3,37.9,53.5z M391,22.4v71.1h14.3V22.4H391z"/>
	</defs>
	<clipPath id="SVGID_26_">
		<use xlink:href="#SVGID_25_"  style="overflow:visible;"/>
	</clipPath>
	<line class="st13" x1="267.4" y1="17.9" x2="266.5" y2="97.1"/>
</g>
<g>
	<defs>
		<path id="SVGID_27_" d="M58.5,114.4h294.3V111H58.5V114.4z M137.5,11.3c3.1,2.6,7.2,3.9,12.4,3.9c5.1,0,9.2-1.3,12.3-3.9
			c3-2.6,4.5-6,4.3-10.1l-0.1-0.3H156c0,1.7-0.5,3.1-1.5,4.2s-2.5,1.7-4.6,1.7s-3.7-0.6-4.7-1.7s-1.5-2.5-1.5-4.2h-10.4l-0.1,0.3
			C133,5.3,134.4,8.7,137.5,11.3z M219.1,94.5c8.8,0,16-2.8,21.5-8.5s8.3-12.9,8.3-21.6V51.6c0-8.7-2.8-15.9-8.3-21.6
			s-12.7-8.6-21.5-8.6s-15.9,2.9-21.3,8.6c-5.5,5.7-8.2,12.9-8.2,21.6v12.8c0,8.7,2.7,15.9,8.2,21.6
			C203.2,91.7,210.3,94.5,219.1,94.5z M203.7,51.5c0-5.6,1.3-10.1,4-13.7c2.7-3.5,6.4-5.3,11.3-5.3c4.9,0,8.7,1.8,11.4,5.3
			c2.8,3.6,4.2,8.1,4.2,13.6v12.9c0,5.6-1.4,10.2-4.1,13.8c-2.7,3.6-6.5,5.3-11.4,5.3c-4.8,0-8.6-1.8-11.3-5.3
			c-2.7-3.6-4.1-8.2-4.1-13.8L203.7,51.5L203.7,51.5z M274.2,64h29v29.5h14.2V22.4h-14.2V53h-29V22.4H260v71.1h14.3L274.2,64
			L274.2,64z M163.9,46h0.3v47.4h14.3v-71h-14.3l-28.7,47.4h-0.3V22.4H121v71.1h14.2L163.9,46z M70.7,78.2h25l4.8,15.3h14.4
			L90.5,22.4H75.9L51.4,93.5h14.4L70.7,78.2z M83.1,39.1h0.3L92.2,67h-18L83.1,39.1z M377.4,53.8c-4.8-4.3-11.3-6.4-19.5-6.4h-12.2
			v-25h-14.3v71.1h26.5c8.1,0,14.6-2.1,19.5-6.4s7.3-9.9,7.3-16.7C384.6,63.6,382.2,58.1,377.4,53.8z M367.1,79
			c-2.2,2.4-5.2,3.6-9.3,3.6h-12.2V58.4h12.2c4,0,7.1,1.1,9.3,3.4c2.2,2.3,3.2,5.1,3.2,8.4C370.4,73.7,369.3,76.6,367.1,79z
			 M48.2,28.7c-4.7-4.2-11.1-6.3-19.3-6.3H0.6v71.1h14.3V67.7H29c8.2,0,14.6-2.1,19.3-6.2c4.7-4.1,7-9.6,7-16.4
			C55.2,38.3,52.9,32.8,48.2,28.7z M37.9,53.5c-2.1,2.2-5.1,3.2-9,3.2h-14V33.4H29c4,0,7,1.1,9.1,3.3c2,2.2,3.1,5.1,3.1,8.5
			C41,48.6,40,51.3,37.9,53.5z M391,22.4v71.1h14.3V22.4H391z"/>
	</defs>
	<clipPath id="SVGID_28_">
		<use xlink:href="#SVGID_27_"  style="overflow:visible;"/>
	</clipPath>
	<line class="st14" x1="310.4" y1="97.6" x2="310.4" y2="18.9"/>
</g>
<g>
	<defs>
		<path id="SVGID_29_" d="M58.5,114.4h294.3V111H58.5V114.4z M137.5,11.3c3.1,2.6,7.2,3.9,12.4,3.9c5.1,0,9.2-1.3,12.3-3.9
			c3-2.6,4.5-6,4.3-10.1l-0.1-0.3H156c0,1.7-0.5,3.1-1.5,4.2s-2.5,1.7-4.6,1.7s-3.7-0.6-4.7-1.7s-1.5-2.5-1.5-4.2h-10.4l-0.1,0.3
			C133,5.3,134.4,8.7,137.5,11.3z M219.1,94.5c8.8,0,16-2.8,21.5-8.5s8.3-12.9,8.3-21.6V51.6c0-8.7-2.8-15.9-8.3-21.6
			s-12.7-8.6-21.5-8.6s-15.9,2.9-21.3,8.6c-5.5,5.7-8.2,12.9-8.2,21.6v12.8c0,8.7,2.7,15.9,8.2,21.6
			C203.2,91.7,210.3,94.5,219.1,94.5z M203.7,51.5c0-5.6,1.3-10.1,4-13.7c2.7-3.5,6.4-5.3,11.3-5.3c4.9,0,8.7,1.8,11.4,5.3
			c2.8,3.6,4.2,8.1,4.2,13.6v12.9c0,5.6-1.4,10.2-4.1,13.8c-2.7,3.6-6.5,5.3-11.4,5.3c-4.8,0-8.6-1.8-11.3-5.3
			c-2.7-3.6-4.1-8.2-4.1-13.8L203.7,51.5L203.7,51.5z M274.2,64h29v29.5h14.2V22.4h-14.2V53h-29V22.4H260v71.1h14.3L274.2,64
			L274.2,64z M163.9,46h0.3v47.4h14.3v-71h-14.3l-28.7,47.4h-0.3V22.4H121v71.1h14.2L163.9,46z M70.7,78.2h25l4.8,15.3h14.4
			L90.5,22.4H75.9L51.4,93.5h14.4L70.7,78.2z M83.1,39.1h0.3L92.2,67h-18L83.1,39.1z M377.4,53.8c-4.8-4.3-11.3-6.4-19.5-6.4h-12.2
			v-25h-14.3v71.1h26.5c8.1,0,14.6-2.1,19.5-6.4s7.3-9.9,7.3-16.7C384.6,63.6,382.2,58.1,377.4,53.8z M367.1,79
			c-2.2,2.4-5.2,3.6-9.3,3.6h-12.2V58.4h12.2c4,0,7.1,1.1,9.3,3.4c2.2,2.3,3.2,5.1,3.2,8.4C370.4,73.7,369.3,76.6,367.1,79z
			 M48.2,28.7c-4.7-4.2-11.1-6.3-19.3-6.3H0.6v71.1h14.3V67.7H29c8.2,0,14.6-2.1,19.3-6.2c4.7-4.1,7-9.6,7-16.4
			C55.2,38.3,52.9,32.8,48.2,28.7z M37.9,53.5c-2.1,2.2-5.1,3.2-9,3.2h-14V33.4H29c4,0,7,1.1,9.1,3.3c2,2.2,3.1,5.1,3.1,8.5
			C41,48.6,40,51.3,37.9,53.5z M391,22.4v71.1h14.3V22.4H391z"/>
	</defs>
	<clipPath id="SVGID_30_">
		<use xlink:href="#SVGID_29_"  style="overflow:visible;"/>
	</clipPath>
	<line class="st15" x1="325.5" y1="59" x2="251.6" y2="59"/>
</g>
<g>
	<defs>
		<path id="SVGID_31_" d="M58.5,114.4h294.3V111H58.5V114.4z M137.5,11.3c3.1,2.6,7.2,3.9,12.4,3.9c5.1,0,9.2-1.3,12.3-3.9
			c3-2.6,4.5-6,4.3-10.1l-0.1-0.3H156c0,1.7-0.5,3.1-1.5,4.2s-2.5,1.7-4.6,1.7s-3.7-0.6-4.7-1.7s-1.5-2.5-1.5-4.2h-10.4l-0.1,0.3
			C133,5.3,134.4,8.7,137.5,11.3z M219.1,94.5c8.8,0,16-2.8,21.5-8.5s8.3-12.9,8.3-21.6V51.6c0-8.7-2.8-15.9-8.3-21.6
			s-12.7-8.6-21.5-8.6s-15.9,2.9-21.3,8.6c-5.5,5.7-8.2,12.9-8.2,21.6v12.8c0,8.7,2.7,15.9,8.2,21.6
			C203.2,91.7,210.3,94.5,219.1,94.5z M203.7,51.5c0-5.6,1.3-10.1,4-13.7c2.7-3.5,6.4-5.3,11.3-5.3c4.9,0,8.7,1.8,11.4,5.3
			c2.8,3.6,4.2,8.1,4.2,13.6v12.9c0,5.6-1.4,10.2-4.1,13.8c-2.7,3.6-6.5,5.3-11.4,5.3c-4.8,0-8.6-1.8-11.3-5.3
			c-2.7-3.6-4.1-8.2-4.1-13.8L203.7,51.5L203.7,51.5z M274.2,64h29v29.5h14.2V22.4h-14.2V53h-29V22.4H260v71.1h14.3L274.2,64
			L274.2,64z M163.9,46h0.3v47.4h14.3v-71h-14.3l-28.7,47.4h-0.3V22.4H121v71.1h14.2L163.9,46z M70.7,78.2h25l4.8,15.3h14.4
			L90.5,22.4H75.9L51.4,93.5h14.4L70.7,78.2z M83.1,39.1h0.3L92.2,67h-18L83.1,39.1z M377.4,53.8c-4.8-4.3-11.3-6.4-19.5-6.4h-12.2
			v-25h-14.3v71.1h26.5c8.1,0,14.6-2.1,19.5-6.4s7.3-9.9,7.3-16.7C384.6,63.6,382.2,58.1,377.4,53.8z M367.1,79
			c-2.2,2.4-5.2,3.6-9.3,3.6h-12.2V58.4h12.2c4,0,7.1,1.1,9.3,3.4c2.2,2.3,3.2,5.1,3.2,8.4C370.4,73.7,369.3,76.6,367.1,79z
			 M48.2,28.7c-4.7-4.2-11.1-6.3-19.3-6.3H0.6v71.1h14.3V67.7H29c8.2,0,14.6-2.1,19.3-6.2c4.7-4.1,7-9.6,7-16.4
			C55.2,38.3,52.9,32.8,48.2,28.7z M37.9,53.5c-2.1,2.2-5.1,3.2-9,3.2h-14V33.4H29c4,0,7,1.1,9.1,3.3c2,2.2,3.1,5.1,3.1,8.5
			C41,48.6,40,51.3,37.9,53.5z M391,22.4v71.1h14.3V22.4H391z"/>
	</defs>
	<clipPath id="SVGID_32_">
		<use xlink:href="#SVGID_31_"  style="overflow:visible;"/>
	</clipPath>
	<line class="st16" x1="338" y1="15.1" x2="338" y2="99.9"/>
</g>
<g>
	<defs>
		<path id="SVGID_33_" d="M58.5,114.4h294.3V111H58.5V114.4z M137.5,11.3c3.1,2.6,7.2,3.9,12.4,3.9c5.1,0,9.2-1.3,12.3-3.9
			c3-2.6,4.5-6,4.3-10.1l-0.1-0.3H156c0,1.7-0.5,3.1-1.5,4.2s-2.5,1.7-4.6,1.7s-3.7-0.6-4.7-1.7s-1.5-2.5-1.5-4.2h-10.4l-0.1,0.3
			C133,5.3,134.4,8.7,137.5,11.3z M219.1,94.5c8.8,0,16-2.8,21.5-8.5s8.3-12.9,8.3-21.6V51.6c0-8.7-2.8-15.9-8.3-21.6
			s-12.7-8.6-21.5-8.6s-15.9,2.9-21.3,8.6c-5.5,5.7-8.2,12.9-8.2,21.6v12.8c0,8.7,2.7,15.9,8.2,21.6
			C203.2,91.7,210.3,94.5,219.1,94.5z M203.7,51.5c0-5.6,1.3-10.1,4-13.7c2.7-3.5,6.4-5.3,11.3-5.3c4.9,0,8.7,1.8,11.4,5.3
			c2.8,3.6,4.2,8.1,4.2,13.6v12.9c0,5.6-1.4,10.2-4.1,13.8c-2.7,3.6-6.5,5.3-11.4,5.3c-4.8,0-8.6-1.8-11.3-5.3
			c-2.7-3.6-4.1-8.2-4.1-13.8L203.7,51.5L203.7,51.5z M274.2,64h29v29.5h14.2V22.4h-14.2V53h-29V22.4H260v71.1h14.3L274.2,64
			L274.2,64z M163.9,46h0.3v47.4h14.3v-71h-14.3l-28.7,47.4h-0.3V22.4H121v71.1h14.2L163.9,46z M70.7,78.2h25l4.8,15.3h14.4
			L90.5,22.4H75.9L51.4,93.5h14.4L70.7,78.2z M83.1,39.1h0.3L92.2,67h-18L83.1,39.1z M377.4,53.8c-4.8-4.3-11.3-6.4-19.5-6.4h-12.2
			v-25h-14.3v71.1h26.5c8.1,0,14.6-2.1,19.5-6.4s7.3-9.9,7.3-16.7C384.6,63.6,382.2,58.1,377.4,53.8z M367.1,79
			c-2.2,2.4-5.2,3.6-9.3,3.6h-12.2V58.4h12.2c4,0,7.1,1.1,9.3,3.4c2.2,2.3,3.2,5.1,3.2,8.4C370.4,73.7,369.3,76.6,367.1,79z
			 M48.2,28.7c-4.7-4.2-11.1-6.3-19.3-6.3H0.6v71.1h14.3V67.7H29c8.2,0,14.6-2.1,19.3-6.2c4.7-4.1,7-9.6,7-16.4
			C55.2,38.3,52.9,32.8,48.2,28.7z M37.9,53.5c-2.1,2.2-5.1,3.2-9,3.2h-14V33.4H29c4,0,7,1.1,9.1,3.3c2,2.2,3.1,5.1,3.1,8.5
			C41,48.6,40,51.3,37.9,53.5z M391,22.4v71.1h14.3V22.4H391z"/>
	</defs>
	<clipPath id="SVGID_34_">
		<use xlink:href="#SVGID_33_"  style="overflow:visible;"/>
	</clipPath>
	<path class="st17" d="M326.8,89.5c12.8,1.5,23.2,0.5,30.3-0.6c10.9-1.8,14.9-4.2,17.5-7.4c0.7-0.9,4.8-6,3.9-12.3
		c-1.5-9.8-14.3-14.3-18.9-15.9c-14-4.9-27.1-1-32.8,1.2"/>
</g>
<g>
	<defs>
		<path id="SVGID_35_" d="M58.5,114.4h294.3V111H58.5V114.4z M137.5,11.3c3.1,2.6,7.2,3.9,12.4,3.9c5.1,0,9.2-1.3,12.3-3.9
			c3-2.6,4.5-6,4.3-10.1l-0.1-0.3H156c0,1.7-0.5,3.1-1.5,4.2s-2.5,1.7-4.6,1.7s-3.7-0.6-4.7-1.7s-1.5-2.5-1.5-4.2h-10.4l-0.1,0.3
			C133,5.3,134.4,8.7,137.5,11.3z M219.1,94.5c8.8,0,16-2.8,21.5-8.5s8.3-12.9,8.3-21.6V51.6c0-8.7-2.8-15.9-8.3-21.6
			s-12.7-8.6-21.5-8.6s-15.9,2.9-21.3,8.6c-5.5,5.7-8.2,12.9-8.2,21.6v12.8c0,8.7,2.7,15.9,8.2,21.6
			C203.2,91.7,210.3,94.5,219.1,94.5z M203.7,51.5c0-5.6,1.3-10.1,4-13.7c2.7-3.5,6.4-5.3,11.3-5.3c4.9,0,8.7,1.8,11.4,5.3
			c2.8,3.6,4.2,8.1,4.2,13.6v12.9c0,5.6-1.4,10.2-4.1,13.8c-2.7,3.6-6.5,5.3-11.4,5.3c-4.8,0-8.6-1.8-11.3-5.3
			c-2.7-3.6-4.1-8.2-4.1-13.8L203.7,51.5L203.7,51.5z M274.2,64h29v29.5h14.2V22.4h-14.2V53h-29V22.4H260v71.1h14.3L274.2,64
			L274.2,64z M163.9,46h0.3v47.4h14.3v-71h-14.3l-28.7,47.4h-0.3V22.4H121v71.1h14.2L163.9,46z M70.7,78.2h25l4.8,15.3h14.4
			L90.5,22.4H75.9L51.4,93.5h14.4L70.7,78.2z M83.1,39.1h0.3L92.2,67h-18L83.1,39.1z M377.4,53.8c-4.8-4.3-11.3-6.4-19.5-6.4h-12.2
			v-25h-14.3v71.1h26.5c8.1,0,14.6-2.1,19.5-6.4s7.3-9.9,7.3-16.7C384.6,63.6,382.2,58.1,377.4,53.8z M367.1,79
			c-2.2,2.4-5.2,3.6-9.3,3.6h-12.2V58.4h12.2c4,0,7.1,1.1,9.3,3.4c2.2,2.3,3.2,5.1,3.2,8.4C370.4,73.7,369.3,76.6,367.1,79z
			 M48.2,28.7c-4.7-4.2-11.1-6.3-19.3-6.3H0.6v71.1h14.3V67.7H29c8.2,0,14.6-2.1,19.3-6.2c4.7-4.1,7-9.6,7-16.4
			C55.2,38.3,52.9,32.8,48.2,28.7z M37.9,53.5c-2.1,2.2-5.1,3.2-9,3.2h-14V33.4H29c4,0,7,1.1,9.1,3.3c2,2.2,3.1,5.1,3.1,8.5
			C41,48.6,40,51.3,37.9,53.5z M391,22.4v71.1h14.3V22.4H391z"/>
	</defs>
	<clipPath id="SVGID_36_">
		<use xlink:href="#SVGID_35_"  style="overflow:visible;"/>
	</clipPath>
	<line class="st18" x1="397.4" y1="17.6" x2="397.4" y2="97.6"/>
</g>
</svg>
