<?xml version="1.0" encoding="utf-8"?>
<!-- Generator: Adobe Illustrator 21.1.0, SVG Export Plug-In . SVG Version: 6.00 Build 0)  -->
<svg version="1.1" id="Слой_1" xmlns="http://www.w3.org/2000/svg" xmlns:xlink="http://www.w3.org/1999/xlink" x="0px" y="0px"
	 viewBox="0 0 225 70" style="enable-background:new 0 0 225 70;" xml:space="preserve">
<style type="text/css">
	.st0{fill:none;stroke:#000000;stroke-linecap:round;stroke-miterlimit:5;}
	.st1{fill:none;stroke:#000000;stroke-width:3;stroke-linecap:square;stroke-miterlimit:5;}
</style>
<g>
	<path class="st0" d="M14.6,32.4v14.6H4.7V4.4H22c5.1,0,9.1,1.3,12,3.9c3,2.6,4.5,6,4.5,10.2c0,4.2-1.5,7.6-4.5,10.2
		c-3,2.6-7,3.9-12,3.9H14.6z M14.6,24.8H22c2.1,0,3.8-0.6,4.9-1.8c1.1-1.2,1.7-2.7,1.7-4.6c0-1.9-0.6-3.4-1.7-4.7
		C25.8,12.6,24.1,12,22,12h-7.4V24.8z"/>
	<path class="st0" d="M61.4,47c-0.3-0.5-0.5-1.1-0.7-1.7c-0.2-0.6-0.4-1.3-0.6-1.9c-0.9,1.3-2.1,2.3-3.4,3.1
		c-1.3,0.8-2.9,1.2-4.8,1.2c-3,0-5.5-0.9-7.3-2.6c-1.9-1.7-2.8-4.1-2.8-6.9c0-3.1,1.2-5.6,3.5-7.3c2.4-1.7,5.9-2.6,10.7-2.6h3.6V26
		c0-1.3-0.3-2.4-1-3.1c-0.6-0.7-1.6-1.1-2.9-1.1c-1.1,0-2,0.3-2.5,0.8c-0.6,0.5-0.8,1.4-0.8,2.5l-9.6,0l-0.1-0.2
		c-0.1-2.9,1.1-5.3,3.6-7.3c2.5-1.9,5.9-2.9,10.1-2.9c3.9,0,7.1,1,9.5,2.9c2.4,2,3.6,4.7,3.6,8.4v12c0,1.7,0.1,3.3,0.4,4.7
		c0.3,1.4,0.7,2.9,1.3,4.3L61.4,47z M54.9,40.6c1,0,1.9-0.2,2.7-0.6c0.8-0.4,1.5-0.9,2-1.5v-5h-3.5c-1.6,0-2.7,0.4-3.4,1.1
		c-0.7,0.8-1.1,1.7-1.1,2.9c0,0.9,0.3,1.6,0.9,2.2S53.9,40.6,54.9,40.6z"/>
	<path class="st0" d="M93.4,15.4h9.9v31.7h-9.9V29.7l-0.2,0l-8.5,17.4h-9.9V15.4h9.9v17.3l0.2,0L93.4,15.4z M99.6,1.2l0.1,0.2
		c0.1,2.6-0.8,4.7-2.8,6.4c-2,1.6-4.6,2.5-7.9,2.5c-3.3,0-5.9-0.8-7.9-2.5c-2-1.6-2.9-3.8-2.8-6.4l0.1-0.2h7.1
		c0,0.9,0.3,1.7,0.8,2.3s1.4,0.9,2.6,0.9c1.2,0,2-0.3,2.6-0.9s0.8-1.3,0.8-2.3H99.6z"/>
	<path class="st0" d="M107.3,30.9c0-4.8,1.3-8.6,4-11.6c2.7-3,6.5-4.5,11.3-4.5c4.8,0,8.6,1.5,11.3,4.5c2.7,3,4,6.9,4,11.6v0.6
		c0,4.8-1.3,8.7-4,11.7s-6.4,4.5-11.3,4.5c-4.9,0-8.6-1.5-11.3-4.5s-4-6.9-4-11.7V30.9z M117.2,31.5c0,2.7,0.4,4.7,1.2,6.3
		c0.8,1.5,2.2,2.3,4.2,2.3c1.9,0,3.3-0.8,4.2-2.3c0.8-1.5,1.3-3.6,1.3-6.2v-0.6c0-2.6-0.4-4.6-1.3-6.2c-0.8-1.6-2.2-2.3-4.2-2.3
		c-2,0-3.3,0.8-4.2,2.3c-0.8,1.6-1.2,3.6-1.2,6.2V31.5z"/>
	<path class="st0" d="M170.6,47.1h-9.9V35.3H152v11.7h-9.9V15.4h9.9v12.4h8.6V15.4h9.9V47.1z"/>
	<path class="st0" d="M186.5,24.1h5c4.5,0,8.1,1.1,10.7,3.2c2.6,2.1,3.9,4.9,3.9,8.5c0,3.4-1.3,6.1-3.9,8.2
		c-2.6,2.1-6.2,3.1-10.7,3.1h-14.9V15.4h9.9V24.1z M186.5,31.7v7.8h5c1.6,0,2.8-0.4,3.6-1.1c0.8-0.7,1.2-1.6,1.2-2.8
		c0-1.2-0.4-2.2-1.2-2.9c-0.8-0.7-2-1.1-3.6-1.1H186.5z M220.8,47.1h-9.9V15.4h9.9V47.1z"/>
</g>
<line class="st1" x1="3.5" y1="63.5" x2="222.5" y2="63.5"/>
</svg>
