<?xml version="1.0" encoding="utf-8"?>
<!-- Generator: Adobe Illustrator 21.1.0, SVG Export Plug-In . SVG Version: 6.00 Build 0)  -->
<svg version="1.1" id="Слой_1" xmlns="http://www.w3.org/2000/svg" xmlns:xlink="http://www.w3.org/1999/xlink" x="0px" y="0px"
	 viewBox="0 0 170 67" style="enable-background:new 0 0 170 67;" xml:space="preserve">
<style type="text/css">
	.st0{fill:none;stroke:#000000;stroke-linecap:round;stroke-miterlimit:5;}
	.st1{fill:none;stroke:#000000;stroke-width:3;stroke-linecap:square;stroke-miterlimit:5;}
</style>
<g>
	<path class="st0" d="M17.7,3.4l9.6,29.9h0.2l9.7-29.9h13.1v42.7h-9.9V35.5L41.1,16L41,16L30.7,46.1H24L13.8,16.2l-0.2,0l0.9,19.2
		v10.6H4.7V3.4H17.7z"/>
	<path class="st0" d="M70.8,46.7c-4.7,0-8.4-1.5-11.2-4.4s-4.2-6.6-4.2-11v-1.1c0-4.8,1.3-8.8,3.8-11.8c2.5-3.1,6.1-4.6,10.9-4.6
		c4.3,0,7.7,1.3,10.1,3.9c2.4,2.6,3.7,6.1,3.7,10.5v5.2H65.7l-0.1,0.2c0.2,1.6,0.9,3,2,4c1.1,1,2.6,1.6,4.5,1.6
		c1.9,0,3.4-0.1,4.5-0.4c1.1-0.3,2.5-0.8,4.3-1.5l2.3,6c-1.4,1-3.2,1.9-5.4,2.5S73.3,46.7,70.8,46.7z M70.1,21.4
		c-1.4,0-2.5,0.5-3.2,1.5c-0.7,1-1.1,2.4-1.3,4.1l0.1,0.1h8.5v-0.8c0-1.6-0.3-2.8-1-3.7C72.5,21.8,71.5,21.4,70.1,21.4z"/>
	<path class="st0" d="M116.2,46.1h-9.9V34.3h-8.6v11.7h-9.9V14.4h9.9v12.4h8.6V14.4h9.9V46.1z"/>
	<path class="st0" d="M132.4,26.1h3c0.7-3.7,2.3-6.7,4.9-9c2.6-2.2,6-3.4,10.1-3.4c4.8,0,8.6,1.5,11.3,4.5c2.7,3,4,6.9,4,11.6v0.6
		c0,4.8-1.3,8.7-4,11.7s-6.4,4.5-11.3,4.5c-4.3,0-7.7-1.2-10.4-3.5c-2.6-2.3-4.2-5.5-4.8-9.5h-3v12.4h-9.9V14.4h9.9V26.1z M145,30.5
		c0,2.7,0.4,4.7,1.2,6.3c0.8,1.5,2.2,2.3,4.2,2.3c1.9,0,3.3-0.8,4.2-2.3c0.8-1.5,1.3-3.6,1.3-6.2v-0.6c0-2.6-0.4-4.6-1.3-6.2
		c-0.8-1.6-2.2-2.3-4.2-2.3c-2,0-3.3,0.8-4.2,2.3c-0.8,1.6-1.2,3.6-1.2,6.2V30.5z"/>
</g>
<line class="st1" x1="3.5" y1="63.5" x2="163.5" y2="63.5"/>
</svg>
