<?xml version="1.0" encoding="utf-8"?>
<!-- Generator: Adobe Illustrator 21.1.0, SVG Export Plug-In . SVG Version: 6.00 Build 0)  -->
<svg version="1.1" id="Слой_1" xmlns="http://www.w3.org/2000/svg" xmlns:xlink="http://www.w3.org/1999/xlink" x="0px" y="0px"
	 viewBox="0 0 296.8 91.8" style="enable-background:new 0 0 296.8 91.8;" xml:space="preserve">
<style type="text/css">
	.st0{clip-path:url(#SVGID_2_);}
	.st1{fill:none;stroke:#000000;stroke-width:3;stroke-miterlimit:10;}
	.st2{clip-path:url(#SVGID_4_);fill:none;}
	.st3{clip-path:url(#SVGID_6_);fill:none;stroke:#000000;stroke-width:20;stroke-miterlimit:10;}
	.st4{clip-path:url(#SVGID_8_);fill:none;stroke:#000000;stroke-width:20;stroke-miterlimit:10;}
	.st5{clip-path:url(#SVGID_10_);fill:none;stroke:#000000;stroke-width:20;stroke-miterlimit:10;}
	.st6{clip-path:url(#SVGID_12_);fill:none;stroke:#000000;stroke-width:20;stroke-miterlimit:10;}
	.st7{clip-path:url(#SVGID_14_);fill:none;stroke:#000000;stroke-width:20;stroke-miterlimit:10;}
	.st8{clip-path:url(#SVGID_16_);fill:none;stroke:#000000;stroke-width:20;stroke-miterlimit:10;}
	.st9{clip-path:url(#SVGID_18_);fill:none;stroke:#000000;stroke-width:20;stroke-miterlimit:10;}
	.st10{clip-path:url(#SVGID_20_);fill:none;stroke:#000000;stroke-width:20;stroke-miterlimit:10;}
	.st11{clip-path:url(#SVGID_22_);fill:none;stroke:#000000;stroke-width:20;stroke-miterlimit:10;}
	.st12{clip-path:url(#SVGID_24_);fill:none;stroke:#000000;stroke-width:20;stroke-miterlimit:10;}
</style>
<g>
	<defs>
		<path id="SVGID_1_" d="M136.1,61.6h-34.4V41.4h29.4v-11h-29.4V12.5h34.3v-11H87.3v71.1h48.7V61.6z M159.1,43.1h29v29.5h14.2V1.5
			h-14.2v30.6h-29V1.5h-14.3v71.1h14.3V43.1z M61.2,20l-1.4,31.4v21.2h14.3V1.5H55.4L37.2,53.9h-0.3L18.8,1.5H0.1v71.1h14.3V51.4
			L13,20.2h0.3l18.9,52.4h9.6l19-52.6H61.2z M44.8,91.6h190.3v-4.8H44.8V91.6z M288,9.1c-5.5-5.7-12.7-8.6-21.5-8.6
			s-15.9,2.9-21.3,8.6c-5.5,5.7-8.2,12.9-8.2,21.6v1.5h-6.2V1.5h-14.3v71.1h14.3V43.1h6.2v0.3c0,8.7,2.7,15.9,8.2,21.6
			s12.6,8.5,21.3,8.5c8.8,0,16-2.8,21.5-8.5s8.3-12.9,8.3-21.6V30.7C296.3,22,293.5,14.8,288,9.1z M282,43.5
			c0,5.6-1.4,10.2-4.1,13.8c-2.7,3.6-6.5,5.3-11.4,5.3c-4.8,0-8.6-1.8-11.3-5.3c-2.7-3.6-4.1-8.2-4.1-13.8V30.6
			c0-5.6,1.3-10.1,4-13.7c2.7-3.5,6.4-5.3,11.3-5.3c4.8,0,8.7,1.8,11.4,5.3c2.8,3.6,4.2,8.1,4.2,13.6V43.5z"/>
	</defs>
	<clipPath id="SVGID_2_">
		<use xlink:href="#SVGID_1_"  style="overflow:visible;"/>
	</clipPath>
	<g class="st0">
		<path class="st1" d="M18.8,1.8l18.1,52.4h0.3L55.4,1.8h18.7v71.1H59.8V51.7l1.4-31.4h-0.3l-19,52.6h-9.6L13.3,20.5H13l1.4,31.2
			v21.2H0.1V1.8H18.8z"/>
		<path class="st1" d="M131.1,41.7h-29.4V62h34.4v11H87.4V1.8H136v11h-34.3v17.9h29.4V41.7z"/>
		<path class="st1" d="M202.3,72.9h-14.2V43.4h-29v29.5h-14.3V1.8h14.3v30.6h29V1.8h14.2V72.9z"/>
		<path class="st1" d="M296.3,43.8c0,8.7-2.8,15.9-8.3,21.6s-12.7,8.5-21.5,8.5s-15.9-2.8-21.3-8.5c-5.5-5.7-8.2-12.9-8.2-21.6v-0.3
			h-6.2V73h-14.3V1.8h14.3v30.6h6.2V31c0-8.7,2.7-15.9,8.2-21.6s12.6-8.6,21.3-8.6c8.8,0,16,2.9,21.5,8.6s8.3,12.9,8.3,21.6V43.8z
			 M282,30.9c0-5.5-1.4-10.1-4.2-13.6c-2.8-3.6-6.6-5.3-11.4-5.3c-4.9,0-8.6,1.8-11.3,5.3c-2.7,3.5-4,8.1-4,13.7v12.9
			c0,5.6,1.4,10.2,4.1,13.8c2.7,3.6,6.5,5.3,11.3,5.3c4.9,0,8.7-1.8,11.4-5.3c2.7-3.6,4.1-8.2,4.1-13.8V30.9z"/>
	</g>
</g>
<g>
	<defs>
		<path id="SVGID_3_" d="M136.1,61.6h-34.4V41.4h29.4v-11h-29.4V12.5h34.3v-11H87.3v71.1h48.7V61.6z M159.1,43.1h29v29.5h14.2V1.5
			h-14.2v30.6h-29V1.5h-14.3v71.1h14.3V43.1z M61.2,20l-1.4,31.4v21.2h14.3V1.5H55.4L37.2,53.9h-0.3L18.8,1.5H0.1v71.1h14.3V51.4
			L13,20.2h0.3l18.9,52.4h9.6l19-52.6H61.2z M44.8,91.6h190.3v-4.8H44.8V91.6z M288,9.1c-5.5-5.7-12.7-8.6-21.5-8.6
			s-15.9,2.9-21.3,8.6c-5.5,5.7-8.2,12.9-8.2,21.6v1.5h-6.2V1.5h-14.3v71.1h14.3V43.1h6.2v0.3c0,8.7,2.7,15.9,8.2,21.6
			s12.6,8.5,21.3,8.5c8.8,0,16-2.8,21.5-8.5s8.3-12.9,8.3-21.6V30.7C296.3,22,293.5,14.8,288,9.1z M282,43.5
			c0,5.6-1.4,10.2-4.1,13.8c-2.7,3.6-6.5,5.3-11.4,5.3c-4.8,0-8.6-1.8-11.3-5.3c-2.7-3.6-4.1-8.2-4.1-13.8V30.6
			c0-5.6,1.3-10.1,4-13.7c2.7-3.5,6.4-5.3,11.3-5.3c4.8,0,8.7,1.8,11.4,5.3c2.8,3.6,4.2,8.1,4.2,13.6V43.5z"/>
	</defs>
	<clipPath id="SVGID_4_">
		<use xlink:href="#SVGID_3_"  style="overflow:visible;"/>
	</clipPath>
	<rect x="44.8" y="87" class="st2" width="190.3" height="4.8"/>
</g>
<g>
	<defs>
		<path id="SVGID_5_" d="M136.1,61.6h-34.4V41.4h29.4v-11h-29.4V12.5h34.3v-11H87.3v71.1h48.7V61.6z M159.1,43.1h29v29.5h14.2V1.5
			h-14.2v30.6h-29V1.5h-14.3v71.1h14.3V43.1z M61.2,20l-1.4,31.4v21.2h14.3V1.5H55.4L37.2,53.9h-0.3L18.8,1.5H0.1v71.1h14.3V51.4
			L13,20.2h0.3l18.9,52.4h9.6l19-52.6H61.2z M44.8,91.6h190.3v-4.8H44.8V91.6z M288,9.1c-5.5-5.7-12.7-8.6-21.5-8.6
			s-15.9,2.9-21.3,8.6c-5.5,5.7-8.2,12.9-8.2,21.6v1.5h-6.2V1.5h-14.3v71.1h14.3V43.1h6.2v0.3c0,8.7,2.7,15.9,8.2,21.6
			s12.6,8.5,21.3,8.5c8.8,0,16-2.8,21.5-8.5s8.3-12.9,8.3-21.6V30.7C296.3,22,293.5,14.8,288,9.1z M282,43.5
			c0,5.6-1.4,10.2-4.1,13.8c-2.7,3.6-6.5,5.3-11.4,5.3c-4.8,0-8.6-1.8-11.3-5.3c-2.7-3.6-4.1-8.2-4.1-13.8V30.6
			c0-5.6,1.3-10.1,4-13.7c2.7-3.5,6.4-5.3,11.3-5.3c4.8,0,8.7,1.8,11.4,5.3c2.8,3.6,4.2,8.1,4.2,13.6V43.5z"/>
	</defs>
	<clipPath id="SVGID_6_">
		<use xlink:href="#SVGID_5_"  style="overflow:visible;"/>
	</clipPath>
	<path class="st3" d="M3.5,81.7c0.1-9.8,0.2-24.1,0-41.5C3,4.7,1.5-10.3,4-10.8c6-1.1,24.2,86.9,34,85.5c2.8-0.4,3.1-7.6,6-23
		c4.7-25.5,14-61.3,18.5-61c3.1,0.2,6.1,17.8,6.5,88"/>
</g>
<g>
	<defs>
		<path id="SVGID_7_" d="M136.1,61.6h-34.4V41.4h29.4v-11h-29.4V12.5h34.3v-11H87.3v71.1h48.7V61.6z M159.1,43.1h29v29.5h14.2V1.5
			h-14.2v30.6h-29V1.5h-14.3v71.1h14.3V43.1z M61.2,20l-1.4,31.4v21.2h14.3V1.5H55.4L37.2,53.9h-0.3L18.8,1.5H0.1v71.1h14.3V51.4
			L13,20.2h0.3l18.9,52.4h9.6l19-52.6H61.2z M44.8,91.6h190.3v-4.8H44.8V91.6z M288,9.1c-5.5-5.7-12.7-8.6-21.5-8.6
			s-15.9,2.9-21.3,8.6c-5.5,5.7-8.2,12.9-8.2,21.6v1.5h-6.2V1.5h-14.3v71.1h14.3V43.1h6.2v0.3c0,8.7,2.7,15.9,8.2,21.6
			s12.6,8.5,21.3,8.5c8.8,0,16-2.8,21.5-8.5s8.3-12.9,8.3-21.6V30.7C296.3,22,293.5,14.8,288,9.1z M282,43.5
			c0,5.6-1.4,10.2-4.1,13.8c-2.7,3.6-6.5,5.3-11.4,5.3c-4.8,0-8.6-1.8-11.3-5.3c-2.7-3.6-4.1-8.2-4.1-13.8V30.6
			c0-5.6,1.3-10.1,4-13.7c2.7-3.5,6.4-5.3,11.3-5.3c4.8,0,8.7,1.8,11.4,5.3c2.8,3.6,4.2,8.1,4.2,13.6V43.5z"/>
	</defs>
	<clipPath id="SVGID_8_">
		<use xlink:href="#SVGID_7_"  style="overflow:visible;"/>
	</clipPath>
	<path class="st4" d="M150.9-5.8"/>
</g>
<g>
	<defs>
		<path id="SVGID_9_" d="M136.1,61.6h-34.4V41.4h29.4v-11h-29.4V12.5h34.3v-11H87.3v71.1h48.7V61.6z M159.1,43.1h29v29.5h14.2V1.5
			h-14.2v30.6h-29V1.5h-14.3v71.1h14.3V43.1z M61.2,20l-1.4,31.4v21.2h14.3V1.5H55.4L37.2,53.9h-0.3L18.8,1.5H0.1v71.1h14.3V51.4
			L13,20.2h0.3l18.9,52.4h9.6l19-52.6H61.2z M44.8,91.6h190.3v-4.8H44.8V91.6z M288,9.1c-5.5-5.7-12.7-8.6-21.5-8.6
			s-15.9,2.9-21.3,8.6c-5.5,5.7-8.2,12.9-8.2,21.6v1.5h-6.2V1.5h-14.3v71.1h14.3V43.1h6.2v0.3c0,8.7,2.7,15.9,8.2,21.6
			s12.6,8.5,21.3,8.5c8.8,0,16-2.8,21.5-8.5s8.3-12.9,8.3-21.6V30.7C296.3,22,293.5,14.8,288,9.1z M282,43.5
			c0,5.6-1.4,10.2-4.1,13.8c-2.7,3.6-6.5,5.3-11.4,5.3c-4.8,0-8.6-1.8-11.3-5.3c-2.7-3.6-4.1-8.2-4.1-13.8V30.6
			c0-5.6,1.3-10.1,4-13.7c2.7-3.5,6.4-5.3,11.3-5.3c4.8,0,8.7,1.8,11.4,5.3c2.8,3.6,4.2,8.1,4.2,13.6V43.5z"/>
	</defs>
	<clipPath id="SVGID_10_">
		<use xlink:href="#SVGID_9_"  style="overflow:visible;"/>
	</clipPath>
	<path class="st5" d="M222.4-8.8c1.3,65,1.1,84.5,0.5,84.5c-0.8,0-4.4-33.8,6.8-38.5c4.3-1.8,8.9,1.3,12.7-2
		c3.2-2.8,1.4-6.8,3.5-12.5c0.3-0.7,5.9-15.5,15.5-17.5c10.3-2.1,23.4,10.9,26.5,24.5c3.7,16-5.6,36.4-18.5,38s-27-15.9-27-32.5
		c0-11.2,6.4-19.3,9-22.3"/>
</g>
<g>
	<defs>
		<path id="SVGID_11_" d="M136.1,61.6h-34.4V41.4h29.4v-11h-29.4V12.5h34.3v-11H87.3v71.1h48.7V61.6z M159.1,43.1h29v29.5h14.2V1.5
			h-14.2v30.6h-29V1.5h-14.3v71.1h14.3V43.1z M61.2,20l-1.4,31.4v21.2h14.3V1.5H55.4L37.2,53.9h-0.3L18.8,1.5H0.1v71.1h14.3V51.4
			L13,20.2h0.3l18.9,52.4h9.6l19-52.6H61.2z M44.8,91.6h190.3v-4.8H44.8V91.6z M288,9.1c-5.5-5.7-12.7-8.6-21.5-8.6
			s-15.9,2.9-21.3,8.6c-5.5,5.7-8.2,12.9-8.2,21.6v1.5h-6.2V1.5h-14.3v71.1h14.3V43.1h6.2v0.3c0,8.7,2.7,15.9,8.2,21.6
			s12.6,8.5,21.3,8.5c8.8,0,16-2.8,21.5-8.5s8.3-12.9,8.3-21.6V30.7C296.3,22,293.5,14.8,288,9.1z M282,43.5
			c0,5.6-1.4,10.2-4.1,13.8c-2.7,3.6-6.5,5.3-11.4,5.3c-4.8,0-8.6-1.8-11.3-5.3c-2.7-3.6-4.1-8.2-4.1-13.8V30.6
			c0-5.6,1.3-10.1,4-13.7c2.7-3.5,6.4-5.3,11.3-5.3c4.8,0,8.7,1.8,11.4,5.3c2.8,3.6,4.2,8.1,4.2,13.6V43.5z"/>
	</defs>
	<clipPath id="SVGID_12_">
		<use xlink:href="#SVGID_11_"  style="overflow:visible;"/>
	</clipPath>
	<path class="st6" d="M32.5,91.6H267c-33.8,13.5-67.7,26.9-101.5,40.4"/>
</g>
<g>
	<defs>
		<path id="SVGID_13_" d="M136.1,61.6h-34.4V41.4h29.4v-11h-29.4V12.5h34.3v-11H87.3v71.1h48.7V61.6z M159.1,43.1h29v29.5h14.2V1.5
			h-14.2v30.6h-29V1.5h-14.3v71.1h14.3V43.1z M61.2,20l-1.4,31.4v21.2h14.3V1.5H55.4L37.2,53.9h-0.3L18.8,1.5H0.1v71.1h14.3V51.4
			L13,20.2h0.3l18.9,52.4h9.6l19-52.6H61.2z M44.8,91.6h190.3v-4.8H44.8V91.6z M288,9.1c-5.5-5.7-12.7-8.6-21.5-8.6
			s-15.9,2.9-21.3,8.6c-5.5,5.7-8.2,12.9-8.2,21.6v1.5h-6.2V1.5h-14.3v71.1h14.3V43.1h6.2v0.3c0,8.7,2.7,15.9,8.2,21.6
			s12.6,8.5,21.3,8.5c8.8,0,16-2.8,21.5-8.5s8.3-12.9,8.3-21.6V30.7C296.3,22,293.5,14.8,288,9.1z M282,43.5
			c0,5.6-1.4,10.2-4.1,13.8c-2.7,3.6-6.5,5.3-11.4,5.3c-4.8,0-8.6-1.8-11.3-5.3c-2.7-3.6-4.1-8.2-4.1-13.8V30.6
			c0-5.6,1.3-10.1,4-13.7c2.7-3.5,6.4-5.3,11.3-5.3c4.8,0,8.7,1.8,11.4,5.3c2.8,3.6,4.2,8.1,4.2,13.6V43.5z"/>
	</defs>
	<clipPath id="SVGID_14_">
		<use xlink:href="#SVGID_13_"  style="overflow:visible;"/>
	</clipPath>
	<path class="st7" d="M196.1-2.7"/>
</g>
<g>
	<defs>
		<path id="SVGID_15_" d="M136.1,61.6h-34.4V41.4h29.4v-11h-29.4V12.5h34.3v-11H87.3v71.1h48.7V61.6z M159.1,43.1h29v29.5h14.2V1.5
			h-14.2v30.6h-29V1.5h-14.3v71.1h14.3V43.1z M61.2,20l-1.4,31.4v21.2h14.3V1.5H55.4L37.2,53.9h-0.3L18.8,1.5H0.1v71.1h14.3V51.4
			L13,20.2h0.3l18.9,52.4h9.6l19-52.6H61.2z M44.8,91.6h190.3v-4.8H44.8V91.6z M288,9.1c-5.5-5.7-12.7-8.6-21.5-8.6
			s-15.9,2.9-21.3,8.6c-5.5,5.7-8.2,12.9-8.2,21.6v1.5h-6.2V1.5h-14.3v71.1h14.3V43.1h6.2v0.3c0,8.7,2.7,15.9,8.2,21.6
			s12.6,8.5,21.3,8.5c8.8,0,16-2.8,21.5-8.5s8.3-12.9,8.3-21.6V30.7C296.3,22,293.5,14.8,288,9.1z M282,43.5
			c0,5.6-1.4,10.2-4.1,13.8c-2.7,3.6-6.5,5.3-11.4,5.3c-4.8,0-8.6-1.8-11.3-5.3c-2.7-3.6-4.1-8.2-4.1-13.8V30.6
			c0-5.6,1.3-10.1,4-13.7c2.7-3.5,6.4-5.3,11.3-5.3c4.8,0,8.7,1.8,11.4,5.3c2.8,3.6,4.2,8.1,4.2,13.6V43.5z"/>
	</defs>
	<clipPath id="SVGID_16_">
		<use xlink:href="#SVGID_15_"  style="overflow:visible;"/>
	</clipPath>
	<path class="st8" d="M137.9,6.3c-5.2-0.4-12.8-0.9-22.1-0.7C104.2,5.8,98.3,6,95.3,8.7c-4.4,3.8-2.9,8.6-3.5,31.4
		c-0.5,18.4-1.7,23.3,2.3,26.9c1.7,1.6,4.4,2.9,18,2.4c10.9-0.4,19.9-1.6,26.4-2.8"/>
</g>
<g>
	<defs>
		<path id="SVGID_17_" d="M136.1,61.6h-34.4V41.4h29.4v-11h-29.4V12.5h34.3v-11H87.3v71.1h48.7V61.6z M159.1,43.1h29v29.5h14.2V1.5
			h-14.2v30.6h-29V1.5h-14.3v71.1h14.3V43.1z M61.2,20l-1.4,31.4v21.2h14.3V1.5H55.4L37.2,53.9h-0.3L18.8,1.5H0.1v71.1h14.3V51.4
			L13,20.2h0.3l18.9,52.4h9.6l19-52.6H61.2z M44.8,91.6h190.3v-4.8H44.8V91.6z M288,9.1c-5.5-5.7-12.7-8.6-21.5-8.6
			s-15.9,2.9-21.3,8.6c-5.5,5.7-8.2,12.9-8.2,21.6v1.5h-6.2V1.5h-14.3v71.1h14.3V43.1h6.2v0.3c0,8.7,2.7,15.9,8.2,21.6
			s12.6,8.5,21.3,8.5c8.8,0,16-2.8,21.5-8.5s8.3-12.9,8.3-21.6V30.7C296.3,22,293.5,14.8,288,9.1z M282,43.5
			c0,5.6-1.4,10.2-4.1,13.8c-2.7,3.6-6.5,5.3-11.4,5.3c-4.8,0-8.6-1.8-11.3-5.3c-2.7-3.6-4.1-8.2-4.1-13.8V30.6
			c0-5.6,1.3-10.1,4-13.7c2.7-3.5,6.4-5.3,11.3-5.3c4.8,0,8.7,1.8,11.4,5.3c2.8,3.6,4.2,8.1,4.2,13.6V43.5z"/>
	</defs>
	<clipPath id="SVGID_18_">
		<use xlink:href="#SVGID_17_"  style="overflow:visible;"/>
	</clipPath>
	<line class="st9" x1="83.8" y1="37.4" x2="134.9" y2="37.4"/>
</g>
<g>
	<defs>
		<path id="SVGID_19_" d="M136.1,61.6h-34.4V41.4h29.4v-11h-29.4V12.5h34.3v-11H87.3v71.1h48.7V61.6z M159.1,43.1h29v29.5h14.2V1.5
			h-14.2v30.6h-29V1.5h-14.3v71.1h14.3V43.1z M61.2,20l-1.4,31.4v21.2h14.3V1.5H55.4L37.2,53.9h-0.3L18.8,1.5H0.1v71.1h14.3V51.4
			L13,20.2h0.3l18.9,52.4h9.6l19-52.6H61.2z M44.8,91.6h190.3v-4.8H44.8V91.6z M288,9.1c-5.5-5.7-12.7-8.6-21.5-8.6
			s-15.9,2.9-21.3,8.6c-5.5,5.7-8.2,12.9-8.2,21.6v1.5h-6.2V1.5h-14.3v71.1h14.3V43.1h6.2v0.3c0,8.7,2.7,15.9,8.2,21.6
			s12.6,8.5,21.3,8.5c8.8,0,16-2.8,21.5-8.5s8.3-12.9,8.3-21.6V30.7C296.3,22,293.5,14.8,288,9.1z M282,43.5
			c0,5.6-1.4,10.2-4.1,13.8c-2.7,3.6-6.5,5.3-11.4,5.3c-4.8,0-8.6-1.8-11.3-5.3c-2.7-3.6-4.1-8.2-4.1-13.8V30.6
			c0-5.6,1.3-10.1,4-13.7c2.7-3.5,6.4-5.3,11.3-5.3c4.8,0,8.7,1.8,11.4,5.3c2.8,3.6,4.2,8.1,4.2,13.6V43.5z"/>
	</defs>
	<clipPath id="SVGID_20_">
		<use xlink:href="#SVGID_19_"  style="overflow:visible;"/>
	</clipPath>
	<line class="st10" x1="151.1" y1="-0.7" x2="151.4" y2="75.7"/>
</g>
<g>
	<defs>
		<path id="SVGID_21_" d="M136.1,61.6h-34.4V41.4h29.4v-11h-29.4V12.5h34.3v-11H87.3v71.1h48.7V61.6z M159.1,43.1h29v29.5h14.2V1.5
			h-14.2v30.6h-29V1.5h-14.3v71.1h14.3V43.1z M61.2,20l-1.4,31.4v21.2h14.3V1.5H55.4L37.2,53.9h-0.3L18.8,1.5H0.1v71.1h14.3V51.4
			L13,20.2h0.3l18.9,52.4h9.6l19-52.6H61.2z M44.8,91.6h190.3v-4.8H44.8V91.6z M288,9.1c-5.5-5.7-12.7-8.6-21.5-8.6
			s-15.9,2.9-21.3,8.6c-5.5,5.7-8.2,12.9-8.2,21.6v1.5h-6.2V1.5h-14.3v71.1h14.3V43.1h6.2v0.3c0,8.7,2.7,15.9,8.2,21.6
			s12.6,8.5,21.3,8.5c8.8,0,16-2.8,21.5-8.5s8.3-12.9,8.3-21.6V30.7C296.3,22,293.5,14.8,288,9.1z M282,43.5
			c0,5.6-1.4,10.2-4.1,13.8c-2.7,3.6-6.5,5.3-11.4,5.3c-4.8,0-8.6-1.8-11.3-5.3c-2.7-3.6-4.1-8.2-4.1-13.8V30.6
			c0-5.6,1.3-10.1,4-13.7c2.7-3.5,6.4-5.3,11.3-5.3c4.8,0,8.7,1.8,11.4,5.3c2.8,3.6,4.2,8.1,4.2,13.6V43.5z"/>
	</defs>
	<clipPath id="SVGID_22_">
		<use xlink:href="#SVGID_21_"  style="overflow:visible;"/>
	</clipPath>
	<line class="st11" x1="141.9" y1="36.3" x2="189.6" y2="36.1"/>
</g>
<g>
	<defs>
		<path id="SVGID_23_" d="M136.1,61.6h-34.4V41.4h29.4v-11h-29.4V12.5h34.3v-11H87.3v71.1h48.7V61.6z M159.1,43.1h29v29.5h14.2V1.5
			h-14.2v30.6h-29V1.5h-14.3v71.1h14.3V43.1z M61.2,20l-1.4,31.4v21.2h14.3V1.5H55.4L37.2,53.9h-0.3L18.8,1.5H0.1v71.1h14.3V51.4
			L13,20.2h0.3l18.9,52.4h9.6l19-52.6H61.2z M44.8,91.6h190.3v-4.8H44.8V91.6z M288,9.1c-5.5-5.7-12.7-8.6-21.5-8.6
			s-15.9,2.9-21.3,8.6c-5.5,5.7-8.2,12.9-8.2,21.6v1.5h-6.2V1.5h-14.3v71.1h14.3V43.1h6.2v0.3c0,8.7,2.7,15.9,8.2,21.6
			s12.6,8.5,21.3,8.5c8.8,0,16-2.8,21.5-8.5s8.3-12.9,8.3-21.6V30.7C296.3,22,293.5,14.8,288,9.1z M282,43.5
			c0,5.6-1.4,10.2-4.1,13.8c-2.7,3.6-6.5,5.3-11.4,5.3c-4.8,0-8.6-1.8-11.3-5.3c-2.7-3.6-4.1-8.2-4.1-13.8V30.6
			c0-5.6,1.3-10.1,4-13.7c2.7-3.5,6.4-5.3,11.3-5.3c4.8,0,8.7,1.8,11.4,5.3c2.8,3.6,4.2,8.1,4.2,13.6V43.5z"/>
	</defs>
	<clipPath id="SVGID_24_">
		<use xlink:href="#SVGID_23_"  style="overflow:visible;"/>
	</clipPath>
	<line class="st12" x1="196.1" y1="75.7" x2="192.3" y2="-2.7"/>
</g>
</svg>
