<?xml version="1.0" encoding="utf-8"?>
<!-- Generator: Adobe Illustrator 21.1.0, SVG Export Plug-In . SVG Version: 6.00 Build 0)  -->
<svg version="1.1" id="Слой_1" xmlns="http://www.w3.org/2000/svg" xmlns:xlink="http://www.w3.org/1999/xlink" x="0px" y="0px"
	 viewBox="0 0 267 70" style="enable-background:new 0 0 267 70;" xml:space="preserve">
<style type="text/css">
	.st0{fill:none;stroke:#000000;stroke-linecap:round;stroke-miterlimit:5;}
	.st1{fill:none;stroke:#000000;stroke-width:3;stroke-linecap:square;stroke-miterlimit:5;}
</style>
<g>
	<path class="st0" d="M19.2,29.9h-4.6v17.1H4.7V4.4h9.9v16.7H18l9.4-16.7h12.3L26.4,23.7l14.4,23.3H28.7L19.2,29.9z"/>
	<path class="st0" d="M61.2,47c-0.3-0.5-0.5-1.1-0.7-1.7c-0.2-0.6-0.4-1.3-0.6-1.9c-0.9,1.3-2.1,2.3-3.4,3.1
		c-1.3,0.8-2.9,1.2-4.8,1.2c-3,0-5.5-0.9-7.3-2.6c-1.9-1.7-2.8-4.1-2.8-6.9c0-3.1,1.2-5.6,3.5-7.3c2.4-1.7,5.9-2.6,10.7-2.6h3.6V26
		c0-1.3-0.3-2.4-1-3.1c-0.6-0.7-1.6-1.1-2.9-1.1c-1.1,0-2,0.3-2.5,0.8c-0.6,0.5-0.8,1.4-0.8,2.5l-9.6,0l-0.1-0.2
		c-0.1-2.9,1.1-5.3,3.6-7.3c2.5-1.9,5.9-2.9,10.1-2.9c3.9,0,7.1,1,9.5,2.9c2.4,2,3.6,4.7,3.6,8.4v12c0,1.7,0.1,3.3,0.4,4.7
		c0.3,1.4,0.7,2.9,1.3,4.3L61.2,47z M54.7,40.6c1,0,1.9-0.2,2.7-0.6c0.8-0.4,1.5-0.9,2-1.5v-5h-3.5c-1.6,0-2.7,0.4-3.4,1.1
		c-0.7,0.8-1.1,1.7-1.1,2.9c0,0.9,0.3,1.6,0.9,2.2S53.7,40.6,54.7,40.6z"/>
	<path class="st0" d="M102.9,47.1H93v-9.5c-0.6,0.1-1.2,0.2-1.6,0.2c-0.5,0-0.9,0.1-1.3,0.1c-5.1,0-9-1-11.7-3c-2.7-2-4-5.1-4-9.3
		V15.4h9.9v10.2c0,1.9,0.4,3.1,1.2,3.7c0.8,0.6,2.4,0.9,4.6,0.9c0.5,0,0.9,0,1.4-0.1c0.5,0,1-0.1,1.5-0.2V15.4h9.9V47.1z"/>
	<path class="st0" d="M122.7,47.7c-4.7,0-8.4-1.5-11.2-4.4s-4.2-6.6-4.2-11v-1.1c0-4.8,1.3-8.8,3.8-11.8c2.5-3.1,6.1-4.6,10.9-4.6
		c4.3,0,7.7,1.3,10.1,3.9c2.4,2.6,3.7,6.1,3.7,10.5v5.2h-18.1l-0.1,0.2c0.2,1.6,0.9,3,2,4c1.1,1,2.6,1.6,4.5,1.6
		c1.9,0,3.4-0.1,4.5-0.4c1.1-0.3,2.5-0.8,4.3-1.5l2.3,6c-1.4,1-3.2,1.9-5.4,2.5S125.2,47.7,122.7,47.7z M122,22.4
		c-1.4,0-2.5,0.5-3.2,1.5c-0.7,1-1.1,2.4-1.3,4.1l0.1,0.1h8.5v-0.8c0-1.6-0.3-2.8-1-3.7C124.4,22.8,123.4,22.4,122,22.4z"/>
	<path class="st0" d="M153.5,40.1c1.3,0,2.3-0.4,3-1.1c0.6-0.7,1-1.8,1-3.2h9.1l0.1,0.2c0.1,3.5-1.1,6.3-3.6,8.5
		c-2.5,2.2-5.6,3.3-9.4,3.3c-4.8,0-8.5-1.5-11.1-4.5s-3.9-6.9-3.9-11.6v-0.7c0-4.7,1.3-8.6,3.9-11.6c2.6-3,6.3-4.5,11-4.5
		c4,0,7.2,1.1,9.6,3.4c2.4,2.2,3.6,5.3,3.5,9.2l-0.1,0.2h-9.1c0-1.5-0.3-2.7-1-3.7c-0.7-0.9-1.7-1.4-3-1.4c-1.9,0-3.2,0.8-3.9,2.3
		c-0.8,1.5-1.1,3.6-1.1,6.2v0.7c0,2.7,0.4,4.7,1.1,6.2C150.2,39.3,151.6,40.1,153.5,40.1z"/>
	<path class="st0" d="M198.3,23h-10v24.1h-9.9V23h-9.8v-7.6h29.8V23z"/>
	<path class="st0" d="M202.7,47.1V15.4h13.6c4.3,0,7.6,0.7,9.9,2.2c2.4,1.5,3.5,3.7,3.5,6.6c0,1.5-0.5,2.8-1.6,4
		c-1,1.2-2.5,2-4.4,2.7c2.6,0.5,4.6,1.3,5.9,2.6c1.3,1.3,2,2.8,2,4.5c0,3-1.1,5.2-3.4,6.8c-2.3,1.5-5.6,2.3-9.9,2.3H202.7z
		 M212.6,28h4.1c1.2,0,2-0.2,2.5-0.6s0.7-1,0.7-1.8c0-1-0.3-1.7-0.9-2.1s-1.5-0.6-2.7-0.6h-3.7V28z M212.6,34.1v5.3h5.8
		c1.2,0,2.1-0.2,2.6-0.6c0.5-0.4,0.8-1.1,0.8-2c0-0.9-0.3-1.5-0.8-2c-0.5-0.5-1.4-0.7-2.7-0.7H212.6z"/>
	<path class="st0" d="M234.4,30.9c0-4.8,1.3-8.6,4-11.6c2.7-3,6.5-4.5,11.3-4.5c4.8,0,8.6,1.5,11.3,4.5c2.7,3,4,6.9,4,11.6v0.6
		c0,4.8-1.3,8.7-4,11.7s-6.4,4.5-11.3,4.5c-4.9,0-8.6-1.5-11.3-4.5s-4-6.9-4-11.7V30.9z M244.3,31.5c0,2.7,0.4,4.7,1.2,6.3
		c0.8,1.5,2.2,2.3,4.2,2.3c1.9,0,3.3-0.8,4.2-2.3c0.8-1.5,1.3-3.6,1.3-6.2v-0.6c0-2.6-0.4-4.6-1.3-6.2c-0.8-1.6-2.2-2.3-4.2-2.3
		c-2,0-3.3,0.8-4.2,2.3c-0.8,1.6-1.2,3.6-1.2,6.2V31.5z"/>
</g>
<line class="st1" x1="3.5" y1="63.5" x2="263.5" y2="63.5"/>
</svg>
