<?xml version="1.0" encoding="utf-8"?>
<!-- Generator: Adobe Illustrator 21.1.0, SVG Export Plug-In . SVG Version: 6.00 Build 0)  -->
<svg version="1.1" id="Слой_1" xmlns="http://www.w3.org/2000/svg" xmlns:xlink="http://www.w3.org/1999/xlink" x="0px" y="0px"
	 viewBox="0 0 497.2 91.2" style="enable-background:new 0 0 497.2 91.2;" xml:space="preserve">
<style type="text/css">
	.st0{clip-path:url(#SVGID_2_);}
	.st1{fill:none;stroke:#000000;stroke-width:3;stroke-miterlimit:10;}
	.st2{clip-path:url(#SVGID_4_);fill:none;}
	.st3{clip-path:url(#SVGID_6_);fill:none;stroke:#000000;stroke-width:14;stroke-miterlimit:10;}
	.st4{clip-path:url(#SVGID_8_);fill:none;stroke:#000000;stroke-width:14;stroke-miterlimit:10;}
	.st5{clip-path:url(#SVGID_10_);fill:none;stroke:#000000;stroke-width:14;stroke-miterlimit:10;}
	.st6{clip-path:url(#SVGID_12_);fill:none;stroke:#000000;stroke-width:14;stroke-miterlimit:10;}
	.st7{clip-path:url(#SVGID_14_);fill:none;stroke:#000000;stroke-width:14;stroke-miterlimit:10;}
	.st8{clip-path:url(#SVGID_16_);fill:none;stroke:#000000;stroke-width:14;stroke-miterlimit:10;}
	.st9{clip-path:url(#SVGID_18_);fill:none;stroke:#000000;stroke-width:14;stroke-miterlimit:10;}
	.st10{clip-path:url(#SVGID_20_);fill:none;stroke:#000000;stroke-width:14;stroke-miterlimit:10;}
	.st11{clip-path:url(#SVGID_22_);fill:none;stroke:#000000;stroke-width:14;stroke-miterlimit:10;}
	.st12{clip-path:url(#SVGID_24_);fill:none;stroke:#000000;stroke-width:14;stroke-miterlimit:10;}
	.st13{clip-path:url(#SVGID_26_);fill:none;stroke:#000000;stroke-width:14;stroke-miterlimit:10;}
	.st14{clip-path:url(#SVGID_28_);fill:none;stroke:#000000;stroke-width:14;stroke-miterlimit:10;}
	.st15{clip-path:url(#SVGID_30_);fill:none;stroke:#000000;stroke-width:16;stroke-miterlimit:10;}
	.st16{clip-path:url(#SVGID_32_);fill:none;stroke:#000000;stroke-width:16;stroke-miterlimit:10;}
	.st17{clip-path:url(#SVGID_34_);fill:none;stroke:#000000;stroke-width:16;stroke-miterlimit:10;}
	.st18{clip-path:url(#SVGID_36_);fill:none;stroke:#000000;stroke-width:16;stroke-miterlimit:10;}
	.st19{clip-path:url(#SVGID_38_);fill:none;stroke:#000000;stroke-width:16;stroke-miterlimit:10;}
	.st20{clip-path:url(#SVGID_40_);fill:none;stroke:#000000;stroke-width:16;stroke-miterlimit:10;}
	.st21{clip-path:url(#SVGID_42_);fill:none;stroke:#000000;stroke-width:17;stroke-miterlimit:10;}
	.st22{clip-path:url(#SVGID_44_);fill:none;stroke:#000000;stroke-width:17;stroke-miterlimit:10;}
</style>
<g>
	<defs>
		<path id="SVGID_1_" d="M247,61.7h-34.4V41.5H242v-11h-29.4V12.6h34.3v-11h-48.6v71.1H247V61.7z M332.8,72.7h14.3V12.6h20.1v-11
			h-54.4v11h20V72.7z M282.5,73.7c8.5,0,15.2-2.2,20-6.7s7.1-10.6,7-18.2l-0.1-0.3h-13.8c0,4.7-1.1,8.3-3.2,10.7
			c-2.1,2.4-5.4,3.6-9.9,3.6s-8.1-1.7-10.7-5.2s-4-7.9-4-13.3V30c0-5.4,1.3-9.8,3.8-13.2c2.5-3.5,5.9-5.2,10.2-5.2
			c4.8,0,8.3,1.2,10.5,3.7s3.4,6.1,3.4,10.8h13.9l0.1-0.3c0.1-7.8-2.3-13.9-7.2-18.4c-4.9-4.5-11.8-6.8-20.6-6.8
			c-8.3,0-15.1,2.8-20.3,8.3c-5.2,5.5-7.8,12.6-7.8,21.2v14.1c0,8.7,2.7,15.7,8,21.2C267,71,274,73.7,282.5,73.7z M136.2,41.3
			c4.8,3.8,11.5,5.7,20.2,5.7c2.1,0,4.5-0.1,7.2-0.4c2.7-0.3,5.1-0.7,7.2-1.2v27.4h14.3V1.6h-14.3v32.7c-2.1,0.5-4.6,0.9-7.3,1.2
			s-5.1,0.4-7.1,0.4c-4.6,0-8-0.9-10-2.6c-2.1-1.8-3.1-4.9-3.1-9.6V1.6H129v22.1C129,31.6,131.4,37.5,136.2,41.3z M415.5,35.7
			c3.3-1.3,5.9-3.2,7.6-5.8s2.6-5.5,2.6-8.8c0-6.5-2.3-11.3-7-14.6s-11.2-4.9-19.6-4.9h-24v71.1h27.4c8.2,0,14.6-1.7,19.1-5.2
			c4.5-3.5,6.7-8.7,6.7-15.5c0-3.9-1.1-7.4-3.2-10.4S419.8,36.6,415.5,35.7z M389.4,12.6h9.8c4.1,0,7.2,0.8,9.3,2.3
			c2.1,1.6,3.1,4,3.1,7.3c0,3-1,5.3-3.1,6.8s-5,2.3-8.8,2.3h-10.3V12.6z M411.1,59.3c-2,1.6-4.9,2.5-8.6,2.5h-13.1V41.3h14.2
			c3.6,0,6.3,0.9,8,2.8c1.7,1.8,2.5,4.5,2.5,8C414.1,55.2,413.1,57.6,411.1,59.3z M107.8,72.7h14.4L97.8,1.6H83.2l-24.4,71
			L33.1,34.7L57,1.6H39.5L20.7,30.7h-6.2V1.6H0.2v71.1h14.3V43h7.9l19.1,29.7h31.7L78,57.4h25L107.8,72.7z M81.5,46.2l8.8-27.9h0.3
			l8.8,27.9H81.5z M488.1,9.2c-5.5-5.7-12.7-8.6-21.5-8.6s-15.9,2.9-21.3,8.6c-5.5,5.7-8.2,12.9-8.2,21.6v12.8
			c0,8.7,2.7,15.9,8.2,21.6s12.6,8.5,21.3,8.5c8.8,0,16-2.8,21.5-8.5s8.3-12.9,8.3-21.6V30.8C496.4,22.1,493.7,14.9,488.1,9.2z
			 M482.2,43.6c0,5.6-1.4,10.2-4.1,13.8s-6.5,5.3-11.4,5.3c-4.8,0-8.6-1.8-11.3-5.3c-2.7-3.6-4.1-8.2-4.1-13.8V30.7
			c0-5.6,1.3-10.1,4-13.7c2.7-3.5,6.4-5.3,11.3-5.3c4.8,0,8.7,1.8,11.4,5.3c2.8,3.6,4.2,8.1,4.2,13.6V43.6z M102.4,90.9h286.4v-4
			H102.4V90.9z"/>
	</defs>
	<clipPath id="SVGID_2_">
		<use xlink:href="#SVGID_1_"  style="overflow:visible;"/>
	</clipPath>
	<g class="st0">
		<path class="st1" d="M22.4,43h-7.9v29.7H0.2V1.6h14.3v29.1h6.2L39.5,1.6h17.4L33.1,34.7l25.8,38H41.5L22.4,43z"/>
		<path class="st1" d="M103,57.4H78l-4.8,15.3H58.8L83.2,1.6h14.6l24.4,71.1h-14.4L103,57.4z M81.5,46.2h17.9l-8.8-27.9h-0.3
			L81.5,46.2z"/>
		<path class="st1" d="M185.1,1.6v71.1h-14.3V45.3c-2.1,0.5-4.6,0.9-7.2,1.2c-2.7,0.3-5.1,0.4-7.2,0.4c-8.7,0-15.5-1.9-20.2-5.7
			c-4.8-3.8-7.2-9.6-7.2-17.5V1.6h14.3v22.1c0,4.6,1,7.8,3.1,9.6c2.1,1.8,5.4,2.6,10,2.6c2,0,4.4-0.1,7.1-0.4
			c2.7-0.3,5.2-0.7,7.3-1.2V1.6H185.1z"/>
		<path class="st1" d="M242,41.5h-29.4v20.3H247v11h-48.7V1.6h48.6v11h-34.3v17.9H242V41.5z"/>
		<path class="st1" d="M309.4,48.5l0.1,0.3c0.1,7.6-2.2,13.7-7,18.2s-11.5,6.7-20,6.7c-8.6,0-15.5-2.8-20.8-8.3s-8-12.6-8-21.2V30.1
			c0-8.6,2.6-15.7,7.8-21.2c5.2-5.5,12-8.3,20.3-8.3c8.8,0,15.7,2.3,20.6,6.8s7.4,10.7,7.2,18.4l-0.1,0.3h-13.9
			c0-4.7-1.1-8.3-3.4-10.8s-5.7-3.7-10.5-3.7c-4.3,0-7.6,1.7-10.2,5.2c-2.5,3.5-3.8,7.9-3.8,13.2v14.2c0,5.4,1.3,9.9,4,13.3
			s6.2,5.2,10.7,5.2s7.8-1.2,9.9-3.6s3.2-5.9,3.2-10.7L309.4,48.5L309.4,48.5z"/>
		<path class="st1" d="M367.1,12.6H347v60.1h-14.2V12.6h-20v-11h54.4v11H367.1z"/>
		<path class="st1" d="M375.1,72.7V1.6h24c8.4,0,14.9,1.6,19.6,4.9s7,8.1,7,14.6c0,3.3-0.9,6.2-2.6,8.8s-4.3,4.5-7.6,5.8
			c4.3,0.9,7.5,2.9,9.6,5.9s3.2,6.5,3.2,10.4c0,6.8-2.2,12-6.7,15.5c-4.5,3.5-10.9,5.2-19.1,5.2H375.1z M389.4,31.4h10.3
			c3.8,0,6.7-0.8,8.8-2.3s3.1-3.8,3.1-6.8c0-3.3-1-5.7-3.1-7.3c-2.1-1.6-5.2-2.3-9.3-2.3h-9.8V31.4z M389.4,41.3v20.5h13.1
			c3.8,0,6.7-0.8,8.6-2.5c2-1.6,3-4.1,3-7.3c0-3.5-0.8-6.1-2.5-8c-1.7-1.8-4.4-2.8-8-2.8L389.4,41.3L389.4,41.3z"/>
		<path class="st1" d="M496.4,43.5c0,8.7-2.8,15.9-8.3,21.6s-12.7,8.5-21.5,8.5s-15.9-2.8-21.3-8.5c-5.5-5.7-8.2-12.9-8.2-21.6V30.8
			c0-8.7,2.7-15.9,8.2-21.6s12.6-8.6,21.3-8.6c8.8,0,16,2.9,21.5,8.6s8.3,12.9,8.3,21.6V43.5z M482.2,30.7c0-5.5-1.4-10.1-4.2-13.6
			c-2.8-3.6-6.6-5.3-11.4-5.3c-4.9,0-8.6,1.8-11.3,5.3c-2.7,3.5-4,8.1-4,13.7v12.9c0,5.6,1.4,10.2,4.1,13.8s6.5,5.3,11.3,5.3
			c4.9,0,8.7-1.8,11.4-5.3c2.7-3.6,4.1-8.2,4.1-13.8V30.7z"/>
	</g>
</g>
<g>
	<defs>
		<path id="SVGID_3_" d="M247,61.7h-34.4V41.5H242v-11h-29.4V12.6h34.3v-11h-48.6v71.1H247V61.7z M332.8,72.7h14.3V12.6h20.1v-11
			h-54.4v11h20V72.7z M282.5,73.7c8.5,0,15.2-2.2,20-6.7s7.1-10.6,7-18.2l-0.1-0.3h-13.8c0,4.7-1.1,8.3-3.2,10.7
			c-2.1,2.4-5.4,3.6-9.9,3.6s-8.1-1.7-10.7-5.2s-4-7.9-4-13.3V30c0-5.4,1.3-9.8,3.8-13.2c2.5-3.5,5.9-5.2,10.2-5.2
			c4.8,0,8.3,1.2,10.5,3.7s3.4,6.1,3.4,10.8h13.9l0.1-0.3c0.1-7.8-2.3-13.9-7.2-18.4c-4.9-4.5-11.8-6.8-20.6-6.8
			c-8.3,0-15.1,2.8-20.3,8.3c-5.2,5.5-7.8,12.6-7.8,21.2v14.1c0,8.7,2.7,15.7,8,21.2C267,71,274,73.7,282.5,73.7z M136.2,41.3
			c4.8,3.8,11.5,5.7,20.2,5.7c2.1,0,4.5-0.1,7.2-0.4c2.7-0.3,5.1-0.7,7.2-1.2v27.4h14.3V1.6h-14.3v32.7c-2.1,0.5-4.6,0.9-7.3,1.2
			s-5.1,0.4-7.1,0.4c-4.6,0-8-0.9-10-2.6c-2.1-1.8-3.1-4.9-3.1-9.6V1.6H129v22.1C129,31.6,131.4,37.5,136.2,41.3z M415.5,35.7
			c3.3-1.3,5.9-3.2,7.6-5.8s2.6-5.5,2.6-8.8c0-6.5-2.3-11.3-7-14.6s-11.2-4.9-19.6-4.9h-24v71.1h27.4c8.2,0,14.6-1.7,19.1-5.2
			c4.5-3.5,6.7-8.7,6.7-15.5c0-3.9-1.1-7.4-3.2-10.4S419.8,36.6,415.5,35.7z M389.4,12.6h9.8c4.1,0,7.2,0.8,9.3,2.3
			c2.1,1.6,3.1,4,3.1,7.3c0,3-1,5.3-3.1,6.8s-5,2.3-8.8,2.3h-10.3V12.6z M411.1,59.3c-2,1.6-4.9,2.5-8.6,2.5h-13.1V41.3h14.2
			c3.6,0,6.3,0.9,8,2.8c1.7,1.8,2.5,4.5,2.5,8C414.1,55.2,413.1,57.6,411.1,59.3z M107.8,72.7h14.4L97.8,1.6H83.2l-24.4,71
			L33.1,34.7L57,1.6H39.5L20.7,30.7h-6.2V1.6H0.2v71.1h14.3V43h7.9l19.1,29.7h31.7L78,57.4h25L107.8,72.7z M81.5,46.2l8.8-27.9h0.3
			l8.8,27.9H81.5z M488.1,9.2c-5.5-5.7-12.7-8.6-21.5-8.6s-15.9,2.9-21.3,8.6c-5.5,5.7-8.2,12.9-8.2,21.6v12.8
			c0,8.7,2.7,15.9,8.2,21.6s12.6,8.5,21.3,8.5c8.8,0,16-2.8,21.5-8.5s8.3-12.9,8.3-21.6V30.8C496.4,22.1,493.7,14.9,488.1,9.2z
			 M482.2,43.6c0,5.6-1.4,10.2-4.1,13.8s-6.5,5.3-11.4,5.3c-4.8,0-8.6-1.8-11.3-5.3c-2.7-3.6-4.1-8.2-4.1-13.8V30.7
			c0-5.6,1.3-10.1,4-13.7c2.7-3.5,6.4-5.3,11.3-5.3c4.8,0,8.7,1.8,11.4,5.3c2.8,3.6,4.2,8.1,4.2,13.6V43.6z M102.4,90.9h286.4v-4
			H102.4V90.9z"/>
	</defs>
	<clipPath id="SVGID_4_">
		<use xlink:href="#SVGID_3_"  style="overflow:visible;"/>
	</clipPath>
	<rect x="102.4" y="86.9" class="st2" width="286.4" height="4"/>
</g>
<g>
	<defs>
		<path id="SVGID_5_" d="M247,61.7h-34.4V41.5H242v-11h-29.4V12.6h34.3v-11h-48.6v71.1H247V61.7z M332.8,72.7h14.3V12.6h20.1v-11
			h-54.4v11h20V72.7z M282.5,73.7c8.5,0,15.2-2.2,20-6.7s7.1-10.6,7-18.2l-0.1-0.3h-13.8c0,4.7-1.1,8.3-3.2,10.7
			c-2.1,2.4-5.4,3.6-9.9,3.6s-8.1-1.7-10.7-5.2s-4-7.9-4-13.3V30c0-5.4,1.3-9.8,3.8-13.2c2.5-3.5,5.9-5.2,10.2-5.2
			c4.8,0,8.3,1.2,10.5,3.7s3.4,6.1,3.4,10.8h13.9l0.1-0.3c0.1-7.8-2.3-13.9-7.2-18.4c-4.9-4.5-11.8-6.8-20.6-6.8
			c-8.3,0-15.1,2.8-20.3,8.3c-5.2,5.5-7.8,12.6-7.8,21.2v14.1c0,8.7,2.7,15.7,8,21.2C267,71,274,73.7,282.5,73.7z M136.2,41.3
			c4.8,3.8,11.5,5.7,20.2,5.7c2.1,0,4.5-0.1,7.2-0.4c2.7-0.3,5.1-0.7,7.2-1.2v27.4h14.3V1.6h-14.3v32.7c-2.1,0.5-4.6,0.9-7.3,1.2
			s-5.1,0.4-7.1,0.4c-4.6,0-8-0.9-10-2.6c-2.1-1.8-3.1-4.9-3.1-9.6V1.6H129v22.1C129,31.6,131.4,37.5,136.2,41.3z M415.5,35.7
			c3.3-1.3,5.9-3.2,7.6-5.8s2.6-5.5,2.6-8.8c0-6.5-2.3-11.3-7-14.6s-11.2-4.9-19.6-4.9h-24v71.1h27.4c8.2,0,14.6-1.7,19.1-5.2
			c4.5-3.5,6.7-8.7,6.7-15.5c0-3.9-1.1-7.4-3.2-10.4S419.8,36.6,415.5,35.7z M389.4,12.6h9.8c4.1,0,7.2,0.8,9.3,2.3
			c2.1,1.6,3.1,4,3.1,7.3c0,3-1,5.3-3.1,6.8s-5,2.3-8.8,2.3h-10.3V12.6z M411.1,59.3c-2,1.6-4.9,2.5-8.6,2.5h-13.1V41.3h14.2
			c3.6,0,6.3,0.9,8,2.8c1.7,1.8,2.5,4.5,2.5,8C414.1,55.2,413.1,57.6,411.1,59.3z M107.8,72.7h14.4L97.8,1.6H83.2l-24.4,71
			L33.1,34.7L57,1.6H39.5L20.7,30.7h-6.2V1.6H0.2v71.1h14.3V43h7.9l19.1,29.7h31.7L78,57.4h25L107.8,72.7z M81.5,46.2l8.8-27.9h0.3
			l8.8,27.9H81.5z M488.1,9.2c-5.5-5.7-12.7-8.6-21.5-8.6s-15.9,2.9-21.3,8.6c-5.5,5.7-8.2,12.9-8.2,21.6v12.8
			c0,8.7,2.7,15.9,8.2,21.6s12.6,8.5,21.3,8.5c8.8,0,16-2.8,21.5-8.5s8.3-12.9,8.3-21.6V30.8C496.4,22.1,493.7,14.9,488.1,9.2z
			 M482.2,43.6c0,5.6-1.4,10.2-4.1,13.8s-6.5,5.3-11.4,5.3c-4.8,0-8.6-1.8-11.3-5.3c-2.7-3.6-4.1-8.2-4.1-13.8V30.7
			c0-5.6,1.3-10.1,4-13.7c2.7-3.5,6.4-5.3,11.3-5.3c4.8,0,8.7,1.8,11.4,5.3c2.8,3.6,4.2,8.1,4.2,13.6V43.6z M102.4,90.9h286.4v-4
			H102.4V90.9z"/>
	</defs>
	<clipPath id="SVGID_6_">
		<use xlink:href="#SVGID_5_"  style="overflow:visible;"/>
	</clipPath>
	<line class="st3" x1="7.5" y1="78" x2="7.5" y2="-2.8"/>
</g>
<g>
	<defs>
		<path id="SVGID_7_" d="M247,61.7h-34.4V41.5H242v-11h-29.4V12.6h34.3v-11h-48.6v71.1H247V61.7z M332.8,72.7h14.3V12.6h20.1v-11
			h-54.4v11h20V72.7z M282.5,73.7c8.5,0,15.2-2.2,20-6.7s7.1-10.6,7-18.2l-0.1-0.3h-13.8c0,4.7-1.1,8.3-3.2,10.7
			c-2.1,2.4-5.4,3.6-9.9,3.6s-8.1-1.7-10.7-5.2s-4-7.9-4-13.3V30c0-5.4,1.3-9.8,3.8-13.2c2.5-3.5,5.9-5.2,10.2-5.2
			c4.8,0,8.3,1.2,10.5,3.7s3.4,6.1,3.4,10.8h13.9l0.1-0.3c0.1-7.8-2.3-13.9-7.2-18.4c-4.9-4.5-11.8-6.8-20.6-6.8
			c-8.3,0-15.1,2.8-20.3,8.3c-5.2,5.5-7.8,12.6-7.8,21.2v14.1c0,8.7,2.7,15.7,8,21.2C267,71,274,73.7,282.5,73.7z M136.2,41.3
			c4.8,3.8,11.5,5.7,20.2,5.7c2.1,0,4.5-0.1,7.2-0.4c2.7-0.3,5.1-0.7,7.2-1.2v27.4h14.3V1.6h-14.3v32.7c-2.1,0.5-4.6,0.9-7.3,1.2
			s-5.1,0.4-7.1,0.4c-4.6,0-8-0.9-10-2.6c-2.1-1.8-3.1-4.9-3.1-9.6V1.6H129v22.1C129,31.6,131.4,37.5,136.2,41.3z M415.5,35.7
			c3.3-1.3,5.9-3.2,7.6-5.8s2.6-5.5,2.6-8.8c0-6.5-2.3-11.3-7-14.6s-11.2-4.9-19.6-4.9h-24v71.1h27.4c8.2,0,14.6-1.7,19.1-5.2
			c4.5-3.5,6.7-8.7,6.7-15.5c0-3.9-1.1-7.4-3.2-10.4S419.8,36.6,415.5,35.7z M389.4,12.6h9.8c4.1,0,7.2,0.8,9.3,2.3
			c2.1,1.6,3.1,4,3.1,7.3c0,3-1,5.3-3.1,6.8s-5,2.3-8.8,2.3h-10.3V12.6z M411.1,59.3c-2,1.6-4.9,2.5-8.6,2.5h-13.1V41.3h14.2
			c3.6,0,6.3,0.9,8,2.8c1.7,1.8,2.5,4.5,2.5,8C414.1,55.2,413.1,57.6,411.1,59.3z M107.8,72.7h14.4L97.8,1.6H83.2l-24.4,71
			L33.1,34.7L57,1.6H39.5L20.7,30.7h-6.2V1.6H0.2v71.1h14.3V43h7.9l19.1,29.7h31.7L78,57.4h25L107.8,72.7z M81.5,46.2l8.8-27.9h0.3
			l8.8,27.9H81.5z M488.1,9.2c-5.5-5.7-12.7-8.6-21.5-8.6s-15.9,2.9-21.3,8.6c-5.5,5.7-8.2,12.9-8.2,21.6v12.8
			c0,8.7,2.7,15.9,8.2,21.6s12.6,8.5,21.3,8.5c8.8,0,16-2.8,21.5-8.5s8.3-12.9,8.3-21.6V30.8C496.4,22.1,493.7,14.9,488.1,9.2z
			 M482.2,43.6c0,5.6-1.4,10.2-4.1,13.8s-6.5,5.3-11.4,5.3c-4.8,0-8.6-1.8-11.3-5.3c-2.7-3.6-4.1-8.2-4.1-13.8V30.7
			c0-5.6,1.3-10.1,4-13.7c2.7-3.5,6.4-5.3,11.3-5.3c4.8,0,8.7,1.8,11.4,5.3c2.8,3.6,4.2,8.1,4.2,13.6V43.6z M102.4,90.9h286.4v-4
			H102.4V90.9z"/>
	</defs>
	<clipPath id="SVGID_8_">
		<use xlink:href="#SVGID_7_"  style="overflow:visible;"/>
	</clipPath>
	<path class="st4" d="M50-1.5C47.3,3,43.5,9,39,16.2c-5.8,9.1-7.7,12.1-11.5,15c-5.1,4-10.5,5.5-14.2,6.2"/>
</g>
<g>
	<defs>
		<path id="SVGID_9_" d="M247,61.7h-34.4V41.5H242v-11h-29.4V12.6h34.3v-11h-48.6v71.1H247V61.7z M332.8,72.7h14.3V12.6h20.1v-11
			h-54.4v11h20V72.7z M282.5,73.7c8.5,0,15.2-2.2,20-6.7s7.1-10.6,7-18.2l-0.1-0.3h-13.8c0,4.7-1.1,8.3-3.2,10.7
			c-2.1,2.4-5.4,3.6-9.9,3.6s-8.1-1.7-10.7-5.2s-4-7.9-4-13.3V30c0-5.4,1.3-9.8,3.8-13.2c2.5-3.5,5.9-5.2,10.2-5.2
			c4.8,0,8.3,1.2,10.5,3.7s3.4,6.1,3.4,10.8h13.9l0.1-0.3c0.1-7.8-2.3-13.9-7.2-18.4c-4.9-4.5-11.8-6.8-20.6-6.8
			c-8.3,0-15.1,2.8-20.3,8.3c-5.2,5.5-7.8,12.6-7.8,21.2v14.1c0,8.7,2.7,15.7,8,21.2C267,71,274,73.7,282.5,73.7z M136.2,41.3
			c4.8,3.8,11.5,5.7,20.2,5.7c2.1,0,4.5-0.1,7.2-0.4c2.7-0.3,5.1-0.7,7.2-1.2v27.4h14.3V1.6h-14.3v32.7c-2.1,0.5-4.6,0.9-7.3,1.2
			s-5.1,0.4-7.1,0.4c-4.6,0-8-0.9-10-2.6c-2.1-1.8-3.1-4.9-3.1-9.6V1.6H129v22.1C129,31.6,131.4,37.5,136.2,41.3z M415.5,35.7
			c3.3-1.3,5.9-3.2,7.6-5.8s2.6-5.5,2.6-8.8c0-6.5-2.3-11.3-7-14.6s-11.2-4.9-19.6-4.9h-24v71.1h27.4c8.2,0,14.6-1.7,19.1-5.2
			c4.5-3.5,6.7-8.7,6.7-15.5c0-3.9-1.1-7.4-3.2-10.4S419.8,36.6,415.5,35.7z M389.4,12.6h9.8c4.1,0,7.2,0.8,9.3,2.3
			c2.1,1.6,3.1,4,3.1,7.3c0,3-1,5.3-3.1,6.8s-5,2.3-8.8,2.3h-10.3V12.6z M411.1,59.3c-2,1.6-4.9,2.5-8.6,2.5h-13.1V41.3h14.2
			c3.6,0,6.3,0.9,8,2.8c1.7,1.8,2.5,4.5,2.5,8C414.1,55.2,413.1,57.6,411.1,59.3z M107.8,72.7h14.4L97.8,1.6H83.2l-24.4,71
			L33.1,34.7L57,1.6H39.5L20.7,30.7h-6.2V1.6H0.2v71.1h14.3V43h7.9l19.1,29.7h31.7L78,57.4h25L107.8,72.7z M81.5,46.2l8.8-27.9h0.3
			l8.8,27.9H81.5z M488.1,9.2c-5.5-5.7-12.7-8.6-21.5-8.6s-15.9,2.9-21.3,8.6c-5.5,5.7-8.2,12.9-8.2,21.6v12.8
			c0,8.7,2.7,15.9,8.2,21.6s12.6,8.5,21.3,8.5c8.8,0,16-2.8,21.5-8.5s8.3-12.9,8.3-21.6V30.8C496.4,22.1,493.7,14.9,488.1,9.2z
			 M482.2,43.6c0,5.6-1.4,10.2-4.1,13.8s-6.5,5.3-11.4,5.3c-4.8,0-8.6-1.8-11.3-5.3c-2.7-3.6-4.1-8.2-4.1-13.8V30.7
			c0-5.6,1.3-10.1,4-13.7c2.7-3.5,6.4-5.3,11.3-5.3c4.8,0,8.7,1.8,11.4,5.3c2.8,3.6,4.2,8.1,4.2,13.6V43.6z M102.4,90.9h286.4v-4
			H102.4V90.9z"/>
	</defs>
	<clipPath id="SVGID_10_">
		<use xlink:href="#SVGID_9_"  style="overflow:visible;"/>
	</clipPath>
	<line class="st5" x1="52.6" y1="74.6" x2="26.3" y2="37.2"/>
</g>
<g>
	<defs>
		<path id="SVGID_11_" d="M247,61.7h-34.4V41.5H242v-11h-29.4V12.6h34.3v-11h-48.6v71.1H247V61.7z M332.8,72.7h14.3V12.6h20.1v-11
			h-54.4v11h20V72.7z M282.5,73.7c8.5,0,15.2-2.2,20-6.7s7.1-10.6,7-18.2l-0.1-0.3h-13.8c0,4.7-1.1,8.3-3.2,10.7
			c-2.1,2.4-5.4,3.6-9.9,3.6s-8.1-1.7-10.7-5.2s-4-7.9-4-13.3V30c0-5.4,1.3-9.8,3.8-13.2c2.5-3.5,5.9-5.2,10.2-5.2
			c4.8,0,8.3,1.2,10.5,3.7s3.4,6.1,3.4,10.8h13.9l0.1-0.3c0.1-7.8-2.3-13.9-7.2-18.4c-4.9-4.5-11.8-6.8-20.6-6.8
			c-8.3,0-15.1,2.8-20.3,8.3c-5.2,5.5-7.8,12.6-7.8,21.2v14.1c0,8.7,2.7,15.7,8,21.2C267,71,274,73.7,282.5,73.7z M136.2,41.3
			c4.8,3.8,11.5,5.7,20.2,5.7c2.1,0,4.5-0.1,7.2-0.4c2.7-0.3,5.1-0.7,7.2-1.2v27.4h14.3V1.6h-14.3v32.7c-2.1,0.5-4.6,0.9-7.3,1.2
			s-5.1,0.4-7.1,0.4c-4.6,0-8-0.9-10-2.6c-2.1-1.8-3.1-4.9-3.1-9.6V1.6H129v22.1C129,31.6,131.4,37.5,136.2,41.3z M415.5,35.7
			c3.3-1.3,5.9-3.2,7.6-5.8s2.6-5.5,2.6-8.8c0-6.5-2.3-11.3-7-14.6s-11.2-4.9-19.6-4.9h-24v71.1h27.4c8.2,0,14.6-1.7,19.1-5.2
			c4.5-3.5,6.7-8.7,6.7-15.5c0-3.9-1.1-7.4-3.2-10.4S419.8,36.6,415.5,35.7z M389.4,12.6h9.8c4.1,0,7.2,0.8,9.3,2.3
			c2.1,1.6,3.1,4,3.1,7.3c0,3-1,5.3-3.1,6.8s-5,2.3-8.8,2.3h-10.3V12.6z M411.1,59.3c-2,1.6-4.9,2.5-8.6,2.5h-13.1V41.3h14.2
			c3.6,0,6.3,0.9,8,2.8c1.7,1.8,2.5,4.5,2.5,8C414.1,55.2,413.1,57.6,411.1,59.3z M107.8,72.7h14.4L97.8,1.6H83.2l-24.4,71
			L33.1,34.7L57,1.6H39.5L20.7,30.7h-6.2V1.6H0.2v71.1h14.3V43h7.9l19.1,29.7h31.7L78,57.4h25L107.8,72.7z M81.5,46.2l8.8-27.9h0.3
			l8.8,27.9H81.5z M488.1,9.2c-5.5-5.7-12.7-8.6-21.5-8.6s-15.9,2.9-21.3,8.6c-5.5,5.7-8.2,12.9-8.2,21.6v12.8
			c0,8.7,2.7,15.9,8.2,21.6s12.6,8.5,21.3,8.5c8.8,0,16-2.8,21.5-8.5s8.3-12.9,8.3-21.6V30.8C496.4,22.1,493.7,14.9,488.1,9.2z
			 M482.2,43.6c0,5.6-1.4,10.2-4.1,13.8s-6.5,5.3-11.4,5.3c-4.8,0-8.6-1.8-11.3-5.3c-2.7-3.6-4.1-8.2-4.1-13.8V30.7
			c0-5.6,1.3-10.1,4-13.7c2.7-3.5,6.4-5.3,11.3-5.3c4.8,0,8.7,1.8,11.4,5.3c2.8,3.6,4.2,8.1,4.2,13.6V43.6z M102.4,90.9h286.4v-4
			H102.4V90.9z"/>
	</defs>
	<clipPath id="SVGID_12_">
		<use xlink:href="#SVGID_11_"  style="overflow:visible;"/>
	</clipPath>
	<line class="st6" x1="62.3" y1="83" x2="89.5" y2="0"/>
</g>
<g>
	<defs>
		<path id="SVGID_13_" d="M247,61.7h-34.4V41.5H242v-11h-29.4V12.6h34.3v-11h-48.6v71.1H247V61.7z M332.8,72.7h14.3V12.6h20.1v-11
			h-54.4v11h20V72.7z M282.5,73.7c8.5,0,15.2-2.2,20-6.7s7.1-10.6,7-18.2l-0.1-0.3h-13.8c0,4.7-1.1,8.3-3.2,10.7
			c-2.1,2.4-5.4,3.6-9.9,3.6s-8.1-1.7-10.7-5.2s-4-7.9-4-13.3V30c0-5.4,1.3-9.8,3.8-13.2c2.5-3.5,5.9-5.2,10.2-5.2
			c4.8,0,8.3,1.2,10.5,3.7s3.4,6.1,3.4,10.8h13.9l0.1-0.3c0.1-7.8-2.3-13.9-7.2-18.4c-4.9-4.5-11.8-6.8-20.6-6.8
			c-8.3,0-15.1,2.8-20.3,8.3c-5.2,5.5-7.8,12.6-7.8,21.2v14.1c0,8.7,2.7,15.7,8,21.2C267,71,274,73.7,282.5,73.7z M136.2,41.3
			c4.8,3.8,11.5,5.7,20.2,5.7c2.1,0,4.5-0.1,7.2-0.4c2.7-0.3,5.1-0.7,7.2-1.2v27.4h14.3V1.6h-14.3v32.7c-2.1,0.5-4.6,0.9-7.3,1.2
			s-5.1,0.4-7.1,0.4c-4.6,0-8-0.9-10-2.6c-2.1-1.8-3.1-4.9-3.1-9.6V1.6H129v22.1C129,31.6,131.4,37.5,136.2,41.3z M415.5,35.7
			c3.3-1.3,5.9-3.2,7.6-5.8s2.6-5.5,2.6-8.8c0-6.5-2.3-11.3-7-14.6s-11.2-4.9-19.6-4.9h-24v71.1h27.4c8.2,0,14.6-1.7,19.1-5.2
			c4.5-3.5,6.7-8.7,6.7-15.5c0-3.9-1.1-7.4-3.2-10.4S419.8,36.6,415.5,35.7z M389.4,12.6h9.8c4.1,0,7.2,0.8,9.3,2.3
			c2.1,1.6,3.1,4,3.1,7.3c0,3-1,5.3-3.1,6.8s-5,2.3-8.8,2.3h-10.3V12.6z M411.1,59.3c-2,1.6-4.9,2.5-8.6,2.5h-13.1V41.3h14.2
			c3.6,0,6.3,0.9,8,2.8c1.7,1.8,2.5,4.5,2.5,8C414.1,55.2,413.1,57.6,411.1,59.3z M107.8,72.7h14.4L97.8,1.6H83.2l-24.4,71
			L33.1,34.7L57,1.6H39.5L20.7,30.7h-6.2V1.6H0.2v71.1h14.3V43h7.9l19.1,29.7h31.7L78,57.4h25L107.8,72.7z M81.5,46.2l8.8-27.9h0.3
			l8.8,27.9H81.5z M488.1,9.2c-5.5-5.7-12.7-8.6-21.5-8.6s-15.9,2.9-21.3,8.6c-5.5,5.7-8.2,12.9-8.2,21.6v12.8
			c0,8.7,2.7,15.9,8.2,21.6s12.6,8.5,21.3,8.5c8.8,0,16-2.8,21.5-8.5s8.3-12.9,8.3-21.6V30.8C496.4,22.1,493.7,14.9,488.1,9.2z
			 M482.2,43.6c0,5.6-1.4,10.2-4.1,13.8s-6.5,5.3-11.4,5.3c-4.8,0-8.6-1.8-11.3-5.3c-2.7-3.6-4.1-8.2-4.1-13.8V30.7
			c0-5.6,1.3-10.1,4-13.7c2.7-3.5,6.4-5.3,11.3-5.3c4.8,0,8.7,1.8,11.4,5.3c2.8,3.6,4.2,8.1,4.2,13.6V43.6z M102.4,90.9h286.4v-4
			H102.4V90.9z"/>
	</defs>
	<clipPath id="SVGID_14_">
		<use xlink:href="#SVGID_13_"  style="overflow:visible;"/>
	</clipPath>
	<line class="st7" x1="92.6" y1="0" x2="116.1" y2="76.5"/>
</g>
<g>
	<defs>
		<path id="SVGID_15_" d="M247,61.7h-34.4V41.5H242v-11h-29.4V12.6h34.3v-11h-48.6v71.1H247V61.7z M332.8,72.7h14.3V12.6h20.1v-11
			h-54.4v11h20V72.7z M282.5,73.7c8.5,0,15.2-2.2,20-6.7s7.1-10.6,7-18.2l-0.1-0.3h-13.8c0,4.7-1.1,8.3-3.2,10.7
			c-2.1,2.4-5.4,3.6-9.9,3.6s-8.1-1.7-10.7-5.2s-4-7.9-4-13.3V30c0-5.4,1.3-9.8,3.8-13.2c2.5-3.5,5.9-5.2,10.2-5.2
			c4.8,0,8.3,1.2,10.5,3.7s3.4,6.1,3.4,10.8h13.9l0.1-0.3c0.1-7.8-2.3-13.9-7.2-18.4c-4.9-4.5-11.8-6.8-20.6-6.8
			c-8.3,0-15.1,2.8-20.3,8.3c-5.2,5.5-7.8,12.6-7.8,21.2v14.1c0,8.7,2.7,15.7,8,21.2C267,71,274,73.7,282.5,73.7z M136.2,41.3
			c4.8,3.8,11.5,5.7,20.2,5.7c2.1,0,4.5-0.1,7.2-0.4c2.7-0.3,5.1-0.7,7.2-1.2v27.4h14.3V1.6h-14.3v32.7c-2.1,0.5-4.6,0.9-7.3,1.2
			s-5.1,0.4-7.1,0.4c-4.6,0-8-0.9-10-2.6c-2.1-1.8-3.1-4.9-3.1-9.6V1.6H129v22.1C129,31.6,131.4,37.5,136.2,41.3z M415.5,35.7
			c3.3-1.3,5.9-3.2,7.6-5.8s2.6-5.5,2.6-8.8c0-6.5-2.3-11.3-7-14.6s-11.2-4.9-19.6-4.9h-24v71.1h27.4c8.2,0,14.6-1.7,19.1-5.2
			c4.5-3.5,6.7-8.7,6.7-15.5c0-3.9-1.1-7.4-3.2-10.4S419.8,36.6,415.5,35.7z M389.4,12.6h9.8c4.1,0,7.2,0.8,9.3,2.3
			c2.1,1.6,3.1,4,3.1,7.3c0,3-1,5.3-3.1,6.8s-5,2.3-8.8,2.3h-10.3V12.6z M411.1,59.3c-2,1.6-4.9,2.5-8.6,2.5h-13.1V41.3h14.2
			c3.6,0,6.3,0.9,8,2.8c1.7,1.8,2.5,4.5,2.5,8C414.1,55.2,413.1,57.6,411.1,59.3z M107.8,72.7h14.4L97.8,1.6H83.2l-24.4,71
			L33.1,34.7L57,1.6H39.5L20.7,30.7h-6.2V1.6H0.2v71.1h14.3V43h7.9l19.1,29.7h31.7L78,57.4h25L107.8,72.7z M81.5,46.2l8.8-27.9h0.3
			l8.8,27.9H81.5z M488.1,9.2c-5.5-5.7-12.7-8.6-21.5-8.6s-15.9,2.9-21.3,8.6c-5.5,5.7-8.2,12.9-8.2,21.6v12.8
			c0,8.7,2.7,15.9,8.2,21.6s12.6,8.5,21.3,8.5c8.8,0,16-2.8,21.5-8.5s8.3-12.9,8.3-21.6V30.8C496.4,22.1,493.7,14.9,488.1,9.2z
			 M482.2,43.6c0,5.6-1.4,10.2-4.1,13.8s-6.5,5.3-11.4,5.3c-4.8,0-8.6-1.8-11.3-5.3c-2.7-3.6-4.1-8.2-4.1-13.8V30.7
			c0-5.6,1.3-10.1,4-13.7c2.7-3.5,6.4-5.3,11.3-5.3c4.8,0,8.7,1.8,11.4,5.3c2.8,3.6,4.2,8.1,4.2,13.6V43.6z M102.4,90.9h286.4v-4
			H102.4V90.9z"/>
	</defs>
	<clipPath id="SVGID_16_">
		<use xlink:href="#SVGID_15_"  style="overflow:visible;"/>
	</clipPath>
	<line class="st8" x1="62.1" y1="51.4" x2="121.1" y2="51"/>
</g>
<g>
	<defs>
		<path id="SVGID_17_" d="M247,61.7h-34.4V41.5H242v-11h-29.4V12.6h34.3v-11h-48.6v71.1H247V61.7z M332.8,72.7h14.3V12.6h20.1v-11
			h-54.4v11h20V72.7z M282.5,73.7c8.5,0,15.2-2.2,20-6.7s7.1-10.6,7-18.2l-0.1-0.3h-13.8c0,4.7-1.1,8.3-3.2,10.7
			c-2.1,2.4-5.4,3.6-9.9,3.6s-8.1-1.7-10.7-5.2s-4-7.9-4-13.3V30c0-5.4,1.3-9.8,3.8-13.2c2.5-3.5,5.9-5.2,10.2-5.2
			c4.8,0,8.3,1.2,10.5,3.7s3.4,6.1,3.4,10.8h13.9l0.1-0.3c0.1-7.8-2.3-13.9-7.2-18.4c-4.9-4.5-11.8-6.8-20.6-6.8
			c-8.3,0-15.1,2.8-20.3,8.3c-5.2,5.5-7.8,12.6-7.8,21.2v14.1c0,8.7,2.7,15.7,8,21.2C267,71,274,73.7,282.5,73.7z M136.2,41.3
			c4.8,3.8,11.5,5.7,20.2,5.7c2.1,0,4.5-0.1,7.2-0.4c2.7-0.3,5.1-0.7,7.2-1.2v27.4h14.3V1.6h-14.3v32.7c-2.1,0.5-4.6,0.9-7.3,1.2
			s-5.1,0.4-7.1,0.4c-4.6,0-8-0.9-10-2.6c-2.1-1.8-3.1-4.9-3.1-9.6V1.6H129v22.1C129,31.6,131.4,37.5,136.2,41.3z M415.5,35.7
			c3.3-1.3,5.9-3.2,7.6-5.8s2.6-5.5,2.6-8.8c0-6.5-2.3-11.3-7-14.6s-11.2-4.9-19.6-4.9h-24v71.1h27.4c8.2,0,14.6-1.7,19.1-5.2
			c4.5-3.5,6.7-8.7,6.7-15.5c0-3.9-1.1-7.4-3.2-10.4S419.8,36.6,415.5,35.7z M389.4,12.6h9.8c4.1,0,7.2,0.8,9.3,2.3
			c2.1,1.6,3.1,4,3.1,7.3c0,3-1,5.3-3.1,6.8s-5,2.3-8.8,2.3h-10.3V12.6z M411.1,59.3c-2,1.6-4.9,2.5-8.6,2.5h-13.1V41.3h14.2
			c3.6,0,6.3,0.9,8,2.8c1.7,1.8,2.5,4.5,2.5,8C414.1,55.2,413.1,57.6,411.1,59.3z M107.8,72.7h14.4L97.8,1.6H83.2l-24.4,71
			L33.1,34.7L57,1.6H39.5L20.7,30.7h-6.2V1.6H0.2v71.1h14.3V43h7.9l19.1,29.7h31.7L78,57.4h25L107.8,72.7z M81.5,46.2l8.8-27.9h0.3
			l8.8,27.9H81.5z M488.1,9.2c-5.5-5.7-12.7-8.6-21.5-8.6s-15.9,2.9-21.3,8.6c-5.5,5.7-8.2,12.9-8.2,21.6v12.8
			c0,8.7,2.7,15.9,8.2,21.6s12.6,8.5,21.3,8.5c8.8,0,16-2.8,21.5-8.5s8.3-12.9,8.3-21.6V30.8C496.4,22.1,493.7,14.9,488.1,9.2z
			 M482.2,43.6c0,5.6-1.4,10.2-4.1,13.8s-6.5,5.3-11.4,5.3c-4.8,0-8.6-1.8-11.3-5.3c-2.7-3.6-4.1-8.2-4.1-13.8V30.7
			c0-5.6,1.3-10.1,4-13.7c2.7-3.5,6.4-5.3,11.3-5.3c4.8,0,8.7,1.8,11.4,5.3c2.8,3.6,4.2,8.1,4.2,13.6V43.6z M102.4,90.9h286.4v-4
			H102.4V90.9z"/>
	</defs>
	<clipPath id="SVGID_18_">
		<use xlink:href="#SVGID_17_"  style="overflow:visible;"/>
	</clipPath>
	<path class="st9" d="M136.5,0.4c-0.2,6.5-0.4,11.6-0.5,14.7c-0.3,8.6-0.5,10.9,0.5,14.3c0.9,3.1,2.2,7.8,6.2,10.3
		c1.5,0.9,5.5,1.1,13.5,1.6c1.8,0.1,6,0.2,11.5,0.1c1.6,0,3-0.1,4-0.1"/>
</g>
<g>
	<defs>
		<path id="SVGID_19_" d="M247,61.7h-34.4V41.5H242v-11h-29.4V12.6h34.3v-11h-48.6v71.1H247V61.7z M332.8,72.7h14.3V12.6h20.1v-11
			h-54.4v11h20V72.7z M282.5,73.7c8.5,0,15.2-2.2,20-6.7s7.1-10.6,7-18.2l-0.1-0.3h-13.8c0,4.7-1.1,8.3-3.2,10.7
			c-2.1,2.4-5.4,3.6-9.9,3.6s-8.1-1.7-10.7-5.2s-4-7.9-4-13.3V30c0-5.4,1.3-9.8,3.8-13.2c2.5-3.5,5.9-5.2,10.2-5.2
			c4.8,0,8.3,1.2,10.5,3.7s3.4,6.1,3.4,10.8h13.9l0.1-0.3c0.1-7.8-2.3-13.9-7.2-18.4c-4.9-4.5-11.8-6.8-20.6-6.8
			c-8.3,0-15.1,2.8-20.3,8.3c-5.2,5.5-7.8,12.6-7.8,21.2v14.1c0,8.7,2.7,15.7,8,21.2C267,71,274,73.7,282.5,73.7z M136.2,41.3
			c4.8,3.8,11.5,5.7,20.2,5.7c2.1,0,4.5-0.1,7.2-0.4c2.7-0.3,5.1-0.7,7.2-1.2v27.4h14.3V1.6h-14.3v32.7c-2.1,0.5-4.6,0.9-7.3,1.2
			s-5.1,0.4-7.1,0.4c-4.6,0-8-0.9-10-2.6c-2.1-1.8-3.1-4.9-3.1-9.6V1.6H129v22.1C129,31.6,131.4,37.5,136.2,41.3z M415.5,35.7
			c3.3-1.3,5.9-3.2,7.6-5.8s2.6-5.5,2.6-8.8c0-6.5-2.3-11.3-7-14.6s-11.2-4.9-19.6-4.9h-24v71.1h27.4c8.2,0,14.6-1.7,19.1-5.2
			c4.5-3.5,6.7-8.7,6.7-15.5c0-3.9-1.1-7.4-3.2-10.4S419.8,36.6,415.5,35.7z M389.4,12.6h9.8c4.1,0,7.2,0.8,9.3,2.3
			c2.1,1.6,3.1,4,3.1,7.3c0,3-1,5.3-3.1,6.8s-5,2.3-8.8,2.3h-10.3V12.6z M411.1,59.3c-2,1.6-4.9,2.5-8.6,2.5h-13.1V41.3h14.2
			c3.6,0,6.3,0.9,8,2.8c1.7,1.8,2.5,4.5,2.5,8C414.1,55.2,413.1,57.6,411.1,59.3z M107.8,72.7h14.4L97.8,1.6H83.2l-24.4,71
			L33.1,34.7L57,1.6H39.5L20.7,30.7h-6.2V1.6H0.2v71.1h14.3V43h7.9l19.1,29.7h31.7L78,57.4h25L107.8,72.7z M81.5,46.2l8.8-27.9h0.3
			l8.8,27.9H81.5z M488.1,9.2c-5.5-5.7-12.7-8.6-21.5-8.6s-15.9,2.9-21.3,8.6c-5.5,5.7-8.2,12.9-8.2,21.6v12.8
			c0,8.7,2.7,15.9,8.2,21.6s12.6,8.5,21.3,8.5c8.8,0,16-2.8,21.5-8.5s8.3-12.9,8.3-21.6V30.8C496.4,22.1,493.7,14.9,488.1,9.2z
			 M482.2,43.6c0,5.6-1.4,10.2-4.1,13.8s-6.5,5.3-11.4,5.3c-4.8,0-8.6-1.8-11.3-5.3c-2.7-3.6-4.1-8.2-4.1-13.8V30.7
			c0-5.6,1.3-10.1,4-13.7c2.7-3.5,6.4-5.3,11.3-5.3c4.8,0,8.7,1.8,11.4,5.3c2.8,3.6,4.2,8.1,4.2,13.6V43.6z M102.4,90.9h286.4v-4
			H102.4V90.9z"/>
	</defs>
	<clipPath id="SVGID_20_">
		<use xlink:href="#SVGID_19_"  style="overflow:visible;"/>
	</clipPath>
	<line class="st10" x1="177" y1="-9.8" x2="177" y2="83.5"/>
</g>
<g>
	<defs>
		<path id="SVGID_21_" d="M247,61.7h-34.4V41.5H242v-11h-29.4V12.6h34.3v-11h-48.6v71.1H247V61.7z M332.8,72.7h14.3V12.6h20.1v-11
			h-54.4v11h20V72.7z M282.5,73.7c8.5,0,15.2-2.2,20-6.7s7.1-10.6,7-18.2l-0.1-0.3h-13.8c0,4.7-1.1,8.3-3.2,10.7
			c-2.1,2.4-5.4,3.6-9.9,3.6s-8.1-1.7-10.7-5.2s-4-7.9-4-13.3V30c0-5.4,1.3-9.8,3.8-13.2c2.5-3.5,5.9-5.2,10.2-5.2
			c4.8,0,8.3,1.2,10.5,3.7s3.4,6.1,3.4,10.8h13.9l0.1-0.3c0.1-7.8-2.3-13.9-7.2-18.4c-4.9-4.5-11.8-6.8-20.6-6.8
			c-8.3,0-15.1,2.8-20.3,8.3c-5.2,5.5-7.8,12.6-7.8,21.2v14.1c0,8.7,2.7,15.7,8,21.2C267,71,274,73.7,282.5,73.7z M136.2,41.3
			c4.8,3.8,11.5,5.7,20.2,5.7c2.1,0,4.5-0.1,7.2-0.4c2.7-0.3,5.1-0.7,7.2-1.2v27.4h14.3V1.6h-14.3v32.7c-2.1,0.5-4.6,0.9-7.3,1.2
			s-5.1,0.4-7.1,0.4c-4.6,0-8-0.9-10-2.6c-2.1-1.8-3.1-4.9-3.1-9.6V1.6H129v22.1C129,31.6,131.4,37.5,136.2,41.3z M415.5,35.7
			c3.3-1.3,5.9-3.2,7.6-5.8s2.6-5.5,2.6-8.8c0-6.5-2.3-11.3-7-14.6s-11.2-4.9-19.6-4.9h-24v71.1h27.4c8.2,0,14.6-1.7,19.1-5.2
			c4.5-3.5,6.7-8.7,6.7-15.5c0-3.9-1.1-7.4-3.2-10.4S419.8,36.6,415.5,35.7z M389.4,12.6h9.8c4.1,0,7.2,0.8,9.3,2.3
			c2.1,1.6,3.1,4,3.1,7.3c0,3-1,5.3-3.1,6.8s-5,2.3-8.8,2.3h-10.3V12.6z M411.1,59.3c-2,1.6-4.9,2.5-8.6,2.5h-13.1V41.3h14.2
			c3.6,0,6.3,0.9,8,2.8c1.7,1.8,2.5,4.5,2.5,8C414.1,55.2,413.1,57.6,411.1,59.3z M107.8,72.7h14.4L97.8,1.6H83.2l-24.4,71
			L33.1,34.7L57,1.6H39.5L20.7,30.7h-6.2V1.6H0.2v71.1h14.3V43h7.9l19.1,29.7h31.7L78,57.4h25L107.8,72.7z M81.5,46.2l8.8-27.9h0.3
			l8.8,27.9H81.5z M488.1,9.2c-5.5-5.7-12.7-8.6-21.5-8.6s-15.9,2.9-21.3,8.6c-5.5,5.7-8.2,12.9-8.2,21.6v12.8
			c0,8.7,2.7,15.9,8.2,21.6s12.6,8.5,21.3,8.5c8.8,0,16-2.8,21.5-8.5s8.3-12.9,8.3-21.6V30.8C496.4,22.1,493.7,14.9,488.1,9.2z
			 M482.2,43.6c0,5.6-1.4,10.2-4.1,13.8s-6.5,5.3-11.4,5.3c-4.8,0-8.6-1.8-11.3-5.3c-2.7-3.6-4.1-8.2-4.1-13.8V30.7
			c0-5.6,1.3-10.1,4-13.7c2.7-3.5,6.4-5.3,11.3-5.3c4.8,0,8.7,1.8,11.4,5.3c2.8,3.6,4.2,8.1,4.2,13.6V43.6z M102.4,90.9h286.4v-4
			H102.4V90.9z"/>
	</defs>
	<clipPath id="SVGID_22_">
		<use xlink:href="#SVGID_21_"  style="overflow:visible;"/>
	</clipPath>
	<line class="st11" x1="205.6" y1="-1.6" x2="205.6" y2="79.9"/>
</g>
<g>
	<defs>
		<path id="SVGID_23_" d="M247,61.7h-34.4V41.5H242v-11h-29.4V12.6h34.3v-11h-48.6v71.1H247V61.7z M332.8,72.7h14.3V12.6h20.1v-11
			h-54.4v11h20V72.7z M282.5,73.7c8.5,0,15.2-2.2,20-6.7s7.1-10.6,7-18.2l-0.1-0.3h-13.8c0,4.7-1.1,8.3-3.2,10.7
			c-2.1,2.4-5.4,3.6-9.9,3.6s-8.1-1.7-10.7-5.2s-4-7.9-4-13.3V30c0-5.4,1.3-9.8,3.8-13.2c2.5-3.5,5.9-5.2,10.2-5.2
			c4.8,0,8.3,1.2,10.5,3.7s3.4,6.1,3.4,10.8h13.9l0.1-0.3c0.1-7.8-2.3-13.9-7.2-18.4c-4.9-4.5-11.8-6.8-20.6-6.8
			c-8.3,0-15.1,2.8-20.3,8.3c-5.2,5.5-7.8,12.6-7.8,21.2v14.1c0,8.7,2.7,15.7,8,21.2C267,71,274,73.7,282.5,73.7z M136.2,41.3
			c4.8,3.8,11.5,5.7,20.2,5.7c2.1,0,4.5-0.1,7.2-0.4c2.7-0.3,5.1-0.7,7.2-1.2v27.4h14.3V1.6h-14.3v32.7c-2.1,0.5-4.6,0.9-7.3,1.2
			s-5.1,0.4-7.1,0.4c-4.6,0-8-0.9-10-2.6c-2.1-1.8-3.1-4.9-3.1-9.6V1.6H129v22.1C129,31.6,131.4,37.5,136.2,41.3z M415.5,35.7
			c3.3-1.3,5.9-3.2,7.6-5.8s2.6-5.5,2.6-8.8c0-6.5-2.3-11.3-7-14.6s-11.2-4.9-19.6-4.9h-24v71.1h27.4c8.2,0,14.6-1.7,19.1-5.2
			c4.5-3.5,6.7-8.7,6.7-15.5c0-3.9-1.1-7.4-3.2-10.4S419.8,36.6,415.5,35.7z M389.4,12.6h9.8c4.1,0,7.2,0.8,9.3,2.3
			c2.1,1.6,3.1,4,3.1,7.3c0,3-1,5.3-3.1,6.8s-5,2.3-8.8,2.3h-10.3V12.6z M411.1,59.3c-2,1.6-4.9,2.5-8.6,2.5h-13.1V41.3h14.2
			c3.6,0,6.3,0.9,8,2.8c1.7,1.8,2.5,4.5,2.5,8C414.1,55.2,413.1,57.6,411.1,59.3z M107.8,72.7h14.4L97.8,1.6H83.2l-24.4,71
			L33.1,34.7L57,1.6H39.5L20.7,30.7h-6.2V1.6H0.2v71.1h14.3V43h7.9l19.1,29.7h31.7L78,57.4h25L107.8,72.7z M81.5,46.2l8.8-27.9h0.3
			l8.8,27.9H81.5z M488.1,9.2c-5.5-5.7-12.7-8.6-21.5-8.6s-15.9,2.9-21.3,8.6c-5.5,5.7-8.2,12.9-8.2,21.6v12.8
			c0,8.7,2.7,15.9,8.2,21.6s12.6,8.5,21.3,8.5c8.8,0,16-2.8,21.5-8.5s8.3-12.9,8.3-21.6V30.8C496.4,22.1,493.7,14.9,488.1,9.2z
			 M482.2,43.6c0,5.6-1.4,10.2-4.1,13.8s-6.5,5.3-11.4,5.3c-4.8,0-8.6-1.8-11.3-5.3c-2.7-3.6-4.1-8.2-4.1-13.8V30.7
			c0-5.6,1.3-10.1,4-13.7c2.7-3.5,6.4-5.3,11.3-5.3c4.8,0,8.7,1.8,11.4,5.3c2.8,3.6,4.2,8.1,4.2,13.6V43.6z M102.4,90.9h286.4v-4
			H102.4V90.9z"/>
	</defs>
	<clipPath id="SVGID_24_">
		<use xlink:href="#SVGID_23_"  style="overflow:visible;"/>
	</clipPath>
	<line class="st12" x1="194.1" y1="5.7" x2="253.7" y2="5.7"/>
</g>
<g>
	<defs>
		<path id="SVGID_25_" d="M247,61.7h-34.4V41.5H242v-11h-29.4V12.6h34.3v-11h-48.6v71.1H247V61.7z M332.8,72.7h14.3V12.6h20.1v-11
			h-54.4v11h20V72.7z M282.5,73.7c8.5,0,15.2-2.2,20-6.7s7.1-10.6,7-18.2l-0.1-0.3h-13.8c0,4.7-1.1,8.3-3.2,10.7
			c-2.1,2.4-5.4,3.6-9.9,3.6s-8.1-1.7-10.7-5.2s-4-7.9-4-13.3V30c0-5.4,1.3-9.8,3.8-13.2c2.5-3.5,5.9-5.2,10.2-5.2
			c4.8,0,8.3,1.2,10.5,3.7s3.4,6.1,3.4,10.8h13.9l0.1-0.3c0.1-7.8-2.3-13.9-7.2-18.4c-4.9-4.5-11.8-6.8-20.6-6.8
			c-8.3,0-15.1,2.8-20.3,8.3c-5.2,5.5-7.8,12.6-7.8,21.2v14.1c0,8.7,2.7,15.7,8,21.2C267,71,274,73.7,282.5,73.7z M136.2,41.3
			c4.8,3.8,11.5,5.7,20.2,5.7c2.1,0,4.5-0.1,7.2-0.4c2.7-0.3,5.1-0.7,7.2-1.2v27.4h14.3V1.6h-14.3v32.7c-2.1,0.5-4.6,0.9-7.3,1.2
			s-5.1,0.4-7.1,0.4c-4.6,0-8-0.9-10-2.6c-2.1-1.8-3.1-4.9-3.1-9.6V1.6H129v22.1C129,31.6,131.4,37.5,136.2,41.3z M415.5,35.7
			c3.3-1.3,5.9-3.2,7.6-5.8s2.6-5.5,2.6-8.8c0-6.5-2.3-11.3-7-14.6s-11.2-4.9-19.6-4.9h-24v71.1h27.4c8.2,0,14.6-1.7,19.1-5.2
			c4.5-3.5,6.7-8.7,6.7-15.5c0-3.9-1.1-7.4-3.2-10.4S419.8,36.6,415.5,35.7z M389.4,12.6h9.8c4.1,0,7.2,0.8,9.3,2.3
			c2.1,1.6,3.1,4,3.1,7.3c0,3-1,5.3-3.1,6.8s-5,2.3-8.8,2.3h-10.3V12.6z M411.1,59.3c-2,1.6-4.9,2.5-8.6,2.5h-13.1V41.3h14.2
			c3.6,0,6.3,0.9,8,2.8c1.7,1.8,2.5,4.5,2.5,8C414.1,55.2,413.1,57.6,411.1,59.3z M107.8,72.7h14.4L97.8,1.6H83.2l-24.4,71
			L33.1,34.7L57,1.6H39.5L20.7,30.7h-6.2V1.6H0.2v71.1h14.3V43h7.9l19.1,29.7h31.7L78,57.4h25L107.8,72.7z M81.5,46.2l8.8-27.9h0.3
			l8.8,27.9H81.5z M488.1,9.2c-5.5-5.7-12.7-8.6-21.5-8.6s-15.9,2.9-21.3,8.6c-5.5,5.7-8.2,12.9-8.2,21.6v12.8
			c0,8.7,2.7,15.9,8.2,21.6s12.6,8.5,21.3,8.5c8.8,0,16-2.8,21.5-8.5s8.3-12.9,8.3-21.6V30.8C496.4,22.1,493.7,14.9,488.1,9.2z
			 M482.2,43.6c0,5.6-1.4,10.2-4.1,13.8s-6.5,5.3-11.4,5.3c-4.8,0-8.6-1.8-11.3-5.3c-2.7-3.6-4.1-8.2-4.1-13.8V30.7
			c0-5.6,1.3-10.1,4-13.7c2.7-3.5,6.4-5.3,11.3-5.3c4.8,0,8.7,1.8,11.4,5.3c2.8,3.6,4.2,8.1,4.2,13.6V43.6z M102.4,90.9h286.4v-4
			H102.4V90.9z"/>
	</defs>
	<clipPath id="SVGID_26_">
		<use xlink:href="#SVGID_25_"  style="overflow:visible;"/>
	</clipPath>
	<line class="st13" x1="194.1" y1="35.4" x2="245.6" y2="35.4"/>
</g>
<g>
	<defs>
		<path id="SVGID_27_" d="M247,61.7h-34.4V41.5H242v-11h-29.4V12.6h34.3v-11h-48.6v71.1H247V61.7z M332.8,72.7h14.3V12.6h20.1v-11
			h-54.4v11h20V72.7z M282.5,73.7c8.5,0,15.2-2.2,20-6.7s7.1-10.6,7-18.2l-0.1-0.3h-13.8c0,4.7-1.1,8.3-3.2,10.7
			c-2.1,2.4-5.4,3.6-9.9,3.6s-8.1-1.7-10.7-5.2s-4-7.9-4-13.3V30c0-5.4,1.3-9.8,3.8-13.2c2.5-3.5,5.9-5.2,10.2-5.2
			c4.8,0,8.3,1.2,10.5,3.7s3.4,6.1,3.4,10.8h13.9l0.1-0.3c0.1-7.8-2.3-13.9-7.2-18.4c-4.9-4.5-11.8-6.8-20.6-6.8
			c-8.3,0-15.1,2.8-20.3,8.3c-5.2,5.5-7.8,12.6-7.8,21.2v14.1c0,8.7,2.7,15.7,8,21.2C267,71,274,73.7,282.5,73.7z M136.2,41.3
			c4.8,3.8,11.5,5.7,20.2,5.7c2.1,0,4.5-0.1,7.2-0.4c2.7-0.3,5.1-0.7,7.2-1.2v27.4h14.3V1.6h-14.3v32.7c-2.1,0.5-4.6,0.9-7.3,1.2
			s-5.1,0.4-7.1,0.4c-4.6,0-8-0.9-10-2.6c-2.1-1.8-3.1-4.9-3.1-9.6V1.6H129v22.1C129,31.6,131.4,37.5,136.2,41.3z M415.5,35.7
			c3.3-1.3,5.9-3.2,7.6-5.8s2.6-5.5,2.6-8.8c0-6.5-2.3-11.3-7-14.6s-11.2-4.9-19.6-4.9h-24v71.1h27.4c8.2,0,14.6-1.7,19.1-5.2
			c4.5-3.5,6.7-8.7,6.7-15.5c0-3.9-1.1-7.4-3.2-10.4S419.8,36.6,415.5,35.7z M389.4,12.6h9.8c4.1,0,7.2,0.8,9.3,2.3
			c2.1,1.6,3.1,4,3.1,7.3c0,3-1,5.3-3.1,6.8s-5,2.3-8.8,2.3h-10.3V12.6z M411.1,59.3c-2,1.6-4.9,2.5-8.6,2.5h-13.1V41.3h14.2
			c3.6,0,6.3,0.9,8,2.8c1.7,1.8,2.5,4.5,2.5,8C414.1,55.2,413.1,57.6,411.1,59.3z M107.8,72.7h14.4L97.8,1.6H83.2l-24.4,71
			L33.1,34.7L57,1.6H39.5L20.7,30.7h-6.2V1.6H0.2v71.1h14.3V43h7.9l19.1,29.7h31.7L78,57.4h25L107.8,72.7z M81.5,46.2l8.8-27.9h0.3
			l8.8,27.9H81.5z M488.1,9.2c-5.5-5.7-12.7-8.6-21.5-8.6s-15.9,2.9-21.3,8.6c-5.5,5.7-8.2,12.9-8.2,21.6v12.8
			c0,8.7,2.7,15.9,8.2,21.6s12.6,8.5,21.3,8.5c8.8,0,16-2.8,21.5-8.5s8.3-12.9,8.3-21.6V30.8C496.4,22.1,493.7,14.9,488.1,9.2z
			 M482.2,43.6c0,5.6-1.4,10.2-4.1,13.8s-6.5,5.3-11.4,5.3c-4.8,0-8.6-1.8-11.3-5.3c-2.7-3.6-4.1-8.2-4.1-13.8V30.7
			c0-5.6,1.3-10.1,4-13.7c2.7-3.5,6.4-5.3,11.3-5.3c4.8,0,8.7,1.8,11.4,5.3c2.8,3.6,4.2,8.1,4.2,13.6V43.6z M102.4,90.9h286.4v-4
			H102.4V90.9z"/>
	</defs>
	<clipPath id="SVGID_28_">
		<use xlink:href="#SVGID_27_"  style="overflow:visible;"/>
	</clipPath>
	<line class="st14" x1="194.8" y1="67.7" x2="248.8" y2="67.7"/>
</g>
<g>
	<defs>
		<path id="SVGID_29_" d="M247,61.7h-34.4V41.5H242v-11h-29.4V12.6h34.3v-11h-48.6v71.1H247V61.7z M332.8,72.7h14.3V12.6h20.1v-11
			h-54.4v11h20V72.7z M282.5,73.7c8.5,0,15.2-2.2,20-6.7s7.1-10.6,7-18.2l-0.1-0.3h-13.8c0,4.7-1.1,8.3-3.2,10.7
			c-2.1,2.4-5.4,3.6-9.9,3.6s-8.1-1.7-10.7-5.2s-4-7.9-4-13.3V30c0-5.4,1.3-9.8,3.8-13.2c2.5-3.5,5.9-5.2,10.2-5.2
			c4.8,0,8.3,1.2,10.5,3.7s3.4,6.1,3.4,10.8h13.9l0.1-0.3c0.1-7.8-2.3-13.9-7.2-18.4c-4.9-4.5-11.8-6.8-20.6-6.8
			c-8.3,0-15.1,2.8-20.3,8.3c-5.2,5.5-7.8,12.6-7.8,21.2v14.1c0,8.7,2.7,15.7,8,21.2C267,71,274,73.7,282.5,73.7z M136.2,41.3
			c4.8,3.8,11.5,5.7,20.2,5.7c2.1,0,4.5-0.1,7.2-0.4c2.7-0.3,5.1-0.7,7.2-1.2v27.4h14.3V1.6h-14.3v32.7c-2.1,0.5-4.6,0.9-7.3,1.2
			s-5.1,0.4-7.1,0.4c-4.6,0-8-0.9-10-2.6c-2.1-1.8-3.1-4.9-3.1-9.6V1.6H129v22.1C129,31.6,131.4,37.5,136.2,41.3z M415.5,35.7
			c3.3-1.3,5.9-3.2,7.6-5.8s2.6-5.5,2.6-8.8c0-6.5-2.3-11.3-7-14.6s-11.2-4.9-19.6-4.9h-24v71.1h27.4c8.2,0,14.6-1.7,19.1-5.2
			c4.5-3.5,6.7-8.7,6.7-15.5c0-3.9-1.1-7.4-3.2-10.4S419.8,36.6,415.5,35.7z M389.4,12.6h9.8c4.1,0,7.2,0.8,9.3,2.3
			c2.1,1.6,3.1,4,3.1,7.3c0,3-1,5.3-3.1,6.8s-5,2.3-8.8,2.3h-10.3V12.6z M411.1,59.3c-2,1.6-4.9,2.5-8.6,2.5h-13.1V41.3h14.2
			c3.6,0,6.3,0.9,8,2.8c1.7,1.8,2.5,4.5,2.5,8C414.1,55.2,413.1,57.6,411.1,59.3z M107.8,72.7h14.4L97.8,1.6H83.2l-24.4,71
			L33.1,34.7L57,1.6H39.5L20.7,30.7h-6.2V1.6H0.2v71.1h14.3V43h7.9l19.1,29.7h31.7L78,57.4h25L107.8,72.7z M81.5,46.2l8.8-27.9h0.3
			l8.8,27.9H81.5z M488.1,9.2c-5.5-5.7-12.7-8.6-21.5-8.6s-15.9,2.9-21.3,8.6c-5.5,5.7-8.2,12.9-8.2,21.6v12.8
			c0,8.7,2.7,15.9,8.2,21.6s12.6,8.5,21.3,8.5c8.8,0,16-2.8,21.5-8.5s8.3-12.9,8.3-21.6V30.8C496.4,22.1,493.7,14.9,488.1,9.2z
			 M482.2,43.6c0,5.6-1.4,10.2-4.1,13.8s-6.5,5.3-11.4,5.3c-4.8,0-8.6-1.8-11.3-5.3c-2.7-3.6-4.1-8.2-4.1-13.8V30.7
			c0-5.6,1.3-10.1,4-13.7c2.7-3.5,6.4-5.3,11.3-5.3c4.8,0,8.7,1.8,11.4,5.3c2.8,3.6,4.2,8.1,4.2,13.6V43.6z M102.4,90.9h286.4v-4
			H102.4V90.9z"/>
	</defs>
	<clipPath id="SVGID_30_">
		<use xlink:href="#SVGID_29_"  style="overflow:visible;"/>
	</clipPath>
	<path class="st15" d="M303,27.2c0.4-2,1.2-7.2-1.5-12.3c-3.8-7.5-12.5-10.5-19-10c-14.1,1-20.7,18.5-21.4,20.5
		c-4.4,12.3-3.1,30.3,8.9,38.4c1.2,0.8,12,7.9,22.4,2.4c9.2-4.9,10.6-15.8,10.7-16.8"/>
</g>
<g>
	<defs>
		<path id="SVGID_31_" d="M247,61.7h-34.4V41.5H242v-11h-29.4V12.6h34.3v-11h-48.6v71.1H247V61.7z M332.8,72.7h14.3V12.6h20.1v-11
			h-54.4v11h20V72.7z M282.5,73.7c8.5,0,15.2-2.2,20-6.7s7.1-10.6,7-18.2l-0.1-0.3h-13.8c0,4.7-1.1,8.3-3.2,10.7
			c-2.1,2.4-5.4,3.6-9.9,3.6s-8.1-1.7-10.7-5.2s-4-7.9-4-13.3V30c0-5.4,1.3-9.8,3.8-13.2c2.5-3.5,5.9-5.2,10.2-5.2
			c4.8,0,8.3,1.2,10.5,3.7s3.4,6.1,3.4,10.8h13.9l0.1-0.3c0.1-7.8-2.3-13.9-7.2-18.4c-4.9-4.5-11.8-6.8-20.6-6.8
			c-8.3,0-15.1,2.8-20.3,8.3c-5.2,5.5-7.8,12.6-7.8,21.2v14.1c0,8.7,2.7,15.7,8,21.2C267,71,274,73.7,282.5,73.7z M136.2,41.3
			c4.8,3.8,11.5,5.7,20.2,5.7c2.1,0,4.5-0.1,7.2-0.4c2.7-0.3,5.1-0.7,7.2-1.2v27.4h14.3V1.6h-14.3v32.7c-2.1,0.5-4.6,0.9-7.3,1.2
			s-5.1,0.4-7.1,0.4c-4.6,0-8-0.9-10-2.6c-2.1-1.8-3.1-4.9-3.1-9.6V1.6H129v22.1C129,31.6,131.4,37.5,136.2,41.3z M415.5,35.7
			c3.3-1.3,5.9-3.2,7.6-5.8s2.6-5.5,2.6-8.8c0-6.5-2.3-11.3-7-14.6s-11.2-4.9-19.6-4.9h-24v71.1h27.4c8.2,0,14.6-1.7,19.1-5.2
			c4.5-3.5,6.7-8.7,6.7-15.5c0-3.9-1.1-7.4-3.2-10.4S419.8,36.6,415.5,35.7z M389.4,12.6h9.8c4.1,0,7.2,0.8,9.3,2.3
			c2.1,1.6,3.1,4,3.1,7.3c0,3-1,5.3-3.1,6.8s-5,2.3-8.8,2.3h-10.3V12.6z M411.1,59.3c-2,1.6-4.9,2.5-8.6,2.5h-13.1V41.3h14.2
			c3.6,0,6.3,0.9,8,2.8c1.7,1.8,2.5,4.5,2.5,8C414.1,55.2,413.1,57.6,411.1,59.3z M107.8,72.7h14.4L97.8,1.6H83.2l-24.4,71
			L33.1,34.7L57,1.6H39.5L20.7,30.7h-6.2V1.6H0.2v71.1h14.3V43h7.9l19.1,29.7h31.7L78,57.4h25L107.8,72.7z M81.5,46.2l8.8-27.9h0.3
			l8.8,27.9H81.5z M488.1,9.2c-5.5-5.7-12.7-8.6-21.5-8.6s-15.9,2.9-21.3,8.6c-5.5,5.7-8.2,12.9-8.2,21.6v12.8
			c0,8.7,2.7,15.9,8.2,21.6s12.6,8.5,21.3,8.5c8.8,0,16-2.8,21.5-8.5s8.3-12.9,8.3-21.6V30.8C496.4,22.1,493.7,14.9,488.1,9.2z
			 M482.2,43.6c0,5.6-1.4,10.2-4.1,13.8s-6.5,5.3-11.4,5.3c-4.8,0-8.6-1.8-11.3-5.3c-2.7-3.6-4.1-8.2-4.1-13.8V30.7
			c0-5.6,1.3-10.1,4-13.7c2.7-3.5,6.4-5.3,11.3-5.3c4.8,0,8.7,1.8,11.4,5.3c2.8,3.6,4.2,8.1,4.2,13.6V43.6z M102.4,90.9h286.4v-4
			H102.4V90.9z"/>
	</defs>
	<clipPath id="SVGID_32_">
		<use xlink:href="#SVGID_31_"  style="overflow:visible;"/>
	</clipPath>
	<line class="st16" x1="310.8" y1="4.4" x2="369" y2="4.4"/>
</g>
<g>
	<defs>
		<path id="SVGID_33_" d="M247,61.7h-34.4V41.5H242v-11h-29.4V12.6h34.3v-11h-48.6v71.1H247V61.7z M332.8,72.7h14.3V12.6h20.1v-11
			h-54.4v11h20V72.7z M282.5,73.7c8.5,0,15.2-2.2,20-6.7s7.1-10.6,7-18.2l-0.1-0.3h-13.8c0,4.7-1.1,8.3-3.2,10.7
			c-2.1,2.4-5.4,3.6-9.9,3.6s-8.1-1.7-10.7-5.2s-4-7.9-4-13.3V30c0-5.4,1.3-9.8,3.8-13.2c2.5-3.5,5.9-5.2,10.2-5.2
			c4.8,0,8.3,1.2,10.5,3.7s3.4,6.1,3.4,10.8h13.9l0.1-0.3c0.1-7.8-2.3-13.9-7.2-18.4c-4.9-4.5-11.8-6.8-20.6-6.8
			c-8.3,0-15.1,2.8-20.3,8.3c-5.2,5.5-7.8,12.6-7.8,21.2v14.1c0,8.7,2.7,15.7,8,21.2C267,71,274,73.7,282.5,73.7z M136.2,41.3
			c4.8,3.8,11.5,5.7,20.2,5.7c2.1,0,4.5-0.1,7.2-0.4c2.7-0.3,5.1-0.7,7.2-1.2v27.4h14.3V1.6h-14.3v32.7c-2.1,0.5-4.6,0.9-7.3,1.2
			s-5.1,0.4-7.1,0.4c-4.6,0-8-0.9-10-2.6c-2.1-1.8-3.1-4.9-3.1-9.6V1.6H129v22.1C129,31.6,131.4,37.5,136.2,41.3z M415.5,35.7
			c3.3-1.3,5.9-3.2,7.6-5.8s2.6-5.5,2.6-8.8c0-6.5-2.3-11.3-7-14.6s-11.2-4.9-19.6-4.9h-24v71.1h27.4c8.2,0,14.6-1.7,19.1-5.2
			c4.5-3.5,6.7-8.7,6.7-15.5c0-3.9-1.1-7.4-3.2-10.4S419.8,36.6,415.5,35.7z M389.4,12.6h9.8c4.1,0,7.2,0.8,9.3,2.3
			c2.1,1.6,3.1,4,3.1,7.3c0,3-1,5.3-3.1,6.8s-5,2.3-8.8,2.3h-10.3V12.6z M411.1,59.3c-2,1.6-4.9,2.5-8.6,2.5h-13.1V41.3h14.2
			c3.6,0,6.3,0.9,8,2.8c1.7,1.8,2.5,4.5,2.5,8C414.1,55.2,413.1,57.6,411.1,59.3z M107.8,72.7h14.4L97.8,1.6H83.2l-24.4,71
			L33.1,34.7L57,1.6H39.5L20.7,30.7h-6.2V1.6H0.2v71.1h14.3V43h7.9l19.1,29.7h31.7L78,57.4h25L107.8,72.7z M81.5,46.2l8.8-27.9h0.3
			l8.8,27.9H81.5z M488.1,9.2c-5.5-5.7-12.7-8.6-21.5-8.6s-15.9,2.9-21.3,8.6c-5.5,5.7-8.2,12.9-8.2,21.6v12.8
			c0,8.7,2.7,15.9,8.2,21.6s12.6,8.5,21.3,8.5c8.8,0,16-2.8,21.5-8.5s8.3-12.9,8.3-21.6V30.8C496.4,22.1,493.7,14.9,488.1,9.2z
			 M482.2,43.6c0,5.6-1.4,10.2-4.1,13.8s-6.5,5.3-11.4,5.3c-4.8,0-8.6-1.8-11.3-5.3c-2.7-3.6-4.1-8.2-4.1-13.8V30.7
			c0-5.6,1.3-10.1,4-13.7c2.7-3.5,6.4-5.3,11.3-5.3c4.8,0,8.7,1.8,11.4,5.3c2.8,3.6,4.2,8.1,4.2,13.6V43.6z M102.4,90.9h286.4v-4
			H102.4V90.9z"/>
	</defs>
	<clipPath id="SVGID_34_">
		<use xlink:href="#SVGID_33_"  style="overflow:visible;"/>
	</clipPath>
	<line class="st17" x1="339.9" y1="75.7" x2="339.9" y2="9.5"/>
</g>
<g>
	<defs>
		<path id="SVGID_35_" d="M247,61.7h-34.4V41.5H242v-11h-29.4V12.6h34.3v-11h-48.6v71.1H247V61.7z M332.8,72.7h14.3V12.6h20.1v-11
			h-54.4v11h20V72.7z M282.5,73.7c8.5,0,15.2-2.2,20-6.7s7.1-10.6,7-18.2l-0.1-0.3h-13.8c0,4.7-1.1,8.3-3.2,10.7
			c-2.1,2.4-5.4,3.6-9.9,3.6s-8.1-1.7-10.7-5.2s-4-7.9-4-13.3V30c0-5.4,1.3-9.8,3.8-13.2c2.5-3.5,5.9-5.2,10.2-5.2
			c4.8,0,8.3,1.2,10.5,3.7s3.4,6.1,3.4,10.8h13.9l0.1-0.3c0.1-7.8-2.3-13.9-7.2-18.4c-4.9-4.5-11.8-6.8-20.6-6.8
			c-8.3,0-15.1,2.8-20.3,8.3c-5.2,5.5-7.8,12.6-7.8,21.2v14.1c0,8.7,2.7,15.7,8,21.2C267,71,274,73.7,282.5,73.7z M136.2,41.3
			c4.8,3.8,11.5,5.7,20.2,5.7c2.1,0,4.5-0.1,7.2-0.4c2.7-0.3,5.1-0.7,7.2-1.2v27.4h14.3V1.6h-14.3v32.7c-2.1,0.5-4.6,0.9-7.3,1.2
			s-5.1,0.4-7.1,0.4c-4.6,0-8-0.9-10-2.6c-2.1-1.8-3.1-4.9-3.1-9.6V1.6H129v22.1C129,31.6,131.4,37.5,136.2,41.3z M415.5,35.7
			c3.3-1.3,5.9-3.2,7.6-5.8s2.6-5.5,2.6-8.8c0-6.5-2.3-11.3-7-14.6s-11.2-4.9-19.6-4.9h-24v71.1h27.4c8.2,0,14.6-1.7,19.1-5.2
			c4.5-3.5,6.7-8.7,6.7-15.5c0-3.9-1.1-7.4-3.2-10.4S419.8,36.6,415.5,35.7z M389.4,12.6h9.8c4.1,0,7.2,0.8,9.3,2.3
			c2.1,1.6,3.1,4,3.1,7.3c0,3-1,5.3-3.1,6.8s-5,2.3-8.8,2.3h-10.3V12.6z M411.1,59.3c-2,1.6-4.9,2.5-8.6,2.5h-13.1V41.3h14.2
			c3.6,0,6.3,0.9,8,2.8c1.7,1.8,2.5,4.5,2.5,8C414.1,55.2,413.1,57.6,411.1,59.3z M107.8,72.7h14.4L97.8,1.6H83.2l-24.4,71
			L33.1,34.7L57,1.6H39.5L20.7,30.7h-6.2V1.6H0.2v71.1h14.3V43h7.9l19.1,29.7h31.7L78,57.4h25L107.8,72.7z M81.5,46.2l8.8-27.9h0.3
			l8.8,27.9H81.5z M488.1,9.2c-5.5-5.7-12.7-8.6-21.5-8.6s-15.9,2.9-21.3,8.6c-5.5,5.7-8.2,12.9-8.2,21.6v12.8
			c0,8.7,2.7,15.9,8.2,21.6s12.6,8.5,21.3,8.5c8.8,0,16-2.8,21.5-8.5s8.3-12.9,8.3-21.6V30.8C496.4,22.1,493.7,14.9,488.1,9.2z
			 M482.2,43.6c0,5.6-1.4,10.2-4.1,13.8s-6.5,5.3-11.4,5.3c-4.8,0-8.6-1.8-11.3-5.3c-2.7-3.6-4.1-8.2-4.1-13.8V30.7
			c0-5.6,1.3-10.1,4-13.7c2.7-3.5,6.4-5.3,11.3-5.3c4.8,0,8.7,1.8,11.4,5.3c2.8,3.6,4.2,8.1,4.2,13.6V43.6z M102.4,90.9h286.4v-4
			H102.4V90.9z"/>
	</defs>
	<clipPath id="SVGID_36_">
		<use xlink:href="#SVGID_35_"  style="overflow:visible;"/>
	</clipPath>
	<line class="st18" x1="380.6" y1="-1.6" x2="381.8" y2="77.7"/>
</g>
<g>
	<defs>
		<path id="SVGID_37_" d="M247,61.7h-34.4V41.5H242v-11h-29.4V12.6h34.3v-11h-48.6v71.1H247V61.7z M332.8,72.7h14.3V12.6h20.1v-11
			h-54.4v11h20V72.7z M282.5,73.7c8.5,0,15.2-2.2,20-6.7s7.1-10.6,7-18.2l-0.1-0.3h-13.8c0,4.7-1.1,8.3-3.2,10.7
			c-2.1,2.4-5.4,3.6-9.9,3.6s-8.1-1.7-10.7-5.2s-4-7.9-4-13.3V30c0-5.4,1.3-9.8,3.8-13.2c2.5-3.5,5.9-5.2,10.2-5.2
			c4.8,0,8.3,1.2,10.5,3.7s3.4,6.1,3.4,10.8h13.9l0.1-0.3c0.1-7.8-2.3-13.9-7.2-18.4c-4.9-4.5-11.8-6.8-20.6-6.8
			c-8.3,0-15.1,2.8-20.3,8.3c-5.2,5.5-7.8,12.6-7.8,21.2v14.1c0,8.7,2.7,15.7,8,21.2C267,71,274,73.7,282.5,73.7z M136.2,41.3
			c4.8,3.8,11.5,5.7,20.2,5.7c2.1,0,4.5-0.1,7.2-0.4c2.7-0.3,5.1-0.7,7.2-1.2v27.4h14.3V1.6h-14.3v32.7c-2.1,0.5-4.6,0.9-7.3,1.2
			s-5.1,0.4-7.1,0.4c-4.6,0-8-0.9-10-2.6c-2.1-1.8-3.1-4.9-3.1-9.6V1.6H129v22.1C129,31.6,131.4,37.5,136.2,41.3z M415.5,35.7
			c3.3-1.3,5.9-3.2,7.6-5.8s2.6-5.5,2.6-8.8c0-6.5-2.3-11.3-7-14.6s-11.2-4.9-19.6-4.9h-24v71.1h27.4c8.2,0,14.6-1.7,19.1-5.2
			c4.5-3.5,6.7-8.7,6.7-15.5c0-3.9-1.1-7.4-3.2-10.4S419.8,36.6,415.5,35.7z M389.4,12.6h9.8c4.1,0,7.2,0.8,9.3,2.3
			c2.1,1.6,3.1,4,3.1,7.3c0,3-1,5.3-3.1,6.8s-5,2.3-8.8,2.3h-10.3V12.6z M411.1,59.3c-2,1.6-4.9,2.5-8.6,2.5h-13.1V41.3h14.2
			c3.6,0,6.3,0.9,8,2.8c1.7,1.8,2.5,4.5,2.5,8C414.1,55.2,413.1,57.6,411.1,59.3z M107.8,72.7h14.4L97.8,1.6H83.2l-24.4,71
			L33.1,34.7L57,1.6H39.5L20.7,30.7h-6.2V1.6H0.2v71.1h14.3V43h7.9l19.1,29.7h31.7L78,57.4h25L107.8,72.7z M81.5,46.2l8.8-27.9h0.3
			l8.8,27.9H81.5z M488.1,9.2c-5.5-5.7-12.7-8.6-21.5-8.6s-15.9,2.9-21.3,8.6c-5.5,5.7-8.2,12.9-8.2,21.6v12.8
			c0,8.7,2.7,15.9,8.2,21.6s12.6,8.5,21.3,8.5c8.8,0,16-2.8,21.5-8.5s8.3-12.9,8.3-21.6V30.8C496.4,22.1,493.7,14.9,488.1,9.2z
			 M482.2,43.6c0,5.6-1.4,10.2-4.1,13.8s-6.5,5.3-11.4,5.3c-4.8,0-8.6-1.8-11.3-5.3c-2.7-3.6-4.1-8.2-4.1-13.8V30.7
			c0-5.6,1.3-10.1,4-13.7c2.7-3.5,6.4-5.3,11.3-5.3c4.8,0,8.7,1.8,11.4,5.3c2.8,3.6,4.2,8.1,4.2,13.6V43.6z M102.4,90.9h286.4v-4
			H102.4V90.9z"/>
	</defs>
	<clipPath id="SVGID_38_">
		<use xlink:href="#SVGID_37_"  style="overflow:visible;"/>
	</clipPath>
	<path class="st19" d="M386.5,5.9c4.2-0.8,11.8-1.6,20.2,1.5c4.6,1.7,11.7,4.3,12.7,9.7c1.1,6-6.2,11.6-10.2,13.8
		c-9.8,5.4-20.4,1.6-22.7,0.7"/>
</g>
<g>
	<defs>
		<path id="SVGID_39_" d="M247,61.7h-34.4V41.5H242v-11h-29.4V12.6h34.3v-11h-48.6v71.1H247V61.7z M332.8,72.7h14.3V12.6h20.1v-11
			h-54.4v11h20V72.7z M282.5,73.7c8.5,0,15.2-2.2,20-6.7s7.1-10.6,7-18.2l-0.1-0.3h-13.8c0,4.7-1.1,8.3-3.2,10.7
			c-2.1,2.4-5.4,3.6-9.9,3.6s-8.1-1.7-10.7-5.2s-4-7.9-4-13.3V30c0-5.4,1.3-9.8,3.8-13.2c2.5-3.5,5.9-5.2,10.2-5.2
			c4.8,0,8.3,1.2,10.5,3.7s3.4,6.1,3.4,10.8h13.9l0.1-0.3c0.1-7.8-2.3-13.9-7.2-18.4c-4.9-4.5-11.8-6.8-20.6-6.8
			c-8.3,0-15.1,2.8-20.3,8.3c-5.2,5.5-7.8,12.6-7.8,21.2v14.1c0,8.7,2.7,15.7,8,21.2C267,71,274,73.7,282.5,73.7z M136.2,41.3
			c4.8,3.8,11.5,5.7,20.2,5.7c2.1,0,4.5-0.1,7.2-0.4c2.7-0.3,5.1-0.7,7.2-1.2v27.4h14.3V1.6h-14.3v32.7c-2.1,0.5-4.6,0.9-7.3,1.2
			s-5.1,0.4-7.1,0.4c-4.6,0-8-0.9-10-2.6c-2.1-1.8-3.1-4.9-3.1-9.6V1.6H129v22.1C129,31.6,131.4,37.5,136.2,41.3z M415.5,35.7
			c3.3-1.3,5.9-3.2,7.6-5.8s2.6-5.5,2.6-8.8c0-6.5-2.3-11.3-7-14.6s-11.2-4.9-19.6-4.9h-24v71.1h27.4c8.2,0,14.6-1.7,19.1-5.2
			c4.5-3.5,6.7-8.7,6.7-15.5c0-3.9-1.1-7.4-3.2-10.4S419.8,36.6,415.5,35.7z M389.4,12.6h9.8c4.1,0,7.2,0.8,9.3,2.3
			c2.1,1.6,3.1,4,3.1,7.3c0,3-1,5.3-3.1,6.8s-5,2.3-8.8,2.3h-10.3V12.6z M411.1,59.3c-2,1.6-4.9,2.5-8.6,2.5h-13.1V41.3h14.2
			c3.6,0,6.3,0.9,8,2.8c1.7,1.8,2.5,4.5,2.5,8C414.1,55.2,413.1,57.6,411.1,59.3z M107.8,72.7h14.4L97.8,1.6H83.2l-24.4,71
			L33.1,34.7L57,1.6H39.5L20.7,30.7h-6.2V1.6H0.2v71.1h14.3V43h7.9l19.1,29.7h31.7L78,57.4h25L107.8,72.7z M81.5,46.2l8.8-27.9h0.3
			l8.8,27.9H81.5z M488.1,9.2c-5.5-5.7-12.7-8.6-21.5-8.6s-15.9,2.9-21.3,8.6c-5.5,5.7-8.2,12.9-8.2,21.6v12.8
			c0,8.7,2.7,15.9,8.2,21.6s12.6,8.5,21.3,8.5c8.8,0,16-2.8,21.5-8.5s8.3-12.9,8.3-21.6V30.8C496.4,22.1,493.7,14.9,488.1,9.2z
			 M482.2,43.6c0,5.6-1.4,10.2-4.1,13.8s-6.5,5.3-11.4,5.3c-4.8,0-8.6-1.8-11.3-5.3c-2.7-3.6-4.1-8.2-4.1-13.8V30.7
			c0-5.6,1.3-10.1,4-13.7c2.7-3.5,6.4-5.3,11.3-5.3c4.8,0,8.7,1.8,11.4,5.3c2.8,3.6,4.2,8.1,4.2,13.6V43.6z M102.4,90.9h286.4v-4
			H102.4V90.9z"/>
	</defs>
	<clipPath id="SVGID_40_">
		<use xlink:href="#SVGID_39_"  style="overflow:visible;"/>
	</clipPath>
	<path class="st20" d="M371.3,68c12.3,1.2,22.4,0.9,29.7,0.3c9.1-0.7,13.3-1.8,16.3-5.2c5-5.4,3.9-13.1,3.8-13.5c0,0-0.9-6-6.5-11
		c-8.5-7.7-25.9-6.7-44,1.7"/>
</g>
<g>
	<defs>
		<path id="SVGID_41_" d="M247,61.7h-34.4V41.5H242v-11h-29.4V12.6h34.3v-11h-48.6v71.1H247V61.7z M332.8,72.7h14.3V12.6h20.1v-11
			h-54.4v11h20V72.7z M282.5,73.7c8.5,0,15.2-2.2,20-6.7s7.1-10.6,7-18.2l-0.1-0.3h-13.8c0,4.7-1.1,8.3-3.2,10.7
			c-2.1,2.4-5.4,3.6-9.9,3.6s-8.1-1.7-10.7-5.2s-4-7.9-4-13.3V30c0-5.4,1.3-9.8,3.8-13.2c2.5-3.5,5.9-5.2,10.2-5.2
			c4.8,0,8.3,1.2,10.5,3.7s3.4,6.1,3.4,10.8h13.9l0.1-0.3c0.1-7.8-2.3-13.9-7.2-18.4c-4.9-4.5-11.8-6.8-20.6-6.8
			c-8.3,0-15.1,2.8-20.3,8.3c-5.2,5.5-7.8,12.6-7.8,21.2v14.1c0,8.7,2.7,15.7,8,21.2C267,71,274,73.7,282.5,73.7z M136.2,41.3
			c4.8,3.8,11.5,5.7,20.2,5.7c2.1,0,4.5-0.1,7.2-0.4c2.7-0.3,5.1-0.7,7.2-1.2v27.4h14.3V1.6h-14.3v32.7c-2.1,0.5-4.6,0.9-7.3,1.2
			s-5.1,0.4-7.1,0.4c-4.6,0-8-0.9-10-2.6c-2.1-1.8-3.1-4.9-3.1-9.6V1.6H129v22.1C129,31.6,131.4,37.5,136.2,41.3z M415.5,35.7
			c3.3-1.3,5.9-3.2,7.6-5.8s2.6-5.5,2.6-8.8c0-6.5-2.3-11.3-7-14.6s-11.2-4.9-19.6-4.9h-24v71.1h27.4c8.2,0,14.6-1.7,19.1-5.2
			c4.5-3.5,6.7-8.7,6.7-15.5c0-3.9-1.1-7.4-3.2-10.4S419.8,36.6,415.5,35.7z M389.4,12.6h9.8c4.1,0,7.2,0.8,9.3,2.3
			c2.1,1.6,3.1,4,3.1,7.3c0,3-1,5.3-3.1,6.8s-5,2.3-8.8,2.3h-10.3V12.6z M411.1,59.3c-2,1.6-4.9,2.5-8.6,2.5h-13.1V41.3h14.2
			c3.6,0,6.3,0.9,8,2.8c1.7,1.8,2.5,4.5,2.5,8C414.1,55.2,413.1,57.6,411.1,59.3z M107.8,72.7h14.4L97.8,1.6H83.2l-24.4,71
			L33.1,34.7L57,1.6H39.5L20.7,30.7h-6.2V1.6H0.2v71.1h14.3V43h7.9l19.1,29.7h31.7L78,57.4h25L107.8,72.7z M81.5,46.2l8.8-27.9h0.3
			l8.8,27.9H81.5z M488.1,9.2c-5.5-5.7-12.7-8.6-21.5-8.6s-15.9,2.9-21.3,8.6c-5.5,5.7-8.2,12.9-8.2,21.6v12.8
			c0,8.7,2.7,15.9,8.2,21.6s12.6,8.5,21.3,8.5c8.8,0,16-2.8,21.5-8.5s8.3-12.9,8.3-21.6V30.8C496.4,22.1,493.7,14.9,488.1,9.2z
			 M482.2,43.6c0,5.6-1.4,10.2-4.1,13.8s-6.5,5.3-11.4,5.3c-4.8,0-8.6-1.8-11.3-5.3c-2.7-3.6-4.1-8.2-4.1-13.8V30.7
			c0-5.6,1.3-10.1,4-13.7c2.7-3.5,6.4-5.3,11.3-5.3c4.8,0,8.7,1.8,11.4,5.3c2.8,3.6,4.2,8.1,4.2,13.6V43.6z M102.4,90.9h286.4v-4
			H102.4V90.9z"/>
	</defs>
	<clipPath id="SVGID_42_">
		<use xlink:href="#SVGID_41_"  style="overflow:visible;"/>
	</clipPath>
	<path class="st21" d="M481.3,11.9C475,7,464.5,3.8,455.8,8.2c-10.1,5.1-11.6,17.5-12.5,24.5c-0.8,6.1-2.1,17.1,5.3,26
		c4.6,5.5,13.6,11.5,23.3,9.2c11.5-2.7,15.8-15.2,17.2-19.2C492.7,38.4,493.2,21.1,481.3,11.9z"/>
</g>
<g>
	<defs>
		<path id="SVGID_43_" d="M247,61.7h-34.4V41.5H242v-11h-29.4V12.6h34.3v-11h-48.6v71.1H247V61.7z M332.8,72.7h14.3V12.6h20.1v-11
			h-54.4v11h20V72.7z M282.5,73.7c8.5,0,15.2-2.2,20-6.7s7.1-10.6,7-18.2l-0.1-0.3h-13.8c0,4.7-1.1,8.3-3.2,10.7
			c-2.1,2.4-5.4,3.6-9.9,3.6s-8.1-1.7-10.7-5.2s-4-7.9-4-13.3V30c0-5.4,1.3-9.8,3.8-13.2c2.5-3.5,5.9-5.2,10.2-5.2
			c4.8,0,8.3,1.2,10.5,3.7s3.4,6.1,3.4,10.8h13.9l0.1-0.3c0.1-7.8-2.3-13.9-7.2-18.4c-4.9-4.5-11.8-6.8-20.6-6.8
			c-8.3,0-15.1,2.8-20.3,8.3c-5.2,5.5-7.8,12.6-7.8,21.2v14.1c0,8.7,2.7,15.7,8,21.2C267,71,274,73.7,282.5,73.7z M136.2,41.3
			c4.8,3.8,11.5,5.7,20.2,5.7c2.1,0,4.5-0.1,7.2-0.4c2.7-0.3,5.1-0.7,7.2-1.2v27.4h14.3V1.6h-14.3v32.7c-2.1,0.5-4.6,0.9-7.3,1.2
			s-5.1,0.4-7.1,0.4c-4.6,0-8-0.9-10-2.6c-2.1-1.8-3.1-4.9-3.1-9.6V1.6H129v22.1C129,31.6,131.4,37.5,136.2,41.3z M415.5,35.7
			c3.3-1.3,5.9-3.2,7.6-5.8s2.6-5.5,2.6-8.8c0-6.5-2.3-11.3-7-14.6s-11.2-4.9-19.6-4.9h-24v71.1h27.4c8.2,0,14.6-1.7,19.1-5.2
			c4.5-3.5,6.7-8.7,6.7-15.5c0-3.9-1.1-7.4-3.2-10.4S419.8,36.6,415.5,35.7z M389.4,12.6h9.8c4.1,0,7.2,0.8,9.3,2.3
			c2.1,1.6,3.1,4,3.1,7.3c0,3-1,5.3-3.1,6.8s-5,2.3-8.8,2.3h-10.3V12.6z M411.1,59.3c-2,1.6-4.9,2.5-8.6,2.5h-13.1V41.3h14.2
			c3.6,0,6.3,0.9,8,2.8c1.7,1.8,2.5,4.5,2.5,8C414.1,55.2,413.1,57.6,411.1,59.3z M107.8,72.7h14.4L97.8,1.6H83.2l-24.4,71
			L33.1,34.7L57,1.6H39.5L20.7,30.7h-6.2V1.6H0.2v71.1h14.3V43h7.9l19.1,29.7h31.7L78,57.4h25L107.8,72.7z M81.5,46.2l8.8-27.9h0.3
			l8.8,27.9H81.5z M488.1,9.2c-5.5-5.7-12.7-8.6-21.5-8.6s-15.9,2.9-21.3,8.6c-5.5,5.7-8.2,12.9-8.2,21.6v12.8
			c0,8.7,2.7,15.9,8.2,21.6s12.6,8.5,21.3,8.5c8.8,0,16-2.8,21.5-8.5s8.3-12.9,8.3-21.6V30.8C496.4,22.1,493.7,14.9,488.1,9.2z
			 M482.2,43.6c0,5.6-1.4,10.2-4.1,13.8s-6.5,5.3-11.4,5.3c-4.8,0-8.6-1.8-11.3-5.3c-2.7-3.6-4.1-8.2-4.1-13.8V30.7
			c0-5.6,1.3-10.1,4-13.7c2.7-3.5,6.4-5.3,11.3-5.3c4.8,0,8.7,1.8,11.4,5.3c2.8,3.6,4.2,8.1,4.2,13.6V43.6z M102.4,90.9h286.4v-4
			H102.4V90.9z"/>
	</defs>
	<clipPath id="SVGID_44_">
		<use xlink:href="#SVGID_43_"  style="overflow:visible;"/>
	</clipPath>
	<line class="st22" x1="80.8" y1="91.7" x2="413.8" y2="91.7"/>
</g>
</svg>
