<?xml version="1.0" encoding="utf-8"?>
<!-- Generator: Adobe Illustrator 21.0.2, SVG Export Plug-In . SVG Version: 6.00 Build 0)  -->
<svg version="1.1" id="Logo" xmlns="http://www.w3.org/2000/svg" xmlns:xlink="http://www.w3.org/1999/xlink" x="0px" y="0px"
	 viewBox="0 113 1190 200" style="enable-background:new 0 0 1190.6 841.9;" xml:space="preserve">
<style type="text/css">
	.st0{clip-path:url(#SVGID_2_);}
	.st1{fill:none;stroke:#F1F2F2;stroke-width:3;stroke-miterlimit:10;}
	.st2{clip-path:url(#SVGID_2_);fill:none;stroke:#F1F2F2;stroke-width:9;stroke-miterlimit:10;}
</style>
<defs>
	<path id="SVGID_1_" d="M312,190.4h-8.6v42.7H331v-6.6h-19V190.4z M409.8,233.1h8.6v-42.7h-8.6V233.1z M371.8,197h12v36.1h8.6V197
		h12.1v-6.6h-32.6V197z M277.6,214.3h17.7v-6.6h-17.7V197h20.6v-6.6H269v42.7h29.2v-6.6h-20.7V214.3z M347.6,190.4l-14.7,42.7h8.6
		l2.9-9.2h15l2.9,9.2h8.6l-14.6-42.7H347.6z M346.6,217.2l5.3-16.8h0.2l5.3,16.8H346.6z M261.7,229.6c-0.3-1.3-0.5-2.5-0.5-3.7v-3.1
		c0-2.6-0.6-4.7-1.7-6.4c-1.1-1.7-2.9-3-5.4-3.7c2.2-1,3.9-2.3,5.1-3.8c1.2-1.6,1.7-3.5,1.7-5.7c0-4-1.4-7.1-4.1-9.3
		c-2.7-2.2-6.5-3.3-11.4-3.3h-16.1v42.7h8.6V216h8.1c2.1,0,3.7,0.6,4.9,1.8c1.2,1.2,1.7,2.8,1.7,5v3c0,1.3,0.1,2.7,0.4,4.2
		s0.7,2.5,1.5,3.1h8.8v-0.6C262.6,231.9,262.1,230.9,261.7,229.6z M250.7,207.9c-1.2,1-3,1.5-5.4,1.5h-7.4V197h7.5
		c2.3,0,4,0.6,5.2,1.7c1.2,1.2,1.8,2.7,1.8,4.7C252.4,205.4,251.8,206.9,250.7,207.9z M35.8,194.2c-2.8-2.5-6.7-3.8-11.6-3.8h-17
		v42.7h8.6v-15.5h8.4c4.9,0,8.8-1.2,11.6-3.7c2.8-2.5,4.2-5.8,4.2-9.8C40,200,38.6,196.7,35.8,194.2z M29.6,209.1
		c-1.2,1.3-3,1.9-5.4,1.9h-8.4v-14h8.4c2.4,0,4.2,0.7,5.4,2c1.2,1.3,1.8,3,1.8,5.1C31.5,206.1,30.8,207.8,29.6,209.1z M111.8,210.9
		c2-0.8,3.5-1.9,4.6-3.5c1-1.6,1.6-3.3,1.6-5.3c0-3.9-1.4-6.8-4.2-8.8c-2.8-2-6.7-2.9-11.7-2.9H87.5v42.7h16.4c4.9,0,8.8-1,11.5-3.1
		c2.7-2.1,4-5.2,4-9.3c0-2.4-0.6-4.4-1.9-6.2C116.2,212.6,114.3,211.5,111.8,210.9z M96.1,197h5.9c2.5,0,4.3,0.5,5.6,1.4
		c1.2,0.9,1.9,2.4,1.9,4.4c0,1.8-0.6,3.2-1.8,4.1s-3,1.4-5.3,1.4h-6.2V197z M109.1,225c-1.2,1-2.9,1.5-5.2,1.5h-7.9v-12.3h8.5
		c2.2,0,3.8,0.6,4.8,1.7c1,1.1,1.5,2.7,1.5,4.8C110.9,222.6,110.3,224,109.1,225z M71.4,218.7c0,2.8-0.8,4.9-2.3,6.3
		s-3.6,2.1-6.3,2.1c-2.6,0-4.7-0.7-6.2-2.1c-1.5-1.4-2.3-3.5-2.3-6.3v-28.3h-8.6v28.3c0,4.8,1.6,8.5,4.7,11.1
		c3.1,2.6,7.3,3.9,12.3,3.9c5.1,0,9.3-1.3,12.4-3.9c3.2-2.6,4.7-6.3,4.7-11.1v-28.3h-8.6V218.7z M134.5,190.4H126v42.7h27.5v-6.6
		h-19V190.4z M191.7,189.8c-5,0-9.1,1.7-12.2,5c-3.1,3.3-4.7,7.6-4.7,12.7v8.5c0,5.2,1.6,9.4,4.8,12.7c3.2,3.3,7.4,5,12.5,5
		c5.1,0,9.1-1.3,12-4c2.9-2.7,4.3-6.3,4.2-10.9l-0.1-0.2H200c0,2.8-0.6,5-1.9,6.4c-1.3,1.4-3.3,2.2-5.9,2.2c-2.7,0-4.8-1-6.4-3.1
		c-1.6-2.1-2.4-4.7-2.4-8v-8.5c0-3.2,0.8-5.9,2.3-7.9c1.5-2.1,3.5-3.1,6.1-3.1c2.9,0,5,0.7,6.3,2.2s2,3.6,2,6.5h8.3l0.1-0.2
		c0.1-4.7-1.4-8.4-4.3-11.1C201.1,191.2,197,189.8,191.7,189.8z M159,233.1h8.6v-42.7H159V233.1z M996.2,218.9l-0.2,0v-28.4h-8.5
		v42.7h8.5l17.2-28.5l0.2,0v28.4h8.6v-42.7h-8.6L996.2,218.9z M950.6,209.8c0,6.3-0.5,10.7-1.4,13.1c-0.9,2.4-2.7,3.6-5.4,3.6h-1.2
		v6.6h1.3c5.2,0,9-1.8,11.5-5.4c2.5-3.6,3.7-9.6,3.7-17.8V197h12.1v36.1h8.6v-42.7h-29.2V209.8z M916.2,210.9c2-0.8,3.5-1.9,4.6-3.5
		c1-1.6,1.6-3.3,1.6-5.3c0-3.9-1.4-6.8-4.2-8.8c-2.8-2-6.7-2.9-11.7-2.9H892v42.7h16.4c4.9,0,8.8-1,11.5-3.1c2.7-2.1,4-5.2,4-9.3
		c0-2.4-0.6-4.4-1.9-6.2C920.7,212.6,918.8,211.5,916.2,210.9z M900.5,197h5.9c2.5,0,4.3,0.5,5.6,1.4c1.2,0.9,1.9,2.4,1.9,4.4
		c0,1.8-0.6,3.2-1.8,4.1s-3,1.4-5.3,1.4h-6.2V197z M913.6,225c-1.2,1-2.9,1.5-5.2,1.5h-7.9v-12.3h8.5c2.2,0,3.8,0.6,4.8,1.7
		c1,1.1,1.5,2.7,1.5,4.8C915.4,222.6,914.8,224,913.6,225z M849.7,190.4L835,233.1h8.6l2.9-9.2h15l2.9,9.2h8.6l-14.6-42.7H849.7z
		 M848.7,217.2l5.3-16.8h0.2l5.3,16.8H848.7z M808.5,221.9h-0.2l-10.9-31.4h-11.2v42.7h8.6v-12.7l-0.8-18.7l0.2,0l11.4,31.5h5.7
		l11.4-31.6l0.2,0l-0.8,18.8v12.7h8.6v-42.7h-11.2L808.5,221.9z M1108.4,190.4h-32.6v6.6h12v36.1h8.6V197h12.1V190.4z M1054.9,194.3
		L1054.9,194.3l-0.1-5.6h-8.6v5.6h-0.2c-5.3,0-9.7,1.6-13,4.9c-3.4,3.3-5,7.5-5,12.9c0,5.2,1.7,9.4,5,12.6c3.3,3.2,7.7,4.7,13.1,4.7
		h0.2v5.5h8.6v-5.5h0.1c5.3,0,9.7-1.6,13-4.8c3.4-3.2,5.1-7.4,5.1-12.6c0-5.3-1.7-9.6-5-12.8
		C1064.6,195.9,1060.3,194.3,1054.9,194.3z M1046.3,222.3h-0.2c-3,0-5.4-0.9-7.1-2.7c-1.7-1.8-2.6-4.3-2.6-7.6
		c0-3.4,0.9-6.1,2.6-7.9c1.7-1.9,4.1-2.8,7.1-2.8h0.2V222.3z M1062,219.6c-1.7,1.8-4.1,2.7-7,2.7h-0.1v-21h0.1c3,0,5.3,0.9,7,2.8
		c1.7,1.8,2.6,4.5,2.6,7.9C1064.6,215.3,1063.7,217.8,1062,219.6z M1169,211.6l12.7-21.2h-10l-8,15.1l-7.9-15.1h-9.9l12.7,21.2
		l-13,21.5h10l8.2-15.4l8.2,15.4h10.3L1169,211.6z M1121.3,190.4l-14.7,42.7h8.6l2.9-9.2h15l2.9,9.2h8.6l-14.6-42.7H1121.3z
		 M1120.3,217.2l5.3-16.8h0.2l5.3,16.8H1120.3z M758.9,190.4l-14.7,42.7h8.6l2.9-9.2h15l2.9,9.2h8.6l-14.6-42.7H758.9z M757.9,217.2
		l5.3-16.8h0.2l5.3,16.8H757.9z M493.8,219.5l-0.2,0l-17.2-29.1h-8.6v42.7h8.6V204l0.2,0l17.2,29.2h8.5v-42.7h-8.5V219.5z
		 M541.9,221.9c0-3.5-1.2-6.3-3.6-8.5c-2.4-2.1-6-3.9-10.7-5.2c-3.3-1-5.6-2-6.9-2.9c-1.3-0.9-2-2.1-2-3.6c0-1.6,0.6-2.9,1.9-3.9
		c1.2-1,3-1.5,5.3-1.5c2.4,0,4.2,0.6,5.6,1.8c1.3,1.2,2,2.8,2,4.8h8.3l0.1-0.2c0.1-3.7-1.3-6.7-4.3-9.2c-2.9-2.5-6.8-3.7-11.5-3.7
		c-4.6,0-8.4,1.1-11.4,3.3c-3,2.2-4.5,5.1-4.5,8.6c0,3.5,1.3,6.3,3.9,8.3c2.6,2,6.4,3.8,11.5,5.2c2.9,0.9,4.9,1.8,6.1,2.8
		c1.2,1,1.7,2.3,1.7,4c0,1.6-0.6,2.9-1.8,3.8c-1.2,1-3,1.4-5.3,1.4c-2.8,0-4.9-0.6-6.5-1.8c-1.6-1.2-2.3-3-2.3-5.6H509l-0.1,0.2
		c-0.1,4.3,1.6,7.7,5,10.1c3.5,2.4,7.5,3.6,12.2,3.6c4.7,0,8.5-1.1,11.4-3.2C540.5,228.4,541.9,225.6,541.9,221.9z M615,118.4h-8.3
		L591,164.8h8.3L615,118.4z M528.3,308.8h8.3l15.6-46.3h-8.3L528.3,308.8z M443.3,189.8c-5.3,0-9.5,1.7-12.8,5.1
		c-3.3,3.4-4.9,7.7-4.9,13v7.7c0,5.2,1.6,9.6,4.9,13c3.3,3.4,7.5,5.1,12.8,5.1c5.3,0,9.6-1.7,12.9-5.1c3.3-3.4,5-7.7,5-13v-7.7
		c0-5.2-1.7-9.5-5-13C452.8,191.5,448.5,189.8,443.3,189.8z M452.6,215.6c0,3.4-0.8,6.1-2.5,8.3s-3.9,3.2-6.9,3.2
		c-2.9,0-5.1-1.1-6.8-3.2c-1.6-2.1-2.4-4.9-2.4-8.3v-7.7c0-3.3,0.8-6.1,2.4-8.2c1.6-2.1,3.9-3.2,6.8-3.2c2.9,0,5.2,1.1,6.9,3.2
		c1.7,2.1,2.5,4.9,2.5,8.2V215.6z M700.8,190.4h-10.5L679,207.9h-3.7v-17.4h-8.6v42.7h8.6v-17.8h4.7l11.5,17.8h10.4l-15.5-22.8
		L700.8,190.4z M710.7,209.8c0,6.3-0.5,10.7-1.4,13.1c-0.9,2.4-2.7,3.6-5.4,3.6h-1.2v6.6h1.3c5.2,0,9-1.8,11.5-5.4
		c2.5-3.6,3.7-9.6,3.7-17.8V197h12.1v36.1h8.6v-42.7h-29.2V209.8z M621.8,194.2c-2.8-2.5-6.7-3.8-11.6-3.8h-17v42.7h8.6v-15.5h8.4
		c4.9,0,8.8-1.2,11.6-3.7c2.8-2.5,4.2-5.8,4.2-9.8C626,200,624.6,196.7,621.8,194.2z M615.6,209.1c-1.2,1.3-3,1.9-5.4,1.9h-8.4v-14
		h8.4c2.4,0,4.2,0.7,5.4,2c1.2,1.3,1.8,3,1.8,5.1C617.4,206.1,616.8,207.8,615.6,209.1z M640.8,214.3h17.7v-6.6h-17.7V197h20.6v-6.6
		h-29.2v42.7h29.2v-6.6h-20.7V214.3z"/>
</defs>
<clipPath id="SVGID_2_">
	<use xlink:href="#SVGID_1_"  style="overflow:visible;"/>
</clipPath>
<g class="st0">
	<path class="st1" d="M599.4,164.8H591l15.6-46.3h8.3L599.4,164.8z"/>
	<path class="st1" d="M15.8,217.6v15.5H7.2v-42.7h17c4.9,0,8.8,1.3,11.6,3.8c2.8,2.5,4.2,5.8,4.2,9.9c0,4.1-1.4,7.4-4.2,9.8
		c-2.8,2.5-6.7,3.7-11.6,3.7H15.8z M15.8,211h8.4c2.4,0,4.2-0.6,5.4-1.9c1.2-1.3,1.8-3,1.8-5c0-2.1-0.6-3.7-1.8-5.1
		c-1.2-1.3-3-2-5.4-2h-8.4V211z"/>
	<path class="st1" d="M80,190.4v28.3c0,4.8-1.6,8.5-4.7,11.1c-3.2,2.6-7.3,3.9-12.4,3.9c-5.1,0-9.2-1.3-12.3-3.9
		c-3.1-2.6-4.7-6.3-4.7-11.1v-28.3h8.6v28.3c0,2.8,0.8,4.9,2.3,6.3c1.5,1.4,3.6,2.1,6.2,2.1c2.7,0,4.8-0.7,6.3-2.1s2.3-3.5,2.3-6.3
		v-28.3H80z"/>
	<path class="st1" d="M87.5,233.1v-42.7h14.4c5,0,8.9,1,11.7,2.9c2.8,2,4.2,4.9,4.2,8.8c0,2-0.5,3.7-1.6,5.3c-1,1.6-2.6,2.7-4.6,3.5
		c2.6,0.5,4.5,1.7,5.8,3.5c1.3,1.8,1.9,3.9,1.9,6.2c0,4.1-1.3,7.2-4,9.3c-2.7,2.1-6.5,3.1-11.5,3.1H87.5z M96.1,208.3h6.2
		c2.3,0,4-0.5,5.3-1.4s1.8-2.3,1.8-4.1c0-2-0.6-3.4-1.9-4.4c-1.2-0.9-3.1-1.4-5.6-1.4h-5.9V208.3z M96.1,214.2v12.3h7.9
		c2.3,0,4-0.5,5.2-1.5c1.2-1,1.8-2.4,1.8-4.4c0-2.1-0.5-3.7-1.5-4.8c-1-1.1-2.6-1.7-4.8-1.7H96.1z"/>
	<path class="st1" d="M134.5,226.5h19v6.6H126v-42.7h8.6V226.5z"/>
	<path class="st1" d="M167.5,233.1H159v-42.7h8.6V233.1z"/>
	<path class="st1" d="M208.3,218.6l0.1,0.2c0.1,4.6-1.3,8.2-4.2,10.9c-2.9,2.7-6.9,4-12,4c-5.1,0-9.3-1.7-12.5-5
		c-3.2-3.3-4.8-7.5-4.8-12.7v-8.5c0-5.2,1.6-9.4,4.7-12.7c3.1-3.3,7.2-5,12.2-5c5.3,0,9.4,1.4,12.4,4.1c3,2.7,4.4,6.4,4.3,11.1
		l-0.1,0.2H200c0-2.8-0.7-5-2-6.5s-3.4-2.2-6.3-2.2c-2.6,0-4.6,1-6.1,3.1c-1.5,2.1-2.3,4.7-2.3,7.9v8.5c0,3.3,0.8,5.9,2.4,8
		c1.6,2.1,3.7,3.1,6.4,3.1c2.7,0,4.7-0.7,5.9-2.2c1.3-1.4,1.9-3.6,1.9-6.4H208.3z"/>
	<path class="st1" d="M237.9,216v17.1h-8.6v-42.7h16.1c4.9,0,8.7,1.1,11.4,3.3c2.7,2.2,4.1,5.3,4.1,9.3c0,2.2-0.6,4.1-1.7,5.7
		c-1.2,1.6-2.8,2.9-5.1,3.8c2.5,0.7,4.3,2,5.4,3.7c1.1,1.7,1.7,3.9,1.7,6.4v3.1c0,1.2,0.2,2.4,0.5,3.7c0.3,1.3,0.9,2.3,1.7,2.9v0.6
		h-8.8c-0.8-0.6-1.3-1.7-1.5-3.1s-0.4-2.9-0.4-4.2v-3c0-2.1-0.6-3.8-1.7-5c-1.2-1.2-2.8-1.8-4.9-1.8H237.9z M237.9,209.4h7.4
		c2.4,0,4.2-0.5,5.4-1.5c1.2-1,1.8-2.5,1.8-4.5c0-2-0.6-3.5-1.8-4.7c-1.2-1.2-2.9-1.7-5.2-1.7h-7.5V209.4z"/>
	<path class="st1" d="M295.2,214.3h-17.7v12.2h20.7v6.6H269v-42.7h29.2v6.6h-20.6v10.7h17.7V214.3z"/>
	<path class="st1" d="M312,226.5h19v6.6h-27.5v-42.7h8.6V226.5z"/>
	<path class="st1" d="M359.5,223.9h-15l-2.9,9.2h-8.6l14.7-42.7h8.8l14.6,42.7h-8.6L359.5,223.9z M346.6,217.2h10.8l-5.3-16.8h-0.2
		L346.6,217.2z"/>
	<path class="st1" d="M404.5,197h-12.1v36.1h-8.6V197h-12v-6.6h32.6V197z"/>
	<path class="st1" d="M418.3,233.1h-8.6v-42.7h8.6V233.1z"/>
	<path class="st1" d="M461.2,215.6c0,5.2-1.7,9.6-5,13c-3.3,3.4-7.6,5.1-12.9,5.1c-5.3,0-9.5-1.7-12.8-5.1c-3.3-3.4-4.9-7.7-4.9-13
		v-7.7c0-5.2,1.6-9.5,4.9-13c3.3-3.4,7.5-5.1,12.8-5.1c5.3,0,9.6,1.7,12.9,5.1c3.3,3.4,5,7.7,5,13V215.6z M452.6,207.9
		c0-3.3-0.8-6.1-2.5-8.2c-1.7-2.1-3.9-3.2-6.9-3.2c-2.9,0-5.2,1.1-6.8,3.2c-1.6,2.1-2.4,4.9-2.4,8.2v7.7c0,3.4,0.8,6.1,2.4,8.3
		c1.6,2.1,3.9,3.2,6.8,3.2c2.9,0,5.2-1.1,6.9-3.2s2.5-4.9,2.5-8.3V207.9z"/>
	<path class="st1" d="M502.3,233.1h-8.5l-17.2-29.2l-0.2,0v29.1h-8.6v-42.7h8.6l17.2,29.1l0.2,0v-29.1h8.5V233.1z"/>
	<path class="st1" d="M533.3,222c0-1.6-0.6-3-1.7-4c-1.2-1-3.2-1.9-6.1-2.8c-5.1-1.5-8.9-3.2-11.5-5.2c-2.6-2-3.9-4.8-3.9-8.3
		c0-3.5,1.5-6.4,4.5-8.6c3-2.2,6.8-3.3,11.4-3.3c4.7,0,8.5,1.2,11.5,3.7c2.9,2.5,4.4,5.6,4.3,9.2l-0.1,0.2h-8.3c0-2-0.7-3.6-2-4.8
		c-1.3-1.2-3.2-1.8-5.6-1.8c-2.3,0-4.1,0.5-5.3,1.5c-1.3,1-1.9,2.3-1.9,3.9c0,1.4,0.7,2.6,2,3.6c1.3,0.9,3.6,1.9,6.9,2.9
		c4.7,1.3,8.3,3,10.7,5.2c2.4,2.1,3.6,5,3.6,8.5c0,3.7-1.4,6.5-4.3,8.6c-2.9,2.1-6.7,3.2-11.4,3.2c-4.6,0-8.7-1.2-12.2-3.6
		c-3.5-2.4-5.1-5.7-5-10.1l0.1-0.2h8.3c0,2.5,0.8,4.4,2.3,5.6c1.6,1.2,3.7,1.8,6.5,1.8c2.3,0,4.1-0.5,5.3-1.4
		C532.7,224.8,533.3,223.6,533.3,222z"/>
	<path class="st1" d="M601.7,217.6v15.5h-8.6v-42.7h17c4.9,0,8.8,1.3,11.6,3.8c2.8,2.5,4.2,5.8,4.2,9.9c0,4.1-1.4,7.4-4.2,9.8
		c-2.8,2.5-6.7,3.7-11.6,3.7H601.7z M601.7,211h8.4c2.4,0,4.2-0.6,5.4-1.9c1.2-1.3,1.8-3,1.8-5c0-2.1-0.6-3.7-1.8-5.1
		c-1.2-1.3-3-2-5.4-2h-8.4V211z"/>
	<path class="st1" d="M658.5,214.3h-17.7v12.2h20.7v6.6h-29.2v-42.7h29.2v6.6h-20.6v10.7h17.7V214.3z"/>
	<path class="st1" d="M680,215.3h-4.7v17.8h-8.6v-42.7h8.6v17.4h3.7l11.3-17.4h10.5l-14.4,19.9l15.5,22.8h-10.4L680,215.3z"/>
	<path class="st1" d="M739.9,190.4v42.7h-8.6V197h-12.1v12.8c0,8.2-1.2,14.2-3.7,17.8c-2.5,3.6-6.3,5.4-11.5,5.4h-1.3v-6.6h1.2
		c2.7,0,4.5-1.2,5.4-3.6c0.9-2.4,1.4-6.7,1.4-13.1v-19.4H739.9z"/>
	<path class="st1" d="M770.8,223.9h-15l-2.9,9.2h-8.6l14.7-42.7h8.8l14.6,42.7h-8.6L770.8,223.9z M757.9,217.2h10.8l-5.3-16.8h-0.2
		L757.9,217.2z"/>
	<path class="st1" d="M797.4,190.4l10.9,31.4h0.2l11-31.4h11.2v42.7h-8.6v-12.7l0.8-18.8l-0.2,0l-11.4,31.6h-5.7l-11.4-31.5l-0.2,0
		l0.8,18.7v12.7h-8.6v-42.7H797.4z"/>
	<path class="st1" d="M861.5,223.9h-15l-2.9,9.2H835l14.7-42.7h8.8l14.6,42.7h-8.6L861.5,223.9z M848.7,217.2h10.8l-5.3-16.8H854
		L848.7,217.2z"/>
	<path class="st1" d="M892,233.1v-42.7h14.4c5,0,8.9,1,11.7,2.9c2.8,2,4.2,4.9,4.2,8.8c0,2-0.5,3.7-1.6,5.3c-1,1.6-2.6,2.7-4.6,3.5
		c2.6,0.5,4.5,1.7,5.8,3.5c1.3,1.8,1.9,3.9,1.9,6.2c0,4.1-1.3,7.2-4,9.3c-2.7,2.1-6.5,3.1-11.5,3.1H892z M900.5,208.3h6.2
		c2.3,0,4-0.5,5.3-1.4s1.8-2.3,1.8-4.1c0-2-0.6-3.4-1.9-4.4c-1.2-0.9-3.1-1.4-5.6-1.4h-5.9V208.3z M900.5,214.2v12.3h7.9
		c2.3,0,4-0.5,5.2-1.5c1.2-1,1.8-2.4,1.8-4.4c0-2.1-0.5-3.7-1.5-4.8c-1-1.1-2.6-1.7-4.8-1.7H900.5z"/>
	<path class="st1" d="M979.9,190.4v42.7h-8.6V197h-12.1v12.8c0,8.2-1.2,14.2-3.7,17.8c-2.5,3.6-6.3,5.4-11.5,5.4h-1.3v-6.6h1.2
		c2.7,0,4.5-1.2,5.4-3.6c0.9-2.4,1.4-6.7,1.4-13.1v-19.4H979.9z"/>
	<path class="st1" d="M1013.4,190.4h8.6v42.7h-8.6v-28.4l-0.2,0l-17.2,28.5h-8.5v-42.7h8.5v28.4l0.2,0L1013.4,190.4z"/>
	<path class="st1" d="M1054.9,194.3L1054.9,194.3c5.4,0,9.8,1.6,13.1,4.9c3.4,3.2,5,7.5,5,12.8c0,5.2-1.7,9.4-5.1,12.6
		c-3.4,3.2-7.7,4.8-13,4.8h-0.1v5.5h-8.6v-5.5h-0.2c-5.4,0-9.7-1.6-13.1-4.7c-3.4-3.2-5-7.4-5-12.6c0-5.3,1.7-9.6,5-12.9
		c3.4-3.3,7.7-4.9,13-4.9h0.2v-5.6h8.6V194.3z M1046.1,201.3c-3,0-5.4,0.9-7.1,2.8c-1.7,1.9-2.6,4.5-2.6,7.9c0,3.3,0.9,5.9,2.6,7.6
		c1.7,1.8,4.1,2.7,7.1,2.7h0.2v-21H1046.1z M1054.9,201.3v21h0.1c3,0,5.3-0.9,7-2.7c1.7-1.8,2.6-4.4,2.6-7.7c0-3.4-0.9-6-2.6-7.9
		c-1.7-1.8-4.1-2.8-7-2.8H1054.9z"/>
	<path class="st1" d="M1108.4,197h-12.1v36.1h-8.6V197h-12v-6.6h32.6V197z"/>
	<path class="st1" d="M1133.2,223.9h-15l-2.9,9.2h-8.6l14.7-42.7h8.8l14.6,42.7h-8.6L1133.2,223.9z M1120.3,217.2h10.8l-5.3-16.8
		h-0.2L1120.3,217.2z"/>
	<path class="st1" d="M1163.7,205.6l8-15.1h10l-12.7,21.2l13.4,21.5h-10.3l-8.2-15.4l-8.2,15.4h-10l13-21.5l-12.7-21.2h9.9
		L1163.7,205.6z"/>
	<path class="st1" d="M536.6,308.8h-8.3l15.6-46.3h8.3L536.6,308.8z"/>
</g>
<line class="st2" x1="11" y1="243" x2="11" y2="188.5"/>
<path class="st2" d="M13.3,194c1-0.4,8.6-3.6,15.5,0.5c0.7,0.4,7.7,4.7,7,10.8c-0.5,4.5-5,7-6.8,8c-6.3,3.5-12.9,1.8-14.8,1.3"/>
<path class="st2" d="M49.8,188.8c-0.1,4.1-0.3,10.6-0.5,18.8c-0.2,8-0.2,11.3,1.8,15c0.8,1.6,3.5,6.7,9,8c5.8,1.4,11.7-2.1,14.5-6.3
	c2-2.9,2.3-5.7,2-15.8c-0.1-5.4-0.4-12.5-1-20.8"/>
<line class="st2" x1="90.8" y1="239.8" x2="90.8" y2="186.5"/>
<path class="st2" d="M83.8,197.2c2.4-1.1,15.5-6.6,24.5-1.6c1.5,0.8,4.6,2.5,5.3,5.6c0.7,3.3-1.9,6.2-2.5,6.8
	c-5.3,5.8-15.9,3.4-16.5,3.3"/>
<path class="st2" d="M84,228.7c3.3,1.1,15.8,4.7,25.3-1.2c1.8-1.1,6.3-3.9,6.3-7.9c0-3.9-4.3-6.7-5.5-7.4c-9.5-6-23.5,0.3-25.3,1.2"
	/>
<line class="st2" x1="130.5" y1="236.5" x2="130.5" y2="187.8"/>
<line class="st2" x1="155.3" y1="230.8" x2="126" y2="230.8"/>
<line class="st2" x1="163.3" y1="237.5" x2="163.3" y2="187.8"/>
<path class="st2" d="M204.8,208c0.1-0.8,1-6.5-3-11c-3.8-4.2-9.7-4.8-14-3.3c-5.8,2.1-7.9,7.7-8.8,10c-3,7.9-1.7,19.7,6.3,24.8
	c3.4,2.2,10.5,4.6,15.5,0.5c3.4-2.8,4.8-7.7,3.8-12.8"/>
<line class="st2" x1="233" y1="236.5" x2="233" y2="187"/>
<path class="st2" d="M226.5,194.9c3.1-0.8,15.9-3.9,24.5,1.6c1.6,1,4.6,2.9,5,6c0.5,3.7-2.8,6.5-3.3,6.9c-2,1.7-4.4,2.3-7.8,2.7
	c-4,0.5-10.2,0.8-18.3-0.7"/>
<path class="st2" d="M258.8,235.5c-1.7-3.9-2.1-7.2-2.3-9.5c-0.2-3.9,0.6-5.7-0.5-8c-0.6-1.1-2-3.1-7-4.8
	c-8.1-2.7-16.3-1.5-21.5-0.3"/>
<line class="st2" x1="272.3" y1="235.5" x2="272.3" y2="177.8"/>
<line class="st2" x1="299.8" y1="230.3" x2="263.4" y2="230.3"/>
<line class="st2" x1="298.2" y1="211.6" x2="265" y2="211.6"/>
<line class="st2" x1="301.8" y1="194.5" x2="265" y2="194.5"/>
<line class="st2" x1="307.3" y1="185.3" x2="307.3" y2="233.7"/>
<line class="st2" x1="331" y1="230.3" x2="299.8" y2="230.3"/>
<line class="st2" x1="335.5" y1="235.5" x2="353" y2="187"/>
<line class="st2" x1="369" y1="236.5" x2="350.3" y2="185.3"/>
<line class="st2" x1="332.9" y1="219.5" x2="369.8" y2="219.5"/>
<line class="st2" x1="369.8" y1="191.3" x2="407.3" y2="192.5"/>
<line class="st2" x1="388.1" y1="235.5" x2="388.1" y2="154.5"/>
<line class="st2" x1="414" y1="236.5" x2="414" y2="185.3"/>
<path class="st2" d="M456.8,205.5c-0.4-1.1-4.8-12.4-13.5-12.5c-7.3-0.1-11.9,7.9-12.5,9c-4.6,8-3,19.1,3.3,25c1,1,4.7,4.4,9.8,4.3
	c6.6-0.2,10.6-6.4,11.5-7.8C460.4,215.6,457.2,206.6,456.8,205.5z"/>
<line class="st2" x1="472.3" y1="236.5" x2="472.3" y2="188"/>
<line class="st2" x1="497.8" y1="185.3" x2="497.8" y2="239"/>
<line class="st2" x1="502.3" y1="237.5" x2="469.8" y2="186.5"/>
<path class="st2" d="M538.3,204.8c0-0.7,0-6-4.3-9.5c-4.6-3.8-10.3-2.3-12-1.8c-3,1-8.2,3.8-8.3,8c-0.1,4.4,5.6,7.6,7.3,8.5
	c6.3,3.5,9.8,0.9,13.5,4.3c3.4,3.1,4.8,9.4,2.3,13c-2.2,3-6.4,3.1-10.3,3.3c-3.6,0.1-8.3,0.2-11.8-3.3c-3.2-3.2-3.3-7.6-3.3-9"/>
<line class="st2" x1="532.3" y1="311" x2="550.8" y2="254.5"/>
<line class="st2" x1="611.3" y1="112.8" x2="593.2" y2="169"/>
<line class="st2" x1="596.5" y1="237.3" x2="596.5" y2="185.8"/>
<path class="st2" d="M591,192.8c8.4-0.8,15.1,0.1,19.5,1c8.1,1.7,9.5,3.8,10,4.5c3.1,4.9,0.1,13.5-5.3,16.3
	c-1.8,0.9-3.4,0.9-8.3,0.5c-4.5-0.4-10.2-0.9-17-1.8"/>
<line class="st2" x1="636" y1="237.3" x2="636" y2="187.5"/>
<line class="st2" x1="663" y1="194.5" x2="634" y2="193.8"/>
<line class="st2" x1="663.5" y1="230.3" x2="634" y2="230.3"/>
<line class="st2" x1="660" y1="211.5" x2="628.5" y2="212.4"/>
<line class="st2" x1="669.5" y1="185.8" x2="671.3" y2="235.8"/>
<path class="st2" d="M698.8,186.5c-1.9,2.1-4.6,5.3-7.5,9.5c-5.2,7.5-5.7,10.7-9,12.5c-2.9,1.6-8,2.1-17.5-3.3"/>
<path class="st2" d="M696.8,235c-2.1-3.3-4.9-8.3-8-14.5c-2.9-6-3.7-8.4-6.3-10c-1.9-1.2-6.7-3.3-17.3,1.8"/>
<line class="st2" x1="736" y1="237.3" x2="736" y2="190.4"/>
<path class="st2" d="M701,229.3c2.4,0.4,6.9,0.9,10-1.8c3.4-3,3.1-8.3,3-11.8c-0.3-7.4-0.4-17.7,0.5-31.8"/>
<line class="st2" x1="744.2" y1="194.1" x2="709.5" y2="194.1"/>
<line class="st2" x1="747.8" y1="235" x2="763.3" y2="186.5"/>
<line class="st2" x1="778.8" y1="235" x2="763.3" y2="186.5"/>
<line class="st2" x1="746" y1="219.5" x2="780.8" y2="220"/>
<line class="st2" x1="790" y1="235" x2="790" y2="181.3"/>
<line class="st2" x1="826.3" y1="235" x2="826.3" y2="186.5"/>
<line class="st2" x1="806.5" y1="237.3" x2="825" y2="184"/>
<line class="st2" x1="811.3" y1="237.3" x2="792.3" y2="184"/>
<line class="st2" x1="837.3" y1="235" x2="854" y2="188.7"/>
<line class="st2" x1="870.5" y1="237.3" x2="854" y2="184"/>
<line class="st2" x1="837.5" y1="219.8" x2="872" y2="219.8"/>
<line class="st2" x1="895" y1="186.5" x2="895" y2="235"/>
<path class="st2" d="M889.3,194.5c4-1.4,11.3-3.2,19-0.5c2.7,0.9,8.6,3,9.3,7.3c0.6,3.7-3.2,7-3.8,7.5c-8.2,7.2-23.7,0.3-25-0.3"/>
<path class="st2" d="M888.8,231c9.6,0.9,17-0.2,21.8-1.3c5.5-1.2,8.1-2.6,9.3-5c1.6-3.4-0.3-7.1-0.5-7.5c-1.8-3.4-5.3-4.7-7.8-5.5
	c-8.5-2.9-16.7-0.2-20.5,1.3"/>
<line class="st2" x1="976.8" y1="237" x2="976.8" y2="190.4"/>
<path class="st2" d="M940.3,230c2.1,0.2,7,0.2,10.5-3c3.2-2.9,3.7-7,4-10.3c1-11.4,0.5-22.9-0.3-31.5"/>
<line class="st2" x1="947.8" y1="194.5" x2="983.5" y2="194.5"/>
<line class="st2" x1="1017.3" y1="237" x2="1017.3" y2="188.7"/>
<line class="st2" x1="990.8" y1="186.5" x2="990.8" y2="234.8"/>
<line class="st2" x1="986.3" y1="237" x2="1021" y2="186.5"/>
<line class="st2" x1="1050.5" y1="241.5" x2="1050.5" y2="183"/>
<path class="st2" d="M1053.5,197.3c1.4,0.1,6.1,0.4,10,4c0.7,0.6,6.3,5.8,5,13.3c-0.8,4.9-4.2,8.3-7.3,10c-2.9,1.6-5.9,1.6-11.8,1.5
	c-5.6-0.1-8.3-0.1-10.8-1.5c-4.4-2.6-7.2-8.3-6.8-13.5c0.7-7.2,7.6-13.6,16.8-14"/>
<line class="st2" x1="1074.8" y1="192.5" x2="1109.8" y2="192.5"/>
<line class="st2" x1="1092.1" y1="234.8" x2="1092.1" y2="183"/>
<line class="st2" x1="1109" y1="238" x2="1129" y2="183"/>
<line class="st2" x1="1142.5" y1="241" x2="1122.5" y2="181"/>
<line class="st2" x1="1108.4" y1="218.5" x2="1144.7" y2="218.5"/>
<line class="st2" x1="1145.6" y1="181.5" x2="1182.4" y2="242"/>
<line class="st2" x1="1148" y1="237" x2="1182.4" y2="183"/>
</svg>
