<?xml version="1.0" encoding="utf-8"?>
<!-- Generator: Adobe Illustrator 21.1.0, SVG Export Plug-In . SVG Version: 6.00 Build 0)  -->
<svg version="1.1" id="Слой_1" xmlns="http://www.w3.org/2000/svg" xmlns:xlink="http://www.w3.org/1999/xlink" x="0px" y="0px"
	 viewBox="0 0 341 70" style="enable-background:new 0 0 341 70;" xml:space="preserve">
<style type="text/css">
	.st0{fill:none;stroke:#000000;stroke-linecap:round;stroke-miterlimit:5;}
	.st1{fill:none;stroke:#000000;stroke-width:3;stroke-linecap:square;stroke-miterlimit:5;}
</style>
<g>
	<path class="st0" d="M20.3,18.8l7-14.4h11.4L26.6,25.5l13.2,21.5h-12l-7.3-14.7l-7.3,14.7H1.7l12.5-21.5L2.1,4.4h11.3L20.3,18.8z"
		/>
	<path class="st0" d="M40.5,30.9c0-4.8,1.3-8.6,4-11.6c2.7-3,6.5-4.5,11.3-4.5c4.8,0,8.6,1.5,11.3,4.5c2.7,3,4,6.9,4,11.6v0.6
		c0,4.8-1.3,8.7-4,11.7s-6.4,4.5-11.3,4.5c-4.9,0-8.6-1.5-11.3-4.5s-4-6.9-4-11.7V30.9z M50.4,31.5c0,2.7,0.4,4.7,1.2,6.3
		c0.8,1.5,2.2,2.3,4.2,2.3c1.9,0,3.3-0.8,4.2-2.3c0.8-1.5,1.3-3.6,1.3-6.2v-0.6c0-2.6-0.4-4.6-1.3-6.2c-0.8-1.6-2.2-2.3-4.2-2.3
		c-2,0-3.3,0.8-4.2,2.3c-0.8,1.6-1.2,3.6-1.2,6.2V31.5z"/>
	<path class="st0" d="M74.3,39.4c2.2-2.2,3.5-4.2,4.1-6.1s0.9-4.6,0.8-7.9l0-10h24.7v24.1h4.7L108,56.7h-9.3v-9.6H81.5v9.6h-9.3
		l-0.8-17.3H74.3z M89.1,25.3c-0.1,3-0.5,5.7-1.1,8c-0.6,2.3-1.4,4.4-2.4,6.1H94V23h-5V25.3z"/>
	<path class="st0" d="M156.3,31.9c0,4.8-1.1,8.6-3.2,11.5c-2.1,2.9-5.2,4.3-9.1,4.3c-1.5,0-2.9-0.3-4.1-0.9
		c-1.2-0.6-2.2-1.4-3.1-2.5v15H127V15.4h9.3l0.4,3.5c0.9-1.3,2-2.3,3.2-3c1.2-0.7,2.6-1.1,4.2-1.1c3.9,0,7,1.5,9.1,4.5
		c2.2,3,3.2,7,3.2,12V31.9z M146.4,31.3c0-2.7-0.4-4.8-1.2-6.4c-0.8-1.6-2-2.4-3.8-2.4c-1.1,0-2.1,0.2-2.8,0.6
		c-0.8,0.4-1.4,1-1.8,1.8V38c0.5,0.7,1.1,1.2,1.9,1.5c0.8,0.3,1.7,0.5,2.9,0.5c1.7,0,3-0.7,3.7-2.2c0.8-1.4,1.1-3.4,1.1-6V31.3z"/>
	<path class="st0" d="M178.9,47c-0.3-0.5-0.5-1.1-0.7-1.7c-0.2-0.6-0.4-1.3-0.6-1.9c-0.9,1.3-2.1,2.3-3.4,3.1
		c-1.3,0.8-2.9,1.2-4.8,1.2c-3,0-5.5-0.9-7.3-2.6c-1.9-1.7-2.8-4.1-2.8-6.9c0-3.1,1.2-5.6,3.5-7.3c2.4-1.7,5.9-2.6,10.7-2.6h3.6V26
		c0-1.3-0.3-2.4-1-3.1c-0.6-0.7-1.6-1.1-2.9-1.1c-1.1,0-2,0.3-2.5,0.8c-0.6,0.5-0.8,1.4-0.8,2.5l-9.6,0l-0.1-0.2
		c-0.1-2.9,1.1-5.3,3.6-7.3c2.5-1.9,5.9-2.9,10.1-2.9c3.9,0,7.1,1,9.5,2.9c2.4,2,3.6,4.7,3.6,8.4v12c0,1.7,0.1,3.3,0.4,4.7
		c0.3,1.4,0.7,2.9,1.3,4.3L178.9,47z M172.4,40.6c1,0,1.9-0.2,2.7-0.6c0.8-0.4,1.5-0.9,2-1.5v-5h-3.5c-1.6,0-2.7,0.4-3.4,1.1
		c-0.7,0.8-1.1,1.7-1.1,2.9c0,0.9,0.3,1.6,0.9,2.2S171.4,40.6,172.4,40.6z"/>
	<path class="st0" d="M207.8,17.1c4.7,0,8.3,1.4,10.9,4.2c2.6,2.8,3.9,6.4,3.9,10.8v0.6c0,4.5-1.3,8.1-4,10.8
		c-2.7,2.8-6.4,4.1-11.3,4.1c-4.9,0-8.6-1.4-11.3-4.1c-2.7-2.8-4-6.4-4-10.8v-4.4c0-7.3,1.4-12.9,4.1-16.7s6.2-6.1,10.6-6.9
		c1.7-0.3,2.9-0.6,3.7-1.1c0.8-0.5,1.2-1.2,1.2-2.3h7.7l0.1,0.2c0.1,3.9-0.8,6.6-2.7,7.9c-1.9,1.3-5.2,2.3-9.9,3
		c-2,0.3-3.5,1.1-4.6,2.3s-1.7,2.9-2,5.1l0.1,0.1c1-0.9,2.2-1.6,3.5-2.1C205,17.4,206.4,17.1,207.8,17.1z M207.3,24.7
		c-2,0-3.3,0.7-4.2,2c-0.8,1.3-1.2,3.1-1.2,5.3v0.6c0,2.3,0.4,4.1,1.2,5.4c0.8,1.3,2.2,2,4.2,2c1.9,0,3.3-0.7,4.2-2
		c0.8-1.3,1.3-3.1,1.3-5.4v-0.6c0-2.2-0.4-4-1.3-5.3C210.6,25.4,209.2,24.7,207.3,24.7z"/>
	<path class="st0" d="M225.8,30.9c0-4.8,1.3-8.6,4-11.6c2.7-3,6.5-4.5,11.3-4.5c4.8,0,8.6,1.5,11.3,4.5c2.7,3,4,6.9,4,11.6v0.6
		c0,4.8-1.3,8.7-4,11.7s-6.4,4.5-11.3,4.5c-4.9,0-8.6-1.5-11.3-4.5s-4-6.9-4-11.7V30.9z M235.7,31.5c0,2.7,0.4,4.7,1.2,6.3
		c0.8,1.5,2.2,2.3,4.2,2.3c1.9,0,3.3-0.8,4.2-2.3c0.8-1.5,1.3-3.6,1.3-6.2v-0.6c0-2.6-0.4-4.6-1.3-6.2c-0.8-1.6-2.2-2.3-4.2-2.3
		c-2,0-3.3,0.8-4.2,2.3c-0.8,1.6-1.2,3.6-1.2,6.2V31.5z"/>
	<path class="st0" d="M287.9,23h-10v24.1H268V23h-9.8v-7.6h29.8V23z"/>
	<path class="st0" d="M302.2,24.1h5c4.5,0,8.1,1.1,10.7,3.2c2.6,2.1,3.9,4.9,3.9,8.5c0,3.4-1.3,6.1-3.9,8.2
		c-2.6,2.1-6.2,3.1-10.7,3.1h-14.9V15.4h9.9V24.1z M302.2,31.7v7.8h5c1.6,0,2.8-0.4,3.6-1.1c0.8-0.7,1.2-1.6,1.2-2.8
		c0-1.2-0.4-2.2-1.2-2.9c-0.8-0.7-2-1.1-3.6-1.1H302.2z M336.5,47.1h-9.9V15.4h9.9V47.1z"/>
</g>
<line class="st1" x1="3.5" y1="63.5" x2="337.5" y2="63.5"/>
</svg>
