<?xml version="1.0" encoding="utf-8"?>
<!-- Generator: Adobe Illustrator 21.1.0, SVG Export Plug-In . SVG Version: 6.00 Build 0)  -->
<svg version="1.1" id="Слой_1" xmlns="http://www.w3.org/2000/svg" xmlns:xlink="http://www.w3.org/1999/xlink" x="0px" y="0px"
	 viewBox="0 0 616.2 106.7" style="enable-background:new 0 0 616.2 106.7;" xml:space="preserve">
<style type="text/css">
	.st0{clip-path:url(#SVGID_2_);}
	.st1{fill:none;stroke:#000000;stroke-width:3;stroke-miterlimit:10;}
	.st2{clip-path:url(#SVGID_4_);stroke:#000000;stroke-width:3;stroke-miterlimit:10;}
	.st3{clip-path:url(#SVGID_6_);fill:none;stroke:#000000;stroke-width:14;stroke-miterlimit:10;}
	.st4{clip-path:url(#SVGID_8_);fill:none;stroke:#000000;stroke-width:14;stroke-miterlimit:10;}
	.st5{clip-path:url(#SVGID_10_);fill:none;stroke:#000000;stroke-width:14;stroke-miterlimit:10;}
	.st6{clip-path:url(#SVGID_12_);fill:none;stroke:#000000;stroke-width:14;stroke-miterlimit:10;}
	.st7{clip-path:url(#SVGID_14_);fill:none;stroke:#000000;stroke-width:14;stroke-miterlimit:10;}
	.st8{clip-path:url(#SVGID_16_);fill:none;stroke:#000000;stroke-width:14;stroke-miterlimit:10;}
	.st9{clip-path:url(#SVGID_18_);fill:none;stroke:#000000;stroke-width:14;stroke-miterlimit:10;}
	.st10{clip-path:url(#SVGID_20_);fill:none;stroke:#000000;stroke-width:14;stroke-miterlimit:10;}
	.st11{clip-path:url(#SVGID_22_);fill:none;stroke:#000000;stroke-width:14;stroke-miterlimit:10;}
	.st12{clip-path:url(#SVGID_24_);fill:none;stroke:#000000;stroke-width:14;stroke-miterlimit:10;}
	.st13{clip-path:url(#SVGID_26_);fill:none;stroke:#000000;stroke-width:14;stroke-miterlimit:10;}
	.st14{clip-path:url(#SVGID_28_);fill:none;stroke:#000000;stroke-width:14;stroke-miterlimit:10;}
	.st15{clip-path:url(#SVGID_30_);fill:none;stroke:#000000;stroke-width:14;stroke-miterlimit:10;}
	.st16{clip-path:url(#SVGID_32_);fill:none;stroke:#000000;stroke-width:14;stroke-miterlimit:10;}
	.st17{clip-path:url(#SVGID_34_);fill:none;stroke:#000000;stroke-width:14;stroke-miterlimit:10;}
	.st18{clip-path:url(#SVGID_36_);fill:none;stroke:#000000;stroke-width:14;stroke-miterlimit:10;}
	.st19{clip-path:url(#SVGID_38_);fill:none;stroke:#000000;stroke-width:14;stroke-miterlimit:10;}
	.st20{clip-path:url(#SVGID_40_);fill:none;stroke:#000000;stroke-width:14;stroke-miterlimit:10;}
	.st21{clip-path:url(#SVGID_42_);fill:none;stroke:#000000;stroke-width:14;stroke-miterlimit:10;}
</style>
<g>
	<defs>
		<path id="SVGID_1_" d="M297.3,72.2l4.8-15.3h25l4.8,15.3h14.4L321.9,1.1h-14.6l-24.4,71.1H297.3z M314.5,17.7h0.3l8.8,27.9h-17.9
			L314.5,17.7z M398.7,65.7c4.8-4.3,7.3-9.9,7.3-16.7s-2.4-12.3-7.2-16.6c-4.8-4.3-11.3-6.4-19.5-6.4h-12.2V12h31.4V1h-46.3v71.2h27
			C387.4,72.2,393.9,70,398.7,65.7z M367,37h12.2c4,0,7.1,1.1,9.3,3.4c2.2,2.3,3.2,5.1,3.2,8.4c0,3.4-1.1,6.4-3.2,8.7
			c-2.2,2.4-5.2,3.6-9.3,3.6H367V37z M599.7,1.1v71.1H614V1.1H599.7z M586.1,32.5c-4.8-4.3-11.3-6.4-19.5-6.4h-12.2v-25h-14.3v71.1
			h26.5c8.1,0,14.6-2.1,19.5-6.4s7.3-9.9,7.3-16.7C593.3,42.2,590.9,36.7,586.1,32.5z M575.8,57.6c-2.2,2.4-5.2,3.6-9.3,3.6h-12.2
			V37h12.2c4,0,7.1,1.1,9.3,3.4c2.2,2.3,3.2,5.1,3.2,8.4C579.1,52.3,578,55.2,575.8,57.6z M443,73.2c8.8,0,16-2.8,21.5-8.5
			s8.3-12.9,8.3-21.6V30.2c0-8.7-2.8-15.9-8.3-21.6S451.8,0,443,0s-15.9,2.9-21.3,8.6c-5.5,5.7-8.2,12.9-8.2,21.6V43
			c0,8.7,2.7,15.9,8.2,21.6C427.1,70.3,434.2,73.2,443,73.2z M427.7,30.2c0-5.6,1.3-10.1,4-13.7c2.7-3.5,6.4-5.3,11.3-5.3
			s8.7,1.8,11.4,5.3c2.8,3.6,4.2,8.1,4.2,13.6V43c0,5.6-1.4,10.2-4.1,13.8c-2.7,3.6-6.5,5.3-11.4,5.3c-4.8,0-8.6-1.8-11.3-5.3
			c-2.7-3.6-4.1-8.2-4.1-13.8V30.2z M246.3,46.4h14.1c8.2,0,14.6-2.1,19.3-6.2c4.7-4.1,7-9.6,7-16.4s-2.3-12.3-7-16.5
			S268.6,1,260.4,1h-28.3v71.2h14.3V46.4H246.3z M246.3,12h14.1c4,0,7,1.1,9.1,3.3c2,2.2,3.1,5.1,3.1,8.5s-1,6.1-3.1,8.3
			s-5.1,3.2-9,3.2h-14.1V12H246.3z M141.2,89.6V72.2h43.6v17.5h12.9l1.4-28.5h-8.4V1.1h-46.2l-2,29.1c-0.3,9.1-1.4,16-3.3,20.7
			s-4.1,8.1-6.7,10.3H127l1.1,28.5L141.2,89.6L141.2,89.6z M154.1,48.5c1.4-5,2.2-11.2,2.5-18.3l1.2-18.1h18.5v49.1h-27.8
			C150.9,57.8,152.7,53.5,154.1,48.5z M60.1,1.1H43.5L30.2,26.3L17,1.1H0.5l21.1,35.3L0,72.2h16.7l13.7-25.6l13.7,25.6h17.2L39,36.3
			L60.1,1.1z M71.2,106.2h451.6v-4H71.2V106.2z M477.1,12h20v60.2h14.3V12h20.1V1h-54.4V12z M94.3,73.2c8.8,0,16-2.8,21.5-8.5
			s8.3-12.9,8.3-21.6V30.2c0-8.7-2.8-15.9-8.3-21.6S103.1,0,94.3,0S78.4,2.9,73,8.6c-5.5,5.7-8.2,12.9-8.2,21.6V43
			c0,8.7,2.7,15.9,8.2,21.6C78.5,70.3,85.6,73.2,94.3,73.2z M79,30.2c0-5.6,1.3-10.1,4-13.7c2.7-3.5,6.4-5.3,11.3-5.3
			c4.9,0,8.7,1.8,11.4,5.3c2.8,3.6,4.2,8.1,4.2,13.6V43c0,5.6-1.4,10.2-4.1,13.8c-2.7,3.6-6.5,5.3-11.4,5.3c-4.8,0-8.6-1.8-11.3-5.3
			C80.4,53.2,79,48.6,79,43L79,30.2L79,30.2z"/>
	</defs>
	<clipPath id="SVGID_2_">
		<use xlink:href="#SVGID_1_"  style="overflow:visible;"/>
	</clipPath>
	<g class="st0">
		<path class="st1" d="M30.2,26.3L43.5,1.1h16.6L39,36.3l22.3,35.9H44.1L30.4,46.5L16.6,72.2H0l21.6-35.8L0.5,1.1H17L30.2,26.3z"/>
		<path class="st1" d="M124.1,43c0,8.7-2.8,15.9-8.3,21.6c-5.5,5.7-12.7,8.5-21.5,8.5S78.4,70.3,73,64.6c-5.5-5.7-8.2-12.9-8.2-21.6
			V30.2c0-8.7,2.7-15.9,8.2-21.6S85.6,0,94.3,0c8.8,0,16,2.9,21.5,8.6s8.3,12.9,8.3,21.6V43z M109.8,30.2c0-5.5-1.4-10.1-4.2-13.6
			c-2.8-3.6-6.6-5.3-11.4-5.3c-4.9,0-8.6,1.8-11.3,5.3s-4,8.1-4,13.7v12.9c0,5.6,1.4,10.2,4.1,13.8c2.7,3.6,6.5,5.3,11.3,5.3
			c4.9,0,8.7-1.8,11.4-5.3c2.7-3.6,4.1-8.2,4.1-13.8V30.2z"/>
		<path class="st1" d="M197.7,89.6h-12.9V72.2h-43.6v17.5h-13.1l-1.2-28.5h5.5c2.5-2.2,4.8-5.6,6.7-10.3s3-11.6,3.3-20.7l2-29.1
			h46.2v60.1h8.4L197.7,89.6z M156.7,30.1c-0.3,7.2-1.1,13.3-2.5,18.3s-3.2,9.3-5.5,12.7h27.8V12H158L156.7,30.1z"/>
		<path class="st1" d="M246.3,46.4v25.8H232V1.1h28.3c8.2,0,14.6,2.1,19.3,6.3c4.7,4.2,7,9.7,7,16.5s-2.3,12.3-7,16.4
			s-11.1,6.2-19.3,6.2L246.3,46.4L246.3,46.4z M246.3,35.4h14.1c4,0,7-1.1,9-3.2c2.1-2.2,3.1-4.9,3.1-8.3s-1-6.2-3.1-8.5
			c-2-2.2-5.1-3.3-9.1-3.3h-14.1v23.3H246.3z"/>
		<path class="st1" d="M327.1,56.8h-25l-4.8,15.4h-14.4l24.5-71.1H322l24.3,71.1h-14.4L327.1,56.8z M305.7,45.6h17.9l-8.8-27.9h-0.3
			L305.7,45.6z"/>
		<path class="st1" d="M398.5,12h-31.4v14h12.1c8.2,0,14.7,2.1,19.5,6.4s7.2,9.8,7.2,16.6s-2.4,12.4-7.3,16.7
			c-4.9,4.3-11.2,6.5-19.4,6.5h-27.1V1.1h46.3V12H398.5z M367,37v24.2h12.2c4,0,7.1-1.2,9.3-3.6c2.2-2.4,3.2-5.3,3.2-8.7
			c0-3.3-1.1-6.1-3.2-8.4c-2.2-2.3-5.2-3.4-9.3-3.4H367V37z"/>
		<path class="st1" d="M472.8,43c0,8.7-2.8,15.9-8.3,21.6c-5.5,5.7-12.7,8.5-21.5,8.5s-15.9-2.8-21.3-8.5
			c-5.5-5.7-8.2-12.9-8.2-21.6V30.2c0-8.7,2.7-15.9,8.2-21.6S434.3,0,443,0c8.8,0,16,2.9,21.5,8.6s8.3,12.9,8.3,21.6V43z
			 M458.5,30.2c0-5.5-1.4-10.1-4.2-13.6c-2.8-3.6-6.6-5.3-11.4-5.3c-4.9,0-8.6,1.8-11.3,5.3c-2.7,3.5-4,8.1-4,13.7v12.9
			c0,5.6,1.4,10.2,4.1,13.8c2.7,3.6,6.5,5.3,11.3,5.3c4.9,0,8.7-1.8,11.4-5.3c2.7-3.6,4.1-8.2,4.1-13.8V30.2z"/>
		<path class="st1" d="M531.5,12h-20.1v60.2h-14.2V12h-20V1h54.4v11H531.5z"/>
		<path class="st1" d="M554.4,26.1h12.2c8.2,0,14.7,2.1,19.5,6.4s7.2,9.8,7.2,16.6s-2.4,12.4-7.3,16.7s-11.3,6.4-19.4,6.4h-26.5V1.1
			h14.3V26.1z M554.4,37v24.2h12.2c4,0,7.1-1.2,9.3-3.6s3.2-5.3,3.2-8.7c0-3.3-1.1-6.1-3.2-8.4c-2.2-2.3-5.2-3.4-9.3-3.4h-12.2V37z
			 M614,72.2h-14.3V1.1H614V72.2z"/>
	</g>
</g>
<g>
	<defs>
		<path id="SVGID_3_" d="M297.3,72.2l4.8-15.3h25l4.8,15.3h14.4L321.9,1.1h-14.6l-24.4,71.1H297.3z M314.5,17.7h0.3l8.8,27.9h-17.9
			L314.5,17.7z M398.7,65.7c4.8-4.3,7.3-9.9,7.3-16.7s-2.4-12.3-7.2-16.6c-4.8-4.3-11.3-6.4-19.5-6.4h-12.2V12h31.4V1h-46.3v71.2h27
			C387.4,72.2,393.9,70,398.7,65.7z M367,37h12.2c4,0,7.1,1.1,9.3,3.4c2.2,2.3,3.2,5.1,3.2,8.4c0,3.4-1.1,6.4-3.2,8.7
			c-2.2,2.4-5.2,3.6-9.3,3.6H367V37z M599.7,1.1v71.1H614V1.1H599.7z M586.1,32.5c-4.8-4.3-11.3-6.4-19.5-6.4h-12.2v-25h-14.3v71.1
			h26.5c8.1,0,14.6-2.1,19.5-6.4s7.3-9.9,7.3-16.7C593.3,42.2,590.9,36.7,586.1,32.5z M575.8,57.6c-2.2,2.4-5.2,3.6-9.3,3.6h-12.2
			V37h12.2c4,0,7.1,1.1,9.3,3.4c2.2,2.3,3.2,5.1,3.2,8.4C579.1,52.3,578,55.2,575.8,57.6z M443,73.2c8.8,0,16-2.8,21.5-8.5
			s8.3-12.9,8.3-21.6V30.2c0-8.7-2.8-15.9-8.3-21.6S451.8,0,443,0s-15.9,2.9-21.3,8.6c-5.5,5.7-8.2,12.9-8.2,21.6V43
			c0,8.7,2.7,15.9,8.2,21.6C427.1,70.3,434.2,73.2,443,73.2z M427.7,30.2c0-5.6,1.3-10.1,4-13.7c2.7-3.5,6.4-5.3,11.3-5.3
			s8.7,1.8,11.4,5.3c2.8,3.6,4.2,8.1,4.2,13.6V43c0,5.6-1.4,10.2-4.1,13.8c-2.7,3.6-6.5,5.3-11.4,5.3c-4.8,0-8.6-1.8-11.3-5.3
			c-2.7-3.6-4.1-8.2-4.1-13.8V30.2z M246.3,46.4h14.1c8.2,0,14.6-2.1,19.3-6.2c4.7-4.1,7-9.6,7-16.4s-2.3-12.3-7-16.5
			S268.6,1,260.4,1h-28.3v71.2h14.3V46.4H246.3z M246.3,12h14.1c4,0,7,1.1,9.1,3.3c2,2.2,3.1,5.1,3.1,8.5s-1,6.1-3.1,8.3
			s-5.1,3.2-9,3.2h-14.1V12H246.3z M141.2,89.6V72.2h43.6v17.5h12.9l1.4-28.5h-8.4V1.1h-46.2l-2,29.1c-0.3,9.1-1.4,16-3.3,20.7
			s-4.1,8.1-6.7,10.3H127l1.1,28.5L141.2,89.6L141.2,89.6z M154.1,48.5c1.4-5,2.2-11.2,2.5-18.3l1.2-18.1h18.5v49.1h-27.8
			C150.9,57.8,152.7,53.5,154.1,48.5z M60.1,1.1H43.5L30.2,26.3L17,1.1H0.5l21.1,35.3L0,72.2h16.7l13.7-25.6l13.7,25.6h17.2L39,36.3
			L60.1,1.1z M71.2,106.2h451.6v-4H71.2V106.2z M477.1,12h20v60.2h14.3V12h20.1V1h-54.4V12z M94.3,73.2c8.8,0,16-2.8,21.5-8.5
			s8.3-12.9,8.3-21.6V30.2c0-8.7-2.8-15.9-8.3-21.6S103.1,0,94.3,0S78.4,2.9,73,8.6c-5.5,5.7-8.2,12.9-8.2,21.6V43
			c0,8.7,2.7,15.9,8.2,21.6C78.5,70.3,85.6,73.2,94.3,73.2z M79,30.2c0-5.6,1.3-10.1,4-13.7c2.7-3.5,6.4-5.3,11.3-5.3
			c4.9,0,8.7,1.8,11.4,5.3c2.8,3.6,4.2,8.1,4.2,13.6V43c0,5.6-1.4,10.2-4.1,13.8c-2.7,3.6-6.5,5.3-11.4,5.3c-4.8,0-8.6-1.8-11.3-5.3
			C80.4,53.2,79,48.6,79,43L79,30.2L79,30.2z"/>
	</defs>
	<clipPath id="SVGID_4_">
		<use xlink:href="#SVGID_3_"  style="overflow:visible;"/>
	</clipPath>
	<rect x="71.2" y="102.2" class="st2" width="451.6" height="4"/>
</g>
<g>
	<defs>
		<path id="SVGID_5_" d="M297.3,72.2l4.8-15.3h25l4.8,15.3h14.4L321.9,1.1h-14.6l-24.4,71.1H297.3z M314.5,17.7h0.3l8.8,27.9h-17.9
			L314.5,17.7z M398.7,65.7c4.8-4.3,7.3-9.9,7.3-16.7s-2.4-12.3-7.2-16.6c-4.8-4.3-11.3-6.4-19.5-6.4h-12.2V12h31.4V1h-46.3v71.2h27
			C387.4,72.2,393.9,70,398.7,65.7z M367,37h12.2c4,0,7.1,1.1,9.3,3.4c2.2,2.3,3.2,5.1,3.2,8.4c0,3.4-1.1,6.4-3.2,8.7
			c-2.2,2.4-5.2,3.6-9.3,3.6H367V37z M599.7,1.1v71.1H614V1.1H599.7z M586.1,32.5c-4.8-4.3-11.3-6.4-19.5-6.4h-12.2v-25h-14.3v71.1
			h26.5c8.1,0,14.6-2.1,19.5-6.4s7.3-9.9,7.3-16.7C593.3,42.2,590.9,36.7,586.1,32.5z M575.8,57.6c-2.2,2.4-5.2,3.6-9.3,3.6h-12.2
			V37h12.2c4,0,7.1,1.1,9.3,3.4c2.2,2.3,3.2,5.1,3.2,8.4C579.1,52.3,578,55.2,575.8,57.6z M443,73.2c8.8,0,16-2.8,21.5-8.5
			s8.3-12.9,8.3-21.6V30.2c0-8.7-2.8-15.9-8.3-21.6S451.8,0,443,0s-15.9,2.9-21.3,8.6c-5.5,5.7-8.2,12.9-8.2,21.6V43
			c0,8.7,2.7,15.9,8.2,21.6C427.1,70.3,434.2,73.2,443,73.2z M427.7,30.2c0-5.6,1.3-10.1,4-13.7c2.7-3.5,6.4-5.3,11.3-5.3
			s8.7,1.8,11.4,5.3c2.8,3.6,4.2,8.1,4.2,13.6V43c0,5.6-1.4,10.2-4.1,13.8c-2.7,3.6-6.5,5.3-11.4,5.3c-4.8,0-8.6-1.8-11.3-5.3
			c-2.7-3.6-4.1-8.2-4.1-13.8V30.2z M246.3,46.4h14.1c8.2,0,14.6-2.1,19.3-6.2c4.7-4.1,7-9.6,7-16.4s-2.3-12.3-7-16.5
			S268.6,1,260.4,1h-28.3v71.2h14.3V46.4H246.3z M246.3,12h14.1c4,0,7,1.1,9.1,3.3c2,2.2,3.1,5.1,3.1,8.5s-1,6.1-3.1,8.3
			s-5.1,3.2-9,3.2h-14.1V12H246.3z M141.2,89.6V72.2h43.6v17.5h12.9l1.4-28.5h-8.4V1.1h-46.2l-2,29.1c-0.3,9.1-1.4,16-3.3,20.7
			s-4.1,8.1-6.7,10.3H127l1.1,28.5L141.2,89.6L141.2,89.6z M154.1,48.5c1.4-5,2.2-11.2,2.5-18.3l1.2-18.1h18.5v49.1h-27.8
			C150.9,57.8,152.7,53.5,154.1,48.5z M60.1,1.1H43.5L30.2,26.3L17,1.1H0.5l21.1,35.3L0,72.2h16.7l13.7-25.6l13.7,25.6h17.2L39,36.3
			L60.1,1.1z M71.2,106.2h451.6v-4H71.2V106.2z M477.1,12h20v60.2h14.3V12h20.1V1h-54.4V12z M94.3,73.2c8.8,0,16-2.8,21.5-8.5
			s8.3-12.9,8.3-21.6V30.2c0-8.7-2.8-15.9-8.3-21.6S103.1,0,94.3,0S78.4,2.9,73,8.6c-5.5,5.7-8.2,12.9-8.2,21.6V43
			c0,8.7,2.7,15.9,8.2,21.6C78.5,70.3,85.6,73.2,94.3,73.2z M79,30.2c0-5.6,1.3-10.1,4-13.7c2.7-3.5,6.4-5.3,11.3-5.3
			c4.9,0,8.7,1.8,11.4,5.3c2.8,3.6,4.2,8.1,4.2,13.6V43c0,5.6-1.4,10.2-4.1,13.8c-2.7,3.6-6.5,5.3-11.4,5.3c-4.8,0-8.6-1.8-11.3-5.3
			C80.4,53.2,79,48.6,79,43L79,30.2L79,30.2z"/>
	</defs>
	<clipPath id="SVGID_6_">
		<use xlink:href="#SVGID_5_"  style="overflow:visible;"/>
	</clipPath>
	<line class="st3" x1="4.5" y1="-5.3" x2="54.5" y2="76"/>
</g>
<g>
	<defs>
		<path id="SVGID_7_" d="M297.3,72.2l4.8-15.3h25l4.8,15.3h14.4L321.9,1.1h-14.6l-24.4,71.1H297.3z M314.5,17.7h0.3l8.8,27.9h-17.9
			L314.5,17.7z M398.7,65.7c4.8-4.3,7.3-9.9,7.3-16.7s-2.4-12.3-7.2-16.6c-4.8-4.3-11.3-6.4-19.5-6.4h-12.2V12h31.4V1h-46.3v71.2h27
			C387.4,72.2,393.9,70,398.7,65.7z M367,37h12.2c4,0,7.1,1.1,9.3,3.4c2.2,2.3,3.2,5.1,3.2,8.4c0,3.4-1.1,6.4-3.2,8.7
			c-2.2,2.4-5.2,3.6-9.3,3.6H367V37z M599.7,1.1v71.1H614V1.1H599.7z M586.1,32.5c-4.8-4.3-11.3-6.4-19.5-6.4h-12.2v-25h-14.3v71.1
			h26.5c8.1,0,14.6-2.1,19.5-6.4s7.3-9.9,7.3-16.7C593.3,42.2,590.9,36.7,586.1,32.5z M575.8,57.6c-2.2,2.4-5.2,3.6-9.3,3.6h-12.2
			V37h12.2c4,0,7.1,1.1,9.3,3.4c2.2,2.3,3.2,5.1,3.2,8.4C579.1,52.3,578,55.2,575.8,57.6z M443,73.2c8.8,0,16-2.8,21.5-8.5
			s8.3-12.9,8.3-21.6V30.2c0-8.7-2.8-15.9-8.3-21.6S451.8,0,443,0s-15.9,2.9-21.3,8.6c-5.5,5.7-8.2,12.9-8.2,21.6V43
			c0,8.7,2.7,15.9,8.2,21.6C427.1,70.3,434.2,73.2,443,73.2z M427.7,30.2c0-5.6,1.3-10.1,4-13.7c2.7-3.5,6.4-5.3,11.3-5.3
			s8.7,1.8,11.4,5.3c2.8,3.6,4.2,8.1,4.2,13.6V43c0,5.6-1.4,10.2-4.1,13.8c-2.7,3.6-6.5,5.3-11.4,5.3c-4.8,0-8.6-1.8-11.3-5.3
			c-2.7-3.6-4.1-8.2-4.1-13.8V30.2z M246.3,46.4h14.1c8.2,0,14.6-2.1,19.3-6.2c4.7-4.1,7-9.6,7-16.4s-2.3-12.3-7-16.5
			S268.6,1,260.4,1h-28.3v71.2h14.3V46.4H246.3z M246.3,12h14.1c4,0,7,1.1,9.1,3.3c2,2.2,3.1,5.1,3.1,8.5s-1,6.1-3.1,8.3
			s-5.1,3.2-9,3.2h-14.1V12H246.3z M141.2,89.6V72.2h43.6v17.5h12.9l1.4-28.5h-8.4V1.1h-46.2l-2,29.1c-0.3,9.1-1.4,16-3.3,20.7
			s-4.1,8.1-6.7,10.3H127l1.1,28.5L141.2,89.6L141.2,89.6z M154.1,48.5c1.4-5,2.2-11.2,2.5-18.3l1.2-18.1h18.5v49.1h-27.8
			C150.9,57.8,152.7,53.5,154.1,48.5z M60.1,1.1H43.5L30.2,26.3L17,1.1H0.5l21.1,35.3L0,72.2h16.7l13.7-25.6l13.7,25.6h17.2L39,36.3
			L60.1,1.1z M71.2,106.2h451.6v-4H71.2V106.2z M477.1,12h20v60.2h14.3V12h20.1V1h-54.4V12z M94.3,73.2c8.8,0,16-2.8,21.5-8.5
			s8.3-12.9,8.3-21.6V30.2c0-8.7-2.8-15.9-8.3-21.6S103.1,0,94.3,0S78.4,2.9,73,8.6c-5.5,5.7-8.2,12.9-8.2,21.6V43
			c0,8.7,2.7,15.9,8.2,21.6C78.5,70.3,85.6,73.2,94.3,73.2z M79,30.2c0-5.6,1.3-10.1,4-13.7c2.7-3.5,6.4-5.3,11.3-5.3
			c4.9,0,8.7,1.8,11.4,5.3c2.8,3.6,4.2,8.1,4.2,13.6V43c0,5.6-1.4,10.2-4.1,13.8c-2.7,3.6-6.5,5.3-11.4,5.3c-4.8,0-8.6-1.8-11.3-5.3
			C80.4,53.2,79,48.6,79,43L79,30.2L79,30.2z"/>
	</defs>
	<clipPath id="SVGID_8_">
		<use xlink:href="#SVGID_7_"  style="overflow:visible;"/>
	</clipPath>
	<line class="st4" x1="5.7" y1="77.7" x2="59.2" y2="-11.1"/>
</g>
<g>
	<defs>
		<path id="SVGID_9_" d="M297.3,72.2l4.8-15.3h25l4.8,15.3h14.4L321.9,1.1h-14.6l-24.4,71.1H297.3z M314.5,17.7h0.3l8.8,27.9h-17.9
			L314.5,17.7z M398.7,65.7c4.8-4.3,7.3-9.9,7.3-16.7s-2.4-12.3-7.2-16.6c-4.8-4.3-11.3-6.4-19.5-6.4h-12.2V12h31.4V1h-46.3v71.2h27
			C387.4,72.2,393.9,70,398.7,65.7z M367,37h12.2c4,0,7.1,1.1,9.3,3.4c2.2,2.3,3.2,5.1,3.2,8.4c0,3.4-1.1,6.4-3.2,8.7
			c-2.2,2.4-5.2,3.6-9.3,3.6H367V37z M599.7,1.1v71.1H614V1.1H599.7z M586.1,32.5c-4.8-4.3-11.3-6.4-19.5-6.4h-12.2v-25h-14.3v71.1
			h26.5c8.1,0,14.6-2.1,19.5-6.4s7.3-9.9,7.3-16.7C593.3,42.2,590.9,36.7,586.1,32.5z M575.8,57.6c-2.2,2.4-5.2,3.6-9.3,3.6h-12.2
			V37h12.2c4,0,7.1,1.1,9.3,3.4c2.2,2.3,3.2,5.1,3.2,8.4C579.1,52.3,578,55.2,575.8,57.6z M443,73.2c8.8,0,16-2.8,21.5-8.5
			s8.3-12.9,8.3-21.6V30.2c0-8.7-2.8-15.9-8.3-21.6S451.8,0,443,0s-15.9,2.9-21.3,8.6c-5.5,5.7-8.2,12.9-8.2,21.6V43
			c0,8.7,2.7,15.9,8.2,21.6C427.1,70.3,434.2,73.2,443,73.2z M427.7,30.2c0-5.6,1.3-10.1,4-13.7c2.7-3.5,6.4-5.3,11.3-5.3
			s8.7,1.8,11.4,5.3c2.8,3.6,4.2,8.1,4.2,13.6V43c0,5.6-1.4,10.2-4.1,13.8c-2.7,3.6-6.5,5.3-11.4,5.3c-4.8,0-8.6-1.8-11.3-5.3
			c-2.7-3.6-4.1-8.2-4.1-13.8V30.2z M246.3,46.4h14.1c8.2,0,14.6-2.1,19.3-6.2c4.7-4.1,7-9.6,7-16.4s-2.3-12.3-7-16.5
			S268.6,1,260.4,1h-28.3v71.2h14.3V46.4H246.3z M246.3,12h14.1c4,0,7,1.1,9.1,3.3c2,2.2,3.1,5.1,3.1,8.5s-1,6.1-3.1,8.3
			s-5.1,3.2-9,3.2h-14.1V12H246.3z M141.2,89.6V72.2h43.6v17.5h12.9l1.4-28.5h-8.4V1.1h-46.2l-2,29.1c-0.3,9.1-1.4,16-3.3,20.7
			s-4.1,8.1-6.7,10.3H127l1.1,28.5L141.2,89.6L141.2,89.6z M154.1,48.5c1.4-5,2.2-11.2,2.5-18.3l1.2-18.1h18.5v49.1h-27.8
			C150.9,57.8,152.7,53.5,154.1,48.5z M60.1,1.1H43.5L30.2,26.3L17,1.1H0.5l21.1,35.3L0,72.2h16.7l13.7-25.6l13.7,25.6h17.2L39,36.3
			L60.1,1.1z M71.2,106.2h451.6v-4H71.2V106.2z M477.1,12h20v60.2h14.3V12h20.1V1h-54.4V12z M94.3,73.2c8.8,0,16-2.8,21.5-8.5
			s8.3-12.9,8.3-21.6V30.2c0-8.7-2.8-15.9-8.3-21.6S103.1,0,94.3,0S78.4,2.9,73,8.6c-5.5,5.7-8.2,12.9-8.2,21.6V43
			c0,8.7,2.7,15.9,8.2,21.6C78.5,70.3,85.6,73.2,94.3,73.2z M79,30.2c0-5.6,1.3-10.1,4-13.7c2.7-3.5,6.4-5.3,11.3-5.3
			c4.9,0,8.7,1.8,11.4,5.3c2.8,3.6,4.2,8.1,4.2,13.6V43c0,5.6-1.4,10.2-4.1,13.8c-2.7,3.6-6.5,5.3-11.4,5.3c-4.8,0-8.6-1.8-11.3-5.3
			C80.4,53.2,79,48.6,79,43L79,30.2L79,30.2z"/>
	</defs>
	<clipPath id="SVGID_10_">
		<use xlink:href="#SVGID_9_"  style="overflow:visible;"/>
	</clipPath>
	<path class="st5" d="M113.8,17.7c-1-1.6-6.9-10.8-17.6-11.8c-10.6-0.9-19.6,6.9-23,14.5c-1.7,3.8-1.5,8.4-1.3,17.8
		c0.4,11.2,0.5,16.8,4,21.5c5.3,7.1,13.9,8.4,15,8.5c9.8,1.2,18.4-4.3,22.8-10.8c3.9-5.7,3.9-11.4,4-19.5
		C117.8,30.4,117.8,24.1,113.8,17.7z"/>
</g>
<g>
	<defs>
		<path id="SVGID_11_" d="M297.3,72.2l4.8-15.3h25l4.8,15.3h14.4L321.9,1.1h-14.6l-24.4,71.1H297.3z M314.5,17.7h0.3l8.8,27.9h-17.9
			L314.5,17.7z M398.7,65.7c4.8-4.3,7.3-9.9,7.3-16.7s-2.4-12.3-7.2-16.6c-4.8-4.3-11.3-6.4-19.5-6.4h-12.2V12h31.4V1h-46.3v71.2h27
			C387.4,72.2,393.9,70,398.7,65.7z M367,37h12.2c4,0,7.1,1.1,9.3,3.4c2.2,2.3,3.2,5.1,3.2,8.4c0,3.4-1.1,6.4-3.2,8.7
			c-2.2,2.4-5.2,3.6-9.3,3.6H367V37z M599.7,1.1v71.1H614V1.1H599.7z M586.1,32.5c-4.8-4.3-11.3-6.4-19.5-6.4h-12.2v-25h-14.3v71.1
			h26.5c8.1,0,14.6-2.1,19.5-6.4s7.3-9.9,7.3-16.7C593.3,42.2,590.9,36.7,586.1,32.5z M575.8,57.6c-2.2,2.4-5.2,3.6-9.3,3.6h-12.2
			V37h12.2c4,0,7.1,1.1,9.3,3.4c2.2,2.3,3.2,5.1,3.2,8.4C579.1,52.3,578,55.2,575.8,57.6z M443,73.2c8.8,0,16-2.8,21.5-8.5
			s8.3-12.9,8.3-21.6V30.2c0-8.7-2.8-15.9-8.3-21.6S451.8,0,443,0s-15.9,2.9-21.3,8.6c-5.5,5.7-8.2,12.9-8.2,21.6V43
			c0,8.7,2.7,15.9,8.2,21.6C427.1,70.3,434.2,73.2,443,73.2z M427.7,30.2c0-5.6,1.3-10.1,4-13.7c2.7-3.5,6.4-5.3,11.3-5.3
			s8.7,1.8,11.4,5.3c2.8,3.6,4.2,8.1,4.2,13.6V43c0,5.6-1.4,10.2-4.1,13.8c-2.7,3.6-6.5,5.3-11.4,5.3c-4.8,0-8.6-1.8-11.3-5.3
			c-2.7-3.6-4.1-8.2-4.1-13.8V30.2z M246.3,46.4h14.1c8.2,0,14.6-2.1,19.3-6.2c4.7-4.1,7-9.6,7-16.4s-2.3-12.3-7-16.5
			S268.6,1,260.4,1h-28.3v71.2h14.3V46.4H246.3z M246.3,12h14.1c4,0,7,1.1,9.1,3.3c2,2.2,3.1,5.1,3.1,8.5s-1,6.1-3.1,8.3
			s-5.1,3.2-9,3.2h-14.1V12H246.3z M141.2,89.6V72.2h43.6v17.5h12.9l1.4-28.5h-8.4V1.1h-46.2l-2,29.1c-0.3,9.1-1.4,16-3.3,20.7
			s-4.1,8.1-6.7,10.3H127l1.1,28.5L141.2,89.6L141.2,89.6z M154.1,48.5c1.4-5,2.2-11.2,2.5-18.3l1.2-18.1h18.5v49.1h-27.8
			C150.9,57.8,152.7,53.5,154.1,48.5z M60.1,1.1H43.5L30.2,26.3L17,1.1H0.5l21.1,35.3L0,72.2h16.7l13.7-25.6l13.7,25.6h17.2L39,36.3
			L60.1,1.1z M71.2,106.2h451.6v-4H71.2V106.2z M477.1,12h20v60.2h14.3V12h20.1V1h-54.4V12z M94.3,73.2c8.8,0,16-2.8,21.5-8.5
			s8.3-12.9,8.3-21.6V30.2c0-8.7-2.8-15.9-8.3-21.6S103.1,0,94.3,0S78.4,2.9,73,8.6c-5.5,5.7-8.2,12.9-8.2,21.6V43
			c0,8.7,2.7,15.9,8.2,21.6C78.5,70.3,85.6,73.2,94.3,73.2z M79,30.2c0-5.6,1.3-10.1,4-13.7c2.7-3.5,6.4-5.3,11.3-5.3
			c4.9,0,8.7,1.8,11.4,5.3c2.8,3.6,4.2,8.1,4.2,13.6V43c0,5.6-1.4,10.2-4.1,13.8c-2.7,3.6-6.5,5.3-11.4,5.3c-4.8,0-8.6-1.8-11.3-5.3
			C80.4,53.2,79,48.6,79,43L79,30.2L79,30.2z"/>
	</defs>
	<clipPath id="SVGID_12_">
		<use xlink:href="#SVGID_11_"  style="overflow:visible;"/>
	</clipPath>
	<path class="st6" d="M135.2,91.7c0.9-5.5,0.7-10,0.3-13.3c-0.8-6.1-2.3-7.9-1.3-11.5c1.2-4.1,4-4.8,7.8-9.5c3.6-4.7,4.9-9.2,6-13
		c1.8-6.3,0.9-8.9,1.8-28c0.3-6.3,0.5-8.4,2.3-10.3c1.2-1.2,3.2-2.5,16-2.5c13.7,0,15.3,1.5,16,2.5c1.7,2.4,0.2,4.8-0.8,11.5
		c-1.4,10.1,1.1,10.3,0.5,23.3c-0.6,11.1-2.6,13.8,0,17.8c2.7,4.1,6.3,3.4,8.5,8c1,2.2,1,4,0.3,11.7c-0.4,4.2-0.8,8.9-1.3,14"/>
</g>
<g>
	<defs>
		<path id="SVGID_13_" d="M297.3,72.2l4.8-15.3h25l4.8,15.3h14.4L321.9,1.1h-14.6l-24.4,71.1H297.3z M314.5,17.7h0.3l8.8,27.9h-17.9
			L314.5,17.7z M398.7,65.7c4.8-4.3,7.3-9.9,7.3-16.7s-2.4-12.3-7.2-16.6c-4.8-4.3-11.3-6.4-19.5-6.4h-12.2V12h31.4V1h-46.3v71.2h27
			C387.4,72.2,393.9,70,398.7,65.7z M367,37h12.2c4,0,7.1,1.1,9.3,3.4c2.2,2.3,3.2,5.1,3.2,8.4c0,3.4-1.1,6.4-3.2,8.7
			c-2.2,2.4-5.2,3.6-9.3,3.6H367V37z M599.7,1.1v71.1H614V1.1H599.7z M586.1,32.5c-4.8-4.3-11.3-6.4-19.5-6.4h-12.2v-25h-14.3v71.1
			h26.5c8.1,0,14.6-2.1,19.5-6.4s7.3-9.9,7.3-16.7C593.3,42.2,590.9,36.7,586.1,32.5z M575.8,57.6c-2.2,2.4-5.2,3.6-9.3,3.6h-12.2
			V37h12.2c4,0,7.1,1.1,9.3,3.4c2.2,2.3,3.2,5.1,3.2,8.4C579.1,52.3,578,55.2,575.8,57.6z M443,73.2c8.8,0,16-2.8,21.5-8.5
			s8.3-12.9,8.3-21.6V30.2c0-8.7-2.8-15.9-8.3-21.6S451.8,0,443,0s-15.9,2.9-21.3,8.6c-5.5,5.7-8.2,12.9-8.2,21.6V43
			c0,8.7,2.7,15.9,8.2,21.6C427.1,70.3,434.2,73.2,443,73.2z M427.7,30.2c0-5.6,1.3-10.1,4-13.7c2.7-3.5,6.4-5.3,11.3-5.3
			s8.7,1.8,11.4,5.3c2.8,3.6,4.2,8.1,4.2,13.6V43c0,5.6-1.4,10.2-4.1,13.8c-2.7,3.6-6.5,5.3-11.4,5.3c-4.8,0-8.6-1.8-11.3-5.3
			c-2.7-3.6-4.1-8.2-4.1-13.8V30.2z M246.3,46.4h14.1c8.2,0,14.6-2.1,19.3-6.2c4.7-4.1,7-9.6,7-16.4s-2.3-12.3-7-16.5
			S268.6,1,260.4,1h-28.3v71.2h14.3V46.4H246.3z M246.3,12h14.1c4,0,7,1.1,9.1,3.3c2,2.2,3.1,5.1,3.1,8.5s-1,6.1-3.1,8.3
			s-5.1,3.2-9,3.2h-14.1V12H246.3z M141.2,89.6V72.2h43.6v17.5h12.9l1.4-28.5h-8.4V1.1h-46.2l-2,29.1c-0.3,9.1-1.4,16-3.3,20.7
			s-4.1,8.1-6.7,10.3H127l1.1,28.5L141.2,89.6L141.2,89.6z M154.1,48.5c1.4-5,2.2-11.2,2.5-18.3l1.2-18.1h18.5v49.1h-27.8
			C150.9,57.8,152.7,53.5,154.1,48.5z M60.1,1.1H43.5L30.2,26.3L17,1.1H0.5l21.1,35.3L0,72.2h16.7l13.7-25.6l13.7,25.6h17.2L39,36.3
			L60.1,1.1z M71.2,106.2h451.6v-4H71.2V106.2z M477.1,12h20v60.2h14.3V12h20.1V1h-54.4V12z M94.3,73.2c8.8,0,16-2.8,21.5-8.5
			s8.3-12.9,8.3-21.6V30.2c0-8.7-2.8-15.9-8.3-21.6S103.1,0,94.3,0S78.4,2.9,73,8.6c-5.5,5.7-8.2,12.9-8.2,21.6V43
			c0,8.7,2.7,15.9,8.2,21.6C78.5,70.3,85.6,73.2,94.3,73.2z M79,30.2c0-5.6,1.3-10.1,4-13.7c2.7-3.5,6.4-5.3,11.3-5.3
			c4.9,0,8.7,1.8,11.4,5.3c2.8,3.6,4.2,8.1,4.2,13.6V43c0,5.6-1.4,10.2-4.1,13.8c-2.7,3.6-6.5,5.3-11.4,5.3c-4.8,0-8.6-1.8-11.3-5.3
			C80.4,53.2,79,48.6,79,43L79,30.2L79,30.2z"/>
	</defs>
	<clipPath id="SVGID_14_">
		<use xlink:href="#SVGID_13_"  style="overflow:visible;"/>
	</clipPath>
	<line class="st7" x1="121.5" y1="68.4" x2="204" y2="68.4"/>
</g>
<g>
	<defs>
		<path id="SVGID_15_" d="M297.3,72.2l4.8-15.3h25l4.8,15.3h14.4L321.9,1.1h-14.6l-24.4,71.1H297.3z M314.5,17.7h0.3l8.8,27.9h-17.9
			L314.5,17.7z M398.7,65.7c4.8-4.3,7.3-9.9,7.3-16.7s-2.4-12.3-7.2-16.6c-4.8-4.3-11.3-6.4-19.5-6.4h-12.2V12h31.4V1h-46.3v71.2h27
			C387.4,72.2,393.9,70,398.7,65.7z M367,37h12.2c4,0,7.1,1.1,9.3,3.4c2.2,2.3,3.2,5.1,3.2,8.4c0,3.4-1.1,6.4-3.2,8.7
			c-2.2,2.4-5.2,3.6-9.3,3.6H367V37z M599.7,1.1v71.1H614V1.1H599.7z M586.1,32.5c-4.8-4.3-11.3-6.4-19.5-6.4h-12.2v-25h-14.3v71.1
			h26.5c8.1,0,14.6-2.1,19.5-6.4s7.3-9.9,7.3-16.7C593.3,42.2,590.9,36.7,586.1,32.5z M575.8,57.6c-2.2,2.4-5.2,3.6-9.3,3.6h-12.2
			V37h12.2c4,0,7.1,1.1,9.3,3.4c2.2,2.3,3.2,5.1,3.2,8.4C579.1,52.3,578,55.2,575.8,57.6z M443,73.2c8.8,0,16-2.8,21.5-8.5
			s8.3-12.9,8.3-21.6V30.2c0-8.7-2.8-15.9-8.3-21.6S451.8,0,443,0s-15.9,2.9-21.3,8.6c-5.5,5.7-8.2,12.9-8.2,21.6V43
			c0,8.7,2.7,15.9,8.2,21.6C427.1,70.3,434.2,73.2,443,73.2z M427.7,30.2c0-5.6,1.3-10.1,4-13.7c2.7-3.5,6.4-5.3,11.3-5.3
			s8.7,1.8,11.4,5.3c2.8,3.6,4.2,8.1,4.2,13.6V43c0,5.6-1.4,10.2-4.1,13.8c-2.7,3.6-6.5,5.3-11.4,5.3c-4.8,0-8.6-1.8-11.3-5.3
			c-2.7-3.6-4.1-8.2-4.1-13.8V30.2z M246.3,46.4h14.1c8.2,0,14.6-2.1,19.3-6.2c4.7-4.1,7-9.6,7-16.4s-2.3-12.3-7-16.5
			S268.6,1,260.4,1h-28.3v71.2h14.3V46.4H246.3z M246.3,12h14.1c4,0,7,1.1,9.1,3.3c2,2.2,3.1,5.1,3.1,8.5s-1,6.1-3.1,8.3
			s-5.1,3.2-9,3.2h-14.1V12H246.3z M141.2,89.6V72.2h43.6v17.5h12.9l1.4-28.5h-8.4V1.1h-46.2l-2,29.1c-0.3,9.1-1.4,16-3.3,20.7
			s-4.1,8.1-6.7,10.3H127l1.1,28.5L141.2,89.6L141.2,89.6z M154.1,48.5c1.4-5,2.2-11.2,2.5-18.3l1.2-18.1h18.5v49.1h-27.8
			C150.9,57.8,152.7,53.5,154.1,48.5z M60.1,1.1H43.5L30.2,26.3L17,1.1H0.5l21.1,35.3L0,72.2h16.7l13.7-25.6l13.7,25.6h17.2L39,36.3
			L60.1,1.1z M71.2,106.2h451.6v-4H71.2V106.2z M477.1,12h20v60.2h14.3V12h20.1V1h-54.4V12z M94.3,73.2c8.8,0,16-2.8,21.5-8.5
			s8.3-12.9,8.3-21.6V30.2c0-8.7-2.8-15.9-8.3-21.6S103.1,0,94.3,0S78.4,2.9,73,8.6c-5.5,5.7-8.2,12.9-8.2,21.6V43
			c0,8.7,2.7,15.9,8.2,21.6C78.5,70.3,85.6,73.2,94.3,73.2z M79,30.2c0-5.6,1.3-10.1,4-13.7c2.7-3.5,6.4-5.3,11.3-5.3
			c4.9,0,8.7,1.8,11.4,5.3c2.8,3.6,4.2,8.1,4.2,13.6V43c0,5.6-1.4,10.2-4.1,13.8c-2.7,3.6-6.5,5.3-11.4,5.3c-4.8,0-8.6-1.8-11.3-5.3
			C80.4,53.2,79,48.6,79,43L79,30.2L79,30.2z"/>
	</defs>
	<clipPath id="SVGID_16_">
		<use xlink:href="#SVGID_15_"  style="overflow:visible;"/>
	</clipPath>
	<line class="st8" x1="238.7" y1="77.5" x2="238.7" y2="-2.3"/>
</g>
<g>
	<defs>
		<path id="SVGID_17_" d="M297.3,72.2l4.8-15.3h25l4.8,15.3h14.4L321.9,1.1h-14.6l-24.4,71.1H297.3z M314.5,17.7h0.3l8.8,27.9h-17.9
			L314.5,17.7z M398.7,65.7c4.8-4.3,7.3-9.9,7.3-16.7s-2.4-12.3-7.2-16.6c-4.8-4.3-11.3-6.4-19.5-6.4h-12.2V12h31.4V1h-46.3v71.2h27
			C387.4,72.2,393.9,70,398.7,65.7z M367,37h12.2c4,0,7.1,1.1,9.3,3.4c2.2,2.3,3.2,5.1,3.2,8.4c0,3.4-1.1,6.4-3.2,8.7
			c-2.2,2.4-5.2,3.6-9.3,3.6H367V37z M599.7,1.1v71.1H614V1.1H599.7z M586.1,32.5c-4.8-4.3-11.3-6.4-19.5-6.4h-12.2v-25h-14.3v71.1
			h26.5c8.1,0,14.6-2.1,19.5-6.4s7.3-9.9,7.3-16.7C593.3,42.2,590.9,36.7,586.1,32.5z M575.8,57.6c-2.2,2.4-5.2,3.6-9.3,3.6h-12.2
			V37h12.2c4,0,7.1,1.1,9.3,3.4c2.2,2.3,3.2,5.1,3.2,8.4C579.1,52.3,578,55.2,575.8,57.6z M443,73.2c8.8,0,16-2.8,21.5-8.5
			s8.3-12.9,8.3-21.6V30.2c0-8.7-2.8-15.9-8.3-21.6S451.8,0,443,0s-15.9,2.9-21.3,8.6c-5.5,5.7-8.2,12.9-8.2,21.6V43
			c0,8.7,2.7,15.9,8.2,21.6C427.1,70.3,434.2,73.2,443,73.2z M427.7,30.2c0-5.6,1.3-10.1,4-13.7c2.7-3.5,6.4-5.3,11.3-5.3
			s8.7,1.8,11.4,5.3c2.8,3.6,4.2,8.1,4.2,13.6V43c0,5.6-1.4,10.2-4.1,13.8c-2.7,3.6-6.5,5.3-11.4,5.3c-4.8,0-8.6-1.8-11.3-5.3
			c-2.7-3.6-4.1-8.2-4.1-13.8V30.2z M246.3,46.4h14.1c8.2,0,14.6-2.1,19.3-6.2c4.7-4.1,7-9.6,7-16.4s-2.3-12.3-7-16.5
			S268.6,1,260.4,1h-28.3v71.2h14.3V46.4H246.3z M246.3,12h14.1c4,0,7,1.1,9.1,3.3c2,2.2,3.1,5.1,3.1,8.5s-1,6.1-3.1,8.3
			s-5.1,3.2-9,3.2h-14.1V12H246.3z M141.2,89.6V72.2h43.6v17.5h12.9l1.4-28.5h-8.4V1.1h-46.2l-2,29.1c-0.3,9.1-1.4,16-3.3,20.7
			s-4.1,8.1-6.7,10.3H127l1.1,28.5L141.2,89.6L141.2,89.6z M154.1,48.5c1.4-5,2.2-11.2,2.5-18.3l1.2-18.1h18.5v49.1h-27.8
			C150.9,57.8,152.7,53.5,154.1,48.5z M60.1,1.1H43.5L30.2,26.3L17,1.1H0.5l21.1,35.3L0,72.2h16.7l13.7-25.6l13.7,25.6h17.2L39,36.3
			L60.1,1.1z M71.2,106.2h451.6v-4H71.2V106.2z M477.1,12h20v60.2h14.3V12h20.1V1h-54.4V12z M94.3,73.2c8.8,0,16-2.8,21.5-8.5
			s8.3-12.9,8.3-21.6V30.2c0-8.7-2.8-15.9-8.3-21.6S103.1,0,94.3,0S78.4,2.9,73,8.6c-5.5,5.7-8.2,12.9-8.2,21.6V43
			c0,8.7,2.7,15.9,8.2,21.6C78.5,70.3,85.6,73.2,94.3,73.2z M79,30.2c0-5.6,1.3-10.1,4-13.7c2.7-3.5,6.4-5.3,11.3-5.3
			c4.9,0,8.7,1.8,11.4,5.3c2.8,3.6,4.2,8.1,4.2,13.6V43c0,5.6-1.4,10.2-4.1,13.8c-2.7,3.6-6.5,5.3-11.4,5.3c-4.8,0-8.6-1.8-11.3-5.3
			C80.4,53.2,79,48.6,79,43L79,30.2L79,30.2z"/>
	</defs>
	<clipPath id="SVGID_18_">
		<use xlink:href="#SVGID_17_"  style="overflow:visible;"/>
	</clipPath>
	<path class="st9" d="M227.2,7.5c5.8-0.5,13.3-1.1,22-1.5c11.1-0.5,13.8-0.4,17,1c6,2.6,13.7,9.4,13.3,18.5
		c-0.5,8.9-8.5,13.9-9,14.3c-2,1.2-5.6,2.8-19.3,1.8c-5.5-0.4-13.4-1.3-22.8-3.5"/>
</g>
<g>
	<defs>
		<path id="SVGID_19_" d="M297.3,72.2l4.8-15.3h25l4.8,15.3h14.4L321.9,1.1h-14.6l-24.4,71.1H297.3z M314.5,17.7h0.3l8.8,27.9h-17.9
			L314.5,17.7z M398.7,65.7c4.8-4.3,7.3-9.9,7.3-16.7s-2.4-12.3-7.2-16.6c-4.8-4.3-11.3-6.4-19.5-6.4h-12.2V12h31.4V1h-46.3v71.2h27
			C387.4,72.2,393.9,70,398.7,65.7z M367,37h12.2c4,0,7.1,1.1,9.3,3.4c2.2,2.3,3.2,5.1,3.2,8.4c0,3.4-1.1,6.4-3.2,8.7
			c-2.2,2.4-5.2,3.6-9.3,3.6H367V37z M599.7,1.1v71.1H614V1.1H599.7z M586.1,32.5c-4.8-4.3-11.3-6.4-19.5-6.4h-12.2v-25h-14.3v71.1
			h26.5c8.1,0,14.6-2.1,19.5-6.4s7.3-9.9,7.3-16.7C593.3,42.2,590.9,36.7,586.1,32.5z M575.8,57.6c-2.2,2.4-5.2,3.6-9.3,3.6h-12.2
			V37h12.2c4,0,7.1,1.1,9.3,3.4c2.2,2.3,3.2,5.1,3.2,8.4C579.1,52.3,578,55.2,575.8,57.6z M443,73.2c8.8,0,16-2.8,21.5-8.5
			s8.3-12.9,8.3-21.6V30.2c0-8.7-2.8-15.9-8.3-21.6S451.8,0,443,0s-15.9,2.9-21.3,8.6c-5.5,5.7-8.2,12.9-8.2,21.6V43
			c0,8.7,2.7,15.9,8.2,21.6C427.1,70.3,434.2,73.2,443,73.2z M427.7,30.2c0-5.6,1.3-10.1,4-13.7c2.7-3.5,6.4-5.3,11.3-5.3
			s8.7,1.8,11.4,5.3c2.8,3.6,4.2,8.1,4.2,13.6V43c0,5.6-1.4,10.2-4.1,13.8c-2.7,3.6-6.5,5.3-11.4,5.3c-4.8,0-8.6-1.8-11.3-5.3
			c-2.7-3.6-4.1-8.2-4.1-13.8V30.2z M246.3,46.4h14.1c8.2,0,14.6-2.1,19.3-6.2c4.7-4.1,7-9.6,7-16.4s-2.3-12.3-7-16.5
			S268.6,1,260.4,1h-28.3v71.2h14.3V46.4H246.3z M246.3,12h14.1c4,0,7,1.1,9.1,3.3c2,2.2,3.1,5.1,3.1,8.5s-1,6.1-3.1,8.3
			s-5.1,3.2-9,3.2h-14.1V12H246.3z M141.2,89.6V72.2h43.6v17.5h12.9l1.4-28.5h-8.4V1.1h-46.2l-2,29.1c-0.3,9.1-1.4,16-3.3,20.7
			s-4.1,8.1-6.7,10.3H127l1.1,28.5L141.2,89.6L141.2,89.6z M154.1,48.5c1.4-5,2.2-11.2,2.5-18.3l1.2-18.1h18.5v49.1h-27.8
			C150.9,57.8,152.7,53.5,154.1,48.5z M60.1,1.1H43.5L30.2,26.3L17,1.1H0.5l21.1,35.3L0,72.2h16.7l13.7-25.6l13.7,25.6h17.2L39,36.3
			L60.1,1.1z M71.2,106.2h451.6v-4H71.2V106.2z M477.1,12h20v60.2h14.3V12h20.1V1h-54.4V12z M94.3,73.2c8.8,0,16-2.8,21.5-8.5
			s8.3-12.9,8.3-21.6V30.2c0-8.7-2.8-15.9-8.3-21.6S103.1,0,94.3,0S78.4,2.9,73,8.6c-5.5,5.7-8.2,12.9-8.2,21.6V43
			c0,8.7,2.7,15.9,8.2,21.6C78.5,70.3,85.6,73.2,94.3,73.2z M79,30.2c0-5.6,1.3-10.1,4-13.7c2.7-3.5,6.4-5.3,11.3-5.3
			c4.9,0,8.7,1.8,11.4,5.3c2.8,3.6,4.2,8.1,4.2,13.6V43c0,5.6-1.4,10.2-4.1,13.8c-2.7,3.6-6.5,5.3-11.4,5.3c-4.8,0-8.6-1.8-11.3-5.3
			C80.4,53.2,79,48.6,79,43L79,30.2L79,30.2z"/>
	</defs>
	<clipPath id="SVGID_20_">
		<use xlink:href="#SVGID_19_"  style="overflow:visible;"/>
	</clipPath>
	<line class="st10" x1="315.7" y1="-3.5" x2="288.2" y2="74.2"/>
</g>
<g>
	<defs>
		<path id="SVGID_21_" d="M297.3,72.2l4.8-15.3h25l4.8,15.3h14.4L321.9,1.1h-14.6l-24.4,71.1H297.3z M314.5,17.7h0.3l8.8,27.9h-17.9
			L314.5,17.7z M398.7,65.7c4.8-4.3,7.3-9.9,7.3-16.7s-2.4-12.3-7.2-16.6c-4.8-4.3-11.3-6.4-19.5-6.4h-12.2V12h31.4V1h-46.3v71.2h27
			C387.4,72.2,393.9,70,398.7,65.7z M367,37h12.2c4,0,7.1,1.1,9.3,3.4c2.2,2.3,3.2,5.1,3.2,8.4c0,3.4-1.1,6.4-3.2,8.7
			c-2.2,2.4-5.2,3.6-9.3,3.6H367V37z M599.7,1.1v71.1H614V1.1H599.7z M586.1,32.5c-4.8-4.3-11.3-6.4-19.5-6.4h-12.2v-25h-14.3v71.1
			h26.5c8.1,0,14.6-2.1,19.5-6.4s7.3-9.9,7.3-16.7C593.3,42.2,590.9,36.7,586.1,32.5z M575.8,57.6c-2.2,2.4-5.2,3.6-9.3,3.6h-12.2
			V37h12.2c4,0,7.1,1.1,9.3,3.4c2.2,2.3,3.2,5.1,3.2,8.4C579.1,52.3,578,55.2,575.8,57.6z M443,73.2c8.8,0,16-2.8,21.5-8.5
			s8.3-12.9,8.3-21.6V30.2c0-8.7-2.8-15.9-8.3-21.6S451.8,0,443,0s-15.9,2.9-21.3,8.6c-5.5,5.7-8.2,12.9-8.2,21.6V43
			c0,8.7,2.7,15.9,8.2,21.6C427.1,70.3,434.2,73.2,443,73.2z M427.7,30.2c0-5.6,1.3-10.1,4-13.7c2.7-3.5,6.4-5.3,11.3-5.3
			s8.7,1.8,11.4,5.3c2.8,3.6,4.2,8.1,4.2,13.6V43c0,5.6-1.4,10.2-4.1,13.8c-2.7,3.6-6.5,5.3-11.4,5.3c-4.8,0-8.6-1.8-11.3-5.3
			c-2.7-3.6-4.1-8.2-4.1-13.8V30.2z M246.3,46.4h14.1c8.2,0,14.6-2.1,19.3-6.2c4.7-4.1,7-9.6,7-16.4s-2.3-12.3-7-16.5
			S268.6,1,260.4,1h-28.3v71.2h14.3V46.4H246.3z M246.3,12h14.1c4,0,7,1.1,9.1,3.3c2,2.2,3.1,5.1,3.1,8.5s-1,6.1-3.1,8.3
			s-5.1,3.2-9,3.2h-14.1V12H246.3z M141.2,89.6V72.2h43.6v17.5h12.9l1.4-28.5h-8.4V1.1h-46.2l-2,29.1c-0.3,9.1-1.4,16-3.3,20.7
			s-4.1,8.1-6.7,10.3H127l1.1,28.5L141.2,89.6L141.2,89.6z M154.1,48.5c1.4-5,2.2-11.2,2.5-18.3l1.2-18.1h18.5v49.1h-27.8
			C150.9,57.8,152.7,53.5,154.1,48.5z M60.1,1.1H43.5L30.2,26.3L17,1.1H0.5l21.1,35.3L0,72.2h16.7l13.7-25.6l13.7,25.6h17.2L39,36.3
			L60.1,1.1z M71.2,106.2h451.6v-4H71.2V106.2z M477.1,12h20v60.2h14.3V12h20.1V1h-54.4V12z M94.3,73.2c8.8,0,16-2.8,21.5-8.5
			s8.3-12.9,8.3-21.6V30.2c0-8.7-2.8-15.9-8.3-21.6S103.1,0,94.3,0S78.4,2.9,73,8.6c-5.5,5.7-8.2,12.9-8.2,21.6V43
			c0,8.7,2.7,15.9,8.2,21.6C78.5,70.3,85.6,73.2,94.3,73.2z M79,30.2c0-5.6,1.3-10.1,4-13.7c2.7-3.5,6.4-5.3,11.3-5.3
			c4.9,0,8.7,1.8,11.4,5.3c2.8,3.6,4.2,8.1,4.2,13.6V43c0,5.6-1.4,10.2-4.1,13.8c-2.7,3.6-6.5,5.3-11.4,5.3c-4.8,0-8.6-1.8-11.3-5.3
			C80.4,53.2,79,48.6,79,43L79,30.2L79,30.2z"/>
	</defs>
	<clipPath id="SVGID_22_">
		<use xlink:href="#SVGID_21_"  style="overflow:visible;"/>
	</clipPath>
	<line class="st11" x1="341.2" y1="77.5" x2="314.6" y2="-7"/>
</g>
<g>
	<defs>
		<path id="SVGID_23_" d="M297.3,72.2l4.8-15.3h25l4.8,15.3h14.4L321.9,1.1h-14.6l-24.4,71.1H297.3z M314.5,17.7h0.3l8.8,27.9h-17.9
			L314.5,17.7z M398.7,65.7c4.8-4.3,7.3-9.9,7.3-16.7s-2.4-12.3-7.2-16.6c-4.8-4.3-11.3-6.4-19.5-6.4h-12.2V12h31.4V1h-46.3v71.2h27
			C387.4,72.2,393.9,70,398.7,65.7z M367,37h12.2c4,0,7.1,1.1,9.3,3.4c2.2,2.3,3.2,5.1,3.2,8.4c0,3.4-1.1,6.4-3.2,8.7
			c-2.2,2.4-5.2,3.6-9.3,3.6H367V37z M599.7,1.1v71.1H614V1.1H599.7z M586.1,32.5c-4.8-4.3-11.3-6.4-19.5-6.4h-12.2v-25h-14.3v71.1
			h26.5c8.1,0,14.6-2.1,19.5-6.4s7.3-9.9,7.3-16.7C593.3,42.2,590.9,36.7,586.1,32.5z M575.8,57.6c-2.2,2.4-5.2,3.6-9.3,3.6h-12.2
			V37h12.2c4,0,7.1,1.1,9.3,3.4c2.2,2.3,3.2,5.1,3.2,8.4C579.1,52.3,578,55.2,575.8,57.6z M443,73.2c8.8,0,16-2.8,21.5-8.5
			s8.3-12.9,8.3-21.6V30.2c0-8.7-2.8-15.9-8.3-21.6S451.8,0,443,0s-15.9,2.9-21.3,8.6c-5.5,5.7-8.2,12.9-8.2,21.6V43
			c0,8.7,2.7,15.9,8.2,21.6C427.1,70.3,434.2,73.2,443,73.2z M427.7,30.2c0-5.6,1.3-10.1,4-13.7c2.7-3.5,6.4-5.3,11.3-5.3
			s8.7,1.8,11.4,5.3c2.8,3.6,4.2,8.1,4.2,13.6V43c0,5.6-1.4,10.2-4.1,13.8c-2.7,3.6-6.5,5.3-11.4,5.3c-4.8,0-8.6-1.8-11.3-5.3
			c-2.7-3.6-4.1-8.2-4.1-13.8V30.2z M246.3,46.4h14.1c8.2,0,14.6-2.1,19.3-6.2c4.7-4.1,7-9.6,7-16.4s-2.3-12.3-7-16.5
			S268.6,1,260.4,1h-28.3v71.2h14.3V46.4H246.3z M246.3,12h14.1c4,0,7,1.1,9.1,3.3c2,2.2,3.1,5.1,3.1,8.5s-1,6.1-3.1,8.3
			s-5.1,3.2-9,3.2h-14.1V12H246.3z M141.2,89.6V72.2h43.6v17.5h12.9l1.4-28.5h-8.4V1.1h-46.2l-2,29.1c-0.3,9.1-1.4,16-3.3,20.7
			s-4.1,8.1-6.7,10.3H127l1.1,28.5L141.2,89.6L141.2,89.6z M154.1,48.5c1.4-5,2.2-11.2,2.5-18.3l1.2-18.1h18.5v49.1h-27.8
			C150.9,57.8,152.7,53.5,154.1,48.5z M60.1,1.1H43.5L30.2,26.3L17,1.1H0.5l21.1,35.3L0,72.2h16.7l13.7-25.6l13.7,25.6h17.2L39,36.3
			L60.1,1.1z M71.2,106.2h451.6v-4H71.2V106.2z M477.1,12h20v60.2h14.3V12h20.1V1h-54.4V12z M94.3,73.2c8.8,0,16-2.8,21.5-8.5
			s8.3-12.9,8.3-21.6V30.2c0-8.7-2.8-15.9-8.3-21.6S103.1,0,94.3,0S78.4,2.9,73,8.6c-5.5,5.7-8.2,12.9-8.2,21.6V43
			c0,8.7,2.7,15.9,8.2,21.6C78.5,70.3,85.6,73.2,94.3,73.2z M79,30.2c0-5.6,1.3-10.1,4-13.7c2.7-3.5,6.4-5.3,11.3-5.3
			c4.9,0,8.7,1.8,11.4,5.3c2.8,3.6,4.2,8.1,4.2,13.6V43c0,5.6-1.4,10.2-4.1,13.8c-2.7,3.6-6.5,5.3-11.4,5.3c-4.8,0-8.6-1.8-11.3-5.3
			C80.4,53.2,79,48.6,79,43L79,30.2L79,30.2z"/>
	</defs>
	<clipPath id="SVGID_24_">
		<use xlink:href="#SVGID_23_"  style="overflow:visible;"/>
	</clipPath>
	<line class="st12" x1="284" y1="50" x2="342.5" y2="50"/>
</g>
<g>
	<defs>
		<path id="SVGID_25_" d="M297.3,72.2l4.8-15.3h25l4.8,15.3h14.4L321.9,1.1h-14.6l-24.4,71.1H297.3z M314.5,17.7h0.3l8.8,27.9h-17.9
			L314.5,17.7z M398.7,65.7c4.8-4.3,7.3-9.9,7.3-16.7s-2.4-12.3-7.2-16.6c-4.8-4.3-11.3-6.4-19.5-6.4h-12.2V12h31.4V1h-46.3v71.2h27
			C387.4,72.2,393.9,70,398.7,65.7z M367,37h12.2c4,0,7.1,1.1,9.3,3.4c2.2,2.3,3.2,5.1,3.2,8.4c0,3.4-1.1,6.4-3.2,8.7
			c-2.2,2.4-5.2,3.6-9.3,3.6H367V37z M599.7,1.1v71.1H614V1.1H599.7z M586.1,32.5c-4.8-4.3-11.3-6.4-19.5-6.4h-12.2v-25h-14.3v71.1
			h26.5c8.1,0,14.6-2.1,19.5-6.4s7.3-9.9,7.3-16.7C593.3,42.2,590.9,36.7,586.1,32.5z M575.8,57.6c-2.2,2.4-5.2,3.6-9.3,3.6h-12.2
			V37h12.2c4,0,7.1,1.1,9.3,3.4c2.2,2.3,3.2,5.1,3.2,8.4C579.1,52.3,578,55.2,575.8,57.6z M443,73.2c8.8,0,16-2.8,21.5-8.5
			s8.3-12.9,8.3-21.6V30.2c0-8.7-2.8-15.9-8.3-21.6S451.8,0,443,0s-15.9,2.9-21.3,8.6c-5.5,5.7-8.2,12.9-8.2,21.6V43
			c0,8.7,2.7,15.9,8.2,21.6C427.1,70.3,434.2,73.2,443,73.2z M427.7,30.2c0-5.6,1.3-10.1,4-13.7c2.7-3.5,6.4-5.3,11.3-5.3
			s8.7,1.8,11.4,5.3c2.8,3.6,4.2,8.1,4.2,13.6V43c0,5.6-1.4,10.2-4.1,13.8c-2.7,3.6-6.5,5.3-11.4,5.3c-4.8,0-8.6-1.8-11.3-5.3
			c-2.7-3.6-4.1-8.2-4.1-13.8V30.2z M246.3,46.4h14.1c8.2,0,14.6-2.1,19.3-6.2c4.7-4.1,7-9.6,7-16.4s-2.3-12.3-7-16.5
			S268.6,1,260.4,1h-28.3v71.2h14.3V46.4H246.3z M246.3,12h14.1c4,0,7,1.1,9.1,3.3c2,2.2,3.1,5.1,3.1,8.5s-1,6.1-3.1,8.3
			s-5.1,3.2-9,3.2h-14.1V12H246.3z M141.2,89.6V72.2h43.6v17.5h12.9l1.4-28.5h-8.4V1.1h-46.2l-2,29.1c-0.3,9.1-1.4,16-3.3,20.7
			s-4.1,8.1-6.7,10.3H127l1.1,28.5L141.2,89.6L141.2,89.6z M154.1,48.5c1.4-5,2.2-11.2,2.5-18.3l1.2-18.1h18.5v49.1h-27.8
			C150.9,57.8,152.7,53.5,154.1,48.5z M60.1,1.1H43.5L30.2,26.3L17,1.1H0.5l21.1,35.3L0,72.2h16.7l13.7-25.6l13.7,25.6h17.2L39,36.3
			L60.1,1.1z M71.2,106.2h451.6v-4H71.2V106.2z M477.1,12h20v60.2h14.3V12h20.1V1h-54.4V12z M94.3,73.2c8.8,0,16-2.8,21.5-8.5
			s8.3-12.9,8.3-21.6V30.2c0-8.7-2.8-15.9-8.3-21.6S103.1,0,94.3,0S78.4,2.9,73,8.6c-5.5,5.7-8.2,12.9-8.2,21.6V43
			c0,8.7,2.7,15.9,8.2,21.6C78.5,70.3,85.6,73.2,94.3,73.2z M79,30.2c0-5.6,1.3-10.1,4-13.7c2.7-3.5,6.4-5.3,11.3-5.3
			c4.9,0,8.7,1.8,11.4,5.3c2.8,3.6,4.2,8.1,4.2,13.6V43c0,5.6-1.4,10.2-4.1,13.8c-2.7,3.6-6.5,5.3-11.4,5.3c-4.8,0-8.6-1.8-11.3-5.3
			C80.4,53.2,79,48.6,79,43L79,30.2L79,30.2z"/>
	</defs>
	<clipPath id="SVGID_26_">
		<use xlink:href="#SVGID_25_"  style="overflow:visible;"/>
	</clipPath>
	<line class="st13" x1="359.5" y1="79.7" x2="359.5" y2="-6"/>
</g>
<g>
	<defs>
		<path id="SVGID_27_" d="M297.3,72.2l4.8-15.3h25l4.8,15.3h14.4L321.9,1.1h-14.6l-24.4,71.1H297.3z M314.5,17.7h0.3l8.8,27.9h-17.9
			L314.5,17.7z M398.7,65.7c4.8-4.3,7.3-9.9,7.3-16.7s-2.4-12.3-7.2-16.6c-4.8-4.3-11.3-6.4-19.5-6.4h-12.2V12h31.4V1h-46.3v71.2h27
			C387.4,72.2,393.9,70,398.7,65.7z M367,37h12.2c4,0,7.1,1.1,9.3,3.4c2.2,2.3,3.2,5.1,3.2,8.4c0,3.4-1.1,6.4-3.2,8.7
			c-2.2,2.4-5.2,3.6-9.3,3.6H367V37z M599.7,1.1v71.1H614V1.1H599.7z M586.1,32.5c-4.8-4.3-11.3-6.4-19.5-6.4h-12.2v-25h-14.3v71.1
			h26.5c8.1,0,14.6-2.1,19.5-6.4s7.3-9.9,7.3-16.7C593.3,42.2,590.9,36.7,586.1,32.5z M575.8,57.6c-2.2,2.4-5.2,3.6-9.3,3.6h-12.2
			V37h12.2c4,0,7.1,1.1,9.3,3.4c2.2,2.3,3.2,5.1,3.2,8.4C579.1,52.3,578,55.2,575.8,57.6z M443,73.2c8.8,0,16-2.8,21.5-8.5
			s8.3-12.9,8.3-21.6V30.2c0-8.7-2.8-15.9-8.3-21.6S451.8,0,443,0s-15.9,2.9-21.3,8.6c-5.5,5.7-8.2,12.9-8.2,21.6V43
			c0,8.7,2.7,15.9,8.2,21.6C427.1,70.3,434.2,73.2,443,73.2z M427.7,30.2c0-5.6,1.3-10.1,4-13.7c2.7-3.5,6.4-5.3,11.3-5.3
			s8.7,1.8,11.4,5.3c2.8,3.6,4.2,8.1,4.2,13.6V43c0,5.6-1.4,10.2-4.1,13.8c-2.7,3.6-6.5,5.3-11.4,5.3c-4.8,0-8.6-1.8-11.3-5.3
			c-2.7-3.6-4.1-8.2-4.1-13.8V30.2z M246.3,46.4h14.1c8.2,0,14.6-2.1,19.3-6.2c4.7-4.1,7-9.6,7-16.4s-2.3-12.3-7-16.5
			S268.6,1,260.4,1h-28.3v71.2h14.3V46.4H246.3z M246.3,12h14.1c4,0,7,1.1,9.1,3.3c2,2.2,3.1,5.1,3.1,8.5s-1,6.1-3.1,8.3
			s-5.1,3.2-9,3.2h-14.1V12H246.3z M141.2,89.6V72.2h43.6v17.5h12.9l1.4-28.5h-8.4V1.1h-46.2l-2,29.1c-0.3,9.1-1.4,16-3.3,20.7
			s-4.1,8.1-6.7,10.3H127l1.1,28.5L141.2,89.6L141.2,89.6z M154.1,48.5c1.4-5,2.2-11.2,2.5-18.3l1.2-18.1h18.5v49.1h-27.8
			C150.9,57.8,152.7,53.5,154.1,48.5z M60.1,1.1H43.5L30.2,26.3L17,1.1H0.5l21.1,35.3L0,72.2h16.7l13.7-25.6l13.7,25.6h17.2L39,36.3
			L60.1,1.1z M71.2,106.2h451.6v-4H71.2V106.2z M477.1,12h20v60.2h14.3V12h20.1V1h-54.4V12z M94.3,73.2c8.8,0,16-2.8,21.5-8.5
			s8.3-12.9,8.3-21.6V30.2c0-8.7-2.8-15.9-8.3-21.6S103.1,0,94.3,0S78.4,2.9,73,8.6c-5.5,5.7-8.2,12.9-8.2,21.6V43
			c0,8.7,2.7,15.9,8.2,21.6C78.5,70.3,85.6,73.2,94.3,73.2z M79,30.2c0-5.6,1.3-10.1,4-13.7c2.7-3.5,6.4-5.3,11.3-5.3
			c4.9,0,8.7,1.8,11.4,5.3c2.8,3.6,4.2,8.1,4.2,13.6V43c0,5.6-1.4,10.2-4.1,13.8c-2.7,3.6-6.5,5.3-11.4,5.3c-4.8,0-8.6-1.8-11.3-5.3
			C80.4,53.2,79,48.6,79,43L79,30.2L79,30.2z"/>
	</defs>
	<clipPath id="SVGID_28_">
		<use xlink:href="#SVGID_27_"  style="overflow:visible;"/>
	</clipPath>
	<line class="st14" x1="403" y1="6.7" x2="348.7" y2="6.7"/>
</g>
<g>
	<defs>
		<path id="SVGID_29_" d="M297.3,72.2l4.8-15.3h25l4.8,15.3h14.4L321.9,1.1h-14.6l-24.4,71.1H297.3z M314.5,17.7h0.3l8.8,27.9h-17.9
			L314.5,17.7z M398.7,65.7c4.8-4.3,7.3-9.9,7.3-16.7s-2.4-12.3-7.2-16.6c-4.8-4.3-11.3-6.4-19.5-6.4h-12.2V12h31.4V1h-46.3v71.2h27
			C387.4,72.2,393.9,70,398.7,65.7z M367,37h12.2c4,0,7.1,1.1,9.3,3.4c2.2,2.3,3.2,5.1,3.2,8.4c0,3.4-1.1,6.4-3.2,8.7
			c-2.2,2.4-5.2,3.6-9.3,3.6H367V37z M599.7,1.1v71.1H614V1.1H599.7z M586.1,32.5c-4.8-4.3-11.3-6.4-19.5-6.4h-12.2v-25h-14.3v71.1
			h26.5c8.1,0,14.6-2.1,19.5-6.4s7.3-9.9,7.3-16.7C593.3,42.2,590.9,36.7,586.1,32.5z M575.8,57.6c-2.2,2.4-5.2,3.6-9.3,3.6h-12.2
			V37h12.2c4,0,7.1,1.1,9.3,3.4c2.2,2.3,3.2,5.1,3.2,8.4C579.1,52.3,578,55.2,575.8,57.6z M443,73.2c8.8,0,16-2.8,21.5-8.5
			s8.3-12.9,8.3-21.6V30.2c0-8.7-2.8-15.9-8.3-21.6S451.8,0,443,0s-15.9,2.9-21.3,8.6c-5.5,5.7-8.2,12.9-8.2,21.6V43
			c0,8.7,2.7,15.9,8.2,21.6C427.1,70.3,434.2,73.2,443,73.2z M427.7,30.2c0-5.6,1.3-10.1,4-13.7c2.7-3.5,6.4-5.3,11.3-5.3
			s8.7,1.8,11.4,5.3c2.8,3.6,4.2,8.1,4.2,13.6V43c0,5.6-1.4,10.2-4.1,13.8c-2.7,3.6-6.5,5.3-11.4,5.3c-4.8,0-8.6-1.8-11.3-5.3
			c-2.7-3.6-4.1-8.2-4.1-13.8V30.2z M246.3,46.4h14.1c8.2,0,14.6-2.1,19.3-6.2c4.7-4.1,7-9.6,7-16.4s-2.3-12.3-7-16.5
			S268.6,1,260.4,1h-28.3v71.2h14.3V46.4H246.3z M246.3,12h14.1c4,0,7,1.1,9.1,3.3c2,2.2,3.1,5.1,3.1,8.5s-1,6.1-3.1,8.3
			s-5.1,3.2-9,3.2h-14.1V12H246.3z M141.2,89.6V72.2h43.6v17.5h12.9l1.4-28.5h-8.4V1.1h-46.2l-2,29.1c-0.3,9.1-1.4,16-3.3,20.7
			s-4.1,8.1-6.7,10.3H127l1.1,28.5L141.2,89.6L141.2,89.6z M154.1,48.5c1.4-5,2.2-11.2,2.5-18.3l1.2-18.1h18.5v49.1h-27.8
			C150.9,57.8,152.7,53.5,154.1,48.5z M60.1,1.1H43.5L30.2,26.3L17,1.1H0.5l21.1,35.3L0,72.2h16.7l13.7-25.6l13.7,25.6h17.2L39,36.3
			L60.1,1.1z M71.2,106.2h451.6v-4H71.2V106.2z M477.1,12h20v60.2h14.3V12h20.1V1h-54.4V12z M94.3,73.2c8.8,0,16-2.8,21.5-8.5
			s8.3-12.9,8.3-21.6V30.2c0-8.7-2.8-15.9-8.3-21.6S103.1,0,94.3,0S78.4,2.9,73,8.6c-5.5,5.7-8.2,12.9-8.2,21.6V43
			c0,8.7,2.7,15.9,8.2,21.6C78.5,70.3,85.6,73.2,94.3,73.2z M79,30.2c0-5.6,1.3-10.1,4-13.7c2.7-3.5,6.4-5.3,11.3-5.3
			c4.9,0,8.7,1.8,11.4,5.3c2.8,3.6,4.2,8.1,4.2,13.6V43c0,5.6-1.4,10.2-4.1,13.8c-2.7,3.6-6.5,5.3-11.4,5.3c-4.8,0-8.6-1.8-11.3-5.3
			C80.4,53.2,79,48.6,79,43L79,30.2L79,30.2z"/>
	</defs>
	<clipPath id="SVGID_30_">
		<use xlink:href="#SVGID_29_"  style="overflow:visible;"/>
	</clipPath>
	<path class="st15" d="M349.2,65.7c19.2,6.5,37.2,4.5,45.2-5.6c0.6-0.8,7-9.1,4.2-17.2c-2.5-7.1-10.6-9.8-16.3-11.7
		c-13.5-4.5-26.2-2-33.8,0.5"/>
</g>
<g>
	<defs>
		<path id="SVGID_31_" d="M297.3,72.2l4.8-15.3h25l4.8,15.3h14.4L321.9,1.1h-14.6l-24.4,71.1H297.3z M314.5,17.7h0.3l8.8,27.9h-17.9
			L314.5,17.7z M398.7,65.7c4.8-4.3,7.3-9.9,7.3-16.7s-2.4-12.3-7.2-16.6c-4.8-4.3-11.3-6.4-19.5-6.4h-12.2V12h31.4V1h-46.3v71.2h27
			C387.4,72.2,393.9,70,398.7,65.7z M367,37h12.2c4,0,7.1,1.1,9.3,3.4c2.2,2.3,3.2,5.1,3.2,8.4c0,3.4-1.1,6.4-3.2,8.7
			c-2.2,2.4-5.2,3.6-9.3,3.6H367V37z M599.7,1.1v71.1H614V1.1H599.7z M586.1,32.5c-4.8-4.3-11.3-6.4-19.5-6.4h-12.2v-25h-14.3v71.1
			h26.5c8.1,0,14.6-2.1,19.5-6.4s7.3-9.9,7.3-16.7C593.3,42.2,590.9,36.7,586.1,32.5z M575.8,57.6c-2.2,2.4-5.2,3.6-9.3,3.6h-12.2
			V37h12.2c4,0,7.1,1.1,9.3,3.4c2.2,2.3,3.2,5.1,3.2,8.4C579.1,52.3,578,55.2,575.8,57.6z M443,73.2c8.8,0,16-2.8,21.5-8.5
			s8.3-12.9,8.3-21.6V30.2c0-8.7-2.8-15.9-8.3-21.6S451.8,0,443,0s-15.9,2.9-21.3,8.6c-5.5,5.7-8.2,12.9-8.2,21.6V43
			c0,8.7,2.7,15.9,8.2,21.6C427.1,70.3,434.2,73.2,443,73.2z M427.7,30.2c0-5.6,1.3-10.1,4-13.7c2.7-3.5,6.4-5.3,11.3-5.3
			s8.7,1.8,11.4,5.3c2.8,3.6,4.2,8.1,4.2,13.6V43c0,5.6-1.4,10.2-4.1,13.8c-2.7,3.6-6.5,5.3-11.4,5.3c-4.8,0-8.6-1.8-11.3-5.3
			c-2.7-3.6-4.1-8.2-4.1-13.8V30.2z M246.3,46.4h14.1c8.2,0,14.6-2.1,19.3-6.2c4.7-4.1,7-9.6,7-16.4s-2.3-12.3-7-16.5
			S268.6,1,260.4,1h-28.3v71.2h14.3V46.4H246.3z M246.3,12h14.1c4,0,7,1.1,9.1,3.3c2,2.2,3.1,5.1,3.1,8.5s-1,6.1-3.1,8.3
			s-5.1,3.2-9,3.2h-14.1V12H246.3z M141.2,89.6V72.2h43.6v17.5h12.9l1.4-28.5h-8.4V1.1h-46.2l-2,29.1c-0.3,9.1-1.4,16-3.3,20.7
			s-4.1,8.1-6.7,10.3H127l1.1,28.5L141.2,89.6L141.2,89.6z M154.1,48.5c1.4-5,2.2-11.2,2.5-18.3l1.2-18.1h18.5v49.1h-27.8
			C150.9,57.8,152.7,53.5,154.1,48.5z M60.1,1.1H43.5L30.2,26.3L17,1.1H0.5l21.1,35.3L0,72.2h16.7l13.7-25.6l13.7,25.6h17.2L39,36.3
			L60.1,1.1z M71.2,106.2h451.6v-4H71.2V106.2z M477.1,12h20v60.2h14.3V12h20.1V1h-54.4V12z M94.3,73.2c8.8,0,16-2.8,21.5-8.5
			s8.3-12.9,8.3-21.6V30.2c0-8.7-2.8-15.9-8.3-21.6S103.1,0,94.3,0S78.4,2.9,73,8.6c-5.5,5.7-8.2,12.9-8.2,21.6V43
			c0,8.7,2.7,15.9,8.2,21.6C78.5,70.3,85.6,73.2,94.3,73.2z M79,30.2c0-5.6,1.3-10.1,4-13.7c2.7-3.5,6.4-5.3,11.3-5.3
			c4.9,0,8.7,1.8,11.4,5.3c2.8,3.6,4.2,8.1,4.2,13.6V43c0,5.6-1.4,10.2-4.1,13.8c-2.7,3.6-6.5,5.3-11.4,5.3c-4.8,0-8.6-1.8-11.3-5.3
			C80.4,53.2,79,48.6,79,43L79,30.2L79,30.2z"/>
	</defs>
	<clipPath id="SVGID_32_">
		<use xlink:href="#SVGID_31_"  style="overflow:visible;"/>
	</clipPath>
	<path class="st16" d="M466,25.7c-2.4-9.9-13.9-21.7-26.3-19.8c-11.4,1.8-17.2,14.5-18.8,21c-1.3,5.2-0.9,10.7-0.8,13.3
		c0.2,3.7,0.5,8.2,2.3,12.5c2.4,6,9.6,16.3,21.3,16.5c10.3,0.2,18.5-7.7,21.3-14.8c1.3-3.4,1.4-7.7,1.5-16.3
		C466.5,31.6,466.6,28.3,466,25.7z"/>
</g>
<g>
	<defs>
		<path id="SVGID_33_" d="M297.3,72.2l4.8-15.3h25l4.8,15.3h14.4L321.9,1.1h-14.6l-24.4,71.1H297.3z M314.5,17.7h0.3l8.8,27.9h-17.9
			L314.5,17.7z M398.7,65.7c4.8-4.3,7.3-9.9,7.3-16.7s-2.4-12.3-7.2-16.6c-4.8-4.3-11.3-6.4-19.5-6.4h-12.2V12h31.4V1h-46.3v71.2h27
			C387.4,72.2,393.9,70,398.7,65.7z M367,37h12.2c4,0,7.1,1.1,9.3,3.4c2.2,2.3,3.2,5.1,3.2,8.4c0,3.4-1.1,6.4-3.2,8.7
			c-2.2,2.4-5.2,3.6-9.3,3.6H367V37z M599.7,1.1v71.1H614V1.1H599.7z M586.1,32.5c-4.8-4.3-11.3-6.4-19.5-6.4h-12.2v-25h-14.3v71.1
			h26.5c8.1,0,14.6-2.1,19.5-6.4s7.3-9.9,7.3-16.7C593.3,42.2,590.9,36.7,586.1,32.5z M575.8,57.6c-2.2,2.4-5.2,3.6-9.3,3.6h-12.2
			V37h12.2c4,0,7.1,1.1,9.3,3.4c2.2,2.3,3.2,5.1,3.2,8.4C579.1,52.3,578,55.2,575.8,57.6z M443,73.2c8.8,0,16-2.8,21.5-8.5
			s8.3-12.9,8.3-21.6V30.2c0-8.7-2.8-15.9-8.3-21.6S451.8,0,443,0s-15.9,2.9-21.3,8.6c-5.5,5.7-8.2,12.9-8.2,21.6V43
			c0,8.7,2.7,15.9,8.2,21.6C427.1,70.3,434.2,73.2,443,73.2z M427.7,30.2c0-5.6,1.3-10.1,4-13.7c2.7-3.5,6.4-5.3,11.3-5.3
			s8.7,1.8,11.4,5.3c2.8,3.6,4.2,8.1,4.2,13.6V43c0,5.6-1.4,10.2-4.1,13.8c-2.7,3.6-6.5,5.3-11.4,5.3c-4.8,0-8.6-1.8-11.3-5.3
			c-2.7-3.6-4.1-8.2-4.1-13.8V30.2z M246.3,46.4h14.1c8.2,0,14.6-2.1,19.3-6.2c4.7-4.1,7-9.6,7-16.4s-2.3-12.3-7-16.5
			S268.6,1,260.4,1h-28.3v71.2h14.3V46.4H246.3z M246.3,12h14.1c4,0,7,1.1,9.1,3.3c2,2.2,3.1,5.1,3.1,8.5s-1,6.1-3.1,8.3
			s-5.1,3.2-9,3.2h-14.1V12H246.3z M141.2,89.6V72.2h43.6v17.5h12.9l1.4-28.5h-8.4V1.1h-46.2l-2,29.1c-0.3,9.1-1.4,16-3.3,20.7
			s-4.1,8.1-6.7,10.3H127l1.1,28.5L141.2,89.6L141.2,89.6z M154.1,48.5c1.4-5,2.2-11.2,2.5-18.3l1.2-18.1h18.5v49.1h-27.8
			C150.9,57.8,152.7,53.5,154.1,48.5z M60.1,1.1H43.5L30.2,26.3L17,1.1H0.5l21.1,35.3L0,72.2h16.7l13.7-25.6l13.7,25.6h17.2L39,36.3
			L60.1,1.1z M71.2,106.2h451.6v-4H71.2V106.2z M477.1,12h20v60.2h14.3V12h20.1V1h-54.4V12z M94.3,73.2c8.8,0,16-2.8,21.5-8.5
			s8.3-12.9,8.3-21.6V30.2c0-8.7-2.8-15.9-8.3-21.6S103.1,0,94.3,0S78.4,2.9,73,8.6c-5.5,5.7-8.2,12.9-8.2,21.6V43
			c0,8.7,2.7,15.9,8.2,21.6C78.5,70.3,85.6,73.2,94.3,73.2z M79,30.2c0-5.6,1.3-10.1,4-13.7c2.7-3.5,6.4-5.3,11.3-5.3
			c4.9,0,8.7,1.8,11.4,5.3c2.8,3.6,4.2,8.1,4.2,13.6V43c0,5.6-1.4,10.2-4.1,13.8c-2.7,3.6-6.5,5.3-11.4,5.3c-4.8,0-8.6-1.8-11.3-5.3
			C80.4,53.2,79,48.6,79,43L79,30.2L79,30.2z"/>
	</defs>
	<clipPath id="SVGID_34_">
		<use xlink:href="#SVGID_33_"  style="overflow:visible;"/>
	</clipPath>
	<line class="st17" x1="476" y1="5.7" x2="533.5" y2="5.7"/>
</g>
<g>
	<defs>
		<path id="SVGID_35_" d="M297.3,72.2l4.8-15.3h25l4.8,15.3h14.4L321.9,1.1h-14.6l-24.4,71.1H297.3z M314.5,17.7h0.3l8.8,27.9h-17.9
			L314.5,17.7z M398.7,65.7c4.8-4.3,7.3-9.9,7.3-16.7s-2.4-12.3-7.2-16.6c-4.8-4.3-11.3-6.4-19.5-6.4h-12.2V12h31.4V1h-46.3v71.2h27
			C387.4,72.2,393.9,70,398.7,65.7z M367,37h12.2c4,0,7.1,1.1,9.3,3.4c2.2,2.3,3.2,5.1,3.2,8.4c0,3.4-1.1,6.4-3.2,8.7
			c-2.2,2.4-5.2,3.6-9.3,3.6H367V37z M599.7,1.1v71.1H614V1.1H599.7z M586.1,32.5c-4.8-4.3-11.3-6.4-19.5-6.4h-12.2v-25h-14.3v71.1
			h26.5c8.1,0,14.6-2.1,19.5-6.4s7.3-9.9,7.3-16.7C593.3,42.2,590.9,36.7,586.1,32.5z M575.8,57.6c-2.2,2.4-5.2,3.6-9.3,3.6h-12.2
			V37h12.2c4,0,7.1,1.1,9.3,3.4c2.2,2.3,3.2,5.1,3.2,8.4C579.1,52.3,578,55.2,575.8,57.6z M443,73.2c8.8,0,16-2.8,21.5-8.5
			s8.3-12.9,8.3-21.6V30.2c0-8.7-2.8-15.9-8.3-21.6S451.8,0,443,0s-15.9,2.9-21.3,8.6c-5.5,5.7-8.2,12.9-8.2,21.6V43
			c0,8.7,2.7,15.9,8.2,21.6C427.1,70.3,434.2,73.2,443,73.2z M427.7,30.2c0-5.6,1.3-10.1,4-13.7c2.7-3.5,6.4-5.3,11.3-5.3
			s8.7,1.8,11.4,5.3c2.8,3.6,4.2,8.1,4.2,13.6V43c0,5.6-1.4,10.2-4.1,13.8c-2.7,3.6-6.5,5.3-11.4,5.3c-4.8,0-8.6-1.8-11.3-5.3
			c-2.7-3.6-4.1-8.2-4.1-13.8V30.2z M246.3,46.4h14.1c8.2,0,14.6-2.1,19.3-6.2c4.7-4.1,7-9.6,7-16.4s-2.3-12.3-7-16.5
			S268.6,1,260.4,1h-28.3v71.2h14.3V46.4H246.3z M246.3,12h14.1c4,0,7,1.1,9.1,3.3c2,2.2,3.1,5.1,3.1,8.5s-1,6.1-3.1,8.3
			s-5.1,3.2-9,3.2h-14.1V12H246.3z M141.2,89.6V72.2h43.6v17.5h12.9l1.4-28.5h-8.4V1.1h-46.2l-2,29.1c-0.3,9.1-1.4,16-3.3,20.7
			s-4.1,8.1-6.7,10.3H127l1.1,28.5L141.2,89.6L141.2,89.6z M154.1,48.5c1.4-5,2.2-11.2,2.5-18.3l1.2-18.1h18.5v49.1h-27.8
			C150.9,57.8,152.7,53.5,154.1,48.5z M60.1,1.1H43.5L30.2,26.3L17,1.1H0.5l21.1,35.3L0,72.2h16.7l13.7-25.6l13.7,25.6h17.2L39,36.3
			L60.1,1.1z M71.2,106.2h451.6v-4H71.2V106.2z M477.1,12h20v60.2h14.3V12h20.1V1h-54.4V12z M94.3,73.2c8.8,0,16-2.8,21.5-8.5
			s8.3-12.9,8.3-21.6V30.2c0-8.7-2.8-15.9-8.3-21.6S103.1,0,94.3,0S78.4,2.9,73,8.6c-5.5,5.7-8.2,12.9-8.2,21.6V43
			c0,8.7,2.7,15.9,8.2,21.6C78.5,70.3,85.6,73.2,94.3,73.2z M79,30.2c0-5.6,1.3-10.1,4-13.7c2.7-3.5,6.4-5.3,11.3-5.3
			c4.9,0,8.7,1.8,11.4,5.3c2.8,3.6,4.2,8.1,4.2,13.6V43c0,5.6-1.4,10.2-4.1,13.8c-2.7,3.6-6.5,5.3-11.4,5.3c-4.8,0-8.6-1.8-11.3-5.3
			C80.4,53.2,79,48.6,79,43L79,30.2L79,30.2z"/>
	</defs>
	<clipPath id="SVGID_36_">
		<use xlink:href="#SVGID_35_"  style="overflow:visible;"/>
	</clipPath>
	<line class="st18" x1="503" y1="77.7" x2="503" y2="-1.8"/>
</g>
<g>
	<defs>
		<path id="SVGID_37_" d="M297.3,72.2l4.8-15.3h25l4.8,15.3h14.4L321.9,1.1h-14.6l-24.4,71.1H297.3z M314.5,17.7h0.3l8.8,27.9h-17.9
			L314.5,17.7z M398.7,65.7c4.8-4.3,7.3-9.9,7.3-16.7s-2.4-12.3-7.2-16.6c-4.8-4.3-11.3-6.4-19.5-6.4h-12.2V12h31.4V1h-46.3v71.2h27
			C387.4,72.2,393.9,70,398.7,65.7z M367,37h12.2c4,0,7.1,1.1,9.3,3.4c2.2,2.3,3.2,5.1,3.2,8.4c0,3.4-1.1,6.4-3.2,8.7
			c-2.2,2.4-5.2,3.6-9.3,3.6H367V37z M599.7,1.1v71.1H614V1.1H599.7z M586.1,32.5c-4.8-4.3-11.3-6.4-19.5-6.4h-12.2v-25h-14.3v71.1
			h26.5c8.1,0,14.6-2.1,19.5-6.4s7.3-9.9,7.3-16.7C593.3,42.2,590.9,36.7,586.1,32.5z M575.8,57.6c-2.2,2.4-5.2,3.6-9.3,3.6h-12.2
			V37h12.2c4,0,7.1,1.1,9.3,3.4c2.2,2.3,3.2,5.1,3.2,8.4C579.1,52.3,578,55.2,575.8,57.6z M443,73.2c8.8,0,16-2.8,21.5-8.5
			s8.3-12.9,8.3-21.6V30.2c0-8.7-2.8-15.9-8.3-21.6S451.8,0,443,0s-15.9,2.9-21.3,8.6c-5.5,5.7-8.2,12.9-8.2,21.6V43
			c0,8.7,2.7,15.9,8.2,21.6C427.1,70.3,434.2,73.2,443,73.2z M427.7,30.2c0-5.6,1.3-10.1,4-13.7c2.7-3.5,6.4-5.3,11.3-5.3
			s8.7,1.8,11.4,5.3c2.8,3.6,4.2,8.1,4.2,13.6V43c0,5.6-1.4,10.2-4.1,13.8c-2.7,3.6-6.5,5.3-11.4,5.3c-4.8,0-8.6-1.8-11.3-5.3
			c-2.7-3.6-4.1-8.2-4.1-13.8V30.2z M246.3,46.4h14.1c8.2,0,14.6-2.1,19.3-6.2c4.7-4.1,7-9.6,7-16.4s-2.3-12.3-7-16.5
			S268.6,1,260.4,1h-28.3v71.2h14.3V46.4H246.3z M246.3,12h14.1c4,0,7,1.1,9.1,3.3c2,2.2,3.1,5.1,3.1,8.5s-1,6.1-3.1,8.3
			s-5.1,3.2-9,3.2h-14.1V12H246.3z M141.2,89.6V72.2h43.6v17.5h12.9l1.4-28.5h-8.4V1.1h-46.2l-2,29.1c-0.3,9.1-1.4,16-3.3,20.7
			s-4.1,8.1-6.7,10.3H127l1.1,28.5L141.2,89.6L141.2,89.6z M154.1,48.5c1.4-5,2.2-11.2,2.5-18.3l1.2-18.1h18.5v49.1h-27.8
			C150.9,57.8,152.7,53.5,154.1,48.5z M60.1,1.1H43.5L30.2,26.3L17,1.1H0.5l21.1,35.3L0,72.2h16.7l13.7-25.6l13.7,25.6h17.2L39,36.3
			L60.1,1.1z M71.2,106.2h451.6v-4H71.2V106.2z M477.1,12h20v60.2h14.3V12h20.1V1h-54.4V12z M94.3,73.2c8.8,0,16-2.8,21.5-8.5
			s8.3-12.9,8.3-21.6V30.2c0-8.7-2.8-15.9-8.3-21.6S103.1,0,94.3,0S78.4,2.9,73,8.6c-5.5,5.7-8.2,12.9-8.2,21.6V43
			c0,8.7,2.7,15.9,8.2,21.6C78.5,70.3,85.6,73.2,94.3,73.2z M79,30.2c0-5.6,1.3-10.1,4-13.7c2.7-3.5,6.4-5.3,11.3-5.3
			c4.9,0,8.7,1.8,11.4,5.3c2.8,3.6,4.2,8.1,4.2,13.6V43c0,5.6-1.4,10.2-4.1,13.8c-2.7,3.6-6.5,5.3-11.4,5.3c-4.8,0-8.6-1.8-11.3-5.3
			C80.4,53.2,79,48.6,79,43L79,30.2L79,30.2z"/>
	</defs>
	<clipPath id="SVGID_38_">
		<use xlink:href="#SVGID_37_"  style="overflow:visible;"/>
	</clipPath>
	<line class="st19" x1="547.2" y1="-3.8" x2="546.5" y2="73.2"/>
</g>
<g>
	<defs>
		<path id="SVGID_39_" d="M297.3,72.2l4.8-15.3h25l4.8,15.3h14.4L321.9,1.1h-14.6l-24.4,71.1H297.3z M314.5,17.7h0.3l8.8,27.9h-17.9
			L314.5,17.7z M398.7,65.7c4.8-4.3,7.3-9.9,7.3-16.7s-2.4-12.3-7.2-16.6c-4.8-4.3-11.3-6.4-19.5-6.4h-12.2V12h31.4V1h-46.3v71.2h27
			C387.4,72.2,393.9,70,398.7,65.7z M367,37h12.2c4,0,7.1,1.1,9.3,3.4c2.2,2.3,3.2,5.1,3.2,8.4c0,3.4-1.1,6.4-3.2,8.7
			c-2.2,2.4-5.2,3.6-9.3,3.6H367V37z M599.7,1.1v71.1H614V1.1H599.7z M586.1,32.5c-4.8-4.3-11.3-6.4-19.5-6.4h-12.2v-25h-14.3v71.1
			h26.5c8.1,0,14.6-2.1,19.5-6.4s7.3-9.9,7.3-16.7C593.3,42.2,590.9,36.7,586.1,32.5z M575.8,57.6c-2.2,2.4-5.2,3.6-9.3,3.6h-12.2
			V37h12.2c4,0,7.1,1.1,9.3,3.4c2.2,2.3,3.2,5.1,3.2,8.4C579.1,52.3,578,55.2,575.8,57.6z M443,73.2c8.8,0,16-2.8,21.5-8.5
			s8.3-12.9,8.3-21.6V30.2c0-8.7-2.8-15.9-8.3-21.6S451.8,0,443,0s-15.9,2.9-21.3,8.6c-5.5,5.7-8.2,12.9-8.2,21.6V43
			c0,8.7,2.7,15.9,8.2,21.6C427.1,70.3,434.2,73.2,443,73.2z M427.7,30.2c0-5.6,1.3-10.1,4-13.7c2.7-3.5,6.4-5.3,11.3-5.3
			s8.7,1.8,11.4,5.3c2.8,3.6,4.2,8.1,4.2,13.6V43c0,5.6-1.4,10.2-4.1,13.8c-2.7,3.6-6.5,5.3-11.4,5.3c-4.8,0-8.6-1.8-11.3-5.3
			c-2.7-3.6-4.1-8.2-4.1-13.8V30.2z M246.3,46.4h14.1c8.2,0,14.6-2.1,19.3-6.2c4.7-4.1,7-9.6,7-16.4s-2.3-12.3-7-16.5
			S268.6,1,260.4,1h-28.3v71.2h14.3V46.4H246.3z M246.3,12h14.1c4,0,7,1.1,9.1,3.3c2,2.2,3.1,5.1,3.1,8.5s-1,6.1-3.1,8.3
			s-5.1,3.2-9,3.2h-14.1V12H246.3z M141.2,89.6V72.2h43.6v17.5h12.9l1.4-28.5h-8.4V1.1h-46.2l-2,29.1c-0.3,9.1-1.4,16-3.3,20.7
			s-4.1,8.1-6.7,10.3H127l1.1,28.5L141.2,89.6L141.2,89.6z M154.1,48.5c1.4-5,2.2-11.2,2.5-18.3l1.2-18.1h18.5v49.1h-27.8
			C150.9,57.8,152.7,53.5,154.1,48.5z M60.1,1.1H43.5L30.2,26.3L17,1.1H0.5l21.1,35.3L0,72.2h16.7l13.7-25.6l13.7,25.6h17.2L39,36.3
			L60.1,1.1z M71.2,106.2h451.6v-4H71.2V106.2z M477.1,12h20v60.2h14.3V12h20.1V1h-54.4V12z M94.3,73.2c8.8,0,16-2.8,21.5-8.5
			s8.3-12.9,8.3-21.6V30.2c0-8.7-2.8-15.9-8.3-21.6S103.1,0,94.3,0S78.4,2.9,73,8.6c-5.5,5.7-8.2,12.9-8.2,21.6V43
			c0,8.7,2.7,15.9,8.2,21.6C78.5,70.3,85.6,73.2,94.3,73.2z M79,30.2c0-5.6,1.3-10.1,4-13.7c2.7-3.5,6.4-5.3,11.3-5.3
			c4.9,0,8.7,1.8,11.4,5.3c2.8,3.6,4.2,8.1,4.2,13.6V43c0,5.6-1.4,10.2-4.1,13.8c-2.7,3.6-6.5,5.3-11.4,5.3c-4.8,0-8.6-1.8-11.3-5.3
			C80.4,53.2,79,48.6,79,43L79,30.2L79,30.2z"/>
	</defs>
	<clipPath id="SVGID_40_">
		<use xlink:href="#SVGID_39_"  style="overflow:visible;"/>
	</clipPath>
	<line class="st20" x1="606.8" y1="77.7" x2="606.8" y2="-4.3"/>
</g>
<g>
	<defs>
		<path id="SVGID_41_" d="M297.3,72.2l4.8-15.3h25l4.8,15.3h14.4L321.9,1.1h-14.6l-24.4,71.1H297.3z M314.5,17.7h0.3l8.8,27.9h-17.9
			L314.5,17.7z M398.7,65.7c4.8-4.3,7.3-9.9,7.3-16.7s-2.4-12.3-7.2-16.6c-4.8-4.3-11.3-6.4-19.5-6.4h-12.2V12h31.4V1h-46.3v71.2h27
			C387.4,72.2,393.9,70,398.7,65.7z M367,37h12.2c4,0,7.1,1.1,9.3,3.4c2.2,2.3,3.2,5.1,3.2,8.4c0,3.4-1.1,6.4-3.2,8.7
			c-2.2,2.4-5.2,3.6-9.3,3.6H367V37z M599.7,1.1v71.1H614V1.1H599.7z M586.1,32.5c-4.8-4.3-11.3-6.4-19.5-6.4h-12.2v-25h-14.3v71.1
			h26.5c8.1,0,14.6-2.1,19.5-6.4s7.3-9.9,7.3-16.7C593.3,42.2,590.9,36.7,586.1,32.5z M575.8,57.6c-2.2,2.4-5.2,3.6-9.3,3.6h-12.2
			V37h12.2c4,0,7.1,1.1,9.3,3.4c2.2,2.3,3.2,5.1,3.2,8.4C579.1,52.3,578,55.2,575.8,57.6z M443,73.2c8.8,0,16-2.8,21.5-8.5
			s8.3-12.9,8.3-21.6V30.2c0-8.7-2.8-15.9-8.3-21.6S451.8,0,443,0s-15.9,2.9-21.3,8.6c-5.5,5.7-8.2,12.9-8.2,21.6V43
			c0,8.7,2.7,15.9,8.2,21.6C427.1,70.3,434.2,73.2,443,73.2z M427.7,30.2c0-5.6,1.3-10.1,4-13.7c2.7-3.5,6.4-5.3,11.3-5.3
			s8.7,1.8,11.4,5.3c2.8,3.6,4.2,8.1,4.2,13.6V43c0,5.6-1.4,10.2-4.1,13.8c-2.7,3.6-6.5,5.3-11.4,5.3c-4.8,0-8.6-1.8-11.3-5.3
			c-2.7-3.6-4.1-8.2-4.1-13.8V30.2z M246.3,46.4h14.1c8.2,0,14.6-2.1,19.3-6.2c4.7-4.1,7-9.6,7-16.4s-2.3-12.3-7-16.5
			S268.6,1,260.4,1h-28.3v71.2h14.3V46.4H246.3z M246.3,12h14.1c4,0,7,1.1,9.1,3.3c2,2.2,3.1,5.1,3.1,8.5s-1,6.1-3.1,8.3
			s-5.1,3.2-9,3.2h-14.1V12H246.3z M141.2,89.6V72.2h43.6v17.5h12.9l1.4-28.5h-8.4V1.1h-46.2l-2,29.1c-0.3,9.1-1.4,16-3.3,20.7
			s-4.1,8.1-6.7,10.3H127l1.1,28.5L141.2,89.6L141.2,89.6z M154.1,48.5c1.4-5,2.2-11.2,2.5-18.3l1.2-18.1h18.5v49.1h-27.8
			C150.9,57.8,152.7,53.5,154.1,48.5z M60.1,1.1H43.5L30.2,26.3L17,1.1H0.5l21.1,35.3L0,72.2h16.7l13.7-25.6l13.7,25.6h17.2L39,36.3
			L60.1,1.1z M71.2,106.2h451.6v-4H71.2V106.2z M477.1,12h20v60.2h14.3V12h20.1V1h-54.4V12z M94.3,73.2c8.8,0,16-2.8,21.5-8.5
			s8.3-12.9,8.3-21.6V30.2c0-8.7-2.8-15.9-8.3-21.6S103.1,0,94.3,0S78.4,2.9,73,8.6c-5.5,5.7-8.2,12.9-8.2,21.6V43
			c0,8.7,2.7,15.9,8.2,21.6C78.5,70.3,85.6,73.2,94.3,73.2z M79,30.2c0-5.6,1.3-10.1,4-13.7c2.7-3.5,6.4-5.3,11.3-5.3
			c4.9,0,8.7,1.8,11.4,5.3c2.8,3.6,4.2,8.1,4.2,13.6V43c0,5.6-1.4,10.2-4.1,13.8c-2.7,3.6-6.5,5.3-11.4,5.3c-4.8,0-8.6-1.8-11.3-5.3
			C80.4,53.2,79,48.6,79,43L79,30.2L79,30.2z"/>
	</defs>
	<clipPath id="SVGID_42_">
		<use xlink:href="#SVGID_41_"  style="overflow:visible;"/>
	</clipPath>
	<path class="st21" d="M537.9,66.7c5.9,1.9,17.2,4.4,29.8,0.3c4.8-1.6,18.6-6.1,19.7-15.4c1.1-9.3-11.3-17-12.8-17.9
		c-16-10-35.3-2.1-38.9-0.5"/>
</g>
</svg>
