<?xml version="1.0" encoding="utf-8"?>
<!-- Generator: Adobe Illustrator 21.1.0, SVG Export Plug-In . SVG Version: 6.00 Build 0)  -->
<svg version="1.1" id="Layer_1" xmlns="http://www.w3.org/2000/svg" xmlns:xlink="http://www.w3.org/1999/xlink" x="0px" y="0px"
	 viewBox="0 0 24 24" style="enable-background:new 0 0 24 24;" xml:space="preserve">
<style type="text/css">
	.st0{fill:#FFFFFF;}
</style>
<g>
	<g>
		<g>
			<g>
				<path class="st0" d="M3.4,21.3c-1.5,0-2.6-1.2-2.6-2.7V9.4c0-1.5,1.2-2.6,2.6-2.6c0.9,0,1.6-0.4,2-1.2l0.6-1.4
					c0.4-0.9,1.4-1.5,2.4-1.5h7c1,0,2,0.6,2.4,1.5l0.6,1.3c0.5,0.8,1.2,1.2,2,1.2c1.6,0,2.8,1.1,2.8,2.6v9.1c0,1.6-1.1,2.8-2.7,2.8
					H3.4z M8.5,3.3C7.7,3.3,7,3.7,6.6,4.4L5.9,5.8C5.5,6.7,4.5,7.3,3.5,7.3c-1.3,0-2.3,0.9-2.3,2.1v9.1c0,1.3,0.9,2.3,2.1,2.3h17.1
					c1.2,0,2.2-0.9,2.2-2.2V9.4c0.1-0.5-0.1-1-0.5-1.5c-0.4-0.4-1-0.7-1.6-0.7c-1.1,0-2-0.5-2.4-1.5l-0.6-1.3l-0.1-0.2
					c-0.6-0.7-1.3-1.1-2-1.1H8.5z"/>
				<path d="M15.5,2h-7C7.2,2,6,2.7,5.4,3.9L4.8,5.2C4.5,5.7,4,6,3.4,6C1.5,6,0,7.5,0,9.4v9.2C0,20.5,1.5,22,3.4,22h17.2
					c1.9,0,3.4-1.5,3.4-3.5V9.4C24,7.5,22.5,6,20.5,6c-0.5,0-1-0.3-1.3-0.8l-0.6-1.3C18,2.7,16.8,2,15.5,2L15.5,2z M3.4,20
					C2.6,20,2,19.4,2,18.5V9.4C2,8.6,2.6,8,3.5,8C4.8,8,6,7.3,6.6,6.1l0.6-1.3C7.5,4.3,8,4,8.5,4h7c0.5,0,1,0.3,1.4,0.8l0.6,1.3
					C18.1,7.3,19.2,8,20.6,8c0.8,0,1.4,0.6,1.3,1.4v9.2c0,0.8-0.6,1.4-1.4,1.4H3.4L3.4,20z"/>
			</g>
		</g>
	</g>
	<g>
		<g>
			<g>
				<path class="st0" d="M12,17.3c-2.4,0-4.3-1.9-4.3-4.3c0-2.4,1.9-4.3,4.3-4.3c2.4,0,4.3,1.9,4.3,4.3C16.3,15.4,14.4,17.3,12,17.3
					z M12,9.3c-2.1,0-3.8,1.6-3.8,3.8c0,2.1,1.6,3.8,3.8,3.8c2.1,0,3.8-1.6,3.8-3.8C15.8,10.9,14.1,9.3,12,9.3z"/>
				<path d="M12,8c-2.8,0-5,2.2-5,5s2.2,5,5,5s5-2.2,5-5S14.8,8,12,8L12,8z M12,16c-1.7,0-3-1.3-3-3s1.3-3,3-3s3,1.3,3,3
					S13.7,16,12,16L12,16z"/>
			</g>
		</g>
	</g>
</g>
</svg>
