<?xml version="1.0" encoding="utf-8"?>
<!-- Generator: Adobe Illustrator 21.1.0, SVG Export Plug-In . SVG Version: 6.00 Build 0)  -->
<svg version="1.1" id="Layer_1" xmlns="http://www.w3.org/2000/svg" xmlns:xlink="http://www.w3.org/1999/xlink" x="0px" y="0px"
	 viewBox="0 0 24 24" style="enable-background:new 0 0 24 24;" xml:space="preserve">
<style type="text/css">
	.st0{fill:#FFFFFF;}
</style>
<g>
	<g>
		<g>
			<path class="st0" d="M23,24H1c-0.6,0-1-0.4-1-1V1c0-0.6,0.4-1,1-1h22c0.6,0,1,0.4,1,1v22C24,23.6,23.6,24,23,24z M2,22h20V2H2V22
				z"/>
		</g>
	</g>
	<g>
		<g>
			<path class="st0" d="M23,19H1c-0.6,0-1-0.4-1-1s0.4-1,1-1h22c0.6,0,1,0.4,1,1S23.6,19,23,19z"/>
		</g>
	</g>
	<g>
		<g>
			<path class="st0" d="M1,17c-0.3,0-0.5-0.1-0.7-0.3c-0.4-0.4-0.4-1,0-1.4l6-6c0.4-0.4,1-0.4,1.4,0s0.4,1,0,1.4l-6,6
				C1.5,16.9,1.3,17,1,17z"/>
		</g>
	</g>
	<g>
		<g>
			<path class="st0" d="M11,15c-0.3,0-0.5-0.1-0.7-0.3l-4-4c-0.4-0.4-0.4-1,0-1.4s1-0.4,1.4,0l4,4c0.4,0.4,0.4,1,0,1.4
				C11.5,14.9,11.3,15,11,15z"/>
		</g>
	</g>
	<g>
		<g>
			<path class="st0" d="M9,13c-0.3,0-0.5-0.1-0.7-0.3c-0.4-0.4-0.4-1,0-1.4l5-5c0.4-0.4,1-0.4,1.4,0s0.4,1,0,1.4l-5,5
				C9.5,12.9,9.3,13,9,13z"/>
		</g>
	</g>
	<g>
		<g>
			<path class="st0" d="M22.5,16.5c-0.3,0-0.5-0.1-0.7-0.3l-8.5-8.5c-0.4-0.4-0.4-1,0-1.4s1-0.4,1.4,0l8.5,8.5c0.4,0.4,0.4,1,0,1.4
				C23,16.4,22.8,16.5,22.5,16.5z"/>
		</g>
	</g>
	<g>
		<g>
			<path class="st0" d="M3,7C2,7,1.1,6.6,0.3,6c-0.4-0.4-0.4-1-0.1-1.4c0.4-0.4,1-0.4,1.4-0.1S2.5,5,3,5c1.1,0,2-0.9,2-2
				c0-0.5-0.2-1-0.5-1.3c-0.4-0.4-0.3-1,0.1-1.4s1-0.4,1.4,0C6.6,1.1,7,2,7,3C7,5.2,5.2,7,3,7z"/>
		</g>
	</g>
</g>
</svg>
