<?xml version="1.0" encoding="utf-8"?>
<!-- Generator: Adobe Illustrator 21.1.0, SVG Export Plug-In . SVG Version: 6.00 Build 0)  -->
<svg version="1.1" id="Layer_1" xmlns="http://www.w3.org/2000/svg" xmlns:xlink="http://www.w3.org/1999/xlink" x="0px" y="0px"
	 viewBox="0 0 48 48" style="enable-background:new 0 0 48 48;" xml:space="preserve">
<style type="text/css">
	.st0{fill:#FFFFFF;}
</style>
<path class="st0" d="M43,41H5c-2.2,0-4-1.8-4-4V15c0-2.2,1.8-4,4-4h1l0,0c0-1.1,0.9-2,2-2h2c1.1,0,2,0.9,2,2h2c0,0,1.1-0.1,2-1l2-2
	c0,0,0.8-1,2-1h8c1.3,0,2,1,2,1l2,2c0.9,0.9,2,1,2,1h9c2.2,0,4,1.8,4,4v22C47,39.2,45.2,41,43,41z M45,15c0-1.1-0.9-2-2-2l-9.2,0
	c-0.3,0-1.9-0.3-3.2-1.6l-2.1-2.1l-0.1-0.2c0,0-0.2-0.1-0.4-0.1h-8c-0.2,0-0.4,0.2-0.4,0.2l-0.1,0.1l-2.1,2.1
	c-1.3,1.3-2.9,1.5-3.2,1.6l-4.2,0c0,0,0,0-0.1,0H8c0,0,0,0,0,0l-3,0c-1.1,0-2,0.9-2,2v22c0,1.1,0.9,2,2,2h38c1.1,0,2-0.9,2-2V15z
	 M24,37c-6.1,0-11-4.9-11-11s4.9-11,11-11s11,4.9,11,11S30.1,37,24,37z M24,17c-5,0-9,4-9,9s4,9,9,9s9-4,9-9S29,17,24,17z M24,31
	c-2.8,0-5-2.2-5-5s2.2-5,5-5s5,2.2,5,5S26.8,31,24,31z M24,23c-1.7,0-3,1.3-3,3c0,1.7,1.3,3,3,3c1.7,0,3-1.3,3-3
	C27,24.3,25.7,23,24,23z M10,19H6c-0.6,0-1-0.4-1-1v-2c0-0.6,0.4-1,1-1h4c0.6,0,1,0.4,1,1v2C11,18.6,10.6,19,10,19z"/>
</svg>
