<?xml version="1.0" encoding="utf-8"?>
<!-- Generator: Adobe Illustrator 21.1.0, SVG Export Plug-In . SVG Version: 6.00 Build 0)  -->
<svg version="1.1" id="Layer_1" xmlns="http://www.w3.org/2000/svg" xmlns:xlink="http://www.w3.org/1999/xlink" x="0px" y="0px"
	 viewBox="0 0 24 24" style="enable-background:new 0 0 24 24;" xml:space="preserve">
<style type="text/css">
	.st0{fill:#FFFFFF;}
</style>
<g>
	<g>
		<g>
			<path class="st0" d="M10,18c-0.6,0-1-0.4-1-1c0-0.3-0.1-0.5-0.1-0.7c-0.2-0.5-0.6-0.9-1.1-1.1C6.4,14.6,5,15.6,5,17
				c0,0.6-0.4,1-1,1s-1-0.4-1-1c0-2.2,1.8-4,4-4c0.5,0,1,0.1,1.5,0.3c1,0.4,1.8,1.2,2.2,2.2c0.2,0.4,0.3,1,0.3,1.5
				C11,17.6,10.5,18,10,18z"/>
		</g>
	</g>
	<g>
		<g>
			<path class="st0" d="M1,24c-0.6,0-1-0.4-1-1s0.4-1,1-1c4.3,0,8-2.3,8-5c0-0.6,0.4-1,1-1s1,0.4,1,1C11,20.9,6.5,24,1,24z"/>
		</g>
	</g>
	<g>
		<g>
			<path class="st0" d="M1,24c-0.6,0-1-0.4-1-1s0.4-1,1-1c0.8,0,2-1.9,2-5c0-0.6,0.4-1,1-1s1,0.4,1,1C5,21,3.3,24,1,24z"/>
		</g>
	</g>
	<g>
		<g>
			<path class="st0" d="M9.8,16.9c-0.1,0-0.2,0-0.2,0c-0.3-0.1-0.6-0.3-0.7-0.6c-0.2-0.5-0.6-0.9-1.1-1.1c-0.3-0.1-0.5-0.4-0.6-0.7
				s0-0.7,0.2-0.9L18.6,1c1.3-1.3,3.3-1.2,4.4,0c0.7,0.5,1,1.3,1,2.1s-0.3,1.6-0.9,2.2L10.4,16.6C10.2,16.8,10,16.9,9.8,16.9z
				 M9.7,14c0.1,0.1,0.2,0.2,0.3,0.3L21.7,3.9C21.9,3.7,22,3.4,22,3.1s-0.1-0.6-0.3-0.8c-0.5-0.5-1.2-0.5-1.6,0L9.7,14z"/>
		</g>
	</g>
</g>
</svg>
