<?xml version="1.0" encoding="utf-8"?>
<!-- Generator: Adobe Illustrator 21.1.0, SVG Export Plug-In . SVG Version: 6.00 Build 0)  -->
<svg version="1.1" id="Layer_1" xmlns="http://www.w3.org/2000/svg" xmlns:xlink="http://www.w3.org/1999/xlink" x="0px" y="0px"
	 viewBox="0 0 24 24" style="enable-background:new 0 0 24 24;" xml:space="preserve">
<style type="text/css">
	.st0{fill:#FFFFFF;}
</style>
<g>
	<g>
		<g>
			<path class="st0" d="M20.6,22H3.4C1.5,22,0,20.5,0,18.6V9.4C0,7.5,1.5,6,3.4,6C4,6,4.5,5.7,4.8,5.2l0.6-1.3C6,2.7,7.2,2,8.5,2h7
				c1.3,0,2.5,0.7,3.1,1.9l0.6,1.3C19.5,5.7,20,6,20.5,6c2,0,3.5,1.5,3.5,3.4v9.1C24,20.5,22.5,22,20.6,22z M8.5,4
				C8,4,7.5,4.3,7.2,4.8L6.6,6.1C6,7.3,4.8,8,3.5,8C2.6,8,2,8.6,2,9.4v9.1C2,19.4,2.6,20,3.4,20h17.1c0.8,0,1.4-0.6,1.4-1.4V9.4
				C22,8.6,21.4,8,20.6,8c-1.4,0-2.5-0.7-3.1-1.9l-0.6-1.3C16.5,4.3,16,4,15.5,4H8.5z"/>
		</g>
	</g>
	<g>
		<g>
			<path class="st0" d="M12,18c-2.8,0-5-2.2-5-5s2.2-5,5-5s5,2.2,5,5S14.8,18,12,18z M12,10c-1.7,0-3,1.3-3,3s1.3,3,3,3s3-1.3,3-3
				S13.7,10,12,10z"/>
		</g>
	</g>
</g>
</svg>
