<?xml version="1.0" encoding="utf-8"?>
<!-- Generator: Adobe Illustrator 21.1.0, SVG Export Plug-In . SVG Version: 6.00 Build 0)  -->
<svg version="1.1" id="Layer_1" xmlns="http://www.w3.org/2000/svg" xmlns:xlink="http://www.w3.org/1999/xlink" x="0px" y="0px"
	 viewBox="0 0 24 24" style="enable-background:new 0 0 24 24;" xml:space="preserve">
<style type="text/css">
	.st0{fill:#FFFFFF;}
</style>
<g>
	<g>
		<g>
			<path class="st0" d="M4,22c-0.6,0-1-0.4-1-1V3c0-0.6,0.4-1,1-1s1,0.4,1,1v18C5,21.6,4.6,22,4,22z"/>
		</g>
	</g>
	<g>
		<g>
			<path class="st0" d="M20,22c-0.6,0-1-0.4-1-1V3c0-0.6,0.4-1,1-1s1,0.4,1,1v18C21,21.6,20.6,22,20,22z"/>
		</g>
	</g>
	<g>
		<g>
			<path class="st0" d="M23,7H1C0.4,7,0,6.6,0,6s0.4-1,1-1h22c0.6,0,1,0.4,1,1S23.6,7,23,7z"/>
		</g>
	</g>
	<g>
		<g>
			<path class="st0" d="M23,19H1c-0.6,0-1-0.4-1-1s0.4-1,1-1h22c0.6,0,1,0.4,1,1S23.6,19,23,19z"/>
		</g>
	</g>
</g>
</svg>
