<?xml version="1.0" encoding="utf-8"?>
<!-- Generator: Adobe Illustrator 21.1.0, SVG Export Plug-In . SVG Version: 6.00 Build 0)  -->
<svg version="1.1" id="Layer_1" xmlns="http://www.w3.org/2000/svg" xmlns:xlink="http://www.w3.org/1999/xlink" x="0px" y="0px"
	 viewBox="0 0 24 24" style="enable-background:new 0 0 24 24;" xml:space="preserve">
<style type="text/css">
	.st0{fill:#FFFFFF;}
</style>
<g>
	<g>
		<g>
			<path class="st0" d="M17,24c-0.2,0-0.4-0.1-0.6-0.2C16.2,23.6,16,23.3,16,23V3c0-0.4,0.2-0.8,0.6-0.9l5-2C21.9,0,22.3,0,22.5,0.2
				C22.8,0.4,23,0.7,23,1v20c0,0.4-0.2,0.8-0.6,0.9l-5,2C17.3,24,17.1,24,17,24z M18,3.7v17.8l3-1.2V2.5L18,3.7z"/>
		</g>
	</g>
	<g>
		<g>
			<path class="st0" d="M7,24c-0.2,0-0.4-0.1-0.6-0.2C6.2,23.6,6,23.3,6,23V3c0-0.4,0.2-0.8,0.6-0.9l5-2C11.9,0,12.3,0,12.5,0.2
				S13,0.7,13,1v20c0,0.4-0.2,0.8-0.6,0.9l-5,2C7.3,24,7.1,24,7,24z M8,3.7v17.8l3-1.2V2.5L8,3.7z"/>
		</g>
	</g>
	<g>
		<g>
			<path class="st0" d="M17,24c-0.1,0-0.3,0-0.4-0.1l-5-2C11.2,21.8,11,21.4,11,21V1c0-0.3,0.2-0.6,0.4-0.8S12,0,12.3,0.1l5,2
				C17.8,2.2,18,2.6,18,3v20c0,0.3-0.2,0.6-0.4,0.8C17.4,23.9,17.2,24,17,24z M13,20.3l3,1.2V3.7l-3-1.2V20.3z"/>
		</g>
	</g>
	<g>
		<g>
			<path class="st0" d="M7,24c-0.1,0-0.3,0-0.4-0.1l-5-2C1.2,21.8,1,21.4,1,21V1c0-0.3,0.2-0.6,0.4-0.8c0.3-0.2,0.7-0.3,1-0.1l5,2
				C7.8,2.2,8,2.6,8,3v20c0,0.3-0.2,0.6-0.4,0.8C7.4,23.9,7.2,24,7,24z M3,20.3l3,1.2V3.7L3,2.5V20.3z"/>
		</g>
	</g>
</g>
</svg>
