<?xml version="1.0" encoding="utf-8"?>
<!-- Generator: Adobe Illustrator 21.1.0, SVG Export Plug-In . SVG Version: 6.00 Build 0)  -->
<svg version="1.1" id="Layer_1" xmlns="http://www.w3.org/2000/svg" xmlns:xlink="http://www.w3.org/1999/xlink" x="0px" y="0px"
	 viewBox="0 0 24 24" style="enable-background:new 0 0 24 24;" xml:space="preserve">
<style type="text/css">
	.st0{fill:#FFFFFF;}
</style>
<g>
	<g>
		<g>
			<path class="st0" d="M20,22H4c-2.2,0-4-1.8-4-4V3c0-0.6,0.4-1,1-1h19c0.6,0,1,0.4,1,1v14c0,0.6-0.4,1-1,1s-1-0.4-1-1V4H2v14
				c0,1.1,0.9,2,2,2h16c0.6,0,1,0.4,1,1S20.6,22,20,22z"/>
		</g>
	</g>
	<g>
		<g>
			<path class="st0" d="M12,4c-0.6,0-1-0.4-1-1s0.4-1,1-1l0,0c0.6,0,1,0.4,1,1S12.6,4,12,4z"/>
		</g>
	</g>
	<g>
		<g>
			<path class="st0" d="M20,22h-5c-0.6,0-1-0.4-1-1s0.4-1,1-1h5c1.1,0,2-0.9,2-2V6h-2c-0.6,0-1-0.4-1-1s0.4-1,1-1h3c0.6,0,1,0.4,1,1
				v13C24,20.2,22.2,22,20,22z"/>
		</g>
	</g>
	<g>
		<g>
			<path class="st0" d="M10,14H5c-0.6,0-1-0.4-1-1V7c0-0.6,0.4-1,1-1h5c0.6,0,1,0.4,1,1v6C11,13.6,10.6,14,10,14z M6,12h3V8H6V12z"
				/>
		</g>
	</g>
	<g>
		<g>
			<path class="st0" d="M16,8h-3c-0.6,0-1-0.4-1-1s0.4-1,1-1h3c0.6,0,1,0.4,1,1S16.6,8,16,8z"/>
		</g>
	</g>
	<g>
		<g>
			<path class="st0" d="M16,11h-3c-0.6,0-1-0.4-1-1s0.4-1,1-1h3c0.6,0,1,0.4,1,1S16.6,11,16,11z"/>
		</g>
	</g>
	<g>
		<g>
			<path class="st0" d="M16,14h-3c-0.6,0-1-0.4-1-1s0.4-1,1-1h3c0.6,0,1,0.4,1,1S16.6,14,16,14z"/>
		</g>
	</g>
	<g>
		<g>
			<path class="st0" d="M16,18H5c-0.6,0-1-0.4-1-1s0.4-1,1-1h11c0.6,0,1,0.4,1,1S16.6,18,16,18z"/>
		</g>
	</g>
</g>
</svg>
