<?xml version="1.0" encoding="utf-8"?>
<!-- Generator: Adobe Illustrator 21.1.0, SVG Export Plug-In . SVG Version: 6.00 Build 0)  -->
<svg version="1.1" id="Layer_1" xmlns="http://www.w3.org/2000/svg" xmlns:xlink="http://www.w3.org/1999/xlink" x="0px" y="0px"
	 viewBox="0 0 24 24" style="enable-background:new 0 0 24 24;" xml:space="preserve">
<style type="text/css">
	.st0{fill:#FFFFFF;}
</style>
<g>
	<g>
		<g>
			<path class="st0" d="M8,17H1c-0.6,0-1-0.4-1-1V1c0-0.6,0.4-1,1-1h15c0.6,0,1,0.4,1,1v7c0,0.6-0.4,1-1,1s-1-0.4-1-1V2H2v13h6
				c0.6,0,1,0.4,1,1S8.6,17,8,17z"/>
		</g>
	</g>
	<g>
		<g>
			<path class="st0" d="M23,24H8c-0.6,0-1-0.4-1-1V8c0-0.6,0.4-1,1-1h15c0.6,0,1,0.4,1,1v15C24,23.6,23.6,24,23,24z M9,22h13V9H9V22
				z"/>
		</g>
	</g>
</g>
</svg>
