<?xml version="1.0" encoding="utf-8"?>
<!-- Generator: Adobe Illustrator 21.1.0, SVG Export Plug-In . SVG Version: 6.00 Build 0)  -->
<svg version="1.1" id="Layer_1" xmlns="http://www.w3.org/2000/svg" xmlns:xlink="http://www.w3.org/1999/xlink" x="0px" y="0px"
	 viewBox="0 0 24 24" style="enable-background:new 0 0 24 24;" xml:space="preserve">
<style type="text/css">
	.st0{fill:#FFFFFF;}
</style>
<g>
	<g>
		<g>
			<path class="st0" d="M12,20c-0.4,0-0.7-0.2-0.9-0.5l-5.2-9.1C4.1,7.2,5.1,3.1,8.3,1.2c2.4-1.5,5.2-1.4,7.4-0.1
				c3.2,2,4.3,6.1,2.4,9.3l-5.2,9.1C12.7,19.8,12.4,20,12,20z M12,2.1c-0.9,0-1.8,0.3-2.6,0.7c-2.3,1.4-3,4.3-1.7,6.6L12,17l4.3-7.6
				c1.3-2.3,0.6-5.2-1.7-6.6C13.8,2.3,12.9,2.1,12,2.1z"/>
		</g>
	</g>
	<g>
		<g>
			<path class="st0" d="M12,10c-1.7,0-3-1.3-3-3s1.3-3,3-3s3,1.3,3,3S13.7,10,12,10z M12,6c-0.6,0-1,0.4-1,1s0.4,1,1,1s1-0.4,1-1
				S12.6,6,12,6z"/>
		</g>
	</g>
	<g>
		<g>
			<path class="st0" d="M12,24c-4,0-8-1.4-8-4c0-2.1,2.7-3.7,6.8-4l0.1,2C7.7,18.3,6,19.4,6,20c0,0.7,2.3,2,6,2s6-1.3,6-2
				c0-0.6-1.7-1.7-4.9-2l0.1-2c4.1,0.3,6.8,1.9,6.8,4C20,22.6,16,24,12,24z"/>
		</g>
	</g>
</g>
</svg>
