<?xml version="1.0" encoding="utf-8"?>
<!-- Generator: Adobe Illustrator 21.1.0, SVG Export Plug-In . SVG Version: 6.00 Build 0)  -->
<svg version="1.1" id="Layer_1" xmlns="http://www.w3.org/2000/svg" xmlns:xlink="http://www.w3.org/1999/xlink" x="0px" y="0px"
	 viewBox="0 0 24 24" style="enable-background:new 0 0 24 24;" xml:space="preserve">
<style type="text/css">
	.st0{fill:#FFFFFF;}
</style>
<g>
	<g>
		<g>
			<path class="st0" d="M20,20h-1c-0.6,0-1-0.4-1-1s0.4-1,1-1h1c1.1,0,2-0.9,2-2V8c0-1.1-0.9-2-2-2H4C2.9,6,2,6.9,2,8v8
				c0,1.1,0.9,2,2,2h1c0.6,0,1,0.4,1,1s-0.4,1-1,1H4c-2.2,0-4-1.8-4-4V8c0-2.2,1.8-4,4-4h16c2.2,0,4,1.8,4,4v8
				C24,18.2,22.2,20,20,20z"/>
		</g>
	</g>
	<g>
		<g>
			<path class="st0" d="M19,24H5c-0.6,0-1-0.4-1-1v-8c0-0.6,0.4-1,1-1h14c0.6,0,1,0.4,1,1v8C20,23.6,19.6,24,19,24z M6,22h12v-6H6
				V22z"/>
		</g>
	</g>
	<g>
		<g>
			<path class="st0" d="M19,6H5C4.4,6,4,5.6,4,5V1c0-0.6,0.4-1,1-1h14c0.6,0,1,0.4,1,1v4C20,5.6,19.6,6,19,6z M6,4h12V2H6V4z"/>
		</g>
	</g>
	<g>
		<g>
			<circle class="st0" cx="18" cy="10" r="2"/>
		</g>
	</g>
	<g>
		<g>
			<path class="st0" d="M23,11H1c-0.6,0-1-0.4-1-1s0.4-1,1-1h22c0.6,0,1,0.4,1,1S23.6,11,23,11z"/>
		</g>
	</g>
</g>
</svg>
