<?xml version="1.0" encoding="UTF-8"?>
<!DOCTYPE svg PUBLIC "-//W3C//DTD SVG 1.1//EN" "http://www.w3.org/Graphics/SVG/1.1/DTD/svg11.dtd">
<!-- Creator: CorelDRAW X6 -->
<svg xmlns="http://www.w3.org/2000/svg" xml:space="preserve" width="1000px" height="1065px" version="1.1" style="shape-rendering:geometricPrecision; text-rendering:geometricPrecision; image-rendering:optimizeQuality; fill-rule:evenodd; clip-rule:evenodd"
viewBox="0 0 1000 1064"
 xmlns:xlink="http://www.w3.org/1999/xlink">
 <defs>
  <style type="text/css">
   <![CDATA[
    .fil0 {fill:#FEFEFE;fill-rule:nonzero}
   ]]>
  </style>
 </defs>
 <g id="Layer_x0020_1">
  <metadata id="CorelCorpID_0Corel-Layer"/>
  <path class="fil0" d="M566 232l137 237c64,-26 125,-58 182,-96 -98,-65 -206,-113 -319,-141zm157 272l24 41c37,-30 71,-65 101,-102 -40,23 -82,43 -125,61zm44 77l231 400 -3 8 0 0c-9,25 -19,49 -31,72l-45 0c13,-25 25,-50 35,-77l-219 -379c-125,90 -273,138 -427,138l0 0c-107,0 -211,-23 -306,-67l0 -18 0 0 0 -27c94,47 199,72 306,72l0 0c147,0 288,-46 407,-133l-30 -51c-121,45 -248,67 -377,67l0 0c-104,0 -207,-14 -306,-43l0 -43c99,31 202,46 306,46l0 0c122,0 242,-21 357,-62l-118 -204c-17,118 -119,206 -239,206l0 0 0 0 0 0c-120,0 -222,-88 -239,-206l-67 116 0 -15 0 0 0 -66 48 -83c-16,4 -32,8 -48,13l0 -42c99,-29 202,-44 306,-44l0 0c190,0 375,49 540,144 -132,-165 -329,-260 -540,-260l0 0c-106,0 -211,24 -306,71l0 -44c96,-45 200,-67 306,-67l0 0c259,0 498,136 630,360l6 10 -6 10 0 0c-44,76 -102,143 -171,198zm-508 -380c-51,2 -102,8 -151,18 -1,8 -1,17 -1,25l0 0 0 0 0 0c0,111 90,202 201,202l0 0 0 0 0 0c111,0 201,-91 201,-202l0 0c0,-8 0,-17 -1,-25 -50,-10 -100,-16 -151,-18 10,11 16,27 16,43l0 0 0 0 0 0c0,18 -7,35 -19,47l0 0c-12,11 -28,19 -46,19l0 0 0 0 0 0c-36,0 -65,-29 -65,-66l-1 0 0 0 1 0c0,-16 6,-32 16,-43zm24 43l0 0 0 0 0 0c0,14 11,26 25,26l0 -1 0 0 0 1c7,0 13,-3 18,-8l0 0c4,-4 7,-11 7,-18l0 0 0 0 0 0c0,-13 -11,-25 -25,-25l0 0 0 0 0 0c-14,0 -25,12 -25,25z"/>
 </g>
</svg>
